<mxfile host="65bd71144e">
    <diagram id="HmbJ7Gu3OdT_uk9Z_2Mw" name="Page-1">
        <mxGraphModel dx="742" dy="365" grid="1" gridSize="10" guides="1" tooltips="1" connect="1" arrows="1" fold="1" page="1" pageScale="1" pageWidth="850" pageHeight="1100" math="0" shadow="0">
            <root>
                <mxCell id="0"/>
                <mxCell id="1" parent="0"/>
                <mxCell id="52" style="edgeStyle=none;html=1;" edge="1" parent="1" source="48" target="51">
                    <mxGeometry relative="1" as="geometry"/>
                </mxCell>
                <mxCell id="48" value="" style="rounded=1;whiteSpace=wrap;html=1;arcSize=13;" vertex="1" parent="1">
                    <mxGeometry x="120" y="200" width="170" height="60" as="geometry"/>
                </mxCell>
                <mxCell id="45" style="edgeStyle=none;html=1;entryX=0;entryY=0.25;entryDx=0;entryDy=0;" edge="1" parent="1" target="28">
                    <mxGeometry relative="1" as="geometry">
                        <mxPoint x="290" y="153" as="sourcePoint"/>
                    </mxGeometry>
                </mxCell>
                <mxCell id="54" style="edgeStyle=none;html=1;" edge="1" parent="1" source="22" target="48">
                    <mxGeometry relative="1" as="geometry"/>
                </mxCell>
                <mxCell id="22" value="" style="rounded=1;whiteSpace=wrap;html=1;arcSize=13;" vertex="1" parent="1">
                    <mxGeometry x="120" y="120" width="170" height="60" as="geometry"/>
                </mxCell>
                <mxCell id="24" style="edgeStyle=none;html=1;startArrow=classic;startFill=1;" edge="1" parent="1" source="3" target="22">
                    <mxGeometry relative="1" as="geometry"/>
                </mxCell>
                <mxCell id="3" value="" style="rounded=1;whiteSpace=wrap;html=1;arcSize=13;fillColor=#f5f5f5;fontColor=#333333;strokeColor=#666666;" vertex="1" parent="1">
                    <mxGeometry x="120" y="20" width="170" height="60" as="geometry"/>
                </mxCell>
                <mxCell id="2" value="" style="dashed=0;outlineConnect=0;html=1;align=center;labelPosition=center;verticalLabelPosition=bottom;verticalAlign=top;shape=mxgraph.weblogos.github" vertex="1" parent="1">
                    <mxGeometry x="130" y="30" width="40" height="40" as="geometry"/>
                </mxCell>
                <mxCell id="4" value="&lt;b&gt;&lt;i&gt;API do Github&lt;/i&gt;&lt;/b&gt;" style="text;html=1;align=center;verticalAlign=middle;whiteSpace=wrap;rounded=0;" vertex="1" parent="1">
                    <mxGeometry x="170" y="35" width="110" height="30" as="geometry"/>
                </mxCell>
                <mxCell id="21" value="" style="shape=image;verticalLabelPosition=bottom;labelBackgroundColor=default;verticalAlign=top;aspect=fixed;imageAspect=0;image=data:image/png,iVBORw0KGgoAAAANSUhEUgAABLAAAASwCAYAAADrIbPPAAAAAXNSR0IArs4c6QAAIABJREFUeF7s3QecXWWd//Hvc26bkkkhPSTUJDMJHSysBWPBspa//tcokAliWWwLa1kgCe7uuEImUdRVZBHXFYQEkLi66/q3rSLYXVGUkmRC6CG9ZyYzd+be8/z33EloBjJz55bnPOdzX5tNSM45z+/3/p2U+XqKER8EEEAAAQQQQAABBBBAAAEEEEAAAQQcFjAO10ZpCCCAAAIIIIAAAggggAACCCCAAAIIiACLkwABBBBAAAEEEEAAAQQQQAABBBBAwGkBAiynx0NxCCCAAAIIIIAAAggggAACCCCAAAIEWJwDCCCAAAIIIIAAAggggAACCCCAAAJOCxBgOT0eikMAAQQQQAABBBBAAAEEEEAAAQQQIMDiHEAAAQQQQAABBBBAAAEEEEAAAQQQcFqAAMvp8VAcAggggAACCCCAAAIIIIAAAggggAABFucAAggggAACCCCAAAIIIIAAAggggIDTAgRYTo+H4hBAAAEEEEAAAQQQQAABBBBAAAEECLA4BxBAAAEEEEAAAQQQQAABBBBAAAEEnBYgwHJ6PBSHAAIIIIAAAggggAACCCCAAAIIIECAxTmAAAIIIIAAAggggAACCCCAAAIIIOC0AAGW0+OhOAQQQAABBBBAAAEEEEAAAQQQQAABAizOAQQQQAABBBBAAAEEEEAAAQQQQAABpwUIsJweD8UhgAACCCCAAAIIIIAAAggggAACCBBgcQ4ggAACCCCAAAIIIIAAAggggAACCDgtQIDl9HgoDgEEEEAAAQQQQAABBBBAAAEEEECAAItzAAEEEEAAAQQQQAABBBBAAAEEEEDAaQECLKfHQ3EIIIAAAggggAACCCCAAAIIIIAAAgRYnAMIIIAAAggggAACCCCAAAIIIIAAAk4LEGA5PR6KQwABBBBAAAEEEEAAAQQQQAABBBAgwOIcQAABBBBAAAEEEEAAAQQQQAABBBBwWoAAy+nxUBwCCCCAAAIIIIAAAggggAACCCCAAAEW5wACCCCAAAIIIIAAAggggAACCCCAgNMCBFhOj4fiEEAAAQQQQAABBBBAAAEEEEAAAQQIsDgHEEAAAQQQQAABBBBAAAEEEEAAAQScFiDAcno8FIcAAggggAACCCCAAAIIIIAAAgggQIDFOYAAAggggAACCCCAAAIIIIAAAggg4LQAAZbT46E4BBBAAAEEEEAAAQQQQAABBBBAAAECLM4BBBBAAAEEEEAAAQQQQAABBBBAAAGnBQiwnB4PxSGAAAIIIIAAAggggAACCCCAAAIIEGBxDiCAAAIIIIAAAggggAACCCCAAAIIOC1AgOX0eCgOAQQQQAABBBBAAAEEEEAAAQQQQIAAi3MAAQQQQAABBBBAAAEEEEAAAQQQQMBpAQIsp8dDcQgggAACCCCAAAIIIIAAAggggAACBFicAwgggAACCCCAAAIIIIAAAggggAACTgsQYDk9HopDAAEEEEAAAQQQQAABBBBAAAEEECDA4hxAAAEEEEAAAQQQQAABBBBAAAEEEHBagADL6fFQHAIIIIAAAggggAACCCCAAAIIIIAAARbnAAIIIIAAAggggAACCCCAAAIIIICA0wIEWE6Ph+IQQAABBBDwTcCamRddnU319GbTJpOxe/dm86l0JghSmSAoZAITZAZMkAkKxUyQDlJhqLQJbTpMB6kgVDq0NvpRqvRzQfRrQdqEYSY0JmOM0iYY3MbIZmSNkTGZJwWtNcbY9KFErYKBp37eWsmW/tvKDARWA9aoYK0KgY1+PhgwssXSz4WmYExYtMYUQoXFIFQhUKpoAxXCwBTSCgesDQdCmx4Iw3AgzBUHcjY7EIaFgUKxf6CQUf8jx6hfHR2hb5OmHwQQQAABBBBAoJICBFiV1ORYCCCAAAII+Cdg1NFhdP/9Zt62E8y+2VNN765Npr/7CFOYvNMUekabUY19TQqCaeGAmRSk7GQV7VRJU0OjCTIaH0jjbagJkhlvjR1rpMA/phF3tFcyOyS7M/reyu4IAu1Q0ewMjd0WSJtMymzrL9qNNm+2hc19+XTLETa7eadtHDfVtkzbZHWHdMfE+61OOMGqo8OW8jc+CCCAAAIIIICAJwIEWJ4MkjYQQAABBBAoR2Duh64ZZfbunVI09sgwNFNkzJGBtdOsNElGEyU1y5icrG2Q9LRvJmtlc0YmK9lUOWuzT7kC5sAVYrZfMnlJfVLpx/3Rj03pv5W30m5rtDmQ2WxtuNnIbA2N2ZJKBVsyRbPxnpsu6Sm3AvZDAAEEEEAAAQRqLUCAVWtx1kMAAQQQQKBKAicv/EzzQDE/wSpVuvIpTGmcsRpnQzM2MHaStZpgjZ1iZCZJ0RVRGn8glKpSRRzWcYFuGW2XtdtltUPGbJe0XUbbjDXbQ2t325R2pIx2FQeib2bHQ6sui64U48ouxwdLeQgggAACCPgoQIDl41TpCQEEEEDAG4EzLrwu07trU66QVoMy6ZwtpHKpILpSys4OrZ0lmWONzCwrO8tIY7xpnEZcFei10sNGetBarQsC21UsBl1pBZtMKsz3Fop5mxsoXRXGs71cHSF1IYAAAgggEE8BAqx4zo2qEUAAAQR8E7DWzD1/+YwBq5Nk7alBEH1v2qRwrKLb9AZv48vJKiejQz6I3DcS+omTgCkO3sb4vw+kH/wWhVj7Ja2XMffJhmtDo9WZvv77V6/q6I5TZ9SKAAIIIIAAAm4IEGC5MQeqQAABBBDwXGDuBR1TwjB7bDE0x6RkjrWyx1qjKYHVRCtNMUYTrVWT5wy0l3iB6PbDcI9kthirLdbYzbJmsw30mJEes8Xg0TBXfHj99Uui2xm5VTHx5wsACCCAAAIIPCVAgMXZgAACCCCAwEgF5t+WOkGrx+SbmsalQjsusHZy0eokY+z/vg5OJxhpDs+aGiky+ydJwEp7JK01VvfbQPcpNGuVMjsCFXfnB+yexsLArtWrOqIrvfgggAACCCCAQEIECLASMmjaRAABBBConMDMi76YC3bvf6Gx9rWSnWekM2zpbXwKJEV/t/L3a+W4ORICBwWiK7Js9ApGIxWMzP0y9s5iMfhFmAp+8eBNl2yFCgEEEEAAAQT8FeAf2P7Ols4QQAABBEYg0Pqe5S2p/uKpRaMzbBicYoxmSDZ6e9/EA2/w4zlUI/BlVwQqLBCFW/tkzDZj7faw9CZFrZEN7zFK/emcWX33d3R0hBVek8MhgAACCCCAQA0FCLBqiM1SCCCAAAJuCcyb15HeMm3UkcWg/6jABjNCY2fJ2pONMSda6XgjpdyqmGoQQKBMgYKkNZJdY2RWF6V1gbWPFZV6dP2s3o0i3CqTld0QQAABBBConQABVu2sWQkBBBBAoF4C8+enTm54UUO/GWgopDQ5NWDPlk29Qca+XOLB6fUaC+si4IKAlXoD6cehMT+0Rfv9BmnXvmy+95EbOvpcqI8aEEAAAQQQQGBQgACLMwEBBBBAwEuB4xd+ZlImLL4mNPYVRvZMyRwhaaxkmgcfocMHAQQQ+DOB6DbD6AHyu4z0uDXme0Eq+PaaGy59ACsEEEAAAQQQqK8A/4Cvrz+rI4AAAgiMUCC6DXDj9IYTjNVJMja69e9EI50omaMIqkaIy+4IIHBQYJOku6z0+8CY3zSkcr/94w0f3Q0PAggggAACCNROgACrdtashAACCCAwQoGZb/hiLpi4d4LC9ASj8CWy5nUy9nWSaRjhodkdAQQQGLKAlYpG+pWRVhgT/qo31bThkRs+Gl25FT1Mng8CCCCAAAIIVEGAAKsKqBwSAQQQQKByAmdceF2mp3v7q8IgdYEx9tWyapZMTrI8YL1yzBwJAQTKF4geEL9fsncH1nxhzcrF3y7/UOyJAAIIIIAAAs8lQIDFuYEAAggg4JTArIXL5wTF4tkKzMsk2yqZ46UotOKDAAIIxEJgj4z+KKufhWH4rQduvvxPXJkVi7lRJAIIIICA4wIEWI4PiPIQQAABnwWiq6t687tmFwr2RGPs2ZJ5vaQjfe6Z3hBAIFEC0S2F91prbknJ3NGb6f0jbzdM1PxpFgEEEECgggIEWBXE5FAIIIAAAocR6OgIjnlE2Uwxe0pgzUWSzpUU4IYAAggkQcBI/TJ2WVjIXj1tU/fuO+7oiG4/5IMAAggggAACQxAgwBoCEpsggAACCIxIwMxs//RpgSmeZ6zmSTpa0nhJ/B00IlZ2RgCB+ArYPil4QDb8z0zY9KX7bvnIlvj2QuUIIIAAAgjURoAvHmrjzCoIIIBAogSOf/dnZ6QHBv5C1r5Sxrxa0kzJ8ndOos4CmkUAgSEK5CX90Br7zcDoe2tvXLJjiPuxGQIIIIAAAokS4IuJRI2bZhFAAIHqCETPstrXt21SEKbOtLJ/K5mXV2cljooAAgh4LdBvpWtsqC9lBvIbVq/q6Pe6W5pDAAEEEEBgGAIEWMPAYlMEEEAAgWcKzFzwxdEpu/9iBeH7JDNeMs1cacVZggACCIxQwChvQz2hwHasu2nJTSM8GrsjgAACCCDghQABlhdjpAkEEECgdgIzFyydGyh4uzH2VVZ6kZEaa7c6KyGAAAIJE7B6xBrzrSAIr1t745J1CeuedhFAAAEEEHhSgACLkwEBBBBA4DAC1sw6b9mxqUAvDqUPGquXyfAAdk4bBBBAoKYCRqG1+oY19guZvv67ub2wpvoshgACCCDggAABlgNDoAQEEEDAVYHWc5a/wKTCG6zRXN4a6OqUqAsBBJImYI0eTxVN+5qbF/0sab3TLwIIIIBAcgUIsJI7ezpHAAEEDiVgWhdecYbC1MUy5mWSPRYmBBBAAAEXBUxRsvdbq+vCI5r/bf3VF0dvM+SDAAIIIICAtwIEWN6OlsYQQACBoQvMXLB8ekrha2V0gVQKrvj7Yeh8bIkAAgjUW2CdrD5fVP7m9Ss79ta7GNZHAAEEEECgGgJ8gVINVY6JAAIIxEDgjAsvzOzvPmpaGKQuldWFMkrHoGxKRAABBBB4boGCNfY96b7+b69e1dENFAIIIIAAAj4JEGD5NE16QQABBIYkYE3reVe+xQSpf7RSq6SmIe3GRggggAACMRAw1ppwQxDaz6x9YuBa3dFRiEHRlIgAAggggMBhBQiwDkvEBggggIAfArPPvWpCkB54l7VaKOkUP7qiCwQQQACBQwsYK+lPxob/vPaJ/pUEWZwnCCCAAAJxFyDAivsEqR8BBBA4jMDchcuOKoZ2oQLz97I2BxgCCCCAQNIEzL2BNRea/t4/rF7V0Z+07ukXAQQQQMAPAQIsP+ZIFwgggMCfCcy7oKNhYyH7dSPzfyQRXHGOIIAAAskWCGX0W2WCt3d97bKNyaagewQQQACBOAoQYMVxatSMAAIIPI/A7AuWtpkBs0RGb5XUAhYCCCCAAAJPE9grmX+3xb5L193SsR0ZBBBAAAEE4iJAgBWXSVEnAgggcBiB2ecubQtS5sNWeq+kRsAQQAABBBB4HoHtCu2inoGGmzes+lgvUggggAACCLguQIDl+oSoDwEEEDiMwPT5n2tszvV3SvZvwUIAAQQQQGA4AkZ6zOQyZ6356scfkyk9+J0PAggggAACTgoQYDk5FopCAAEEDi9wzAUdDQ2F7N9bBe+T7KTD78EWCCCAAAIIHFKgz0jfsNngoq6vXbYPIwQQQAABBFwUIMBycSrUhAACCDy/gGlbsPR8G5hFsmoDCwEEEEAAgcoI2EdNECxpbnho1e+/8pWByhyToyCAAAIIIFAZAQKsyjhyFAQQQKD6Ah0dQetDmRMVBisknVT9BVkBAQQQQCCJAkb6dhgUL1p34yeeSGL/9IwAAggg4KYAAZabc6EqBBBA4BkCHR02uHn9shVGepukBngQQAABBBCopoCV2W0UfqxrxZIbJPFsrGpic2wEEEAAgSEJEGANiYmNEEAAgToJzL8t1Zp98F3/+7VDh4yZUacqWBYBBBBAIJkCRUnfC0N95IGbFz+UTAK6RgABBBBwRYAAy5VJUAcCCCDwLIG285fOtqH5jKS3gIMAAggggEAdBbYGVh9Ys3LRf0i8qbCOc2BpBBBAINECBFiJHj/NI4CAowJm9oLOdxijGyVlHa2RshBAAAEEkiZgzQ97+re8bcOqz/cmrXX6RQABBBCovwABVv1nQAUIIIDAkwJt53QeYzPma7L2lbAggAACCCDgnIDVA7Lh+7tuvvynztVGQQgggAACXgsQYHk9XppDAIG4CMyb15HeOKPh7cbaz0maGpe6qRMBBBBAIJECPQr0yXyQv/qRGzr6EilA0wgggAACNRcgwKo5OQsigAACzxSYO79jVJjNfs4a89fYIIAAAgggEBsBqx+ZlD1v7Y1LdsSmZgpFAAEEEIitAAFWbEdH4Qgg4IPAced9alYmlf5PWc3xoR96QAABBBBImoB9IrCpt69ZedlvktY5/SKAAAII1FaAAKu23qyGAAIIDAp0dARt63Lvs4E+LWkMLAgkS8DIGCMFgYwJJBP99+D3MtHPPf376J8qB349Qnpy+2ibg/+MiX5c2uoA4+B/H/h/T9IObn7of/pYWUX/98zPwZ8b/IWntol+Pvo5e+C7wR/LhrLRzz/5a+Hgj2203cFfH/w5a6PvQ9nwwL7JOgHo1j+BHmv099OOz199R0dHwb/26AgBBBBAwAUBAiwXpkANCCCQKIHWtyxv0Wj7D5L9u0Q1TrPxFngyWDoQPulg8HQgSIp+PUjJBGmZKJhKRd9H36Kfi74FUvT9ge3ijVHh6ktBVhR+FaUwVBhG3xdln/VNxaLCMMoGDoZiB8OwQ4RmFS6RwyEwFAEje11funHRIzd8dPdQtmcbBBBAAAEEhiNAgDUcLbZFAAEERixgTVt7511W5vQRH4oDIFBBAZPKKJXOyqQzClIZmUxu8Pvo51Lp0kqD/2h42j8dnueKpgqWxqEOKXDgcrGnXTVWukIs+lirsNAvWxxQWBiQLfQrLP24v/TjKBjjg0C1BKzV/dOeyJ96xx1ciVUtY46LAAIIJFWAACupk6dvBBCouUDr+VeerND8h2SOrfniLJgogdJVTqXwKaMgnR0Mog5cEVW6ba90697g1VBPv40vUUhJbvbALYyl2xhLV3lFV38d/HGxFHbZKPgKC4MBWPTfhF5JPmPK6X2jrH1H18olvyxnZ/ZBAAEEEEDgUAIEWJwXCCCAQA0E2hYsfZOVWSHD865qwO3tEoMh1MFb8g7crhf9XCqrIHPgyqkorApS3hrQWH0EooArCrVK4daBb6VwKyzIFp95u2P0bC8+CMgob2X/et1NS25CAwEEEEAAgUoIEGBVQpFjIIAAAs8pYM3c9uXzi7I3SyJV4Ex5boHoQealJ5EPfgsyOaUyjQqyDUplGhRkG9FDIBYCpSu3+vtU7O9VONCrYn++FHo9+dD7A8/wikUzFFkBgfBTXfk/flKrVnHvagU0OQQCCCCQZAECrCRPn94RQKDqAq3tnX8vKfqWqfpiLBAbgei5UqmDwVSmYfA5U6WHm0cPRj/wwPPYdEOhCAxB4OBti+HBty8WFRbyCgeib30qDvTKFnh53RAk47hJUbLfKu4YtXD99y/Ox7EBakYAAQQQcEOAAMuNOVAFAgj4JtDREbQ+kO2UMZf61hr9HF4gevtekB58APrBB6FH/116HlU6K0XPnuKDAALPFAgHn7918LlbTz2Ivv/Azx14AyNucRX4TjbUBffevHhXXBugbgQQQACB+goQYNXXn9URQMBDgfnzb0vdk1t/jWTe72F7tHRAYPAB6INXS0XPpkplmwa/5RpLD1DngwACFRawdvC2xP7otsReFQf6nvYQ+ugin6e9krHCS3O4yggY6e5ULvea+//tYzsrc0SOggACCCCQJAECrCRNm14RQKDqAvPnz0/9KXvabcaYt0riMpuqi9dugejB6KmGZqVzLaXvTSpVupLqyedW1a4UVkIAgYMC0cPlo+AqukWxOKBiX48K+R4V8/tLD5jn46CAtTsLxfDUB2/9xOMOVkdJCCCAAAIOCxBgOTwcSkMAgZgJzL8t1cqVVzEb2p+XW7rNL9NYekZV9CD1J28DTKVj3xsNIJAkAVssDL41sdBfetZWsX9/6cqt6Of51F3ggUDhOWtWXP6HuldCAQgggAACsREgwIrNqCgUAQTcFrCmtb0zum3wg27XSXUHBaIrqqJb/UqBVfRA9QO3AJaurOKDAALeCkQPjS/0dQ9epRU9SL4wIBvygryaD9zq8SAI/3LNTZffV/O1WRABBBBAIJYCBFixHBtFI4CAYwJRePV5SX/rWF2U83QBY5TK5JRuHKt089jSQ9b5IIAAApFAFGgN7NuhQu8+STxLq4ZnRW8Qpk5Zc/OlD9RwTZZCAAEEEIipAAFWTAdH2Qgg4I5A6/mdlyg0nZLl0h1XxmKM0rlmpRpaDjxUPS0TZEoPXOeDAAIIPJeAjZ6pVegv3WpY6NldCrb4VF1gRxCa/7vm5kU/q/pKLIAAAgggEGsBAqxYj4/iEUCg3gKzFnZeEFhdX+86Er2+MQrSudLzqlLZRqVyzaVbAktvCeSDAAIIjEAgel5Wsa9bhb59pQfER8/U4lMVgY2maN++9pYlv67K0TkoAggggIAXAgRYXoyRJhBAoB4Cbedc8RKbTv1UUrYe6yd2zejNf0FQCqwyTWOVbhqj6HlWfBBAAIFqC0RhVv/ebYMPg+e5WZXltnZnmDMvfOBrix+q7IE5GgIIIICALwIEWL5Mkj4QQKCmAscv7JiUtg33S3ZCTRdO8GLpxhZlmscplWuSogewc4VVgs8GWkegvgJReBW92bB/zxZuM6zoKOzewNiX8mD3iqJyMAQQQMAbAQIsb0ZJIwggUCuB1nOWT7Pp8E4jzazVmolbJ3rgeq5J6dyo0vdBtonnVyXuJKBhBOIhEBbyKvbu00DPHhX798ejaIertNJ6pe2b192wZK3DZVIaAggggEAdBAiw6oDOkgggEF+BmRd9MZfa1bNS0l/Ftws3KzepzOBbApvGcFugmyOiKgQQOIxAMb9f/Xu3qpiPbjEs4FW+wBpbzJ+17paO7eUfgj0RQAABBHwTIMDybaL0gwACVRVoXbjs87L2I1VdJGEHj24LzI6eqCCdlQx/LSVs/LSLgJ8C1mqge6fyuzfJWutnj1XuyhhtLoT51vUrO/ZWeSkOjwACCCAQEwG+UojJoCgTAQTqLzCr/cqzAwX/Iamp/tXEt4IoqEpHD19vHKUg28izrOI7SipHAIHDCNgwVDHfrf490YPfub1w2CeMsT/s6Wt424ZVH+sd9r7sgAACCCDgnQABlncjpSEEEKiGwKzzOo9LBbrXEl6VxRukc0o1NJXeGphqGFXWMdgJAQQQiLNAIXpO1r4dKuS7Ja7KGsYozfVdN132XhnDpWzDUGNTBBBAwEcBAiwfp0pPCCBQUYF58zrSm6bn/lvSvIoe2PODRW8JNNkGNYyZolRDs+fd0h4CCCAwNAFb7FfvjidUzPcQZA2NLNpqedeKRYslQqyhk7ElAggg4J8AAZZ/M6UjBBCosEDbgmX/YI39ZIUP6+3holsEc2Mml0Kr6MHsfBBAAAEEni1gFQ70q3/PFg3s3wPP4QUGTFHnrr1l8b8fflO2QAABBBDwVYAAy9fJ0hcCCFREYE77p08PVfyppNEVOaCnBzFBoHTjGGWauUXQ0xHTFgIIVEkguhKrf992FfbzrPLDEA8UpdeuX7H4jiqNgsMigAACCDguQIDl+IAoDwEE6icw7cKOppb9uXslHVe/KtxeOUhnSg9kj6644g2Cbs+K6hBAwG2B6CHv+Z0bVezvk8Tjng41LWu1wRSDF3fdetlGt6dJdQgggAAC1RAgwKqGKsdEAAEvBNraly6xCq6QLH9WPmui0a2BjeNnKMjxFkEvTnaaQAABNwSsVbGvW707HlP0BkM+h4yx7upaseRFpHycHQgggEDyBPiiLHkzp2MEEBiCwMwFV5yZMqmfS0oPYfPEbBK9QTDbMmHw+VYmSEzfNIoAAgjUUsCGRQ1071T/3m2Kfszn6QLRg9ztzVM35C+4446OAjYIIIAAAskRIMBKzqzpFAEEhiow/7ZUW279963M2UPdxfftUrlmZUdPULqRR4H5Pmv6QwABdwTCQr/yuzaq0LvPnaKcqcS+p2vFkuudKYdCEEAAAQSqLkCAVXViFkAAgbgJzG7v/BsjXR23uqtRr0ml1TTxGAXZxmocnmMigAACCAxBIHo+Vu/WR2VDLjh6istYE9oXrr158e+HQMgmCCCAAAIeCBBgeTBEWkAAgQoKzOtIt07PPiKZIyt41NgdKnrGVcO4qUo1tnCrYOymR8EIIOCjgC0WSm8rjG4r5DMoYKTVUzbkT+FWQs4IBBBAIBkCBFjJmDNdIoDAkASsaVu4/Gpr7YeHtLmHG5kgpUzLEcq2TFT047h8UoFRc0NaDemU0qmg9ELEQtGqGIbq7iuoL3r5Oh8EEEDAA4Fivkd9uzYqLL2tkI+kf0/l8+etXtXRjwYCCCCAgN8CBFh+z5fuEEBgGAKt5195ssLgT8PYxatN0w2j1DB+uqKrr1z8BGYwpGppyGj6+Cadcex4tU4brdlTxmhCS64UWj3Xp7e/qIe3dqtr0x7d89gu3ffYLu3rK6i7b0D5Am/6cnHe1IQAAs8vED0bq797p2Rt0qlC2eCdXSsv+2bSIegfAQQQ8F2AAMv3CdMfAggMWaC1fdk3JPuOIe/gyYbR2wQbJh6tdK5Zz5sC1anfiS0NetuLjtLZJ03V2KZsKcTKpEb2BsTQWkWhVk9fQfc8vkvf/M2juvuRnYp+ng8CCCAQDwFbugpr/9aHeVOh1Kdi+OKuWy6/Jx6zo0oEEEAAgXIECLDKUWMfBBDwTqD1vCtfqSD4saSRJSMxk8k0j1Nu7GTnrrqaOaVFf3nqdL3w+PGaNWW0olsEq/3ZtrdPf3h4p366erMVfPo/AAAgAElEQVTuXLO5dAsiHwQQQMB1gejB7vndmzXQvcv1Uqtd3x1d+eNfo1Xv4J7xaktzfAQQQKBOAtX/iqBOjbEsAgggMByBtvalP7IyZw9nnzhva4K0ckdMVaZprDNtNGRSOvmocXrXK47Xi46fUNe6dnT36/o7HtCda7Zo8+7eutbC4ggggMBQBAa6d5SCLBsm97Zoa9W5buXiyyXxv0AM5aRhGwQQQCBmAgRYMRsY5SKAQOUFBp99lfqjZBPxZ2KQbVDzlJmD729y5PPytsla+s7TlMumHKpKKoRW3/3DBn32u/fzIHhHzhXKQACB5xGIXlyxaZ1scSCpTL2ZYnjsfbdcviWpAPSNAAII+CzgzlcvPivTGwIIOCswd35HttiQ+52sTna2yAoWlh0zUdmWSTJB/e+UjP4COmvuFP31K2dq9tTRMs/3FPYKGpRzqB3def2/u5/QtT/qUiHBVzeUY8c+CCBQW4HSLYW7NmugJ7G3FD40kDenP7Rq0Z7ayrMaAggggEC1BQiwqi3M8RFAwGmBtvM6z7CBfiUp63ShIyzOBCnlxk1V9MwrFz7HTByl9796tl5z0lQXyhlyDdHthJ/73mr9fO0WnpE1ZDU2RACBmgtYq/y+berfszWRbyk0spevXbFkac3dWRABBBBAoKoCBFhV5eXgCCDgtoA1rQuW/UBGr3W7zpFVZ1JpNU0+TkE6N7IDVWDv6GHsZ588VZ942ynKpet/FVi5Lf3kvk361LfuUU++UO4h2A8BBBCoukCxr0e92x9N4lsKw1Rx4OTVt/zD/VVHZgEEEEAAgZoJEGDVjJqFEEDANYG5C5e+uGjNr516GFSFkaLQqnHSMQrS9b/AbExTVle+87TSA9odvltwyBPYuqdPi2/9ve55bPeQ92FDBBBAoNYC4UBevdseVlhI2nOx7J1dK5bMq7U36yGAAAIIVE+AAKt6thwZAQQcF2hd2HmtrD7geJlll5fKNqpx4jGKrsCq9+eUo4/Q5W89ScdOGlXvUiq6fvSaqy//uEtfv/NBFUNeelVRXA6GAAIVE4ge6t67/XEV8z0VO2YMDhRahe9ft+Lyr8agVkpEAAEEEBiCAAHWEJDYBAEE/BOYuaBjdMpkH5fMaP+6k1INzWqadFzdWwuM0YtmjtdnFrxADZlU3eupVgE/umdj6ZbCvoFitZbguAgggMCIBaLbCQv79474ODE6QK+ywcyur122MUY1UyoCCCCAwHMIEGBxaiCAQCIFZrcvvdLILPGx+VQuCq+OlQv36c0/8xj93RvnKgj8/usmuvbqsW3dete1v+S5WD7+pqInBHwRiB7uvnuz+vdt96Wjw/dh9S9dKxd/+PAbsgUCCCCAgOsCfn9F4bo+9SGAQF0EZl70xVywq+c+I82sSwFVXDTINpTCKxPU/7bB971ylt77qllKex5ePX2cq5/Yo0tX3qUte/qqOGUOjQACCIxAwFr1792u/J4tkpJw67MpKiie3XXj5T8dgRq7IoAAAgg4IECA5cAQKAEBBGorMPOcztNSaf1Oklf3tAWZnJonz5SC+r7dL3rTYHTl1UffMMf7K68Odebe+/hufeym32l3T39tT2xWQwABBIYh0L9nq/J7t0o2ESHWT7pWLDo7IYndMM4CNkUAAQTiJUCAFa95US0CCFRAoHXhsttl7SsrcChnDmGClJqnzXbiyqs3nHqkPjn/VCX5L5iHt3Vr4TW/UJ5nYjnze4RCEEDgzwUG9m1X365NCaEJ39m14vLbEtIsbSKAAAJeCiT56wsvB0pTCCDw/AIntHfOLMisk6xXf/5Ftw2mGur/hr9XnThVn5p/qrLp+l4FVu/fB9H1DL97cLs+euPv1F8I610O6yOAAALPIWA10LNbfTue8P/iJKtHUv35k1av6ujmdEAAAQQQiKeAV1/AxXMEVI0AArUUaF3Q+QEZXVvLNau7llHDEdOUGXVEdZcZwtGPmThKX37fmRo/KjeErZOxyU0/f0hf/MGaZDRLlwggEFuB6KHu0cPdPb+d0BrZD65dseS62A6KwhFAAIGECxBgJfwEoH0EkibQ2t75C0kv9aXvdGOLGiceLdX5hr3mXFq3XnSWpoxr9IW2Yn38w6o/6vt/jK5u4IMAAgi4K1B6Jlbpwe7+fqxUTKdT01ffcOlmf7ukMwQQQMBfAQIsf2dLZwgg8CyBWQuXzwlseJ8kL+5vKz20fcosydT/j/LomVd/eeqRnHOHENjbO6A3ffon6u0v4oMAAgg4LdC/d6vyuz0PsYz9x3U3LfknpwdBcQgggAAChxSo/1c9DAYBBBCokUBre+enJV1So+Wqvowrz716zUlT1XnO6VXvN84LrN+yT++97lfany/EuQ1qRwAB3wVsqPyuTerv3ulvp9buzAWZOffcdMlWf5ukMwQQQMBPAQIsP+dKVwggcAiB1vbO/5H0Qh9wsqMnKjd2St1bGd2Y0U0ffrmmcevgYWex/Dv36Zu/ffSw27EBAgggUG+B3m2PqNC7r95lVG19Y8w1a29a9DdVW4ADI4AAAghURYAAqyqsHBQBBFwTmD//ttQ9uQd7JHnwhHGjUdPnyASpujN3nnu6XnPi1LrXEYcCojcT/t/P3aENO6LTkA8CCCDgtkDP5gcU9ve5XWTZ1ZmtXSsWTS57d3ZEAAEEEKiLAAFWXdhZFAEEai0wq/3KSwIF0S2E8f4Yo6ZJxymVa6p7H5NGN+ibH52nxmz9g7S6YwyxgP++d6OW3Hr3ELdmMwQQQKB+AmGhX/s3Pygb+nnrs5E+v3bF4o/VT5iVEUAAAQSGK0CANVwxtkcAgdgJzJvXkd40PfegpKNiV/yzCk43tKhx0jF1byOTCnT9B16q1mmj615LnAooFEO97yu/1v0bdsepbGpFAIGECoT9vdq/5SFZG/onYBRaUzxq3Y2f4DWx/k2XjhBAwFMBAixPB0tbCCDwlMCc8644OgxS6yRlY+1ijJqnzFSQaah7G6cfO17Xve/MutcRxwIe2dqtc7/0MxWK0U2FfBBAAAG3BQZ6dqlvR5Tx+PdnlrX68LqVi//F7QlQHQIIIIDAQQECLM4FBBDwXmBW+/KzA9kfSjbWf+ZlRx2h3BFHOjGva97zYr3o+AlO1BK3Ioqh1fn/8gut27Q3bqVTLwIIJFQgv2uj+vft8K97a3bua+6bsfErHfv9a46OEEAAAf8EYv3FnH/joCMEEKiGQGv7si9L9v3VOHYtj9k8ZZaCbP2vvjr16CP0rxf+RS1b926tux/ZqQ989TcKrX9XNHg3LBpCAAHZMFT0ZsJi3r+XUHAVFic4AgggEB8BAqz4zIpKEUCgDIHo+Vcbj8xtMkaxvlwo0zxWDeNnlCFQ+V2ueOdpet3J0yp/4IQd8d1f/qXue5xnYSVs7LSLQGwFSg913/SAd8/DstJv1q1YzP8qE9szk8IRQCBJAgRYSZo2vSKQQIHWhVe8QDb1u1i3bgKNmjZbJpVxoo0fX/5ajWlyoxYnQMos4qafP6gv/mBtmXuzGwIIIFB7gTC/Xz1boneiePWxNiyeue7mT/yPV13RDAIIIOChAAGWh0OlJQQQeEqgdeHSj8iaz8fZJJVrUtPk4yTV/4/sd5x5jC558wlx5nSm9m17+/Tmz9yu6JlYfBBAAIG4CPTt2KDowe5+fcyvuvK/P0urVhX96otuEEAAAb8E6v/VkF+edIMAAo4JtLZ3rpC0wLGyhlVO46RjlW4YNax9qrFxOmW06iPzNP2IpmocPpHHvGTFXbpjzZZE9k7TCCAQTwEbFrV/y4MKB/LxbODQVXcXbTBn/crLNvjUFL0ggAACvgkQYPk2UfpBAIFnCLS1d95vpblxZQkyDWqeOsuJ8qeMbdSqj7xCDZmUE/X4UMSv1m3V33493ne4+jAHekAAgeEJFPu6tX/rw8PbyfGtjcwla1csusrxMikPAQQQSLQAAVaix0/zCPgtcMwFHWNzhdw2Sem4dpodM0m5MZOdKP+stsn67MIXOFGLL0U8sWu/3v65O1TgNkJfRkofCCRGIL97k/r3bvemXyu7u3tP/5Eb/6tjvzdN0QgCCCDgmQABlmcDpR0EEHhKoK2981wr3Rxnk+jqq+gqLBc+nz7vDL3yhCkulOJNDYViqDd++nbt7PbqVhxv5kMjCCDw3ALWhqW3EkZvJ/Tmkwr+T9fXL/uON/3QCAIIIOCZAAGWZwOlHQQQeEqgdUHnrTJ6Z1xNBh/efrwT5WfSge78h9cpkwqcqMenIq767mp949d+3Yrj03zoBQEEnlug0LtXvdsek+TJyyisbupaufh8Zo4AAggg4KYAAZabc6EqBBAYocAZF16X6dm/634r68YDpMrop3H8DKWbx5axZ+V3mTt9rL7+wZdW/sAcUV0b96r9mp8jgQACCMRSoG/7YxrYvyeWtR+i6O7iuOYJ66++mMtifZkofSCAgFcCBFhejZNmEEDgoMCB51+tkzQxlirGlB7eHqRzTpT/ptOn6x//6hQnavGxiFf80w+1P1/wsTV6QgABzwXCgT71bF4vWT+uwrLSRetWLP6S52OjPQQQQCCWAgRYsRwbRSOAwOEEZi5YPj1lwvWS3EiADlfws37dBGmNOrJNMm78Mf3h17bpgle4cTvjMCljsflfff4OPba9Jxa1UiQCCCDwbIH+PVuV37PFF5jfdc3Mn6mOjtCXhugDAQQQ8EXAja+MfNGkDwQQcEagbeGVr7M2+IEzBQ2zkOzoCcqNnTrMvaq3+fLzTterTnCnnup1Wp8jX/ivv9bdj+ysz+KsigACCIxQwIZF9WzsUvS9B589Pfnc1A2rPtbrQS+0gAACCHglQIDl1ThpBgEEDgrMXtB5lTH6eFxFoquvTCrjTPk3fPClOmG6G8/jcgalgoVcsvL3umP15goekUMhgAACtRUY6N6lvp0bartotVazZmHXykUrqnV4josAAgggUJ4AAVZ5buyFAAKOC7QuWHq3jDnV8TIPWZ5JZzRqWptTpX/vsldr4ugGp2ryqZjPfne1buVNhD6NlF4QSKRAz6YHFD0TK+4fK60/JX9826pV7/DikrK4z4P6EUAAgYMCBFicCwgg4J3AX8z/XOPOXH5/XBtLN4xS46RjnSr/l598g7LpwKmafCrmhjsf1DU/WutTS/SCAAIJFBjo3qm+nU940bkJbOvaG5dEL4PhgwACCCDgiAABliODoAwEEKicQGv7p1qldGzTgOzoScqNnVw5kBEeqaUxo9s/8doRHoXdn0/gO3c9rk99+x6QEEAAgXgLWKuezdFVWPl496HSSxXPWbdy8Tdi3wgNIIAAAh4JEGB5NExaQQCBQYFZ53W+Jgj033H1iK6+iq7CcuUzdVyjvvN3r3KlHC/r+O97N2rJrXd72RtNIYBAsgQK+/eod/tjsW/ayt66bsWSc2PfCA0ggAACHgkQYHk0TFpBAIFBgbaFnRdYq+vj6WE0avpcmcCd2/WOm9yib1x8Vjw5Y1L1Hau36JKVd8WkWspEAAEEnlug9EbCJ9bK2jDuTD09E3MTN3yetxHGfZDUjwAC/ggQYPkzSzpBAIEDAq3tnf8k6e/jCBJkGtU8daZTpc+c3KJbCLCqOpOfrdmij68gwKoqMgdHAIGaCQz07FLfjvi/kdAY85a1Ny36r5rBsRACCCCAwPMKEGBxgiCAgHcCre2d0auvF8SxscyoI9RwxJFOlT5jQrO+9dF5TtXkWzE/vneTFt/6B9/aoh8EEEiqgLXq3tglWxyIuYC9tmvFkg/FvAnKRwABBLwRIMDyZpQ0ggACBwVmt3f+2khnxlEkCq+iEMulz4SWnL6/6DUuleRdLd/9wwZ98t//5F1fNIQAAskViK7Aiq7EivPHSL9du2JxLP89EWd3akcAAQSeS4AAi3MDAQS8E2htX7ZFspPi2FjTpGOVcugB7pFhYIx+86m/lOFvjKqdUjf+/EFd/YPYvjizai4cGAEE4itgCwPq3hj7P9f2dc3Mj1VHR+wf6BXfM4nKEUAAgacE+HKEswEBBLwSmDu/Y1Qxm9sro1j++dY8ZZaCbINzM7n9E69VS2PGubp8KegL31+jFb94yJd26AMBBBAoCfRue0SF3n2x1ghCnb3m5sU/jnUTFI8AAgh4IhDLL/A8sacNBBCogsCs8z59ahAU767CoWtyyFHT58gE6ZqsNZxFvvG3Z+m4SS3D2YVthyGw6JY/6Cf3bRrGHmyKAAIIuC9Q6Nmt3h2Pu1/o81RoZG5du2LRubFuguIRQAABTwQIsDwZJG0ggMCgQOvCzvmyui2WHkGgluknOFn61Re8SGfOmuhkbT4U9YF/+41+/9AOH1qhBwQQQOBJAVssDN5GaG2cVXYVxzVPXX/1xfk4N0HtCCCAgA8CBFg+TJEeEEDgSYHWhcsulbXL40gSPfsqegaWi5/L3nKi3v7io10szYua3vmFn+mhrfG+zcaLQdAEAghUXKBv5wYNdMf6Ye69hUKx9cFbPxHvS8kqPlkOiAACCNRegACr9uasiAACVRRoXdB5rYw+UMUlqnbo7OiJyo2dUrXjj+TA57zkWH38jXNHcgj2fR6BV13xI+3rjfvr5hkxAggg8OcCxf4+7d+8XlJsr8IKTUovWvv1xb9nvggggAAC9RUgwKqvP6sjgECFBdral33Xyr6xwoetyeEaJxyldNOYmqw13EVePHOCvvTuFw93N7YfgsATO/frrZ/96RC2ZBMEEEAgfgI2LKpn0zpFtxPG9WOsuXjtykVXx7V+6kYAAQR8ESDA8mWS9IEAAiWB1vbOn0l6eRw5mqfOVpDJOVn62Oas/nvJ2U7WFveirvvJOn319gfi3gb1I4AAAs8pEPe3EVqZ/7duxaI3MWIEEEAAgfoKEGDV15/VEUCgsgKmtX3ZXZI9vbKHrcHRjNGoI6M3EKZqsFh5S9z4oZdpzpFuXiFWXkf13yu0Vm+96qfatLu3/sVQAQIIIFAlgUJft3q3Plylo9fksPu68n8Yp1WrijVZjUUQQAABBA4pQIDFiYEAAj4JmNb2zjXRhVhxayoKrpqntckEgbOlRw9xjx7mzqdyAlv39un/XHW7CsXYPhumchgcCQEEvBbofmJNrG8jDMLU7DU3X8rlsl6fpTSHAAKuCxBguT4h6kMAgWEIWNO6YNmjMpoxjJ2c2NSk0mqe1ipj3A2wjprQrFsvPkuZlLs1OjHMYRTx+4d36IP/9puYv2F+GA2zKQIIJFYg7rcRKjBv7bpx0X8mdoA0jgACCDggQIDlwBAoAQEEKiVgTevCZVtkNbFSR6zVcYJ0VtEzsGTc/WO5IZPSf13yKkXPw+JTGYErvnWP/vP3vJm9MpocBQEEXBbo37tN+d2bXS7xcLVd2rVi8WcOtxG/jgACCCBQPQF3v1KqXs8cGQEEfBXo6Aha1+f2SBoVtxajh7c3T5nldIAVmX7sjXN17kuOjRuvk/Xu7R3Qmz59u3r74/tmLidhKQoBBJwUKOb3a/+WB52sbShFWekr61Ysfv9QtmUbBBBAAIHqCBBgVceVoyKAQD0EBgOsvKR0PZYfyZpBtlHNU2aO5BA12belMaPvXfZqRVdj8RmZwH/c9Ziu/Pa9IzsIeyOAAAJxEbBW3RtWy9owLhU/u87bu1YsfnVci6duBBBAwAcBAiwfpkgPCCBQEmh729LxttlsjyNHKtespsnHxaL0q9/9Yp05c0IsanW5yIuu/61+sz6Wp6vLrNSGAAIOC/Rue1SF3r0OV/h8pZmHu1Ysisdf1DEVpmwEEEDgcAIEWIcT4tcRQCA2AjPP7zwtFeoPsSn4aYWmm8aoccJRsSj91SdO1bJzT49Fra4W+fDWbi340s81UIztlQiu0lIXAgg4LDCwb4f6dm10uMLnLW2ga2a+SR0d3Pcd1wlSNwIIxF6AACv2I6QBBBA4KDCnfdkbQ9nvxlEkM+oINRxxZCxKTwVGK//m5Tp+ckss6nWtyDC0+siNv9OvH9jmWmnUgwACCFRVIO7PwTLWnLx25SLu/a7qWcLBEUAAgecWIMDi7EAAAW8EZp+//F0mDG+IY0PZ0ZOUGzs5NqWfNWeyPtv+gtjU61Khm3b36h3/fKf6BooulUUtCCCAQNUFwkK/ejZ2VX2dai1gZd61bsWiG6t1fI6LAAIIIPD8AgRYnCEIIOCNQNvCzo9bq6vi2FBu3FRlW+LzXKnoIe7fueRVGtecjSN3XWv++Iq79LM1W+paA4sjgAAC9RCIHuDe/fhqSbYey494TWPNsrUrFy0e8YE4AAIIIIBAWQIEWGWxsRMCCLgoMLt96ZVGZomLtR2upobxM5RpHnu4zZz69bZpY/Rv73+JsunAqbpcLuZ/HtyuD3/tty6XSG0IIIBAVQV6Nq5TWIheGBzHj/mPrhWL3hbHyqkZAQQQ8EGAAMuHKdIDAgiUBNral33Zyr4/jhyNE49WunF0rEqP/gL5/Pkv1EtbJ8Wq7noVWyiG+tDXfqu7H9lZrxJYFwEEEKi7QH7nRvV376h7HWUW8KeuFYtOk0w8LyErs2l2QwABBFwRIMByZRLUgQACIxZobe/8pqS/GvGB6nCApknHKtUwqg4rj2zJMY0Z/eclr1JzLj2yAyVg76/e/oCu+8m6BHRKiwgggMBzCxR696p326NxJVqXyudPWr2qoz+uDVA3AgggEGcBAqw4T4/aEUDgGQKtC5feLmteGUeWpsnHK5VrimPpetsLj9KSt54Uy9prVfTO7rze8YWfac9+vuaplTnrIICAmwI2LKh7wxo3izt8VY/u25Ofu/G/OvYfflO2QAABBBCotAABVqVFOR4CCNRNoLW9838kvbBuBYxg4eapsxVkciM4Qv12TQVGVy14gV7Wxq2Eh5pCT76gC679pR7Z1l2/IbEyAggg4JDAvsfvl2zoUEVDK8VKW0Kbn71+Zcfeoe3BVggggAAClRQgwKqkJsdCAIG6CsxesPR+Y8zcuhZR5uLN09oUpDNl7l3/3UY1pLXqI/M0oSWeIVw1Bb9y+wP6V24drCYxx0YAgZgJdD+xVrY4ELOqo3cnmt250B53782Ld8WueApGAAEEPBAgwPJgiLSAAAKDAq3tSx+RzNFx9Bh15ByZVLyfIzVzcov+9cKXKAqz+AwKfPcPG3TFt+9RMeR5v5wTCCCAwEGBnk3rFA7E8U2Edr8tZo9ed8vfbWeaCCCAAAK1FyDAqr05KyKAQJUEZrcv3WpkJlbp8FU97Kjpc2WCVFXXqMXBX3/qker4q1MU3VaY9M/qDbt18dd/x3Ovkn4i0D8CCPyZwP7ND6rYH8vHSA1kiuGM+265fAtjRQABBBCovQBfYdTenBURQKBKAq0LOrtl1Fylw1f1sKNmnChj/Pgjef6Zx+iSN50gT9opa+4bdu5X+5d+ruj5V3wQQAABBJ4psH/rwyr2xfO5gIVM8agHr//E48wUAQQQQKD2An58tVR7N1ZEAAEHBVoXLivK2sDB0g5bUstR/rzFLwiM2l96nC56fdth+/Zxg4279uvdX/6VojcP8kEAAQQQ+HOB3m2PqNC7L540QfqUrhsvuSeexVM1AgggEG8BAqx4z4/qEUDgoIC1pnXhsvi90uhA/T4FWAdH8p55M/WB17Qm6kqsR7d369KVf9BDW2P6hRl/oiCAAAI1EOjbsUEDPfF8DrqVPWvdiiU/rwETSyCAAAIIPEuAAItTAgEE/BCYPz/Vmjs9nvdrGaOWGSf6MYdndXHuS4/Vxa+bo3TK/79uotDqb67/H23b2+flLGkKAQQQqJRA386NGujeUanD1fQ4xto3r1255Ls1XZTFEEAAAQRKAv5/RcGgEUAgEQLz5nWkN03Pxe+d3KU/if0NsKL2TjlqnK5935nKpGJ5d+eQfv/c/cgOfeCrv1VoedvgkMDYCAEEEi2Q371Z/Xu3xdLABGbB2hsX3RzL4ikaAQQQiLkAAVbMB0j5CCAwKBDvACtQy4wTvB5l67TRuuIdp+mYiaO86/Nrd6zXDXeuV29/0bveaAgBBBCohkD/nq3K74nni/yMDS5Yu/Kyr1fDhWMigAACCDy/AAEWZwgCCHghcMaF12W69+/sj2Uzxv8AK5rLhJacPvbGE/TqE6co8OAVhdv35fXP31utH927UVx4FcvfeRSNAAJ1Eoiuvoquworjx1h74dqVS/41jrVTMwIIIBB3AQKsuE+Q+hFAoCQwd35HtpjLxfO1b0Gglul+X4H19NP0TadN18feNFctDZlYnr3RbYJ3P7JTH7/pLvXk4/nYtVjCUzQCCHgjEOcASzIf6lqx6FpvhkEjCCCAQIwECLBiNCxKRQCB5xaY+YYv5lLje+L59OyEBVjRFKOrsS5+/Ry94dQjY3VaR4HV5d+4W797cLv6C7F96WWszCkWAQT8E+jft135XZti2ZhVcNG6FZd9KZbFUzQCCCAQcwECrJgPkPIRQGBQgAArfmdCdBvhC48fr3e/YqZOP268028V2ds7oG/+9lHd8suHtXt/PO9Ujd8ZQsUIIOCrQJwDrNCaix9YuehqX2dDXwgggIDLAgRYLk+H2hBAYMgCBFhDpnJyw5e3TdaHX9uqoyeOUjpw56+mXT39+s36bfrsd1drD8GVk+cORSGAQPwECLDiNzMqRgABBFwQcOerBBc0qAEBBGIrQIAV29E9WXgqMJo2rkmXvvkEnTlrYl0bim4P/MIP1ui/fv84bxes6yRYHAEEfBQgwPJxqvSEAAIIVF+AAKv6xqyAAAI1ECDAqgFyDZeYMb5ZZxw7vvSMrNOOOUK1eGlhdLXVj+/dqDvXbNGfHt2lvoFiDTtmKQQQQCA5AgRYyZk1nSKAAAKVFCDAqqQmx0IAgboJEGDVjb7qC09sadArT5yiFx43XlGwFV2l1ZhNjWjd6E2CO7rz2rizV+s279XP1mzWXQ/tVKHIg9lHBMvOCCCAwBg5i5QAACAASURBVBAECLCGgMQmCCCAAAJ/JkCAxUmBAAJeCBBgeTHGITURXY113KQW/cXsiTplxjjNmT5Woxszpau0jDHPeBi8tVZWKgVTj2zv0erHd+tPj+3Sbx/Ypj29A0Naj40QQAABBCorQIBVWU+OhgACCCRFgAArKZOmTwQ8FyDA8nzAh2kvnQqUSwdKp4yitxtGQVZ0lVUxtIqeZxV9i8IsPggggAAC9RcgwKr/DKgAAQQQiKMAAVYcp0bNCCDwZwIEWJwUCCCAAAIIxEOAACsec6JKBBBAwDUBAizXJkI9CCBQlgABVlls7IQAAggggEDNBQiwak7OgggggIAXAgRYXoyRJhBAgACLcwABBBBAAIF4CBBgxWNOVIkAAgi4JkCA5dpEqAcBBMoSIMAqi42dEEAAAQQQqLkAAVbNyVkQAQQQ8EKAAMuLMdIEAggQYHEOIIAAAgggEA8BAqx4zIkqEUAAAdcECLBcmwj1IIBAWQIEWGWxsRMCCCCAAAI1FyDAqjk5CyKAAAJeCBBgeTFGmkAAAQIszgEEEEAAAQTiIUCAFY85USUCCCDgmgABlmsToR4EEChLgACrLDZ2QgABBBBAoOYCBFg1J2dBBBBAwAsBAiwvxkgTCCBAgMU5gAACCCCAQDwECLDiMSeqRAABBFwTIMBybSLUgwACZQkQYJXFxk4IIIAAAgjUXIAAq+bkLIgAAgh4IUCA5cUYaQIBBAiwOAcQQAABBBCIhwABVjzmRJUIIICAawIEWK5NhHoQQKAsAQKsstjYCQEEEEAAgZoLEGDVnJwFEUAAAS8ECLC8GCNNIIAAARbnAAIIIIAAAvEQIMCKx5yoEgEEEHBNgADLtYlQDwIIlCVAgFUWGzshgAACCCBQcwECrJqTsyACCCDghQABlhdjpAkEECDA4hxAAAEEEEAgHgIEWPGYE1UigAACrgkQYLk2EepBAIGyBAiwymJjJwQQQAABBGouQIBVc3IWRAABBLwQIMDyYow0gQACBFicAwgggAACCMRDgAArHnOiSgQQQMA1AQIs1yZCPQggUJYAAVZZbOyEAAIIIIBAzQUIsGpOzoIIIICAFwIEWF6MkSYQQCDWAZYJNOrINoaIAAJ1EzAyxkjRNz4IIFB1AQKsqhOzAAIIIOClAP9S83KsNIVA8gRiHWBJMkEqeUOjYwScEYjCq+j3YVrphmalm8YolWt2pjoKQcA3AQIs3yZKPwgggEBtBAiwauPMKgggUGWBuAdYVebh8AggMEyBKFROZZuUbhqtdPNYGRMM8whsjgACzyVAgMW5gQACCCBQjgABVjlq7IMAAs4JEGA5NxIKQsAbgSjMyo2ZXLoyy6TS3vRFIwjUS4AAq17yrIsAAgjEW4AAK97zo3oEEDggQIDFqYAAAtUWiK7Cahg/vRRk8UEAgfIFCLDKt2NPBBBAIMkCBFhJnj69I+CRAAGWR8OkFQScFjCl52Q1jJ/B1VhOz4niXBYgwHJ5OtSGAAIIuCtAgOXubKgMAQSGIUCANQwsNkUAgRELBJlcKcRKZRtHfCwOgEDSBAiwkjZx+kUAAQQqI0CAVRlHjoIAAnUWIMCq8wBYHoEECpggUNPk4xVkGhLYPS0jUL4AAVb5duyJAAIIJFmAACvJ06d3BDwSIMDyaJi0gkCMBAixYjQsSnVGgADLmVFQCAIIIBArAQKsWI2LYhFA4LkECLA4NxBAoF4C0ZsJmyYdy5VY9RoA68ZOgAArdiOjYAQQQMAJAQIsJ8ZAEQggMFIBAqyRCrI/AgiMRCCVayqFWDLBSA7DvggkQoAAKxFjpkkEEECg4gIEWBUn5YAIIFAPAQKseqizJgIIPF0gM2qcGo6YDgoCCBxGgACLUwQBBBBAoBwBAqxy1NgHAQScEyDAcm4kFIRA4gSMCdQ8bbZMKpO43mkYgeEIEGANR4ttEUAAAQQOChBgcS4ggIAXAgRYXoyRJhCIvUAq21h6M6EM/8SK/TBpoGoCBFhVo+XACCCAgNcC/OvK6/HSHALJESDASs6s6RQB1wWaJh2nVEOz62VSHwJ1EyDAqhs9CyOAAAKxFiDAivX4KB4BBA4KEGBxLiCAgCsCmaaxapgww5VyqAMB5wQIsJwbCQUhgAACsRAgwIrFmCgSAQQOJ0CAdTghfh0BBGomYIxGTWvlWVg1A2ehuAkQYMVtYtSLAAIIuCFAgOXGHKgCAQRGKECANUJAdkcAgYoK5MZNVbZlQkWPycEQ8EWAAMuXSdIHAgggUFsBAqzaerMaAghUSYAAq0qwHBYBBMoSSDe0qHHSMWXty04I+C5AgOX7hOkPAQQQqI4AAVZ1XDkqAgjUWIAAq8bgLIcAAs8rEKSzap7WihICCBxCgACL0wIBBBBAoBwBAqxy1NgHAQScEyDAcm4kFIRAsgWMUcv0EyTDP7WSfSLQ/aEECLA4LxBAAAEEyhHgX1XlqLEPAgg4J0CA5dxIKAiBxAs0T52lINOQeAcAEHi2AAEW5wQCCCCAQDkCBFjlqLEPAgg4J0CA5dxIKAiBxAs0jj9K6eYxiXcAAAECLM4BBBBAAIFKCBBgVUKRYyCAQN0FCLDqPgIKQACBZwnkxk5VdjRvIuTEQIAAi3MAAQQQQKASAgRYlVDkGAggUHeBufM7ssVcLl/3QigAAQQQOCCQGzNZ2TGT8EAAgWcJcAshpwQCCCCAQDkCBFjlqLEPAgg4JzBvXkd60/TcgHOFURACCCRWgAArsaOn8cMIEGBxiiCAAAIIlCNAgFWOGvsggICTAq3tnTsljXOyOIpCAIHECRBgJW7kNDxEAQKsIUKxGQIIIIDAMwQIsDghEEDAG4G29s47rPQKbxqiEQQQiLUAAVasx0fxVRQgwKoiLodGAAEEPBYgwPJ4uLSGQNIEZrdf+Y9GQUfS+qZfBBBwU4AAy825UFX9BQiw6j8DKkAAAQTiKECAFcepUTMCCBxSYOa5/3RCKpW5Dx4EEEDABQECLBemQA0uChBguTgVakIAAQTcFyDAcn9GVIgAAkMWsKZ1Qed2GXPEkHdhQwQQQKBKAgRYVYLlsLEXIMCK/QhpAAEEEKiLAAFWXdhZFAEEqiRgWhcs/Y2MeVGVjs9hEUAAgSELEGANmYoNEyZAgJWwgdMuAgggUCEBAqwKQXIYBBBwQ6B1YeflsrrCjWqoAgEEkixAgJXk6dP78wkQYHF+IIAAAgiUI0CAVY4a+yCAgLMCs8+9aoJJDayXNMbZIikMAQQSIUCAlYgx02QZAgRYZaCxCwIIIICACLA4CRBAwDuB2QuXftFYc5F3jdEQAgjESoAAK1bjotgaChBg1RCbpRBAAAGPBAiwPBomrSCAwKDA3HP/6YQibyPkdEAAgToLEGDVeQAs76wAAZazo6EwBBBAwGkBAiynx0NxCCBQrsDs9s4OI/1jufuzHwIIIDBSAQKskQqyv68CBFi+Tpa+EEAAgeoKEGBV15ejI4BAnQTmzr9mVCG3924jzaxTCSyLAAIJFyDASvgJQPvPKUCAxcmBAAIIIFCOAAFWOWrsgwACsRCY9c7lc4JM+EdJ2VgUTJEIIOCVAAGWV+OkmQoKEGBVEJNDIYAAAgkSIMBK0LBpFYEkCsxe0PkhY3RNEnunZwQQqK8AAVZ9/VndXQECLHdnQ2UIIICAywIEWC5Ph9oQQKASAqa1vfOTsvqEDG9erQQox0AAgaEJEGANzYmtkidAgJW8mdMxAgggUAkBAqxKKHIMBBBwW6CjI2h7KPcFG5r3SzbjdrFUhwACvggQYPkySfqotAABVqVFOR4CCCCQDAECrGTMmS4RQEAybe3LLrSy10pcicUJgQAC1RcgwKq+MSvEU4AAK55zo2oEEECg3gIEWPWeAOsjgEBNBdraO+dZma9K9viaLsxiCCCQOAECrMSNnIaHKECANUQoNkMAAQQQeIYAARYnBAIIJE5g7vyObCGXu8ZI8yWNSRwADSOAQE0ECLBqwswiMRQgwIrh0CgZAQQQcECAAMuBIVACAgjUR2D2uVdNCNID11urN9WnAlZFAAGfBQiwfJ4uvY1EgABrJHrsiwACCCRXgAArubOncwQQiAQ6OoLW9Y2zpMLrpeA9kk4GBgEEEKiEAAFWJRQ5ho8CBFg+TpWeEEAAgeoLEGBV35gVEEAgPgKm7fyls4qhmRfInm5lZkh2vJFplpSRTBCfVqgUAV8EbHSb76Q4dkOAFcepUXMtBAiwaqHMGggggIB/AgRY/s2UjhBAAAEEEPBGoHVB5wdkFL09NHYfAqzYjYyCayRAgFUjaJZBAAEEPBMgwPJsoLSDAAIIIICATwIEWD5Nk14QGBQgwOJMQAABBBAoR4AAqxw19kEAAQQQQACBmggQYNWEmUUQqKkAAVZNuVkMAQQQ8EaAAMubUdIIAggggAAC/gkQYPk3UzpCgACLcwABBBBAoBwBAqxy1NgHAQQQQAABBGoiQIBVE2YWQaCmAgRYNeVmMQQQQMAbAQIsb0ZJIwgggAACCPgnQIDl30zpCAECLM4BBBBAAIFyBAiwylFjHwQQQAABBBCoiQABVk2YWQSBmgoQYNWUm8UQQAABbwQIsLwZJY0ggAACCCDgnwABln8zpSMECLA4BxBAAAEEyhEgwCpHjX0QQAABBBBAoCYCBFg1YWYRBGoqQIBVU24WQwABBLwRIMDyZpQ0ggACCCCAgH8CBFj+zZSOECDA4hxAAAEEEChHgACrHDX2QQABBBBAAIGaCBBg1YSZRRCoqQABVk25WQwBBBDwRoAAy5tR0ggCCCCAAAL+CRBg+TdTOkKAAItzAAEEEECgHAECrHLU2AcBBBBAAAEEaiJAgFUTZhZBoKYCBFg15WYxBBBAwBsBAixvRkkjCCCAAAII+CdAgOXfTOkIAQIszgEEEEAAgXIECLDKUWMfBBBAAAEEEKiJAAFWTZhZBIGaChBg1ZSbxRBAAAFvBAiwvBkljSCAAAIIIOCfAAGWfzOlIwQIsDgHEEAAAQTKESDAKkeNfRBAAAEEEECgJgIEWDVhZhEEaipAgFVTbhZDAAEEvBEgwPJmlDSCAAIIIICAfwIEWP7NlI4QIMDiHEAAAQQQKEeAAKscNfZBAAEEEEAAgZoIEGDVhJlFEKipAAFWTblZDAEEEPBGgADLm1HSCAIIIIAAAv4JEGD5N1M6QoAAi3MAAQQQQKAcAQKsctTYBwEEEEAAAQRqIkCAVRNmFkGgpgIEWDXlZjEEEEDAGwECLG9GSSMIIIAAAgj4J0CA5d9M6QgBAizOAQQQQACBcgQIsMpRYx8EEEAAAQQQqIkAAVZNmFkEgZoKEGDVlJvFEEAAAW8ECLC8GSWNIIAAAggg4J8AAZZ/M6UjBAiwOAcQQAABBMoRIMAqR419EEAAAQQQQKAmAgRYNWFmEQRqKkCAVVNuFkMAAQS8ESDA8maUNIIAAggggIB/AgRY/s2UjhAgwOIcQAABBBAoR4AAqxw19kEAAQQQQACBmggQYNWEmUUQqKkAAVZNuVkMAQQQ8EaAAMubUdKIFwLz56fm6oRU4zil9/QoXcgoaE6NDvJ7+1LFtA2aJYW5DL9vvRg2TSCAwFAEioXiuyQtG8q2rm2TGzNZ2TGTXCuLehCouwABVt1HQAEIIIBALAX4QjiWY6PouAq0vmV5S2qcPapYDI+30sxAZro1mmatphnZaZJpkBQYKbBSSlL0ezSQjJHsgW/8to3r/KkbAQTKEsj+b4AV/dkYuw8BVuxGRsE1EiDAqhE0yyCAAAKeCfCVsGcDpZ36CMzr6Ehvfih7XDEMZgXGzpDVcVZ2hlEwUQrHW2vGG6MjJEUXUfFBAAEEEEiAAAFWAoZMi2UJEGCVxcZOCCCAQOIFCLASfwoAMGSB+bel5uQemFRUalJKxUnWptpk7Aus0amyapMUXSXABwEEEEAAgZIAARYnAgKHFiDA4sxAAAEEEChHgACrHDX2SYJAdLueTjpv2di8sW8JguAtsvb1VmpKQvP0iAACCCAwcgECrJEbcgQ/BQiw/JwrXSGAAALVFiDAqrYwx4+NQOs5y6cpU3yDZM6WzPEK7TQZTdbgs6j4IIAAAgggMCwBAqxhcbFxggQIsBI0bFpFAAEEKihAgFVBTA4VH4Hp8z/XOCqTn2uNTlGglxqrs6KHqsenAypFAAEEEHBdgADL9QlRX70ECLDqJc+6CCCAQLwFCLDiPT+qH6LA3Pkd2UJ61GilC20mDD8oY94mqXGIu7MZAggggAACwxYgwBo2GTskRIAAKyGDpk0EEECgwgIEWBUG5XBuCcx816ePTxeKH7RGb5bMJMmOdatCqkEAAQQQ8FWAAMvXydLXSAUIsEYqyP4IIIBAMgUIsJI5d2+7bn3P8hb1F18pY95Qui3Qao6MOM+9nTiNIYAAAu4KEGC5Oxsqq68AAVZ9/VkdAQQQiKsAX9jHdXLU/aRA2/lLx9ui2kxgzrdW50kaBQ8CCCCAAAL1FiDAqvcEWN9VAQIsVydDXQgggIDbAgRYbs+H6p5HYOaC5dNTQfglWfs6yWQlBYAhgAACCCDgigABliuToA7XBAiwXJsI9SCAAALxECDAisecqPKAwKyFy+ekrH2flT1bMidKlnOYswMBBBBAwEkBAiwnx0JRDggQYDkwBEpAAAEEYijAF/8xHFrSSp47v2NKIZt7hTF6l6TXcaVV0s4A+kUAAQTiKUCAFc+5UXX1BQiwqm/MCggggICPAgRYPk7Vh57m35Y6Mf3AhIEgtUjGfkhSdIsgHwQQQAABBGIjQIAVm1FRaI0FCLBqDM5yCCCAgCcCBFieDNKbNjo6grYHG95oQ7tYRifxQHZvJksjCCCAQOIECLASN3IaHqIAAdYQodgMAQQQQOAZAgRYnBBOCJy88DOT8ho4x1pzgZFOc6IoikAAAQQQQGAEAgRYI8BjV68FCLC8Hi/NIYAAAlUTIMCqGi0HHorA7POvONKEqfMkfVJS41D2YRsEEEAAAQTiIECAFYcpUWM9BAiw6qHOmggggED8BQiw4j/DWHZwzAUdDblCw02SfT23CcZyhBSNAAIIIHAYAQIsThEEDi1AgMWZgQACCCBQjgABVjlq7FO2wJyFV55YDIOPG6P5kprLPhA7IoAAAggg4LgAAZbjA6K8ugkQYNWNnoURQACBWAsQYMV6fLEp3sw+d2mr0vobY81f80bB2MyNQhFAAAEERiBAgDUCPHb1WoAAy+vx0hwCCCBQNQECrKrRcuBIYO78jmwxl/0XybwXEQQQQAABBJIkQICVpGnT63AECLCGo8W2CCCAAAIHBQiwOBeqItD6nuUtdsBeaazOleyEqizCQRFAAAEEEHBYgADL4eFQWl0FCLDqys/iCCCAQGwFCLBiOzo3C5/5hi/mgiN63muMLpV0tJtVUhUCCCCAAALVFyDAqr4xK8RTgAArnnOjagQQQKDeAgRY9Z6AJ+ufceF1md7eHacXrPmOkSZ50hZtIIAAAgggULZAbuxkZUfzV2LZgOzorQABlrejpTEEEECgqgIEWFXlTcbBZ1941QTTW7hN1r5MUiYZXdMlAggggAACzy+QGzdV2Rbuouc8QeDZAgRYnBMIIIAAAuUIEGCVo8Y+JYGjzusc15gyH5MNL5bMaFgQQAABBBBA4CmBxolHK/3/2bsT+Cqu8278vzNzF62AQBsCDGbRFeAlie0ktmMjyU7SuGnipMVJkHDif2Ik2Q3vGzeJDXFavVkk7KRv2sSxwe6bugbsFLdp0jRNHdeIxPG+EWNAEosXNulKCBDa7jbn3xF1SmyM5l7dWc7c3/TjD3zKWZ7zfYYb7qOZc/L5P4+8JyjAAhbvAQpQgAIUyIYAC1jZUMy9MURkZXsdpLwXEAtyb/lcMQUoQAEKUGBigcKZEWjB0MQN2YICOSbAJ7ByLOFcLgUoQIEsCbCAlSXIXBlmyfLWolQo9K8QYhkALVfWzXVSgAIUoAAF0hEQQkPRnKXpdGFbCuSMAAtYOZNqLpQCFKBAVgVYwMoqp78Hq25s/wKk/EshxBx/r5SrowAFKEABCkxOQAuGUTizenKDsDcFfCrAApZPE8tlUYACFLBZgAUsm4H9MPyiFe3zNQ13AuKTgOQ944ekcg0UoAAFKGCrgLn3lbkHFi8KUODtAixg8a6gAAUoQIFMBFiMyEQtV/os36IvCu+7VgO28HXBXEk610kBClCAAtkQCE+vQqhoRjaG4hgU8J0AC1i+SykXRAEKUMARARawHGFWb5Ily1tDyXD4JwL4EICgeitgxBSgAAUoQAGXBMz9r2bVQGi6SwFwWgp4W4AFLG/nh9FRgAIU8KoAC1hezYyLcS1qaPuopom7IcG9rlzMA6emAAUoQAE1BYJF05E3fZaawTNqCjggwAKWA8icggIUoIAPBVjA8mFSM11S1Z+0FhRPyVsDIW/PdAz2owAFKEABCuS6QEHlAuihglxn4Pop8I4CLGDx5qAABShAgUwEWMDKRM2Hfc79zLcrQrr+FCDnAeB94cMcc0kUoAAFKGC/gJ5fhIKyc+2fiDNQQGEBFrAUTh5DpwAFKOCiAAsVLuJ7ZerqhvZPCYHvAZjplZgYBwUoQAEKUEA1AXPPq8KZ1RB6QLXQGS8FHBVgActRbk5GAQpQwDcCLGD5JpXpL2Te51rz8lPh2w0pbgMkd5pNn5A9KEABClCAAr8XCE8tR2hqBUUoQIEJBFjA4i1CAQpQgAKZCLCAlYmaD/q863PfmzaaHHscwHk+WA6XQAEKUIACFHBVIJBfjPwy8y18XhSgwEQCLGBNJJS9P9+yBXpRz8JAUWhggRShupSUFwrIc4REMQS3DcmetLWRJGQMQqSEFDEpjFEB7YSUxiCkOGFo6NUFemRSHEnq+uFjw1pfUSDPGBrYK8uWwejrg1y+HIYQkNZmYysK+E+ABSz/5XTCFdV8pu1SqYlNEJg/YWM2oAAFKEABClDgrAJaIIiCigUQepBSFKCABQEWsCwgTbJJx/rSiyX0mwTke6XEHCEwZZJDsrvzAkkAoxIYFcCwAIYkMCQE+gB0ypTcBU3ujBfouz98fe+w8+FxRgo4L8AClvPm7s24fIteHdy7QgjxAwhMdS8QzkwBClCAAhTwh4C531VBxXxogbA/FsRVUMABARaw7EHu+GFZkdTFJyHRpAm8XwKaPTNxVC8JSCAlgDcAdEkpuqWQuzVD7IUQe/tm9By47jqkvBQvY6HAZARYwJqMnkJ9F37x+2FtYOhLQoh2hcJmqBSgAAUoQAHPCphPXuVXLIDGJ688myMG5k0BFrCym5fWVmhXzqy4RBjSfMNiYXZH52hKC0h5TGjaLyHxbykhn03oY8cGpwyeYFFL6azmdPAsYOVI+iMN7T+FwMcAvuueIynnMilAAQpQwEYBPZSHvLJzofHEQRuVObRfBVjAyl5mzaeuhK79o4T8IAC+x5w9Wj+OlJASgwCOSYGfGkI88MGm3h1+XCjX5F8BFrD8m9vxlZ37mW9XhHT9J4C8zOdL5fIoQAEKUIAC9gsIgVBxKUJTyiA0HuBrPzhn8KMAC1jZyeq2e2dcIg39PgAXZmdEjpJjAhIQBwH5ohB4wpD4VV1T9GVuEp9jd4Fiy2UBS7GEpRPu4pXfPs8wtF9CYHY6/diWAhSgAAUoQIG3C2ihfORNq4SeV0QeClBgEgIsYE0CDzCPoBO/3VDx3qSU/wagdHKjsTcFThOQ2Cs08fdSpn41GETXxz/ff5I+FPCSAAtYXspGFmOpaVh3vhTyKQCFWRyWQ1GAAhSgAAVyTsB80iq/9BwWrnIu81ywXQIsYE1O9rG7St+jB7SnJBCa3EjsTYF3FJBCICGl3KgL+fUrm/qP0IoCXhBgAcsLWchyDNUr2q4RmtgEoCTLQ3M4ClCAAhSgQE4ImEWrYOE0BPKnQgvnQwge5pUTieciHRFgAStz5q0bKt4npPFLQPDf+ZkzsmcaAhKIaxKdhsB/Gob44dU39e5PozubUiCrAixgZZXT/cGqG9o+K4S43/1IGEHGAkKc+qI0/qv5V/TU783t9wX34M+YlR0pQAEKnFFg/HNWjO9nJfQAtGAe9HAB9FA+wShAAZsEWMDKDPbxu6eWJLXwrwGcn9kI7EWBSQskIcQjkMb9sZHw1j+65eDApEfkABRIQ4AFrDSwvN60urH9zwXwA6/HmZPxmcWo8QrUqf/ML0paIAQRDEPXQxCBMMzj2M0vT9wUOCfvEC6aAhSgAAUokDMCLGCln+otW6CXDZSbe179Ufq92YMC2RcQAvH/eo21LZUI3vXb/kPHWlthZH8WjkiBPxRgAcsfd4SoXtH+l0LHGkiE/bEktVehmYWpUAHMDX/Nn+KP/2RfM5+k0n7/dJXaK2T0FKAABShAAQpQIDMBFrDSd9t6d+UyoRmPAgim35s9KGCfgAQGAfG8FKmvXNXU/6J9M3FkCoy/lMRLaYHWVi3SHVorNdEqAJ7n7XAyzaeoxotUwfD4aydm4UqYT1ZxrxSHM8HpKEABClCAAhRQRYAFrPQy9fjd55QktbGdAGam15OtKeCoQBLAY4D8u9F438+vWY2Yo7NzspwQYAFL6TRLEVm5bi0kvqX0MhQJ/vT9UYL5U6DnF/N1P0VyxzApQAEKUIACFPCOAAtY6eWiY0PpFyC1+9LrxdYUcFFAYDuE+Ep4KPjEZbccHHUxEk7tMwEWsNRNqIg0tK2DEH8BPnllWxZPnUJVgkBhyak9q/57DyvbJuTAFKAABShAAQpQwOcCLGCll+CODWW7IMXi9HqxNQVcF0gJgf5kSi6/+qa+x12PhgH4QoAFLCXTaD55dcfXIOVf8j347CbQfPUvkF8MvWAKdPOVwED41MbrvChAAQpQgAIUoAAFsiLAApZ1xq3ry64REL+w3oMtKeA5ASkhHxdAe21T3yNCQHouQgakjAC/mSuTqv8JYGCXlAAAIABJREFUtKZh3RelkN9XMHRPhvzmPlbBgqkI5E9hwcqTWWJQFKAABShAAQr4RYAFLOuZ3LahYouUcrn1HmxJAW8KSMAQQmxJabL96hujL3szSkbldQEWsLyeobfEF2lsawHE3YqF7b1whRg/JTBcMnP8lEBeFKAABShAAQpQgALOCLCAZd25Y315N4BF1nuwJQW8LyCBuyuml35p6XW74t6PlhF6SYAFLC9lY4JYqhvaPyEENgEoUChsT4WqhwsRnlI2fnKg0AOeio3BUIACFKAABShAgVwQYAHLWpY7WufloXJ4EBBBaz3YigIqCcgDkPjLupa++1WKmrG6K8AClrv+lmdftKL9ak3DLwGw6mJZ7VRDcx+rQMEUBAunQQvmpdmbzSlAAQpQgAIUoAAFsinAApY1zd/cV/HxVEr+1FprtqKAsgL/kZRy7Qdb+l5SdgUM3DEBFrAco858oprPtl8kU3gSQCjzUXKspxDjhavw1DIECqbl2OK5XApQgAIUoAAFKOBdARawrOWmY335XQButtaarSigtEACQn4JSfxD3c19Q0qvhMHbKsAClq28kx983ue+Ny2cHHsFwKzJj5YbI5gbsYenV0HTAtyQPTdSzlVSgAIUoAAFKKCQAAtY1pLVsb78KQDvt9aarSjgAwEhdiJpXFt3c99eH6yGS7BBgAUsG1CzNeS7Ptc6bSQZfkIAS7I1pm/HERpCRdMRLCrha4K+TTIXRgEKUIACFKCAHwRYwLKWxW0byg9JiSprrdmKAv4QEMAggL+OjoS+c90tB0f9sSquIlsCLGBlSzLL4yxsaJ2ii/C/AKjP8tC+Gs7ciH38iatpFRDmE1e8KEABClCAAhSgAAU8LcAClrX0dKwvPwmgyFprtqKA7wQeNQRarmqK7vPdyrigjAVYwMqYzt6Okcb2HwK4yd5Z1B7dfNoqXFIFITS1F8LoKUABClCAAhSgQA4JsIBlLdkd95SPQCDfWmu2ooD/BAQwInXjj+tu7N/mv9VxRZkIsICViZrNfSKN7V8HxF8BUrd5KiWHDxZNR6i4FFowrGT8DJoCFKAABShAAQrksgALWNayzwKWNSe28r1ASkLeP0UEV1/cdHjE96vlAs8qwAKWx26QRde3X60Z+BmAAo+F5nI4AoG8QoSmVUIP8QdRLieD01OAAhSgAAUoQIGMBVjAskbHApY1J7bKDQEJ/EaIQFNd0+HO3FgxV3kmARawPHRfLFp5x2JNGrs8FJInQjH3tsqbMRuB/GJPxMMgKEABClCAAhSgAAUyF2ABy5odC1jWnNgqpwROSsOo+020/6XWVhg5tXIudlyABSyP3AhLlrcWpfLCz0GixiMhuR+GEAhPrRw/WVBofJvS/YQwAgpQgAIUoAAFKDB5ARawrBmygGXNia1yTiAGia/VtUT/OudWzgWzgOWVeyDSuO4fAXmdV+JxOw7zZMHQ1HK+Luh2Ijg/BShAAQpQgAIUyLIAC1jWQFnAsubEVjkpICXEj/of62267mGkclIgRxfNJ7DcTnxrqxbZE1oNIb7ndihemF/oAYSnVsDcqJ0XBShAAQpQgAIUoID/BFjAspZTFrCsObFV7goIiWeDheJPLr++N5q7Crm1chawXM53deO6CwWMZwERcjkU16c397jKKz0HQmiux8IAKEABClCAAhSgAAXsEWABy5orC1jWnNgqtwWEwGGpBd9Xd+Ohg7ktkRurZwHLxTwvXvGtuYamPwFglothuD+10JA3fRaCBVMBwVvS/YQwAgpQgAIUoAAFKGCfAAtY1mxZwLLmxFYUgMTrEMaf1TX3P08NfwuwWuBWfltbtep9eQ8LKT/pVghemFcPF46fMKgFcv4BNC+kgzFQgAIUoAAFKEAB2wVYwLJGzAKWNSe2osC4gMBJKcUn6pt7H6OIfwVYwHIpt5GG9q9B4FsuTe+JaUNTyhGeVuGJWBgEBShAAQpQgAIUoIAzAixgWXNmAcuaE1tR4HQBAeNjtc39P6eKPwVYwHIhr0sb2xcmgZcAFLkwvetTmhu155fOhR7OHy+V86IABShAAQpQgAIUyB0BFrCs5ZoFLGtObEWBtwgMGVLcclVL732U8Z8AqwcO57T6M98tFXr8eUDMdXhqT0yn5xUhb3oVtEDYE/EwCApQgAIUoAAFKEABZwVYwLLmzQKWNSe2osBbBQQwkoL88/qmvvuFgKSQfwRYwHI2lyLS2HYnIL7s7LRemE0gWDgVedNnc6N2L6SDMVCAAhSgAAUoQAGXBFjAsgbPApY1J7aiwDsJpICVVzVFN7OI5Z97hAUsB3NZfX37J2DgYQHoDk7rianMjdqDhSWeiIVBUIACFKAABShAAQq4J8ACljV7FrCsObEVBc4ikDAk/tdVLdF7qOQPARawHMrjkuWtoVQ4vBvAfIem9MQ0Qgsgr3Q2AnnFnoiHQVCAAhSgAAUoQAEKuCvAApY1fxawrDmxFQUmEBiSwM31zdEHKKW+AAtYDuSwtrU1cGRv+EEAyx2YzjNTaIEQ8svmQQtyvyvPJIWBUIACFKAABShAAZcFWMCylgAWsKw5sRUFJhIQAvGUkNdetarvlxO15Z97W4AFLAfys/iz373SSCU6AGgOTOeJKbRgHgpnLvJELAyCAhSgAAUoQAEKUMA7AixgWcsFC1jWnNiKAlYFdE2rvXJVz6+ttmc77wmwgGVzThbe0FamJ8R2AFU2T+WZ4QMF5mbtsyC0nNvqyzM5YCAUoAAFKEABClDAqwIsYFnLDAtY1pzYigJWBaREVNfE1cuaendY7cN23hJgAcvmfEQa238I4Cabp/HM8MHCaQibxSuRMw+becaegVCAAhSgAAUoQAEVBFjAspYlFrCsObEVBdITkAdG46nLrlk9cDC9fmztBQEWsGzMQnXjugs1yOclELBxGs8MHSiYhvzSOZ6Jh4FQgAIUoAAFKEABCnhPgAUsazlhAcuaE1tRIF0BIXA4pIfOv+wLBwfS7cv27gqwgGWTf9Wq1oLikfBLAKptmsJTw4amlCI8tRIQvKU8lRgGQwEKUIACFKAABTwmwAKWtYSwgGXNia0okJGAxCO1zdGPCAGZUX92ckWA1Qab2CMr2lZDE9/LhY3bQ1PKEJ5aweKVTfcSh6UABShAAQpQgAJ+EmABy1o2WcCy5sRWFMhUQAL31jdHmzLtz37OC7CAZYN5pPGOCKSxGwK+9w0WlYxv2A7/L9WGO4VDUoACFKAABShAgdwTYAHLWs5VLmBdvDjIFzPOkGYpBaQEDEMiZQCpFJAw/0tKxBMSsYREImn+///nz5OGhGFYu2fYKj0BMZ4KeeNvevvub20FldPjc6W17wssbqhGGts3AWhwY24n5zxVvJrt5JSciwIUoAAFKEABClBAcQEWsKwlUOUC1rJ3h1nAspbmM7Yyi1zmZf5q/jYWlzh+0sDASWP812RqEoOz61sFUrrEsitbok+QxvsCLGBlOUc1DW0flUL8FICe5aE9NVywaDrySqr42qCnssJgKEABClCAAhSggPcFWMCyliMWsKw55WIr82mtsTgwGpM4MWTg2JCB0TFu5ZTpvSAlonpAr11245HdmY7Bfs4IsICVXWcRWdm+HRIXZHdYb40WyCtEXuk8CE3zVmCMhgIUoAAFKEABClDA8wIsYFlLEQtY1pzY6pSAWcA6aj6hNWhgaNQscLGglc69ISWezBsNXX3ZLQdH0+nHts4KsICVRe/FjeuuNyD/IYtDem4oPZSPgsqFnouLAVGAAhSgAAUoQAEKqCHAApa1PLGAZc2Jrc4sMDQi8VpPEsdOGuN7bfGaWEACP6nriS4X3A9rYiyXWrCAlSX4BZ/+1pxAQN8DIJylIT03jBYMo6BiPoQW8FxsDIgCFKAABShAAQpQQA0BFrCs5YkFLGtObHV2gWRKYmQMONSXQvRYanxfLV7vKJDUIBuXNff9I428KcACVpbyEmlo+yaEuD1Lw3luGKHpKCifDy2U57nYGBAFKEABClCAAhSggDoCLGBZyxULWNac2Mq6gLkZfPSYMV7IOjnCStaZ5CREXCB1eV1z//PWZdnSKQEWsLIgvXjFNxeltMBu4deN24U2/uSV+fogLwpQgAIUoAAFKEABCkxGgAUsa3osYFlzYqvMBAYGDew/nMTIqITBWtYfIAopnyvSgrUXNx0eyUyXvewSYAErC7I1jW0PSYhPZ2EoTw6RN2M2goUlnoyNQVGAAhSgAAUoQAEKqCXAApa1fLGAZc2JrTIXMF8nNDd7737j1F5ZvP5AYHNdc7SRJt4SYAFrkvmoub6tGoZ4SQIFkxzKk91DxTMQLqnyZGwMigIUoAAFKEABClBAPQEWsKzljAUsa05sNXkB8wGswSGJA9Ekjh43wAeyxk3HDIGPX9UU/dXkhTlCtgRYwJqE5EWrVgWHRudvg5SXTWIYz3bV8wpRUDYPEJpnY2RgFKAABShAAQpQgAJqCbCAZS1fLGBZc2Kr7AocPWHgtSNJ7pEFQAjEU7pefdUXjryeXWWOlqkAC1iZygFY2vDdJUmR3A7I4CSG8WZXoaGoKgKh88RBbyaIUVGAAhSgAAUoQAE1BVjAspY3FrCsObGVPQLRgRQ630jC4JuFP61rjn4S4INp9txp6Y3KAlZ6Xv/TWkoRaVz3BAQuzXQIz/YTGgorzBMHuWm7Z3PEwChAAQpQgAIUoICiAixgWUscC1jWnNjKPgHz1MLXelI40p+ybxKPjywEZMqQq69q6bvL46HmRHgsYGWY5poV6z4sNfkfGXb3dLfw1AqEppZ7OkYGRwEKUIACFKAABSigpgALWNbyxgKWNSe2sl+g/7iBvYeSGIvl7O5YR5CS76m7ua/Hfm3OcDYBFrAyvD+qG9f9m4D84wy7e7ZbIL8Y+ea+V7woQAEKUIACFKAABShggwALWNZQWcCy5sRWzgiYJxbuejWB/hMGzN/n3CXF88Va72UXNyGRc2v30IJZwMogGdWNd14BpDoEoGfQ3btdhEBhVQSa7r8tvbyLzsgoQAEKUIACFKBAbgmwgGUt3yxgWXNiK+cEzMKVucn7K/tzr4YjAUNPYfmym6M/cU6cM71VgAWsdO+J5cv1SPjdHYC4It2unm4vxPiJg3pekafDZHAUoAAFKEABClCAAmoLsIBlLX8sYFlzYivnBYbHJDpfS+TiSYXHU4a46Oqbevc7r84ZTQEWsNK8D+avXHdOUMpOAL7a4TxYOA15M+akqcHmFKAABShAAQpQgAIUSE+ABSxrXixgWXNiK3cEzNMJO19PIHos544pvL+uOXqDO+qclQWsNO+ByMp1WyFlXZrdPN1cC4RQWFXNeqans8TgKEABClCAAhSggD8EWMCylkcWsKw5sZV7AuZWWIf7UthzIOleEM7PLAXw4drm6KPOT80ZWcBK4x6oblx3oYDcnkYXJZqam7abm7fzogAFKEABClCAAhSggN0CLGBZE2YBy5oTW7krYBaxzH2xzFcKkyl3Y3Fqdgl0i3DBhXU3vDbm1Jyc55QAC1hp3AnVDe3fFQJ/kUYXzzcNFc1AeHqV5+NkgBSgAAUoQAEKUIAC/hBgActaHlnAsubEVt4QOHbSLGIlEUvkxhGFQuDW2qbond7Qz50oWMCymOvzW9pL4kM4AomwxS6ebya0wPirg0Lz12GKnodngBSgAAUoQAEKUCCHBVjAspZ8FrCsObGVdwTG4hLP747nzJNYmq4vWXbjkd3eyYD/I2EBy2KOI43t6wDcarG5Es0Kys/lqYNKZIpBUoACFKAABShAAf8IsIBlLZcsYFlzYitvCcQTEtu7ExiJ+f9JLAE8VNscXeGtDPg7GhawLOY30tjeBcDc6dwXVyB/CvLL5vpiLVwEBShAAQpQgAIUoIA6AixgWcsVC1jWnNjKewKjMYmd+xMYGvV9EUtq0D66rLnn372XBX9GxAKWhbwuXtF2jaGJX1hoqkQTITQUVC6EFvTN25BKuDNIClCAAhSgAAUoQAGABSxrdwELWNac2MqbAubrhC91JXy/J5aUeKGuOXqJEPB9tc4LdxoLWBNk4aJVG4JDo0dfhRSzvJCwbMQQnjYToSml2RiKY1CAAhSgAAUoQAEKUCAtARawrHGxgGXNia28K2CeSvjc7jhicV/XdqRM4XP1N0cf8G4m/BMZC1gT5DJy/bcvgKG9ACDgh7QLTUNhVQ03bvdDMrkGClCAAhSgAAUooKAAC1jWksYCljUntvK2wMiYxMt7EzCfyPLtJXA8ZIjI5S29Ud+u0SMLYwFrgkTUNLTdJYW42SP5mlwYQiC/bB4CeUWTG4e9KUABClCAAhSgAAUokKEAC1jW4FjAsubEVt4XODFkYMe+hK9PJ5QGvlp/U/Q73s+G2hGygHWW/NVc3zZDpkQfBHzhpIfyx/e+4kUBClCAAhSgAAUoQAG3BFjAsibPApY1J7ZSQ2Bw2MBL3QlI/z6IJQ2ZmnNVy9FDamREzSh9UZixiz6ysm01pPhbu8Z3etyCigXQwwVOT8v5KEABClCAAhSgAAUo8HsBFrCs3QwsYFlzYit1BHqOptD1etLPu53/sK45+ufqZES9SFnAOkvOIo3tvwFwhXppfXvEwcJpyJsxxw9L4RooQAEKUIACFKAABRQWYAHLWvJYwLLmxFZqCew9mMTBaEqtoK1He8KQqaV8Css6WLotWcB6B7GFn/rmAj0Y3ANIXxiZrw6arxDyogAFKEABClCAAhSggJsCLGBZ02cBy5oTW6klYL5CaG7qfuykoVbgFqMVQvx825Hea1tb4c8FWnSwq5kvijN24FQ3tj0kID5tx9hOjxksKkHe9NlOT8v5KEABClCAAhSgAAUo8DYBFrCs3RQsYFlzYiv1BOIJiad3xmH4sMQjgZFk0Fj0oc/3H1YvM96PmAWsM+Qo8rE7ijHF6ARQ5f0Unj1CoWkomFkNTQ+qvhTGTwEKUIACFKAABSjgAwEWsKwlkQUsa05spabA8KjES91xf55MKPHPdS3R5YCft/ty575jAesM7osbvvV+Q+hPANDcSUv2Zg0UTEV+6TnZG5AjUYACFKAABShAAQpQYBICLGBZw2MBy5oTW6krcKA3hX2Hkuou4KyR65fUNR953qeLc21ZLGCdgb6mYd2jUsirXctKtiYWGopnLwaE8nW4bIlwHApQgAIUoAAFKEABlwVYwLKWABawrDmxldoCu19LoHfAf+8SSil+VN/S+3m1s+O96FnAektOaj7XPk8msB8CytsEC0uQN4N7X3nvrx0jogAFKEABClCAArkrwAKWtdyzgGXNia3UFoglJJ7fnUAiKdVeyNujH4uL1Ls/3HTU3JqIV5YElC/SZMnh98NEGttuAMSPsj2u8+MJFFQu4MmDzsNzRgpQgAIUoAAFKECBswiwgGXt9mABy5oTW6kvMDhsYPuehP82dZfyx3UtfZ9RP0PeWQELWG/JRaSx/RcArvFOijKLJFAwDfmlczLrzF4UoAAFKEABClCAAhSwSYAFLGuwLGBZc2Irfwh0vp5Az1F/vUooII/Nik+duWj13pg/suT+KljAOi0HC1Z+pzwgkwcBKH9kX0HlQj595f7fL0ZAAQpQgAIUoAAFKPAWARawrN0SLGBZc2IrfwgYBvBidxxDI/56lVAC99U3R1f5I0vur4IFrNNyEGls/wqAO91Py+Qi0AIhFM6sBgTTOzlJ9qYABShAAQpQgAIUyLYAC1jWRFnAsubEVv4ROHbSwO/2JPyzIMDcWFsmRGDeB5sOv+Grhbm0GFY4/rCA9TiAD7iUi6xNW1B+LvS8oqyNx4EoQAEKUIACFKAABSiQLQEWsKxJsoBlzYmt/CWw71ASB3pTvlqUgFxd29z3A18tyqXFsIB1GnxNY/uABEpcykVWptWC4VNPX/GiAAUoQAEKUIACFKCABwVYwLKWFBawrDmxlb8EzNMIn3ol7qsN3c29sEbifTOvWQ3uhTXJ25UFrP8GrG6841oB418m6el69/DUcoSmVrgeBwOgAAUoQAEKUIACFKDAmQRYwLJ2X7CAZc2JrfwnYL5K+PLeBKSPtsOSwM31zdG7/ZctZ1fEApbp3dqqRfaFX4LEBc7yZ3c2ITQUVlVD6MrvQZ9dGI5GAQpQgAIUoAAFKOAZARawrKWCBSxrTmzlT4Ed+xI4esJXpxI+XdccvdSf2XJuVSxgAVjYcMdsXRjmpmpKewQLS5A3Y7Zzdw9nogAFKEABClCAAhSgQJoCLGBZA2MBy5oTW/lTYCwu8czOuK+ewkqk5Ls/dHPfdn9mzJlVKV2wyRbRosZvf1CD9qtsjefWONy83S15zksBClCAAhSgAAUoYFWABSxrUixgWXNiK/8KvN6TwquHk75ZoCbwTG9J9PLrroO/dql3MEMsYAGoaWi7Swpxs4PuWZ9K6AEUVUUAoWV9bA5IAQpQgAIUoAAFKECBbAmwgGVNkgUsa05s5V+BeELi2V1xJH1S7pHAiJDa0rqWntf8mzV7V5bzBaza2tbA4dnhwwIos5fa3tHDJVUIFc+wdxKOTgEKUIACFKAABShAgUkKqFzAktC+2L3p1rsmSWCpOwtYlpjYyOcC/ccN7NyfgG/2cxdorWuK/h+fp8225eV8ASvS0HY5hPitbcIODCw0HYVVEZi/8qIABShAAQpQgAIUoICXBeKDfYgd7/FyiGeJTd7UtWntPU4EzwKWE8qcw+sC5kmEz+2OY2TMJyUsgTGE4jPrbjh+3Ov2XoyPBazG9m8A+LoXk2M1Jj1UgILK+arvQW91uWxHAQpQgAIUoAAFKKCwgMoFLAnc2L1pzd85wc8ClhPKnEMFgYFBAzv2+ugpLClvqGvpu18Fe6/FmPMFrOrGtl8JiA96LTHpxGOePGieQMiLAhSgAAUoQAEKUIACXheIn4gidqLX62GeMT4p5ee6N6/9ByeCZwHLCWXOoYqAWcA6OmioEu7Z45T4z7qWqNI1CLcSkfMFrEhjez8AZTePMl8bLJq9xK37h/NSgAIUoAAFKEABClAgLQHz9UHzKSwVL6GJhs4HbnvQidhZwHJCmXOoInDspIHf7UmoEu6EcRpxLLxqdXTfhA3Z4A8EcrqAVbOybZmUYpvK94T55JX5BBYvClCAAhSgAAUoQAEKqCAQO3YY8ZNHVQj1DDHKj3dtWvuvTgTPApYTypxDFQFzB6xX9iVw9IQ/nsISEhtrW6LXq+LvlThzuoAVaWjbDCFWeCUZmcSRX3oOAgVTM+nKPhSgAAUoQAEKUIACFHBcYOzoQSSGjzk+bzYmFELWdm5c++tsjDXRGCxgTSTEP881geFRiRc64zB8sZ+7OIBwfnXdDa+N5VoeJ7PenC1gLfzi98P6wPB+CFRNBtDdvgJFsxfz9EF3k8DZKUABClCAAhSgAAXSEBjtex3J0cE0eninqWHo797z4Fe3OxERC1hOKHMOlQTMEwlf7Erg5Ig/nsKCkFfUNfX9VqUcuB1rzhawIp++owoBoxNAsdtJyHT+YMFU5JWek2l39qMABShAAQpQgAIUoIDjAiPRV5EaG3J83qxMKJLzuzZ+/dWsjDXBICxgOaHMOVQTGItLPLMzDrOYpfolIXbVNfWeJwR8sBpnspGzBazFDXe83xDGEwA0Z6izP0tB+bnQ84qyPzBHpAAFKEABClCAAhSggE0CI737kIqN2DS6rcMm9YA+Z9f9X+2xdZb/HpwFLCeUOYeKAjt8tBeW1LTz6lf17FQxD27EnLMFrMjKdXdAyq+6gZ6NOYXQUFhVDaEHszEcx6AABShAAQpQgAIUoIAjAsNH9sBIKLnty2gqKOfu/fu1jhyhyAKWI7cjJ1FQYGDQwMt7fXIioRBfqmvq/RsF0+BKyLlbwGpsfx2Asu/faYEQCqsirtw0nJQCFKAABShAAQpQgAKZCgwf7oKRjGfa3c1+g4Fw+Nyd/++WASeCYAHLCWXOoarA9u44jg/54M07KXfXtfQtUTUPTsedkwWsJSvXnZOS0ixgKXvlTZ+FYNF0ZeNn4BSgAAUoQAEKUIACuSkwdHAXpJFScPGiP1GAhfvvve2EE8GzgOWEMudQVeDoCQPmq4R+uKRh1Nbf1O/I6aaqe+VkASvS2PYxQPxM2eQJ7dTpg0LZ7buUpWfgFKAABShAAQpQgAKTEZA4eWAnFN2B+ZAei9XserjVkR3oWcCazH3Gvn4XSKaAp1+JwfxV+Uvi/rqW6A3Kr8OBBeRkAaumsf2v/uthw1YHfG2ZQg/lo6ByoS1jc1AKUIACFKAABShAAQrYJWAkYhg+0m3X8HaPuz8WiC197f5WRzbwYgHL7nRyfNUFeo4a6HzdF09h7atrjvILvoUbMicLWJHG9n8H8BELPp5sEiyagbzpVZ6MjUFRgAIUoAAFKEABClDgnQQSQwMYGzikJJAAdlUejF24bVtr0okFsIDlhDLnUFlASuDpnXHE4mrvhSUAw0iKy+r/vPcZlfPhROy5V8BqbdUie8NRADOcALZjjvzSuQgUTLFjaI5JAQpQgAIUoAAFKEAB2wTGjh5AYvi4bePbObCAfKZz09r32znH6WOzgOWUNOdRWaD7jSQO9/viPcKO2qa+q4SA2tU4m2+mnCtgVTe0XyIEnrXZ1b7hhUDRrCUQGve/sg+ZI1OAAhSgAAUoQAEK2CEwdKgTMqXmKz9SYmP35jXX2+FypjFZwHJKmvOoLDAWl3hmZ1zRbfX+QH4UKTm/7ua+HpXzYXfsOVfAijS2fwPA1+2GtWv8QF4x8svn2TU8x6UABShAAQpQgAIUoIAtAubJg0MHdwOKPmAgNPm1zgfWttmCc4ZBWcBySprzqC6wc38CfccN1ZchhTCuqm3q71B9IXbGn2MFLCkijevM4ymvsBPVzrHDJTMRKi61cwqOTQEKUIACFKAABShAgawLGMk4hg93ZX1cpwYUQv5p58a1P3HpbPvrAAAgAElEQVRqPhawnJLmPKoL9B838Mp+NZ/sPN1eQm6pb+77lOr5sDP+nCpgLVneGkqF8zoBea6dqHaOXVAxH3q40M4pODYFKEABClCAAhSgAAWyLpCKjWCkd1/Wx3VqQM3Qq3c/+NU9Ts3HApZT0pxHdYGUATz9SgwJR45XsFUrqce1qitX9/TZOovCg+dUAeuiVa0FJ0fC/QLIVzVnRbNqIPSgquEzbgpQgAIUoAAFKECBHBVIDB/D2NGDqq4+1rVpTZ6TwbOA5aQ251JdwNzI3dzQXfVLAz67rDn6gOrrsCv+nCpgRRrb/wjAL+3CtHtcs3BlFrB4UYACFKAABShAAQpQQDUBlU8gBMSerk23VTtpzgKWk9qcS3WBeELi2V1xJBU/kFBIPFjbEm1QPR92xZ9bBayGts0QYoVdmHaPG5pShvC0Srun4fgUoAAFKEABClCAAhTIusDQod2QKVWfkJCPdW1ae3XWUc4yIAtYTmpzLtUFpAS2dydwYlj5zdyP1E6PzhHXQfFSnD13VM4UsGprWwNHZodPAnD00d9spq2wqhpaIJzNITkWBShAAQpQgAIUoAAFbBcwEjEMH+m2fR67JpBS3Ne9+bZVdo1/pnFZwHJSm3P5QWBg0MDLe32wmbthfLT+pv5f+CEn2V5DzhSwFq1on69pUHbXSKHpKJq1GBA5k7Js3+scjwIUoAAFKEABClDAJYHE0ADGBg65NHtWpr2ta9OaO7IyksVBWMCyCMVmFDhN4JmdcYzGpNImEvhVfXP0w0ovwqbgc6Yasuj69qs1A4/a5Gj7sFowD4UzF9k+DyegAAUoQAEKUIACFKBAtgXMzdvNTdxVvYTQ/rRz460/cTJ+FrCc1OZcfhHYezCJg1Hl3747hJSsqbu5b8gvecnWOnKmgFXd0P4XQuC72YJzepxgwTTklc5xelrORwEKUIACFKAABShAgUkLjPTsRSo+Oulx3BpAE8b5uzd+7RUn52cBy0ltzuUXgcERiRc746ovJ2EILL6qKarsG2R2JSB3Clgr238uJD5qF6Td4+bNmI1gYYnd03B8ClCAAhSgAAUoQAEKZFVASgNDB3cB5i7LKl4SyaLC6QUv3Nvk6OY6LGCpeLMwZi8IPLcrjuExRT9v3gSU8tt1LX23e8HTSzHkRgFr+RY9Etp3FAJTvYSfTixFs5fA3AeLFwUoQAEKUIACFKAABVQSiJ88itixwyqF/AexCojfdG66bZnTC2ABy2lxzucXgSP9BrrecLTebAfd0fLp0aql10H5x8myiZMTBazqxnUXCsjt2YRzcizuf+WkNueiAAUoQAEKUIACFMimgOqvDwohvtG58ba/yqaJlbFYwLKixDYUeLuAuYn7s7viyj70+eaKArpx8RU39r/AHP+PQG4UsBrabxICP1Q18cGi6cibPkvV8Bk3BShAAQpQgAIUoECOCkgjieHD3ZCGupsqCyFrOzeu/bXTKWQBy2lxzucbAQk8uTOOeFzx1wiF/GJdU99dvslLFhaSEwWsmsZ1/yAhr8+ClytDmMUrs4jFiwIUoAAFKEABClCAAioJpGLDGOndr1LIfxirQCwgcd7OTWv2Or0IFrCcFud8fhKIHjOw61W1XyOUwCP1zdE/8lNeJruWnChgRRran4TApZPFcqt/QcUC6OECt6bnvBSgAAUoQAEKUIACFMhIYLT/DSRHTmTU1yOdBmOB2NzX7m897nQ8LGA5Lc75fCUggSd2xJFIqvsUlgBGRuLJmdesHhj0VW4msZicKGBVN7b3CKBiEk6uduUG7q7yc3IKUIACFKAABShAgQwEZCqJoUO7M+jpnS5CYGfnxjXnuRERC1huqHNOPwn8bk8Cx04aai9JGp+pa+n/sdqLyF70vi9gLV7xrbmGFngVkEqu1XzyynwCixcFKEABClCAAhSgAAVUEkgOH8fo0QMqhfz2WEXq1q6Nt9/pxiJYwHJDnXP6SeBgNIW9B5NqL0nin+paosvVXkT2oleyqJPO8quvX3eLMORfp9PHS23D02YiNKXUSyExFgpQgAIUoAAFKEABCkwo4IPXBw0ktTldP7718ISLtaEBC1g2oHLInBIwXx98cofapxEKYFdtc3RpTiXuLIv1fQGrprHtaQnxPlUTXjBzEfRgnqrhM24KUIACFKAABShAgRwUME8fHDrUBUilX995vWvTmnlupY8FLLfkOa+fBHbsS+DoCaU/h8aKRWDGxU2HR/yUl0zX4usC1gUrv1MYM5KHIDA1UyA3+wlNR+HMagg94GYYnJsCFKAABShAAQpQgAJpCcSO9yI+GE2rj+caS/lI1+a1rp0AtnV9RUxAhjznYiGgZe8Jw9dfNC0YsIk3BHoGDHS+pvxphDfXN0fv9oaou1H4+nPl1P5XurlzZL67zJnNLvQgiqqqAaFlNgB7UYACFKAABShAAQpQwHEBieEje2AkYo7PnM0JpRR/1b35tm9kc0yrY0kJsW1DuQkYtNrHS+1q3xP2UjiMJYcFRsYknt0VV13g1dqm6AIhoO6RilnKgK8LWJGV37oYUn8GgJIVoEBeMfLLXXtqOUu3GIehAAUoQAEKUIACFMglAbNwNdyzB5Bqf9eSEu/t3rzmOTdyt2UL9LKB8lEVC1hCAMvezQKWG/cN53y7gPkp9MwrcYzFlf48ksGgMfsDn+93ZT8+L91Xvi5g1TS2NUmI9V4CTyeWvOlVCBbNSKcL21KAAhSgAAUoQAEKUMBVgeHefTBiam/XIoHe7k1rKt2CfH4DgkOyfFgq+ASWpgFXvosFLLfuHc77dgE/nEYoJT5Q3xJ9Itfz6+sCVqSx/Z8A/KmqSS6atZj7X6maPMZNAQpQgAIUoAAFclDASIyNvz7og+vurk1rbnZrHc9vqCo4aSRPQEC5zXB1DbiCBSy3bh3OewaBeELi6Z1xGArv5S4Ebq1tit6Z6wn2bwFr+XI9En5PLwAlH2HS9CAKZ9Xk+v3J9VOAAhSgAAUoQAEKKCQQO96D+GCfQhGfOVQhxMc6N972c7cW8uiGkqkBGewH1CtgBQPA5RfwCSy37h3O+3YBs3D13O44RmNKv0b4dF1z9NJcz69vC1jnffbOBYlUaq+qCQ7kFSG//FxVw2fcFKAABShAAQpQgAI5JiBTSQwd7lR+7yszbSKJczt/vOY1t1LYsaGqFDJ5RMUCVjgocOn5Sh6e6Fa6Oa8DArteTSJ6LOXATLZNIUfjWsU1q3vU/wnBJIh8W8Ba3Nh2rQHxL5OwcbVrqLgU4ZKZrsbAySlAAQpQgAIUoAAFKGBVIHb8COKD5kNDyl9dXZvWuPoqxGP3zJilCf11ALpqmvlhgfctZQFLtbz5Pd7jQwa2dyeUXqaU8lP1LX1blF7EJIP3bQErsnLd7ZDym5P0ca173ow5CBZOc21+TkwBClCAAhSgAAUoQAHrAhJDh7ogU2p/QRxfr6Yt73rgVnMvXdeuxzaUL9AkulQsYBXmCVyyhAUs124eTnxGAfNQ1KdeicPcD0vVSwB31zZHXdubzwtuPi5gtW2GFCu8gJxJDIVV1dACfHc8Ezv2oQAFKEABClCAAhRwViB2ohfxE1FnJ7VlNnF8OBaqOvjwLaO2DG9x0K33Vi7VDONlCWgWu3imWXGBwEU1LGB5JiEM5PcCO19NoO+Ywju5A0/VNUcvy+WU+raAVd3Y/qIA3q1icoWmo2j2EhVDZ8wUoAAFKEABClCAAjkmYO59NXy4C1Iq/cXwv7Mmnu9aOPY+tLa6upht91ZeIg3jGXM7LtVup5JiDRcuCqoWNuPNAYGDfSnsPZBUeaVDtT3RqaIVrn4+uQmo3AeiFazW1lbtx3vDJyVQYKW919oE8qcgv2yu18JiPBSgAAUoQAEKUIACFHibgPnklfkEli8uDV/temDNd9xeS8c9pbUQWofbcWQyf9k0DUvns4CViR372CswNCrx/O64vZPYPLoAPlTbHH3U5mk8O7wvC1iRlXdcDGk851n1CQILl1QhVDxD1fAZNwUoQAEKUIACFKBAjggYiRiGe/b44uRBAMOBWOycnQ+3Dridvo71ZX8GiIfdjiOT+Stn6KiZG8ikK/tQwFYBP+yDJQU21jdFr7cVysOD+7SAte6rkPIOD7ufNbSCivnQw4Wqhs+4KUABClCAAhSgAAVyRGBs4CASQ8d8slrx065Nt33CC4vpWF/+ZQCuPwmWicWsMh2L5rCAlYkd+9gvsO9QEgd6U/ZPZN8Mh8qnR+cvvQ5qP0qWoY8vC1g1je2PSOBDGZq43o0buLueAgZAAQpQgAIUoAAFKDCBgJEYw/CRvQDUPdXr9CVKiM92b7rtAS8kfus95fcKgRu9EEu6McybGcC8mXq63dieAo4InByReKFT3dqPBAZFSkbqbu7rcQTMY5P4roC1ZHlrKBUO7wBQ7TFri+EIFM1ZAiGUO3DE4vrYjAIUoAAFKEABClBAeQEpMdK7D6m4q4f1ZZMxkRSB2fs2fsUTRyl2bKjYBimXZXOBTo1lPn1lPoXFiwJeFIglJJ7dGUdK0W3QJWDoUl68rKXvJS/62h2T7wpYCxtap+givAdAud14doyvhfJRWLnQjqE5JgUoQAEKUIACFKAABbIikBw5gdH+N7IylhcGkVLe17157SovxGLG0LG+/AiASq/Ek04cS84NoryEP4xPx4xtnRMw98F6+pU4zEKWqpcE/qq+OfoNVeOfTNy+K2AtWPmd8oBMmv9rGp4MjFt9w1MrEZpa5tb0nJcCFKAABShAAQpQgAJnFZCpBIYOdfpHSSIpdLm084G13V5Y1OObzylJnhxzfSP5TC0uXBRESTELWJn6sZ/9AnsOJHGoT919sATErtrm3qX2S3lvBt8VsBZ9dt2VWkr+2nvU1iIqnFkNLahk7c3aAtmKAhSgAAUoQAEKUEBpAX9t3D5+gOKBeDBW/dr9rWNeSMy2eysvkYbxrBdiySSGSxaHUJjvu6+ZmVCwj0cFhkclntut7j5YQkAGAsbsD3y+/7BHiW0Ly3efLJHGdvNRuq/bJmbjwELTUDQ7JwupNqpyaApQgAIUoAAFKECBbAkkRwYx2v96tobzyDjif3dtuu1vPRIMtm6oWCGk3OyVeNKN4/ILwgjyEMJ02djeYYEnd8QRV/k1QqF9tL6p5xcOs7k+ne8KWNWN654SkO93XTaDAMwnr8wnsHhRgAIUoAAFKEABClDAcwJSYvhIN4ykuk8unMG0r2vjbRUQwjMb4nSsr/gmIG/3XP4tBKTrwBUX8m0SC1Rs4rLA7/YkcOykoju5m3ZS3F7X0vttlxkdn95XBayFH/l+WJsxPCwAJY+90POKUFB+ruM3ASekAAUoQAEKUIACFKDARAKj0VeRHBuaqJlqf/53XZvW3OiloDvuKXsIQnzaSzFZjaW4QOCimpDV5mxHAdcE9h9K4o1edffBkhL/Wt8S/bhrgC5N7KsC1oLG9oUBwDyBUMkrVDwD4ZIqJWNn0BSgAAUoQAEKUIAC/hXw26mDb2ZKg37R7k1ffdFLmetYX/4UACXfKKmYrmPxPL4/6KX7ibGcWWBg0MDLexPq8kj01LVEZ6q7gMwi91UBK7KyvR4Sj2VG4X6v/BlzECic5n4gjIACFKAABShAAQpQgAL/LWAk4hjp3QNpKPy6zZmz+cuuTWuu8ViiRcf68iiAUo/FZSmcBbMCmFOh5MswltbHRv4RSBnAE7+LwfDMy8Pp2+pILr2yeWBX+j3V7eGvAlZj2w2A+JGq6SiqikAE+Mitqvlj3BSgAAUoQAEKUMCPAiO9+5GKDftuaYYhlu158LbfeGlhT2woXxCX2OulmNKJ5cJFQZQUa+l0YVsKuCag+j5YUuLW+pbona4BujCx3wpY3wHEl11wnPSUQg+gaNbiSY/DAShAAQpQgAIUoAAFKJAtgdjAIcSHBrI1nJfG6RuOhecefPiWUS8FtXVDxWohpWdOREzHRgjg4poQCvN99RUzHQK2VUzA3APL3AtL2UviP+taoh8yt3RXdg1pBu6rT5dIY7t5jKTXHgO2lBJu4G6JiY0oQAEKUIACFKAABRwSSI4MYvToG4D03XcjQxPyT3ZvXPvvDlFanqbjnvJHIXC15Q4eaqhpwHuXhJAX8tVXTA8JM5RsCxw/aWD7HoX3wQL2FIvo0ouboPQi0smrrz5dIo3trwGYmw6AV9qGppQiPC3n9mDzCj/joAAFKEABClCAAhQ4TSAVH8VIj7Jvsk2Uy91dm9YsmaiR03/+8w1VBUUy2Q1gltNzZ2M+XQcuPS+MALfAygYnx3BAYCwu8fQrcQdmsm2Kk8UiUHlx0+ER22bw2MC+KWDNX7VuanBEms83K/nSdd6M2QgWlnjs9mA4FKAABShAAQpQgAK5JiCN1Hjxykgq/cXundMm5Je6Nq79G6/l9T82lM4MS60LQLHXYrMSTygIXHp+GL75gmll0WyjtID5cOmTO+JIJNV9ylQG8IH6L0SfUDoRaQTvm8+X6sa2KwSEpzZhTCMPKCifDz2vMJ0ubEsBClCAAhSgAAUoQIGsC4xE9yM15r9N28ehJPakpheev/cHq2NZh5vkgFvvqnifFpBPSkV/IF9WomHpucFJKrA7BZwV2HcwiQPRlLOTZnE2KXFffUt0VRaH9PRQvilgRVa0rYYmlNzw0LxDCqsi0HgCoaf/sjA4ClCAAhSgAAUo4GsBKTE2cBCJ4eO+XaYAmjo3rbnXiwt87J7y72oCf+HF2KzEVH1OAFWlfH/QihXbeEdgeFTiud0qP20qj9X29JWKVhjeUbUvEv8UsBrX/QiQN9hHZefIAsVzlgLm0R28KEABClCAAhSgAAUo4IJAfDCK2PFeF2Z2aEqBYb04Vrnr7tYhh2ZMa5qt68t7BFCRVicPNX7/edzA3UPpYCgWBQwJPLUjhoTChxFqqcA5y24+fMDikpVu5puKSaSx/TEA9SpmQw8XoqBivoqhM2YKUIACFKAABShAAR8IxAf7EDve44OVvOMSDGipT3Y9cPvPvLjIrXeXRoSmdXoxNisxmRu3f+DCsJWmbEMBTwmY+2A93xmH+SSWqpcw5JW1N/U9rmr86cTtpwLWDgDnpbN4r7QNTS1HeKqyP2zxCiPjoAAFKEABClCAAhTIQCAxfAxjA4cA85ucby/RNRwLvfvgw7eMenGJj91TvlITeMCLsVmJqahA4OKakJWmbEMBzwns3J9A33F138ATmlhVu6r3Ps/B2hCQnwpYRwBU2mBk+5Dm01fmU1i8KEABClCAAhSgAAUo4KRAauwkRqKvj+9u7uNLCiE+3rnxtp97dY0d95TdByG+4NX4JoqrdJqG8+ZzA/eJnPjn3hQ40p9C1xvqvkMoBDbWNkWv96ZudqPyRQGrtbVVe2hveAyAep+aQqCoqgZCD2Q3sxyNAhSgAAUoQAEKUIACZxEwN2s3N23395NXMPeZfaRr420f8XKVrmN9+asA5ql6w86tDODcKm7grmr+cj3ueELiyR3qbuQugDdqm6NzcyGPvihgLW688z0GUi+omDCh6eMnEJq/8qIABShAAQpQgAIUoIATAsnx4tUhSKnuazPWnIQUkPWdm9Zss9be+VZbN1S8T0j5tPMzZ2/GCxYGMX2Klr0BORIFHBZ4ZmccozGFn0SV2rl1LT2vOczm+HS+KGBVr2z/kpD4v47rZWFCLRBCwcxqCJ5AmAVNDkEBClCAAhSgAAUocHYBieToSYz2v+H/J6/GIeTfd21a+/95+a7ouKd8PQSavBzj2WIzv8ZcfkEIAd0XXy1VTQPjnqTA7tcS6B1QuqC/sq45ummSDJ7v7otPmUjjun8B5LWe1z5DgFooH4WVC1UMnTFTgAIUoAAFKEABCigmED95FLFjhxWLOuNwxzQjWLP7wS+bm3x58tqyBXrZQPl2VQ+jMlGLCwQu4gbunry/GJR1gUN9Kew5oO4+WFJiQ31LtNn6itVs6YcCloisbO+FRJmKKQgWTUfe9Fkqhs6YKUABClCAAhSgAAUUEogd70F8sN/LW0FlVVNKY2335q+1Z3XQLA/2+N3nlCS1sUMA8rM8tGPDzanQsWAW9/N1DJwT2SJwfMjA9u6ELWM7M6jsqGvuq3dmLvdmUb6AtbChdYouwkcBKPmpaRavzCIWLwpQgAIUoAAFKEABCtghIA0DsWOHYG7anjuX3N61ae27vb7ebRvKvy4lvuH1OM8Wn3n6oHkKIS8KqCyQSEo88bK6G7lLidfqW6LnqpwDK7ErX8BavOK7cw0tuQ+QSu6CXli5CFooz0qu2IYCFKAABShAAQpQgAJpCZibtI/07IORMA/szp0rJfHhvZvX/MrLK96yZUmobKBvCBDqnaR+Guwli0MozFf+a6WXbxXG5pDAc7sSGB5Tcx8sCRgV00vzl163S90qnIU8K/9JU9247kIB+SIA9cr+QqB49lLzaF8LqWITClCAAhSgAAUoQAEKWBcw4qMY7T8AIxmz3skPLSXWd21ec5PX35X0w+mD5teYK94VhsavM374m5Pza3j1cAqv96i7D5au4c+uXBX9Zz8nUvmPmpqVbcuk1DoAqdxazBMIC6sifr6/uDYKUIACFKAABShAAccFJJLDJzA2cAjmE1g5dp3UjNT5ux+83bMbt7+Zj20byr8hJb6ucn7KSnQsPVfJnVxUZmfsNgkMDht4sUvdfbAk8FB9c3SFTTyeGFa5os9b1SIN6xoh5EZPaKYZRCCvCPnlvn9NNU0VNqcABShAAQpQgAIUyFTALFjFjvcicdLcrD3XLpHSID6ye9Otj3p95R2tCKCy/CCACq/Herb4LlwUQkmx8l8pVU4BY8+iQCwh8ezOOFKK1v0l0C96ojPrWqHuY2QT5FP5T5vqhvY2IbAmi/etY0MFi0qQN322Y/NxIgpQgAIUoAAFKEAB/wpII4WR6H4Y8dza7+p/Mioe64q98GE8/HDK61neem/ZdcIQ/+j1OM8WX0AHLjs/DE29jVxUZmfsNgqYhatndsYRT0gbZ7F16OHUGBZc/b+jvbbO4uLgyhewIo1t/wKIa100zHjq8NQKhKaWZ9yfHSlAAQpQgAIUoAAFKGAKJIYGMHbsCJB7rwy+eQMclFr4/d0P3HJIhTti24byn0mJj6kQ6zvFaG7cfnFNiNv5qpxExv42gZe6EjgxrOYjWAJIaNDedWVzzy6/ptYHBax1nYBUciOp/BlzECic5td7i+uiAAUoQAEKUIACFLBZQKYSiB07gsTICZtn8vbwUsjruzeuVWJbkZ9vqCookkmz0Kb0F4GZM3RE5nL/K2//zWB06Qq80ZPC/sPqvoEnID5W29z783TXrUp7tQtYra2ByN68MUDqqoCfHmdBxXzo4UIVQ2fMFKAABShAAQpQgAIuC6TGhjDa/zqkoebTAtniE5A/7lwYb0BrqxIQ2+4ta5OGUHILlNNz9q5FQUwr5vuD2bqPOY43BEZip/bBUvWSUn6/vqXvf6ka/0RxK13AWrSifb6mYd9Ei/TqnxdV1UAEgl4Nj3FRgAIUoAAFKEABCnhQwEiaT10dRnJ00IPRORuSAHqNVPC87oe+rMSu9R3fmzYN+aG9AGY4K5Xd2cJBgfefx9cHs6vK0bwi8MTLcSSSau6DJYAdtc3RC7xime041C5gfXbdlVpK/jrbKI6MJwSKZy8FXxp3RJuTUIACFKAABShAAeUFzE3akyMnEDveA/P3vDBsGOKaPQ/e9htVLDrurbhaGvIRASj96FLldB018/j6oCr3HeNMT0DlfbAAyNF4cto1qwd8+RMOpQtYkcb2BgCb0rsdvdFaC+ahcOYibwTDKChAAQpQgAIUoAAFPC2Qio1g9OgbkMmEp+N0OLjvdG1a81WH58x4Oikhtm0oexYQF2c8iEc6Lp4bQMUMJXdx8Yggw/CyQNfrSRw5qvAPCXRxad2NvU972TjT2FQvYN0KYF2mi3ezn7l5u7mJOy8KUIACFKAABShAAQq8k4CRjGHs6CGk4iOAVPOVFluyK+Qjw2N5nzj48C2jtoxvw6CP3VNRrwn5mA1DOz7k+5aGkB9W+quk42acUB2Bg9EU9h5UdyN3TROfX7aq90fqiFuPVOlPneqVbd8XUnzR+nK90zI8rRKhKWXeCYiRUIACFKAABShAAQp4RsCIjyE+dBSJ4WMsXL09K4MQyXd1bfz6q55JmIVAOtaXm6ckNlpo6ukmUwo0vKeG+/h6OkkMblICJ4YkXupWdyN3CPx1XVP0y5NC8GhnpQtYkZXtP4bEpzxqe9aw8svnIZBXrGLojJkCFKAABShAAQpQwCYBIxlH4mQ/4icHzK1MbJpF5WHFqBZMfWD333/tRZVW8dsflFbFg/qrAjKkUtxninXp/ADKpvH1QdXzyPjfWSBlAL/9XUzZh14FxL/XNvf+sR9zrHYBq6FtK4SoUzExBZULoYfyVQydMVOAAhSgAAUoQAEKZFlAppIYGziI5NgwII0sj+6f4f7ry0tr56Y1/0exFYmODeU/gcS1isX9tnB1DXjv0hDMUwh5UcDPAi92JTA4rOxn8at1zdH5fsyP0p881Q3trwiBpcolRggUVi6CFgwrFzoDpgAFKEABClCAAhTInkBydBCJoQEkR4f4xNVErAIbLxhbcMPDD1+n1O7KT/7d7OmxZGwfIKZNtESv/3lBnsAli0M8SN3riWJ8kxbYfziJN3qU+qg5fc2pgBEru+KmE8cmDeGxAZQuYEUa23sBlHvMdOJwhIaiqmoIne+OT4zFFhSgAAUoQAEKUMBfAuZrgqmxYcQHozB/z8uCgECnTAav6H7oy/0WWnumiQTEtvXldwNo9kxQkwikek4AVWV8fXAShOyqiMDREwZ27FP31FcJcW19c+/PFOG2HKbqBSzzjgpYXq1HGgpNQ2FVDYTGD3+PpIRhUIACFKAABShAAdsFZDKO0aMHkIqN2GjQPjQAACAASURBVD6XryYQckAIVHc+sPaoauv69X0zFhspfZdqcZ8p3oAOfOBCvkHih1xyDRMLDI1KPL9b5R8wyL+pa+770sQrVauFsgWsJSvXnZOS8nW1uE9FaxauimYvNn+nYviMmQIUoAAFKEABClDAokAqNjz+iqBZtOLTVhbRTm8mcFIk5Yc7H1r7VAa9Xe+ybUPF30opV7seSBYCKJ2m4bz5fIMkC5QcQgGBeELiqVfiym7kLoFn6pqilwrhr9NAlK2gVDd8+yohtP9U4N5/W4jm5u3mJu68KEABClCAAhSgAAX8JSBTCaRio0jFhpAYPQnzqStemQqIFKRc1bV5zY8yHcHNfr9ZP31JEoEXBeCLx5Zq5gZQOYNvkLh5T3Fu5wSkBJ54OY5kSs3TYCWwX4QLltbd8NqYc2r2z6RsAaumcV2ThFxvP1H2ZwgWlSBv+uzsD8wRKUABClCAAhSgAAUcFJCQhgEpDSRHBpEcPoZUfNTB+X09lZQSX+nevOavVV3l1nvKfyYEPqZq/KfHrWnA5eeHobN+5Yd0cg0WBXbuT6DvuLInEfYXi8TCi5uOnbC4XCWaqVzA+o6E/LISym8JMlwyE6HiUhVDZ8wUoAAFKEABClAgpwXMgpX5dFVy9CTM1wOlkRr/T9n3TDyaTSFxf2Hh9FUv3Nuk5C7Kv7hr2tyCQKgTQJ5HidMKa06FjgWzlNt6OK01sjEF3ioQPWZg16tKfgSZS0mkdMy5+saoefCdby5lC1iRhvafQdGfaBSUzYOeX+ybm4gLoQAFKEABClCAAn4SkKkkzFcBjaT5XxxGMgY5/vvY+P8P/tpSxIup++euTWuWqwr95P+dnT9WEH9eAEu8iJtJTBfVhFBcoOxXx0yWzD4UQDJlvkYYU/jnE/Ijdc19/+GnVCr7KRRpbN8B4DwVk1FYFYEWCKkYOmOmAAUooJSA+VrP+L86pIT5f2/+3vzyab6bMn69+Su/kCqVWwZLgYwExv++SxiGAYy/+pfCqWJVEkYqcapIlYrzaaqMcLPWaasei31k18Otym4etu2HpX8idc08vl7Z71qnZzOgC1x2fgjma4S8KJBrAk/uiMPc0F3FS0p8r74leouKsb9TzEp+qF60akNwaOToHkDMVS8ZAsXnKFl3U4+aEVOAAjkjMP6ERGIMRnzs1BMSidj4l1BpvPkPjtP+4fH736r5j5GcSSoXSgEK5KLAwZQsXLp38+pBVRff8ffIE/HyN6REmapreGvckbkBzOTm7X5JJ9eRpsALnXGcHFHz34wSeKW+OXp+mkv2dHMlC1hVq1oLiofDeyBQ5WndMwQnNB1Fs33zNLFq/IyXAhRQUUDKUwWpxChS5q/mqzwpc8+ZJPeeUTGfjJkCFKDAmQQEXgmEwst2/r9bBlQG2rq+rE1ArFF5DafHHgoKXHpeCELJb41+yQLX4abAjn0JHD2h5kbuEjBESk6tu7lvyE3DbM6t5EfRvM+1Tgsnw92Aej/ZMF8dNF8h5EUBClCAAn8oYL7uZx43/+aeM6n4yO+fqFJ48wGmmQIUoAAFJhb4XTxlfPjVh76m9GbDj24oOScgQ9sBWTLxktVoUV6iYcm5QTWCZZQUsEHg1cNJvN6TsmFkZ4aUhlFTf1N/lzOz2T+LkgWshTe0lWkJdAuIafYTZXcGPZSPgsqF2R2Uo1GAAhRQTcDck2p8b6oUEubR8yMnxk/z4kUBClCAArklIIBeAePduzd97YjKK+9oRQAzy56GFBepvI63xs7N2/2UTa4lEwHz6SvzKSxVLwlxdX1z72Oqxv/WuJUsYEU+fUcVAoZZRSxSLRF6XhEKys9VLWzGSwEKUGDSAuNHz4+ZR8+fQCo+emrjZPPoeV4UoAAFKJCTAlLIAxDGpd0P3H5IdYCt68uuERDmxu0B1dfyZvzTijW8axGfvvJLPrmOzATMDdzNjdyVvYT8XF1T3z8oG/9bAleygFXz6fZ5Mig6IWVYtUQE8qcgv0zBvedVg2a8FKCA6wJmgcp8DTA1NoxUbASpxChP9nI9KwyAAhSggFcExPNJof/xvo1fiXolokzj+PUPp8+RenC7hJye6Rhe7Ge+Omi+QsiLArku8NSOOGKKnkQIKdfVtfT5Zl8+NQtY17dVS0PsBqDcJ2qwsAR5M2bn+mcA108BCvhQYHwPK/Mo+tgI4kNHx4tWvChAAQpQgAJvFRDASyMGrnrjwTXHVNeRgPj1hvL1UmKV6ms5PX5dAy47Pwxd99OquBYKZCawY28CRwfV3MhdCPGvtU29H89s5d7rpWQBK9LQdjmE+K33OCeOKDSlDOFplRM3ZAsKUIACiggYyTjig31Ijg6eeiXQ3NuKFwUoQAEKUOAMAlJiZzIuLt//8G0n/AD06/XlnzSALQB8VeqJnBPAzFJfLckPtxvX4JLAq4dTeL0n6dLsk552X11z1DebcKtZwLr+jj+DYTw86VS6MIBZvDKLWLwoQAEKqCsgx18LNDdeT8ZGYCTG1F0KI6cABShAAQcF5D+lSooa9/5gdczBSW2b6t+/vzCcHxo03wrx1Qa3wQDwvqVhBFi/su3e4cBqCfQOpLD7NVULWDKFFKbV3dw3pJb6maNVsoBV09j+5xL4gYoJyJsxB8FC5Q5PVJGaMVOAAlkUMF8PNBKx8U3YE0NHYSTVPY0liywcigIUoAAFrApIrO/avOYmAL54THfLFoTKBsr/EcC1VglUaTdzho7IXN/sRa8KO+P0sMDxIQPbu9X9t68ALqttjj7lYWLLoSlZwIo0rPsmhLzd8io91LCgfB70vGIPRcRQKEABCpxFQEokhgcQO97LEwN5o1CAAhSgQCYChhT4cvfGNd/LpLNX+2y7p/wTUuAnXo0v07jMva8uvyAMTbmdhjNdMftRYGKB0ZjEMzvVPYlQAjfXN0fvnnil3m+hZgGrsf0+AF/wPu/bIyyoXAg9lK9i6IyZAhTIIQHz9cDE0ABS8VEWrnIo71wqBShAgSwLDBmG/Oye6vhP0dqq5g7IZwDp2DCjBlJ7EhAlWfZyfbiqUh3V5/DpK9cTwQA8JWBI4PHtMWW3eZUS99S3RM0nYJW/lCxgVTe0/1wIfFRF/cKqCLRASMXQGTMFKOBzAfMVQXMj9sTQMRhJX2xP4vOMcXkUoAAFPC3whmHg83seXPOfno4yzeBkK7SOyvIOAVyZZlfPNxcCuKgmhKJ8Jb8iet6XAaot8EJnHCdHFH0DWuKRupboH6mdgVPRK/npFGlsexYQl6iYgKLZSyH4TK6KqWPMFPCngJQwTxGMHT+C5OhJf66Rq6IABShAAQcFhPm/LK+JpP6Brh/fetjBiW2fyixebZtZfick/sL2yVyYwDx10Dx9kBcFKPB2gX2HUjjQq+ZG7lLKF+pb+i72Q14VLWC1vw7gHNUSIIRA0ZzzVAub8VKAAj4VSA4fR2wwOl7AUvaZaJ/mhsuiAAUooKyAwMNF+bHPvXBv64iya3iHwDvuKa0FtEch4Lsqj/n01SWLQyjIU/Lrod9uNa7HgwJHBw3s2KvoRu4Sr9e1ROd5kDXtkJT8hKpubB8TQDjt1brcQegBFM1a7HIUnJ4CFMhlAZlKjm/Knhg6ztcEc/lG4NopQAEKZFlAQqQA46tVB+Pf37atVc3HFM5isvWuyqUIGL8RwPQs03liuNKpGpbOD8IsZPGiAAXeLhBLSDz9SlzVn/kO1zVHi/yQV+U+oi5atSE4NDKg5BEAWjCMwpnVfrhvuAYKUEAxASOZQHLkOOKDfdyUXbHcMVwKUIACnheQOCAM+anOh9b64pj2t3o/8p2KwlCx/CWAKzyfiwwCDOjA+5eGEfDdc2UZYLALBd5BIJkCnt4ZQ1LV8nw8OKdu9aGDqidYuQLWwobWKboIn1ARXg8XoKBigYqhM2YKUEBZAYmxY0fGTxRU9UdGytIzcApQgAK5IfD4zEDsQ9vubx3z43Jb/2vfq9rKip9KyD/x4/rMNVXO0FEzl9Urv+aX68qOgGEAz+6KYyyu7EbujXUt0c3Z0XBvFOUKWOd95tsVCV3rcY8s85kD+cXIL/PFq6eZI7AnBSjgiID5qmDsRBTJkROQhqo/KnKEipNQgAIUoEAmAhJJoeG2EALrX974leFMhlChz9Z7Kr4kIO/0475Xpr+uAe9d8v+zdyfgdVT33fi/Z+YuWi1Z1m7ZyLYsyQuQhJQQ2gTLkKTN8iZpG0JimQbSIBmSAFmK7aSp3gYskZQsNOAFwmY7JLj/pGloNsCyWRO2gDG2JK94la4W27K2u8ycf0fGb4EAvtLd5nfvd54nj/M8zDnnez5nfK/n3DlnfPD7xN0WSrh8mDGNBLQGnt0ZwvCYzAksDdyxuDlwlfQhEfdJVX9Za7X2YJ9EeE9OIbKLZ0iMzswUoIAQgfE9roYGEDrZx6WCQsaMMSlAAQoIFNgJhS92rl+xWWD2qCNvWVP2MQ39X1EXEHhidYWJ6go+fSVw6Bg5BQLb94TRd8JOQcvxaFJ1NDT3iN+QW9wE1txPf3ue4fXsiMcQJrsOb14RsoqmJ7tZtkcBCmSAgNY2IsMnMDZwGIDMX4YyYJjYRQpQgALSBWyMv2WwaOlz65qEvo4ruiF4+EfTa01P+AUA2dGVkHeWs2H7exf64POKuyWUh83EaSGwv9vC/iMyVzYoIBzoLs67tGWHyP3ET19A4j6tai5vfadp43mJfwN8U0rgLyyXGJ2ZKUABFwuEh4+NLxfUEdHfRy4WZjQKUIACFADQr4C/z83Z98Rz69al9eRVe0t1FipGXoJGTTqP/LxqL8qKjHTuIvtGgbgKDAza2LZb5sefBiyPz6h4/5XdvXFFSXJl4iaw6hvbLtTQTyTZKS7N+QvL4JtSGpe6WAkFKEABa3QIwZMBWGNpu/UIB5kCFKAABVwgoIB7I9r45u6NN4h/g9WZOB/+Uf40jzd7s9Y450znSv7vuVkK757ng/MUFg8KUCA6gXAEeGJbMLqTXXaWBmwTuv6i5t5dLos2oTjiPrLqlrYuhsYjE+qlS072T62AL7/YJWkYgwIUkCqgrTCCx7oRHjkutQvMTQEKUIACMgReMZS+euf6lb+WETe2lL+7ryzXO6LvU8DfxlaTu0s7k1YLZnlRXMinr9w9UkznRoEntoUQjojcrkNblvWeS67pf8aNrtFmEjeBVb+07UNa699G20E3nZdVVAVv3lQ3RWIWClBAmEBosHd8uSC01A0khYEzLgUoQIEMFVBK3eaDeUM6v2HwjUO7eXXpfUphaboPuTNxtXC2N927yf5RICECz3WEcHJE5AQWbIUPXdwU+H1CYJJUqbwJrMtXfVTb6ldJ8olrM84bCJ03EfKgAAUoMFGByOhJBE90ww6NTbQoz6cABShAAQpELaCBx5Wpl3feu/LJTHkrSHsLPKgo/QE0rgYg7v4o6sF99cR31/uQl5P23ZwoC8+nQFQC2/eG0Xdc6A/JyvhiQ1P3bVF11KUnifvkql+66m+1Vv+fSz3fNlZ28Ux4cgokRmdmClAgRQJ2JIzQyV6ET/anKAGbpQAFKECBzBDQr0CbP+jceMMPMqO/p3r57Fp4B3XZ16D1jUoh7dfUVZd7UF1pZtIQs68UiKvA7kMRHApYca0ziZXd1tAc+GIS24t7U+ImsGovb/20svHTuEskocLskrPgyZ6ShJbYBAUokA4CkZETGO0/xOWC6TCY7AMFKEABtwpoRKDUj62pOdfu/vcvy9ydePK2asvq0q9rhZsnX4Wckl6PwnsW+ODh/JWcQWNS1wkcDFjYcyjiulzRBdLtDc29i6M7151niZvAqlvS1gil17uT8+1TZZdUw5OdLzE6M1OAAkkUcDZpH+s/iMjYSKas3kiiLpuiAAUoQIH/FdD/YSvrW7vWf7MDUDI3dYlhONtXl7ZAYSWAtN8QyrnpO7vGi6Ipaf+QWQxXBItS4MwCgWM2duwLn/lEF56hFI4sagpMd2G0qCMJnMBqvRIKP466hy46Mbu0Gp4sTmC5aEgYhQKuEwgPDSB4ogfakvrLjutIGYgCFKAABV4v4HzBbNba/k7Xxm9szsRfSsb3vCovvQ7QqwCV9pNXzvCXFBpYwI3b+VlAgZgFBoc1nu8MxVxPiirQ/iJf7oWXHhpNUfsxNytuAqu+cVWThloTc89TUEFO6SyYWXkpaJlNUoACbhdwJqxG+w/CGhtye1TmowAFKEABmQLOrsOdho0v7/zJiodldiH21M7klSov/bIGbom9Nhk1GAbwF/N8yPaLu/WTAcyUGSUQCgNPviR3tXUYuvaDzb27pA6auE+x2iWtVysFkTvn55TOhpmVK/VaYW4KUCBBAs5eV2MDh6FtsRtCJkiG1VKAAhSgQJwEugyYnwn3Z728+zcZt8/V6wi3rCm9RQPXAsiYnaDqZnpRUcylg3H6u8RqKIDHXgjBsmWuulbKXryoqa9d6jDKm8BqbP2iAv5dInhO2WyYfk5gSRw7ZqZAQgS0jbFjRxEePgZomV+CCXFhpRSgAAUoEA8BG1o/pAzjttzsqb99bl2TzE1b4iEBYNetNf6D/sHvK42rMmnyKjdb4V11Ppicv4rTlcRqKAA81xHCyRGZ/3ZXBi5fdFVA5J7izrUnbgKrfknbl7TSt0r8i8MJLImjxswUSIyAFRrFWN9B2BG5jyAnRoa1UoACFKBAjAKDgHrCVJFVO9Z/84lM3OPqjX4PrZ1a4NGeWwD1+RhtRRV33jbovHXQefsgDwpQIH4CHfsj6B6QuXJC2/obi6/uXRU/jeTWJO7TrK6x7VpA/yC5TPFpLadsDkx/TnwqYy0UoIBYgfBQP8YGjojNz+AUoAAFKOBKAVtr3Jfjzbr+hXuuP8GJq1NjpDXUlrUlmwG1yJWjlsBQZ5WbmFXpSWALrJoCmSlwoNvC3iMyX7ikgdsXNweukTpy4iawape2Xq80vicRnBNYEkeNmSkQPwFnj6ux/oOIjDobtct87Dh+GqyJAhSgAAXiIaAVXlZa32Jp86HdG284FI8606WOR28tL7F89u8BvCNd+hRtP6bmGzi7xgtD3N1etD3keRRInUDfcRvb98pcla2U2rSoqefS1OnF1rK4j7T6Ja1f1Qr/Flu3U1OaE1ipcWerFHCDgO0sGew/BCs85oY4zEABClCAArIFuqHUZgu4b/ecsYfQ0uK8YZDHawTaby+7QCn9X1qhJNNgnLcOnlfng7P/FQ8KUCD+As7+V84+WCIPrbc2LOsV+0SquE+1usbWrwP4jsSLhRNYEkeNmSkQu0BkZBCj/Qe4UXvslKyBAhSgQCYLjAI4pIHv5OcU3Zvpm7K/3YXw6Jqyj1vQ/wEgI9fPzZ/lRelU7tqeyR8W7HtiBUbGNJ7ZGZL6DqbtDc2BsxMrlLja5U1gLW37J2h9c+JIEldzTvkcmD7ugZU4YdZMAbcJ6PG9rsJDx7hk0G1DwzwUoAAF5Agc0Bo3a43fesPBQzs2tQj92T/x4A88ALO4v/S7SmEZgKzEt+i+Fpylg+fUeKHE3eW5z5KJKPBWAsGQxh93hGDLfPb1aENzoFLq6Ir7aKtrvOnrgMEnsKReccxNgQwR0FZ4fPIqMjqYIT1mNylAAQpQIE4CzgTVswr4PQz9+47ZoT9yieCZZdtvKymHafwA0M7eLuLucc7cwzOfke1XeFed89bBM5/LMyhAgckLRCyNp7aHYMl8EWFwUXPAWWAsckNecR/utY1tX1HQt0z+cktdSS4hTJ09W6ZAMgXsSBAjgf3QEf5Inkx3tkUBClBAqIDzG34/oA8C+gEDuG/nhm8cFdqXVMRWD/+oeK7hMX6ugAWpCOCGNp0nrhbM9qK4gEsH3TAezJDeArYGntwWRETmBBZGLF3xkWt6uyWOkrwJLL6FUOJ1xswUyBgBa2wII737ud9Vxow4O0oBClBgcgIKGNG2vtcw9e1qLLx/xwKM8EmriVtuWV36SVthgwIyep+O2ZUezCw3Jw7IEhSgwKQE/vhyCKNBkQ8xAUq/r6Gp9/FJdTzFhcRNYNU13nQt4DweLO/gE1jyxoyJKTARgdBgH4InegAtc0H8RPrKcylAAQpQYEICttZqm2HoRwDjyYhtdfhCod3cz2pChq87+XffLcv15tm3KqWuyNQlg6dB8nMU3lHrg8mHryZ/QbEkBSYo8NKeMPpPyPw3vw3jyoubu++eYJddcbq4Cay5S9q+ZCh9qyv0Jhgip2w2TH/uBEvxdApQwPUC2kbwRAChwV7XR2VAClCAAhRIuMCg1jiolDoAbb+kgMeyvNmPv3DP9ccT3nIGNKA11OZ1xe80tHEvgIUZ0OW37aLfp3D+PC9MU9xtXaYPHfsvXGDPYQsHeyIie6Ft1br46p6VEsOL+6SrXdp2jdL6RxKxOYElcdSYmQJnENAao30HuFk7LxQKUIACGSOgtIa2FeDsfuL8bwTAE9DWb2Do33Wu/+d9GUOR5I7qB2Bu6S/9RyisSXLTrmzOuZE7u8aLoil89MqVA8RQaS3QPWChY7/MCSyl1KZFTT3OCy/EHeImsOoa25YB+nZx0gBySmfDzOITWBLHjpkp8GYCWtsYDeyHFRwmEAUoQAEKpKfAMUAdUNB7NfQepdEFpXZpwx4wIvrEqC9yYn81Brl3VeIHv/3uknIdxM8U1Psyfcngae3Z0z2YWcZ9rxJ/9bEFCvy5wOCIxvMdMl/YpIDnFzUHzpM4ruImsOobW6/SwFqJ2Dmls2Bm5UmMzswUoMAbBLQVHt+s3Q6N0UaCgMYolPOWLxwDcBJan4QyTgLaGcAxDYwpDVspWLbzp6GEvldGwmAwIwVSJ6BtbSkDttaIQKsxpTCqoEe1ViNQ9qBhG8ctAyc8CscGx3y9hzZ9ZTR1admyI9B+d3WWDo5caWi0aoUpVDklUFJoYN4sLwxxd3McQQqkh0DE0nj8RZkTWAD29RYF5l566fhTxKIOcR95dY2rrgDUXaKUXw2bXVINT3a+xOjMTAEKvEbAjgQx0r0H2hb3mZ+W46gBS2kMQcF5FG5YKbUfWm/XBrbriLXdG47sfnlTy0Badp6dogAFKJDGAo/cWXiWEfbeC6UuSuNuTrhruVkK59X7YHDl4ITtWIAC8RR47IUgLJn7uB+CP2duwxX7xf0SL3ACq3UJgA3xvPCSVVd2yVnwZPOHo2R5sx0KJELADo9hpGcftC1zzXsiTFJSp8J+AL/VsLeGLf2UV2cNq2wrmOfZM/bcunXhlGRioxSgAAUoEBcB3Q7Plq6SFmh1HQDuv/EaVY9H4S/qffD74kLNSihAgRgEnnwphFBYx1BDyor2jIYitR/+8sBgyhJMsmGBE1htlwL6Z5Psb0qLcQIrpfxsnAIxC1ihEYz2HoCzfJBHkgQUbGjsgMLT2tZ/gGHs9JjG7h33/FN3khKwGQpQgAIUSKLA5tuLP6JM9X+hlcj9WRJNdfYcL6YV8NGrRDuzfgpEI/D0jhBGnI0ohB0aGLAj3tpLvnjY2V5D1CFuAqt2SesnlcLPRSm/Gja7eCY8OQUSozMzBTJewNmo3XnyCpD3JSVs8EJQ2AsbncpUv1G2/792brj+qLA+MC4FKEABCkxQYOuakrlaqW9B47Ma4AzNG/yUAmpneFBRzE3bJ3hp8XQKJEzguY4QTo6IvDc4Cb+ubbiiV9wPwuImsOY1tn3Ehn4wYVdhAivOnjYDntzCBLbAqilAgUQIWMERjPTsSUTVrPO0gMZ+ZdrfGzwW/vGRX7U4myaL/NcAB5QCFKAABSYu0L627EZovZJvF3xru7IiA/OqvRPHZQkKUCBhAi/uCuPYSZGbYI1FlKfuA01HDiQMJ0EVi5vAql/S+kGt8LsEeSS02qyi6fDmFSW0DVZOAQrEVyAyNoSxvgPcsD2+rE5tQUD/Uiljg2Xpl3eF57yCTZdyV/z4O7NGClCAAq4UePkB+AIDJcug1LXQmOXKkC4J5bxxcP4sL5ynsHhQgALuEdi+N4y+4/ImsJwXIGmFuoubAuJ+oRf3MVjf2LpIA+3uuWyjT+KfWgFffnH0BXgmBSiQUgFn2eBo735oW94XU0rh3rJxdRzQjyngQdvy/rzr/q/1uTMnU1GAAhSgQKIE2lvgQVnx30MZNwB4R6LaSZd6C/IMOPteebhyMF2GlP1II4GOVyLo7hf6+6uh39lwVe8L0oZD3ARWzZKbLzCV/ZQ0aCevv6AUvoIyidGZmQIZJ8Blg3Eb8hCAgFL2D3Kzw6ufW9cyEreaWREFKEABCogRaL+7OkuPjTgbs/9cKZSKCZ7CoM6k1fnzffB5xd2ypVCNTVMgeQJ7D0dwoEfmBJYy9IcXXdX7m+RpxaclcZ+Gcz970zsMw/hTfLqf3Fqcp6+cp7B4UIAC7hawQyMYCThPXsn8QnKJrlZa324Z5m1hc3Tf/ntaxlySizEoQAEKUCCJAi0tMC4qL/nU/2xs2KKg5gLgs0RR+DuTVu+u93LyKgornkKBVAkc6rGw+3AkVc3H1q7WVzQs670ntkqSX1rcBFZd4811gN2RfKrYW3T2v3L2weJBAQq4V8COhDDSsxfaCrs3pKuT6eehcK8f3p9uW//1gKujMhwFKEABCiRM4KG1UwsMy3O5aeBzGuqd3KA9emqfR2HBHC8KcsXdqkXfSZ5JgTQQcJYPOssIJR4GjOUXNXffLC27uE/F+UvbZlpavyIN2snrzSlAVvFMidGZmQIZITA+eXV0F7TmnlcTGXAFjNjANkOplo71y0W+ZGMi/eW5FKAABSjw5gJaQ21ZU36Wgv6krfS3FMDXb0/wYjEMYOFsL4qmGBMsydMpQIFkC/SfsPHSHqE/etv6Bw1X916fbLNY2xM3gVVzxaoSM6xE/qrvyc5Hdkl1rGPG8hSgQAIEnOWCI927YEeEfgklwCSqKhV+qZX/mq7Rp7qxaRPXXEaFxpMoQAEKpJ/Ab1aXu4d1wQAAIABJREFUV2cp6y5AXehs/Zp+PUx8j5y3DL6j1nnyipNXiddmCxSIXWBwWOP5Tme7V3mHBu5f3Bz4rLTk4iaw6q68OR8he1AatJPX9Ocgp2yOxOjMTIH0FtAaI4G9cDZu5xGVwJgC7tSWfUdnXXg7Wlr4yFpUbDyJAhSgQHoJPHxHaZlpqS8A9sc11LsUwJmXSQ6x8+TVvGovSgpJOElCFqNA0gVGxjSe3iFzAktBbV7U3HNx0tFibFDcBNailhbP0d1+kY9IGF4/citqYxwyFqcABeIp4CwXHO19BdbYUDyrTde6hhT0gzDwLx33rexK106yXxSgAAUo8NYCv1tdVupXeA8ULtNa/x2ftor9anGevJo7w4PKYu5vH7sma6BA8gTCEY0ntsmcwALwckNzYGHytOLTkrgJLKfbdUtah6CQGx+C5NWiTBN50+cnr0G2RAEKnFFgbOAIwkP9Zzwvo0/QiCil2yM67+93b/yyyCdgM3r82HkKUIACsQmo9rur/QiFqmFHboTCJ/gmwdhAX1vauRmrr/airIhPXsVPlTVRIDkCWgNb/xRMTmPxbkWhr6EpUBLvahNdn8wJrMbWPQBmJxonEfXnz3QmOUWyJ4KDdVIgpQKhwV4Ej3enNIPbG9cajxoaXyk/Enxxy5YWma9ZcTsy81GAAhRwocCTD1Rlj/VHPqaUfSWg52uo6VwiGN+Bcp68Or1s0Pn/PChAAXkCT7wYRFjgLrAKsC9qCniUgpakLvKjsm5J65NQeK8k6NNZ86rmQxl8PFji2DFzeglERo5jtP8Q4Px0wuPNBF5UwM0dG1bcTx4KUIACFEh/gV+trczJi4TfBY96D7RapGG/T0EVpH/PU9NDQwE1XDaYGny2SoE4Cvzh5RDGgjLvJ3pHfDmXfuXQaBw5El6VyAms+sbWn2vgkwnXSUADeZV1UB5fAmpmlRSgQLQCdjiIkZ7d0Db3Hv9zM31cKdyamz3txufWNYncbzDa64DnUYACFMhUAd0C46mqqsIggkUI63dDGZdq4G8UkJWpJsnst/O0Vd1ML8qncdlgMt3ZFgUSIfDszhCGRmVOYAVHxqb99VcGBxLhkqg6RU5g1S1pXQ2F5kShJLLenPIamL7sRDbBuilAgbcRsCMhjBzdBWfzdh6vF1BK/9yO+Jq67v9aH20oQAEKUCC9BH59a40/23vyAzD0R6HxIUAXaKhcBfCX1SQOtfPk1TlzvSjM4+RVEtnZFAUSJvBCVxjHh2TeV9jaqrp4Wf/hhOEkoGKRE1i1ja3/8j/BWxLgkfAqs0uq4cnOT3g7bIACFHgTAW1jJLAfVnCYPK8VUNgPbVxbcWj019znipcGBShAAZkCGlDPra2cdlwFZ5nwzFFaz9UatVB6BrQ6C9AzAMV9LFI4vB5TYV61B9MKOHmVwmFg0xSIq8BLe8LoPyF0Akuh5uKmgLO/uJhD5ARW3dLWZmisFqP8mqBZ06rgzZ0qMTozU0C8wFj/IYSHj4nvRxw7MKKBezzB4PU7NrWIfQdwHD1cVZVzM7rl7mp/fuiE/ySyveFQyGcqr9fjtw07ZJuGCWUYWuT3uKugGYYCLhSww15TmVpZWhswbY+C7bUt06eh/Mqwsg3bKNIKZUrrGVqpGVCYCa1rwD2rXDiapyJ5Pac2bC+awskr1w4Sg1FgEgI790fQMyBwF3enr1qd3bCsZ/skup2yIiL/4Tuv8eZP2LB/kTK1GBr2F5bDN0Xc2ypj6DGLUsAdAuGhYxgbOOSOMO5IMaYt/c6u+1d2uCNOZqXQ+tTraDdtglHRV3bWKKyFPtOos7Wap6BrFTBDA5UAPJklw95SgAIUSD8B0wDOn++D3yfy1iv9BoQ9okAcBboORHCkT+YElmVZ519yTf8zceRIeFUiP0VrP3vj+cow/5hwnQQ04Msvhn9qRQJqZpUUoMBbCVihEYz07OUbB8eBlLPL5C3wqX/tvOuGk7xqEivQ0gLjL0sq6jzeyHugcS60qgdUMZQuVBpTNOC84cuf2BSsnQIUoAAFUiWQm61w9hwvsjh5laohYLsUSKjA3sMRHOiROYGlTP3+RV/ofSyhQHGuXOQE1oLG1poI0AlA3DO43txCZE2bEedhZHUUoMBbCdhWGKM9e+Fs3s5D7VGGcV3Hff/0IC3iK/DAAzALespmZnsx21J2PTTeCRjnQul50MiNb2usjQIUoAAFJAhMzTfG97zyeUXeckkgZkYKpFzglW4L+45EUp5jMgEU8MFFzYGHJlM2VWVEfprO++yNZ9mG6UxgifvV2pM9BdklZ6VqvNkuBTJMQGO09wAio4MZ1u/Xd1cDlgIeGw76P3xo01dGMxojTp3/1drKnLxIeIptotaE+rQGPgmAj9fGyZfVUIACFJAs4NxgOZNXC+d4YYj7uV2yPLNTIPkCBwMW9hySOYGloT+yuLn318lXm3yLIiew6i67uRIeqxNQeZPvempKmv5c5JTNTk3jbJUCGSYQPN6N0GBvhvX6jd1VWsFelpsz7a7n1jWFMxwjpu6331aSp6H+VnlwmdJYoIFpAJ+uigmVhSlAAQqkocBZ5SaqKzxQIu+00nBA2CUKJFDgcK+FXQelTmCpTyxu7vllAnniXrXIj9Xaz/xbsTLDXc6PG3EXSXCFpi8bOeU1CW6F1VOAAlZo9NV9r2S+1jY+I6j3KQtLOu5f+VR86susWtrvrs5SwZH32cAHFHCBAs7TQE5mKbC3FKAABSgQrYChgNqZHpRPM6MtwvMoQAHhAt39Njpekfobsf5UQ3Pvf0gaApETWLM/1Vbg9WtnAqtUEraT1fD4kFtZJy0281JAlIC2Ihg+2gVty9xQMQ7YzkbtvzGDwU/u2NTCzb8mAProXeUl4ZA1T2n1aaX0ZwAl7oeSCXSXp1KAAhSgQJwE/F41vmQwP0fk7VWcFFgNBTJPIHDMxo59MiewtK2WLL665yeSRk3kJ2zVp76XnesP7gIwXRK2k1UZJvKq5kuLzbwUECUw1ncQ4ZHjojLHM6yG+kZXcPbN2HRpxs7gTdTz4TtKzzEt/BuA9726v6LI78eJ9pvnU4ACFKBA7AJ52QbeWe+FyW+O2DFZAwWECfQdt7F9r8wJLNj6cw1X994riVzkx+yiRS2eo9P9u6BQLQn7dNb8GQvBRfESR46ZJQiET/Zj7NgRCVHjnlFDHTcULu8Ye+7X2LSJk1dvI9zSAqOhsvQCrdXntdYXAZgT9wFhhRSgAAUokPYCVaWn9rvycNVg2o81O0iBNxPoP2HjpT1SJ7DUFxqu7rlT0siKnMBygOsbW5/XcF5TLu/IraiF4RX3AkV50EyccQLjSwe7d8H5M/MO1akNdXnXfTc8nXl9j67HGlCb15bONqD/Glp9AcC50ZXkWRSgAAUoQIHXCzgTVrMqPagsNvm7NC8OCmSwgOQJLKVw9aKmwGpJwyd2AquusfUBAJ+ShH06a3bxWfDkTJEYnZkp4F4Brcf3vbIjmbflkwK6bCv4l133t/S5d4BSl+zZtfAei1TUeEzr+wA+6KzmTl0atkwBClCAAtIFfF6Fc2u8yM3m14n0sWR+CsQqMDBoY9tumU9gaa2vXbys99ZYDZJZXuynbu2Sm1YpZaxIJla82vIXlsM3pSRe1bEeClAAQPhkH8aOHc04Cw38WvmMyzrvuuFkxnX+DB123iKI0PDnYatmrVCrAB+NKEABClCAArEIlBaZmFtlwusRexsVS/dZlgIUeIPAsUEbLwqdwAL0dQ3NvT+UNKhiP3nrGlddAai7JGGfzurNLUTWtBkSozMzBVwpYIXGMNqzB1rbrsyXqFBa6X/vWh+6DmjJrI6fAXTrHWWz7Ij+Byj8AyBzr8REXTOslwIUoAAFJifgLBl09rqaXsIlg5MTZCkKpKfAsZM2Xtwl9Qks9ZXFy3qcFQpiDrETWPOXtv2VpfVjYqRfE9TwZiG3Yq7E6MxMAVcKjPTsgxUccmW2BIXSttLf2rV+5Y0Jql9ctVpDPXpnWbVt4VpAXwPAI64TDEwBClCAAq4UyPYrLJjlRV6O2FsnV7oyFAXSQUDyBJYCvrqoOfA9SeMg9lN4/qdayi2/X+R6IWWYyJs+j28ilPQ3hVldKxAa7EPwuMiPgkmaKksZuLxj9Lmf8U2DpwgfvL1gaq7h/wk0LoJC9iRhWYwCFKAABSjwZwLOJu1zqjwwDeJQgAIU+HOB4ydtvCD0CSwAX29oDvybpHEVO4EFaFXX2DYKQNzr/JRhILeyHs5EFg8KUGDyAjoSHt+4PWOWDioEla2bOjauvHfyaulTsn112UIovRzA3wHISp+esScUoAAFKJBqgSyfQk2VB8WFnLlK9ViwfQq4WeD4kI0XuoQuIVS4YXFT4Dtu9n1jNsETWEBdY+thAJWSwMezKgN5lbVQpldcdAamgGsEtMZo3wFERgddEymhQZzJK6Wu7Lhv+U8S2o6AyreuKZlra+PLUPoLEn/EEEDMiBSgAAUyVkApYFqBgdqZHvi4UXvGXgfsOAWiFTgxZONPQiewoPSKhqbetmj76obzhE9gtb0A6HPdADmhDEoht3wuDK+4h8cm1E2eTIFECkSGT2C0/0Aim3BT3SFovbhz48on3BQq2VkeeABm8UDZtxW0yDfQJtuL7VGAAhSgwMQEnGWCzl5XRQV86mpicjybApkrIHkCSyv9jcVNvaskjZ7oCaz6Ja0PaYVLJIGfzppTXgPTx61aJI4dM6dewFkyOHJ0F+xIKPVhEp9gDKb+dOe9K34FKJ345tzXwrNrz/Oe1AevBZwN2lHlvoRMRAEKUIAC0gUqik1UV5jwe0XfHkkfBuangDgByUsIodU3G5b13CQJXfQndN3SVRuh1WclgZ/Oml18Fjw5UyRGZ2YKpFxgbOAIwkP9Kc+RhAAhaPX5zo3LNyShLVc2sXlNyYcB418U9PmuDMhQFKAABSggWiAnS2FWpQcl3OtK9DgyPAVSJSB5AktDr1zc3NuaKrvJtCt8Aqvt+9D6usl0PNVl/AXl8BWUpDoG26eAOAFtRTB8tBPatsVln2BgS9t2Y9dPvvHTCZZLi9MfWT1tuqk86zT0h9OiQ+wEBShAAQq4SsAwgPIiE3NneODse8WDAhSgwGQEJL+F8H+2FL5h8TJu4j6ZcZ9UmdqlrV9VGqJe+3i6o96cAmQVz5xUv1mIApkroDF8dDfs8Fh6E2hoKP35zprQvWhpSfuZujcOZvuakm8C6qsACtN7oNk7ClCAAhRIhcCUXAMLZnng93HmKhX+bJMC6SRw7KSNF3fJfAshNL7WsCxwi6TxEP2pXbuk9dNKQeTTCYbHj9zKWknXCrNSIOUCkZFBjPa9kvIcSQjw7c4NK76VhHZc1cTWdaUX2hZugcIFrgrGMBSgAAUokBYCWT41vs9VWZHJp67SYkTZCQqkXkD0BJZS1zc09fwg9YrRJxA9gVXf2Hahhpb5Vi6lkF+1APz2jP5i5ZmZLTC+cXu38/RVMM0h1OrODcuvTvNOvq57T945pSgY8V8PqG9mUr/ZVwpQgAIUSI6AxwOUTTUxp8oDQ/TdT3K82AoFKBC9gOQJLKXUtYuaem6NvrepP1P0R/j8pW0zLa3FPo6RW1kHw+NL/VXABBQQIBA6EUDwRI+ApJOPqIHHKw8FG7ZsaYlMvhZZJR9aO3WmF96ntEalrORMSwEKUIACEgSK8hXmzfLC6xF92yOBmhkpkJECA4M2tu0WuoRQ6S81NPX+SNLAif4kX7SoxXN0hn8IGn5J6Kez5pTOhpmVKzE6M1MguQJaY+hIJ7Ql9MshOq0XzWDwr3ZsahmK7nTZZ+36dY3/wIETbSbU1RrgTL7s4WR6ClCAAq4TKMwzMKvShLPfFTdpd93wMBAF0kag/4SNl/bIvEfRwDWLmwO3SxoM0RNYDnRdY+tLABZKQj+dNWtaFby5UyVGZ2YKJFVgbOAwwkMDSW0zmY0pYLdtWIu67vvm4WS2m6K21CNri99paMP5snxPijKwWQpQgAIUSFOB/ByFGWUmSqeaadpDdosCFHCTQN9xG9v3ypzAgkZzw7LAWjd5nilLGkxgtf0M0JeeqaNu/O/+gjL4CkrdGI2ZKOAaATsSwvDRLkBr12SKc5CQgmro2LD8yTjX67rq2tvhQUfpp6FwDwCP6wIyEAUoQAEKiBXweRVqqjwonWqI7QODU4AC8gR6j9t4WegElg195cXNvXdLUhc/gVV7eWuLsvEvktBPZ3WevnKewuJBAQq8tUBw4DBC6fv0VURrXNq1ccUv0v0aePJ7Vdmh3NBPtcbHAIj/7kn38WL/KEABCkgR8HkUas/yYGqeAZMPXUkZNuakQNoIBAZs7Ngv9gmsxoZlgY2SBkP8TUTt5a2fVjZ+Kgn9dFbTn4ucstkSozMzBZIiYIVGx988mK6H1rilKzTnBmy61ErXPjr92nJ7yfu0Uj+Gwtx07if7RgEKUIACyRPIzzFQWWKirMjgmwWTx86WKECBNwh099voeEXmBJZt60svvrp3k6RBlT+B1bjqfQrGVkCL64vzBkLnTYQ8KECBNxcY6zuI8Mjx9OTR+nedG1f+dXp27lSvnl0L75Bd9jmt9Lp07if7RgEKUIACyREwFJCTpXBWhQclhVwqmBx1tkIBCrydwOFeC7sOynyBuIb6xOLmnl9KGmFxkz5vxK1f0na2VvoFAAK/xRTyZywAX40i6a8MsyZLwI6EMXykE0Ba7n0VUIae33Hfyv5keaainfY1JZu0Vn+rlMTP51SIsU0KUIACFHgrgYI8A7UzPOMTWHyrIK8TClDALQIHeizsPSxzAssD/Tfva+79rVsso8khfgJrzmU3zvB4zH0ARK56zymvgenLjmaseA4FMkhAYzTwCiJjJ9OyzwqRho4N/7wlLTsH4OHby2abpv0AtDovXfvIflGAAhSgQOIFnD2tKqY5ywRNOG8X5EEBClDAbQL7jlh4pVvmBJZhqosv+kLPZreZvl0e8d8E8z/Vkmf5/MegZL7RKquoEt68aZKuGWalQMIFnDcPjhzdBa3thLeV5AYsrdW/dm1c/q9JbjdpzW1eV36Rsm1nX8LypDXKhihAAQpQIG0EnKercrMUSgpNTC814RH5E3XaDAc7QgEKnEFg98EIDvUK3c5W6fc1NPU+LmmQxU9gOdh1ja1HAFRIgj+d1ZtbiKxpMyRGZ2YKJExgtO8AIiMnElZ/yirW+rHOjSsuAlRarot8eHXxZYYyNiqRS7pTdlWwYQpQgAIUcF5PqwBnY/b6s04tE+RBAQpQQIJAxysRdPfLnMBShnX+oqv6n5HgfDpjWnw71De23a+hL5MEfzqr6ctCTjlfzCVx7Jg5MQJ2eAzDR3clpvLU1noUEePdnT+9wZlwT6vjgQdgFh8rXaU0rgfgTavOsTMUoAAFKJBQAedpq6oyD6bmK2T50uLWJKFerJwCFHCXwPa9EfQdlzmBpQ1j4eKrul92l+jbp0mLb4m6xlXLAHW7JPjTWZ03EeZUzIVSAveglwjOzK4XCB7vRmiw1/U5JxpQa1zWtXHFzyZazu3nP7u2MmdQWz9S0Fe4PSvzUYACFKCAOwSy/QrTCozxNwlOyTW4Kbs7hoUpKECBSQi8uCuMYydlbntimGr2RV/ocfYTF3OkxQTW/H9oW2BZersY9dcEVYaJ3Mo6OH/yoECmC2jbwtCRDsCW+SXwVuOnoH7asWH5Z9JtfNtvK8lTpvpvDbw/3frG/lCAAhSgQHwFfB6FvByFsypMFOTyh9v46rI2ClAgVQLPd4YxOCz03sXSFQ3X9Hanym4y7abFBBZaWoy6Pf4RaPgng5DSMkohr7IeyvSkNAYbp4AbBILHjiJ0ss8NUeKWQQM93mBw/subWgbiVqkLKnr4jtIyI6L+aBh6ptZIj+8SF7gyAgUoQIF0EjAMoHSqiRmlJvw+xQ3Z02lw2RcKUGBc4OmXQxgJytzedjQUKfjwlwcGJQ1l2tx01C1pPQyFSkn4p7PmlM6CmZUnMTozUyCuAsNHOuG8gTCNjrBS6mMd65f/Lo36hK13TJtnW6azHPLsdOoX+0IBClCAArELOE9ZFU0xMDXv1PJAk4sMYkdlDRSggGsFHn8xiIjELbCcObeegLehBRHX4r5JsPSZwGpsfQHAuZLwT2f1TSmBv5BvnJc4dswcP4HI6EmM9u6PX4UuqEkD93ZtWPE5F0SJW4T2O0tqEFG/BTAnbpWyIgpQgAIUECngvDnQ51XI9ikUFRgonWpwI3aRI8nQFKDAZAS0Brb+KTiZoqkvozHUsCyQn/ogE0uQNhNY9UtaH9IKl0ys++442/TlIKec94LuGA2mSImA1hg6tBNaS/z54i3FRpWhZ3Tct7I/JaYJaLR9dXk1lP0SAD4ymgBfVkkBClBAioCzHHB6iYmKaeb4skBnIosHBShAgUwTCEc0ntgmc/WI1nhl8bJAtbQxS5uvm9rG1rUKuEraAIznVQr5VQv47S9y8Bg6HgJWaAQj3XviUZVb6tCAfVnnhm884JZAseZov6PsAlj6PwGUxVoXy1OAAhSggBwBr0ehMF9har6B3OxTT1s5T13xoAAFKJDpAiNjGk/vkDmBBaWfaWjqPV/aGKbNt0/d0tZmaKyWNgCn8zpvIjQ8PqnxmZsCMQmMDRxGeCid9jhXLwwHfRce2vSV0ZhgXFL40dXTzo8o4+cKarpLIjEGBShAAQrEWcDZcD3Lq5DlV8j2K+TnqPE9rHKy0uZ2Ic5irI4CFMh0gRNDNv7UFZbK8MuG5sAnpIVPm2+kmiU3XmAq8ylpA3A6LzdylzpyzB2rgLbCGDrcCUDm2zvepP9D2Z6sGS/cc/3xWG3cUH7rbUUzLNPzggKK3JCHGShAAQpQYPICzlI/Q5166N8wFPKynaerDEzNd/6/waWAk6dlSQpQIAMF+k/YeGmPzAksBdy+qDlwjbRhS5sJrMqrWnLyR/wnARjSBsHJm1VUBW/eVInRmZkCMQmETgQQPNETUx1uKqyg13ZsWNnspkyTzdK+umyhUtiqoTl5NVlElqMABSiQAgFngspZ+ucs+cvxK+RmKeRkG/B5ANMATFON/8m9q1IwOGySAhRIG4GjfRY6D4h6id//2mv9zYZlvTdJG4y0mcBy4GuXrtqttBK5G7ovvxj+qRXSrh/mpUDMAiPdu2GF0mKlnfMU2WFt+d7Rdf/X+mKGSXEFj64pn29p+5dQqElxlIxv3nlawuM5dbPpLPExDTV+08kbz4y/NAiQpgLj/zh3/o6f2ib11T/V+N//U58Bp56iciahnA3Ux/80MP7/nUkrr+fUZ4ZzDg8KUIACFEicwCvdEew7IvMlVAr6ykXNvXcnTicxNafVV1tdY+svAfyfxFAltlYzKxc5pbMT2whrp4DLBOzwGIaP7nJZqhjiKP2PnetX/jiGGlxR9Ld3VhX5I8EnAFXvikBpHMK5GfW8ehPq/Ok8KZHjPDGRpcZfRe/8z7kp5UEBClCAAhSgAAUo4C6BXQcjONwrcwJLa/z14mWB37lL9Mxp0moCq37Jqlat1PIzd9t9ZyjDRF7VfPcFYyIKJFBgNLAPkbGhBLaQ1KqPDQf906Vv3N7+/cJCneN7WWlUJlUvgxpz9pkpLjRQXGCMb5b82j1pMoiBXaUABShAAQpQgAKiBV7eF0bvMVtkHyJhdc4HvtTzkrTwaTWBNa+x7XIb+l5pg3A6L99EKHXkmHsyAtqOYPhIF7Qt81eL1/dZhTXsi7s2rHxsMhZuKdN+W0meNtQvlcJit2SSnsN5k5fz6nnnFfTZfmP8zV58okr6qDI/BShAAQpQgAIUALbtDmNgUN4ElgYsrVB3cVNgj7RxTKsJrPqlqy7SWm2RNgin82ZNq4I3lxu5Sx0/5p6YgDV6EiO9+ydWyL1nP5OXU/SXz61rkvkaEmf3rhYYW8tL79bA5e5ldn8yZ+8Z5wmrwjyFkqkmXz/v/iFjQgpQgAIUoAAFKDApgec7wxgcljeBpYDRsPLUf6DpyIFJdTyFhdJqAqtu6XdnQUf2ptAzpqa9+dOQNZWrdmJCZGExAiM9e2AFR8TkfZugWlvq/V33L39came0htq6tvRHGrhaah9SmdvZKDkvx8CsSnP8aSseFKAABShAAQpQgALpL/DMjhCGx7S4jmpg0DZRe8kXAuJeBZ9WE1jnXbXWOzQ6MAwNr7irCICZlYec0lkSozMzBSYkYIeDGD7aNaEy7j1Z/apzw3KRL484bbp1TenlNnAnIPOzM1XXRmGegZnl5vhr6v3etPo6TRUp26UABShAAQpQgAJiBJ58KYRQWN4EFoA+j51V+76rDxwTg/1q0LT7F3d9Y+tWDbxf2kA4eQ2PH7mVtRKjMzMFJiQQOtmH4LGjEyrj1pOVxoc6Nq74vVvznSnX1rWlH7S0/o2C4qNDZ8ICkJulUDzVQFmROf7GQB4UoAAFKEABClCAApkp8OgLQdjyVhA6LxA6EsxWtR+6vGdY2sil3b++65a2fRNaf1vaQIznNQzkVy0QGZ2hKTARgZHAPlhp8fZB9WTnhuV/OZG+u+ncJ35UeFbI43sWQLGbcrkti7NEMCfbwKwKE9MKOM/ntvFhHgpQgAIUoAAFKJBsgWBY46mXQsluNj7tabySbwTmvrsJ4vbvTbsJrJolN19gKvup+Ixs8mvJrZgLw5uV/IbZIgWSJKAtC0OHdzrbhiepxcQ047y9Axrv7dq44pnEtJDYWp19r7asLf0TgHMT25Ls2ksKTdTMMOHzKOfXKh4UoAAFKEABClCAAhTAwEkb23aJm/8ZHzkNvLy4ObBQ4jCm3T/Ha65YVWKGlbObvshZIH9BGXwFpRKvJWamQFQCocEAgsfF7Rf4Z33T0HtCntDC/fe0jEXVcRed9Otba/zZvsGfAviEi2K5JoppABXFJiqmndrfigcFKEABClCAAhSSDrDvAAAgAElEQVSgAAVeK3Cwx8KewxGZKFo/2LCs92MSw6fdv8xrlrRMMZS/SwFlEgfE9GUhp3yuxOjMTIGoBEa6d8MKjUZ1rotPspXWH+/YuPJBF2d8y2hb1pZ8WWv1Q4nZE5nZY2J8ieCc6R74uCl7IqlZNwUoQAEKUIACFBAt0PFKGN39AjfAGlfXP2xo7r1O4gCk3QTW+JsIRwZeAlAncUAAhbwZ86G4n7LM4WPqtxfQNoYOd0DblmwpjZc6N644R2InHlldtthQ+hGJ2ROZ2Xmj4MI5HnjMtPtaTCQb66YABShAAQpQgAIZKfBcRwgnR4RuiWJjWcPVgTUSBy4t/6Veu6T1V0rhoxIHxMnsvInQeSMhDwqkm0Bk9CRGe/eL75aG/kbXhpWrpHWk/baSPJhqG4BZ0rInKq8zcTV7ugdTctPy6zBRbKyXAhSgAAUoQAEKZKyA1sCTLwURFrqC0I6YF138xaOPShzAtPwXe31j21c09C0SB8TJnFM2G6Y/V2p85qbAWwqM9OyBFRwRLqQHLS9qdt+9sldSR9rvrs7C2PBvodRFknInKmuWT+GsChPlRSY3Z08UMuulAAUoQAEKUIACaSgQsTSe2h6CJXVRifKUNDQd6ZM4NGk5gTX3sze9wzAM5+1aIg//1Ar48vlWe5GDx9BvKaCtyKtvH5SNpDVu6dq44mvCeqG2rCv7R631Wmik5ed+tONhKKC0yETdTA8nrqJF43kUoAAFKEABClCAAv9PIBjS+OOOEGyZW2ANNTQH8qUOZ3reyLS0GHV7/MehIXJgPNn5yC6plnpNMTcF3lQgMjaE0cA+8Tpa4/yujSuekdSRR9aUvN9U6iGt4ZOUO95Z/T6Fs+d4x98smJ5ffvEWY30UoAAFKEABClCAAm8UGB7TeHZnCM5SQoHHvobmwGyBuccjp+2/4euWtD4LhfMkDowyTORVzUvn4ZE4LMwco0DoRADBEz0x1pLy4q+YwWDtjk0toZQniTLA775bluvL108AODfKIml3mvPU1YwyD84qN2EYadc9dogCFKAABShAAQpQIIkCJ4Y0/tQl5nbgdTIaeHpxc+A9SeSKa1PpO4HV2LoBwJK4aiWxstyKWhhebuSeRHI2lWCBke7dsEKjCW4lodVr2OqTnT9Z/suEthLHyltaYLy/vOxOBX1FHKsVVVW2X2F+tQf5uZy5EjVwDEsBClCAAhSgAAVcKnC030LnK0J3cIf674bmHrEvvEvbCaz6xraVGvoml17zZ4yVPW0GPLmFZzyPJ1BAgoCOhDF0pENC1LfLeNQMBqslPX312zWl5/oBZ7mjVzr+ZPKXTTVRV+2B8wQWDwpQgAIUoAAFKEABCsRDYPehCA4FZO7grqHvXtzce2U8HFJRR9r+s76ucdX/AZSYJyXeOPjOJu7OZu48KJAOAuGhAYwNHJbelf/q3LDiEwBErHb//b8XV3q8xjYFTJMOP9H8zjLBuplelBYZ6btOfqIoPJ8CFKAABShAAQpQIC4Cz3eGMTgscwd3beNfF18d+Je4QKSgkvSdwFr63VnQkb0pMI1Lk2ZWHnJKZ8WlLlZCgVQLjPUfRHj4eKpjxNS+0vhQx8YVv4+pkiQW3rym7FYF/aUkNumKpvKyFRbM9sJZOsiDAhSgAAUoQAEKUIAC8RRwNm5//MUgLJnzV4DWVzQs670nnibJrCut/4Vft7StH1oXJRM0Xm0Zphe50+vjVR3roUBKBYa7d8EOjaU0Q0yNa7W/c+NyMTPKm28v/ogyjAdj6rPAwsWFBhbOzsjVkgJHi5EpQAEKUIACFKCAPIGxkMYftsvcwN3R1oaxaPFV3VvlyZ9KnOYTWK0/hcanpQ5O3vR6KJM3Y1LHj7n/V2Do4MvQWurPFM4Hpfpex4blX5UyplvWlL6sgflS8sYj55zpHkwv4VsG42HJOihAAQpQgAIUoAAF3lzg+JCNF7rCYnk8ynPW+5qOHJDagbSewJrX2PqPNnCH1MHxF02HL0/kA2RSyZk7AQKR0ZMY7d2fgJqTV6WU5YNaQ7WvKb1FKVyfPJ3UtuTxAHOrPCgrMlMbhK1TgAIUoAAFKEABCqS9gOw3EGKstyiQd+mlkLkDfbo/gTX/8tZ3WjaeBSDy/eme7Hxkl1Sn/YcAO5jeAmmw/1XQDE4p3rHpmiG3j9TWtWVn29p+DlAZ8eimz+vsd+VBQa7Ij3i3X07MRwEKUIACFKAABSjwBoF9RyJ4pVvm/I9S2LaoKXCu5EFN6yew5i9tm2lp3QEgW+IgOcsH8yprAcWbM4njx8zOImuNocMd0HZELIdS+o6O9SuvktCB9jWlTwJ4r4SssWY0DeDd83zcrD1WSJanAAUoQAEKUIACFIhaYMe+MALHZG6NooD7FzUHPht1Z114YlpPYJ2z9Lu5QTtyGAoFLrQ/YyRlmMitqIUyPWc8lydQwI0C2opg+Ein4P2vlAWlLuhcf4PzJKerj0fWlFxhQN3l6pBxCue8afCcGi+cJ7B4UIACFKAABShAAQpQIFkCz3WEcHJEJ6u5uLajoFYuau5pjWulSa4s7f/1X9/Y+pQGLkiya9yay62YC8ObFbf6WBEFkilgh8cwfHS38yhWMpuNX1tKDyiF2o77VvbHr9L41/Ts2sqckzr8PKDq4l+7u2p0lgs6k1cmt7xy18AwDQUoQAEKUIACFMgAgcdeDMKSuYIQprI/+v6mvv+WPExpP4FVt3TVddDq+1IHyV9YDt+UEqnxmTvDBSLDJzDaL/YlF87rB3d2zgkuREuLq58T3rqudLVtozndL7e8bAPvqvfCSPtvrnQfSfaPAhSgAAUoQAEKyBMYGdN4ekdIXvBTiTVgnt/QfNT1K0veDjjtbwNqltxcZSp9ANAi+2r6c5BTNkfqXxLmznCBsYHDCA8NiFWwob++a8PKf3NzBx69q7zECtm7AJlLpaO1nZJj4Jy5Xnj45FW0ZDyPAhSgAAUoQAEKUCCOAkf7LHQeELu3r2XZqvaSq3v2xpEk6VWJnNSZqFJ9Y+tRDZRPtJxbzs+rmg9nPyweFJAm4Ox/ZUfE/koRCXrMGfvv+adut7q3tMC4qKJkI7S6zK0Z45GrMM/Z88oHg++ziAcn66AABShAAQpQgAIUmITAzv0R9AwIXT8IRPJVuPjdTcdOTKLrrimSERNYdY1tTwD6QteoTzCI8wSW8yQWDwpIEnDePDh0aKekyK/PqtDRuX7FPDd3oH1tyV9Bq8fcnDHWbDlZCufVOXteZcTXVaxcLE8BClCAAhSgAAUokAABrYFnO0IYHpW5t6/W+tjiZb1FCaBJapUZcUdQ39h6rwYuT6psHBvLKpoOb574ay2OIqxKgoAVHMaI4CdUNXB/14YVrn7NbPua0v8E8HEJ18NkMpqGwvkLvPDzbYOT4WMZClCAAhSgAAUoQIE4CVg2xve/CoZkTmAphZ8vagr8XZw4UlZNRkxg1S5pvVop3JYy5RgbdiavnEksHhSQJBAeOoaxgUOSIr8uq4L+aseGld9zawe2ri39oNb4jQbScmGd36fwzlovsnwZ8TXl1suMuShAAQpQgAIUoAAFAIQjGn/YHoIzkSXxUMA1i5oDt0vM/trMGXFnUNvYdq6CfkHqYBneLORWzJUan7kzVCB4vBuhwV6xvbcsfeHu+1c+5dYObF5d+pRSuMCt+WLJ5WzUfnaNFwW5aTk3FwsNy1KAAhSgAAUoQAEKpEBgaFTj2Z1i9/aF5VNzLrlS8PKYV8c8IyawnDcQ1ja2HVfAlBRc63FpMm/GfCjFjdzjgslKkiIw2ncAkRGpewTqUF7O/rzn1q0LJwVrgo08dFvFPNO0tqs0ffpq4Wwvigs5eTXBy4KnU4ACFKAABShAAQokSOCVbgv7jsh8A6ECBhc1BwoSRJPUajNkAguoX9L6K63w0aTqxrGx7Gkz4MktjGONrIoCiRUY6d4NKzSa2EYSVLtSeLhj/YoPJKj6mKptv7s6SwdHdiqgOqaKXFjY+UKaU+VBVSkn6104PIxEAQpQgAIUoAAFMlbg+c4QBoeF7n8FdC1qDtSlw+BlzgRW46qvaajvSh00b+5UZE2rkhqfuTNQwHkDofMmQomHgvpGx4blq9yYffOasosV9MNuzBZrptJCE/NmeaAy5pspVjGWpwAFKEABClCAAhRItICz79XjLwbhvIlQ5KHxWMOywPtFZn9D6Iy5TZh7eeslho2HpA6a6ctCTnkNgIwZMqlDxdwAtG1h6NAOuRYKF3euX7HZbR3QGmrL2rJHAN3gtmyx5snPMXBevTfWalieAhSgAAUoQAEKUIACcRUYHtV4RvD+V1pj/eJlgcvjipKiyjJmNqTm09+eY3o9u1PkHHOzyvQgr7IefDQhZkpWkAQBa2wII4F9SWgpIU3YlqXO2X3/8pcTUnsMlb769JUzEZ9Wn92moXDePC9y/GnVrRhGmkUpQAEKUIACFKAABdwi0Hfcxva9rtwaNyoirdW1i5f13BrVyS4/KWPuFuZ/qsVn+f39APJcPiZvGS+3sg6Gxyc1PnNnkEDoZB+Cx46K7LEGLEt5Kves/3rAbR1oX136cyh80m25Ys3DTdtjFWR5ClCAAhSgAAUoQIFECew/amH/UZlbozgmCrhwUXPAtW9Xn8i4ZcwEloNS29j6EwV8ZiJAbjrXX1AKX0GZmyIxCwXeVGBs4DDCQwNCdfRQZ7CmEJsutdzUgUdvLS+xfPYBAFluyhVrlrIiE/OqPbFWw/IUoAAFKEABClCAAhRIiMC23WEMDNoJqTsJlYbhD0xpuAJjSWgr4U1k1gTWkra/UUr/OuGqCWpAebynlhHyoIDLBUZ69sIKDrs85VvFU7/p3LD8w24L37669D+g8HduyxVLnrwchfPqfFwZHQsiy1KAAhSgAAUoQAEKJFTgsReCcDZyl3ho4PnFzYHzJGZ/s8wZNYFVd+XN+QjZPQCypQ5g3vR5cPbD4kEB9wpoDB/dBTscdG/Et0um1A2d65d/x03hn1hdVhpUuksBBW7KFUsW0wDeUetDfk5GfQ3FQsayFKAABShAAQpQgAJJFjg5YuO5DsH7XwHrFjcHmpLMlrDmMurO4dQ+WFkdgJ6VMNEEV5xTNhumPzfBrbB6CsQgoO1TE1iRUAyVpK6oaRvv2fGTG55OXYI/b7n9jrLPw9J3uilTrFlqqjyoKjVjrYblKUABClCAAhSgAAUokDCBgz0W9hyWu/+VodF80bLA2oQBJbnijJrAArSqW9L2BBTem2TnuDXnn1oJX/60uNXHiigQbwFtOxNYndCWyA96u7Mm6EVLi2seEl67Ft46lAa0RmG8xypV9WX5FN6zgEsHU+XPdilAAQpQgAIUoAAFohN4aU8Y/Sdcc2sQXejXnKWhLlnc3PPIhAu6tECGTWAB9Y2rbtJQK106HmeM5cnOR3ZJ9RnP4wkUSJWAti0MH+mE86fAo79zw4piN+XevKbs4wr6P92UKZYsHhM4r96HbH/Gff3EwsayFKAABShAAQpQgAIpEHhmRwjDYzoFLcenScNUsy/6Qs+++NSW+loy7g6iZsmNF5jKlPsKScPA+D5Yykj91cMEFHgTAW1HMHS4E9DyfqlQwO6ODSvmumlg29eU/BRQn3ZTpliyzCz3YHYllw7GYsiyFKAABShAAQpQgAKJF9AaePxFuRu4AxhCXWBqQwNELo15sxHOuAms8WWEjTcPAFrscpzs0lnwZOUl/m8sW6DAJAS0FcbQ4Y5JlHRBEY3nOjeueLcLkoxHaL+7sBBBXzcAv1syxZIjN1vhL+b5YqmCZSlAAQpQgAIUoAAFKJAUgYGTNrbtkruBO4BfNjQHPpEUrCQ1koETWEDdkrbfQukPJck47s348ovhn1oR93pZIQXiIWCHx8Y3cRd5KNXeuX75Yrdkb19bciO0+oZb8sSa4+w5Xkwr4NOjsTqyPAUoQAEKUIACFKBA4gW27w2j77i8VSWvkVna0BzYkHip5LWQmRNYjTf9K2D8c/KY49uS8xZC522EPCjgRoHI2BBGA0KXWWv8snPjClf8StHeAo8qL31RA/PdOM4TzVQy1cT8WR5k5JfORLF4PgUoQAEKUIACFKBASgVsG3h8WxDOn0KPMMzI7IYvDBwSmv9NY2fkvURt46pPKKhfSB1IZZjIq5oH8FZQ6hCmde7I8DGM9gv9nNR6befGlc1uGKBHVk+bbipzrwbEr7kzDOD8+T44bx/kQQEKUIACFKAABShAAbcLjAY1nn45BKnbt2sgMBaKzP3wlwcG3W49kXwZeTdRt/S7s6AjeycC5bZzc0pnweQ+WG4bFuYBEBoMIHi8R6rFtzs3rPiWG8JvXlu6Rmk0uSFLrBkqi03UzvTEWg3LU4ACFKAABShAAQpQICkCx07aeFHw/ldKqZ26tuecdNrA3Rn4jJzAQkuLUbvb/4oCqpJy9SegEU92PrJLqhNQM6ukQGwCweNHERrsi62SVJVW+trO9StvTVXzp9t98s4pRWNW9lGltfinr5ynrpynr5ynsHhQgAIUoAAFKEABClBAgsCeQxEcDFgSor55Ro2NDcsCjXI78ObJM3MCC0Dd0lXfh1bXSR1QZxlhbmUdnD95UMBNAmMDhxEeGnBTpKizKG0v6dj4jZ9EXSBBJ25ZU/oBDfw+QdUntdrqCg+qK/g5lVR0NkYBClCAAhSgAAUoEJPAH14OYSwodQEhYEBfdlFz789iQnBh4YydwKr/zHffq03rCUDLNFAKueVzYXj9LrysGCmTBUb7DiAyckIkgQH10Z0blv93qsNvXlNyq4L6UqpzxNq+16Pw3oV8+ipWR5anAAUoQAEKUIACFEiewMiYxtM7QslrMM4tacAeC0Wmptv+Vw6TzMmbOAxw7eU3Tle22QEgLw7VpaSKrKnT4c0vSknbbJQCbyUwGtiPyNhJkUCW0ot2r1+5NZXh9QMwtwyUOpuITUtljni0XTvTi8pirh2MhyXroAAFKEABClCAAhRIjsCRXgtdByPJaSwBrSioHYuaexYkoOqUV5mxE1hVn/pedq4/uBtAZcpHYZIBDF/W+FNYPCjgJoHRnr2IBIfdFCnqLMrEuzvuXfFc1AUScGL76rKPQulfJaDqpFbp7HnlPH3lPIXFgwIUoAAFKEABClCAAlIEdu6PoGdA7v5XSmH9oqbA5VK8J5Izo+8sahvbfqGgPzERMLedm1tRy2WEbhuUDM8z0r0HVmhEpIJpqoU77l3+cirDb1lb8mOt1ZWpzBCPtmuqPKgq5d5X8bBkHRSgAAUoQAEKUIACyRN4ZkcIw2Ny978C1HUNzT0/TJ5Y8lrK6AmsuY1tHzGgH0wed/xbyppaCW+++JVG8YdhjSkTGOneDSs0mrL2Y2vYqO/ccENnbHXEVrp9Tek2AGfHVktqS/u8Chc4e19l9DdMaseArVOAAhSgAAUoQAEKTFwgFNZ48iW5+185PVbAhYuaA09NvPfuL5HRtxfnXbXWOzQy0AugwP1D9eYJPdlTkF1yltT4zJ2GAiNHd8EKj4nsmWVGanbf+897UhX+0bvKS+ywPqS19qUqQzzarSg2UTfTE4+qWAcFKEABClCAAhSgAAWSJrD/aAT7j8pdPghgbEh5pn2s6YjMJTFnGOmMnsBybOoaWx8D8FdJ+xsR54aUYSJv+jxAZfxQxlmW1U1WYORoF6xwcLLFU1pOeTCr454V+1MVYsua0m9p4P+mqv14tOvsffWe+T74ffxMiocn66AABShAAQpQgAIUSI6A1sAzO0Nw3kIo9VDQDy5q7v2Y1Pxnyp3xdxh1S1p/CIUvnwnKzf89a9oMeHML3RyR2TJIgBNYkxts3QKjvaz0oFJyXyzh9LysyMC8au/kEFiKAhSgAAUoQAEKUIACKRIIRzT++HIIEcEPYGlDfX7xVT13pYgw4c1m/ARW/dK2j2mt/yvh0glswPTnIKdsTgJbYNUUiF6AE1jRW732zN//uLjSEzZ2KSBncjW4o9TZc7yYVmC4IwxTUIACFKAABShAAQpQIEqBkyM2nusIR3m2K0+LWDbOu+TqgLOnbloeGT+BNftTbQVeP44COlvqCCvDg9zKOihn7Q4PCqRYgBNYkxuAretKL7RsPKYAsX+RxzdvX+ADP4omdw2wFAUoQAEKUIACFKBA6gR2HYzgcK/gx6+AISjPrIamI32pU0xsyxk/geXw1jW2Ok9giV4nml06G56s3MReLaydAlEIcAIrCqQ3OaV9Tdm3Af3NyZV2R6m5MzyYXmK6IwxTUIACFKAABShAAQpQIEoBZ/+rx7eFYFmC97/SaueiZT0LAMjtxBnGixNYAGo/u2qpMtR9UV7brjyNywhdOSwZGYoTWJMb9s2rSzuUQt3kSqe+lGkA5y/wwe/l10rqR4MJKEABClCAAhSgAAUmIjA4bOP5TtHLB515q+samnt/OJF+SzuXdxoA6pe0na0VXgS0aA9nGaHh8Um7Bpk3zQQ4gTXxAd16V9EMO+Q5MPGS7imRl61wXr2PL0R1z5AwCQUoQAEKUIACFKBAlAIHeizsPRyJ8mxXnha2It6KS754uN+V6eIUSvSETZwMcN5VLTlDI35nnajYfbAci6yi6fDmFcWLhfVQYFICnMCaONvmdaV/p2z8x8RLuqdEfbUH5UVcPuieEWESClCAAhSgAAUoQIFoBV7YFcbxk3a0p7vxvM6G5kC9G4PFMxMnsF7VrF/atk5r/YV44ia7LtOfi5yy2clulu1R4HUCnMCa+AWxZW3ZTVrrlRMv6Y4SXhP4y3P97gjDFBSgAAUoQAEKUIACFJiAQMQCntgWhLMPluDjFw3Ngb8VnD+q6JzAepWpbum3Z8H27IGCaJPciloYXt5IRnX186SECHACa+Ks7WtKHgTURyZe0h0ligsNLJztdUcYpqAABShAAQpQgAIUoMAEBA4HLOw6JHr5IAB1XUNzT1rvf+UMqejJmglck1GdWtfYuh/AWVGd7NKTfPnF8E+tcGk6xsoEAU5gTXyU29eUHARU1cRLuqME3z7ojnFgCgpQgAIUoAAFKECBiQu80BXG8SHRywe1Zdj1l1zV1zXx3ssqwQms14xXXWPrfwP4sKwhfH1aw+NHbmWt5C4wu3ABTmBNbAAfWV013VChQxMr5a6zL1joQ5aPXyfuGhWmoQAFKEABClCAAhQ4k4CtgT9sDyEUlrt+UAE7FjUHFpypr+nw33nH8boJrFVXAOou6QObW14Dwyd6P3rpQ5DR+TmBNbHhb19b8g/Q6p6JlXLP2VNyFd5Vx7efumdEmIQCFKAABShAAQpQIFqBE0Maf+oKRXu6O89T6qaGpp5vujNcfFNxAus1nrM/1Vbg9evDAHLjy5zc2kxfNnLKa5LbKFujwKsCnMCa2KWweXXpBqWwZGKl3HM2lw+6ZyyYhAIUoAAFKEABClBgYgJp8PZBWMAHL2kOPDSxnss8mxNYbxi3usa2XwD6EzKH83RqNb6M0PDwqQjZ4ygzPSewoh+3Bx6AWTJQ+gKAhdGXcteZ59V7kZ9juCsU01CAAhSgAAUoQAEKUOAMAs6ywSdfEv70FQBbW1UXL+t3HsRJ+4MTWG8Y4rlLWz9naNwtfeSzplbCmz9NejeYX6AAJ7CiH7Tffbcs15dv7wTUjOhLuedMpYALz/bB6+FXiXtGhUkoQAEKUIACFKAABaIRGBi0sW13OJpTXXuO1ti+eFngbNcGjHMw3nW8AXTe574z145Y4nfvV6YHeZV1gOKTEXH+O8PqziDACazoL5En76wqGguH9imFKdGXcs+ZuVkKfzGfT3q6Z0SYhAIUoAAFKEABClAgWoGuAxEc6bOiPd2d5yn9uYam3nvdGS7+qTiB9eemqm5J64tQED+LmT1tBjy5hfG/algjBd5GgBNY0V8eD99eNttj6F0aEDnTXFPlQVWpGX2HeSYFKEABClCAAhSgAAVcIGDbwJPbg4hEXBBmkhEUMHLCa5d//PN9JydZhbhinMB6kyGrW3Lz30PZm8SN5hsCm9l5yCmZJb0bzC9MgBNY0Q/YI2vKPmNA/yT6Eu4686/O9cPD+St3DQrTUIACFKAABShAAQqcUaDvmIXt+wTPXjk91HonenrPaWiB8I6ccbj+3wmcwHoTq/rLV02zbWO3gpb9+JJSyKuoheJm7tH/jeCZMQtwAit6ws2rS36olPpy9CXcc6bPq8b3v+JBAQpQgAIUoAAFKEABaQI79ocRGLClxX5dXq3U/8/evcDZVdV3//+uc86cmVwhIZmEJEDAJBPuIoggSDKJl0ctto8tVCHxbmYCSltrH4tPW6f/tgmotWqtJGJbL2hbqFZr9dFWE0AF5BYgIfcEEnKbM7nfJnMue/17ErBckuxz5lz2Wnt/5vXy1VdfrL3W7/f+bR3n6z77/MOsrt4Pet1ElcUTYB0HbObMnsz2SdkHJXNZlZ7OLc8MGakhY89yri4Kiq8AAVbls12yqP1XRrq88ivcWTlyWEqv6WhxpyAqQQABBBBAAAEEEECgQoGHVuR1JG8rXO3oMmPf0NnV9wtHq2tIWQRYJ2CdNve2Dxtrv9IQ9SZualJpDSs/hZXONPFUjkqyAAFWZdO/+26lx+5u75fkZQo0dlRK55/tZemVDYhVCCCAAAIIIIAAArEU2HfQatnavO+9bensznn5Tea1wBNgnUDv0nmLWw4e3t0raVQtwC5c23rKOGVPaXehFGpIgAABVmVD/unn28el27SjstXurXrVpIzO4AXu7g2GihBAAAEEEEAAAQROKrBsbUH7Dnr+8UHZv5/V3fehpI2aAOskE58+Z8E/WZl3eX9TmJSGT+jgKSzvB+lHAwRYlc3p/kXjzyspeLqy1e6tevW0Fp063MsvT3QPk4oQQAABBBBAAAEEmiJQKFqVPz5Y8ju/kpG5YWZ37z81Bc2hQwiwTjKMc+fe9q7A2ljcFA0/QvAAACAASURBVK2jJig74jSHbj1KiasAAVZlk71v0dhrApn7Klvt1qryL46rL84qneZXiFuToRoEEEAAAQQQQACBkwnsPRjoibUFr5GMFJhScfKMm3c/53Ujgyievz5OgnbldZ8bsrt1YJ+v76h5cWupdIuGTZw+iFuESxCoToAAqzKvJYva32mk71S22q1Vba1GV5zPNxC6NRWqQQABBBBAAAEEEAgTWPlMQbk9fj9+ZYzun9mVmxHWaxz/OQFWyFQ75iz4jGQ+Hofht546XtmRY+PQCj04LECAVdlwli4a+0HJfLWy1W6tGjUypYun8AJ3t6ZCNQgggAACCCCAAAInExgoHPv4oPX8ywdtyvzmrHm9/57EaRNghUx92pzbLjayj0ry/mv8UplWDZswLYn3OT03UYAAqzLsexeNvdXKLKhstVurJo5Na+oZ3v9HoluoVIMAAggggAACCCDQUIHtu0pas6nY0DOasPmBQiGY/uaP7tzWhLOcO4IAK2Qkk9/3j22txR1bJMXiBVJDxp6lzJCRzt2IFBQfAQKsymZ57x1jv2CNuaWy1W6t4hsI3ZoH1SCAAAIIIIAAAgiEC6zYWNDOvX5/fFDSOu3IndfZI++TuPCJvXIFAVYFaufOvf33Axv8TQVL3V9S/kbCidNlUmn3a6VCLwUIsCob272Lx/2TtdbLbzk9d3KLxo3mGwgrmzSrEEAAAQQQQAABBKIWKH/r4ANPDXj/7YNBYP5g9k29n4/aM6rzCbAqkD/vup5sqbV1q6QxFSx3fknb6IlqGT7a+Top0E8BAqzK5rZkUftPjPTmyla7teqiKS0aPZIAy62pUA0CCCCAAAIIIIDAiQSe6y1pw1bvH1o62LIvmHD1J3YeSOqkCbAqnPy0G2/7jjH2nRUud3qZSWc07PRpPIXl9JT8LY4Aq7LZLV089mFZ89rKVru16jUdWY0cxq8Pt6ZCNQgggAACCCCAAALHEyi/tP2x1Xkd7Pf77e1GdunM7r5ZSZ4yf4FUOP1z5y54W2DNDytc7vyy1pHtyp46zvk6KdA/AQKsyma29I72dTKaUtlqt1Zdfl5WQ9v49eHWVKgGAQQQQAABBBBA4HgCxZL04HL/Pz5orf5s1vzcXyR5yvwFUuH0Z87syWyf1LpM0gUVXuL0sqNPYU3okDF8DMjpQXlYHAFWZUNburh9h6y8TJGvvCCr1iy/PiqbNKsQQAABBBBAAAEEohTYkitp/RbvPz4omdK5nV27VkdpGfXZ/AVSxQQ6blzYLaM7qrjE6aUtw05V22mTJHEbOD0oz4ojwKpsYEsXtZc/uz68stVurbr64lZl+B4It4ZCNQgggAACCCCAAAKvEAgC6cEVeRWKfn98UFYPdc7PXZn0EZNcVHEHnHvDX54VpNLPxCbxMUbDxk9VqqW1CgWWInByAQKsyu6QJXe0l4yRl49AXnNJq1L89qhs0KxCAAEEEEAAAQQQiExg38FAy9YWIju/bgen7Ps75/V9rW77eboRf4JUNzjTceNtd8nYG6q7zN3V6dahGjruVe4WSGXeCRBghY/sgc9NGjIwNH84fKV7K4yRZlxC6O3eZKgIAQQQQAABBBBA4OUC5W8eLH8Doec/VqZ0XtI/PlieIQFWlXfylBtvn5Q2wVpJQ6q81NnlQ8acqczQU5ytj8L8EiDACp/Xo4tHnXLAtuwNX+neikxGuvoiAiz3JkNFCCCAAAIIIIAAAi8WCKz00Iq88gXPPz4obR1hcmdf1qUYPEpW2z1KgFWt33XXpTuylzwgYy6v9lJX16da2jRs/BSp/GgFPwjUKECAFQ74qy9NPO1wprAzfKV7K7ItRq+/MOteYVSEAAIIIIAAAggggMCLBHJ7Aq18xv/Mx1gzb+b83jsZLk9gDeoemHrD7e9MpYLvDOpiRy/KjjhNraMmOFodZfkkQIAVPq2f3tk+Ll3SjvCV7q1oyxpdcQEBlnuToSIEEEAAAQQQQACBFwss31DQrn2B7yj7tCM3prNHMfgaxdpHwSM3gzHs6Ul1rG99QtKFg7ncxWtMKqVh46fJZFpcLI+aPBIgwAof1i/+fsyEQiG1NXyleyuGtBq97nwCLPcmQ0UIIIAAAggggAACLwhYKz2w3P9vH7RWv5w1P3c1kz0mQIA1yDuhY+6CW2TNFwZ5uZOXpbNDNHTcOZLx8ovRnDRNYlEEWOFT/9kdkyamTH5L+Er3VhBguTcTKkIAAQQQQAABBBB4qcC2vpLWPuf/Q0tG+sOZ3bnPMV8CrJrugQtvWDhqIKU+I6Vr2sixi9tOm6SWYaMcq4pyfBIgwAqfFgFWuBErEEAAAQQQQAABBBAYjED55e2/fGpAJc+/fNDKlrItdtTVH9x5YDAOcbyGJ7BqmOq0Gxf8sTFmYQ1bOHepSaWPvtDdZPiIkHPD8aQgAqzwQRFghRuxAgEEEEAAAQQQQACBwQgcPGz12Oq8vP/uQenfOrtz7xyMQVyvIcCqYbId77p9gjLBakkjatjGuUvTbcM1tP1s5+qiID8ECLDC50SAFW7ECgQQQAABBBBAAAEEBiOwYWtRz/V6/vjVscbndnbn7hqMQVyvIcCqcbLT5iy820jX1biNc5e3jZ6kluF8lNC5wXhQEAFW+JAIsMKNWIEAAggggAACCCCAQLUCpUB6oPzxQe+/fFA2KKbPnv2R7ZuqNYjzegKsGqc75caekWnTWn4Zc6yewpIxGnb6VKUyrTUKcXnSBAiwwidOgBVuxAoEEEAAAQQQQAABBKoV2LGrpNWb/H95u7X6yaz5ubdKcfgkZLVTPPF6Aqw6WE6fs/DrVnpPHbZyaot061ANaT9bhm8ldGourhdDgBU+IQKscCNWIIAAAggggAACCCBQrcBT6wvavd/vx6+sFKSkq2d25x6stv+4ryfAqsOEp8257WIj+4ikljps59QW2RFj1DrqdKdqohi3BQiwwudDgBVuxAoEEEAAAQQQQAABBKoRyBelh5YPqPwthJ7/7OjPFzvedsvu/Z73UffyCbDqRNoxZ8EiyXTVaTuntik/hZVpG+5UTRTjrgABVvhsCLDCjViBAAIIIIAAAggggEA1Aqs2FdW7y/+Xt1vZH87q7vuNanpPyloCrDpNevqNt11ojX2qTts5tY1JZzR0/BSl0rF7wMwp57gUQ4AVPkkCrHAjViCAAAIIIIAAAgggUKlAsST96um8CkX/H79KZ1Kvu+ZDOx6utPckrSPAqtu0rem48bbvyegdddvSoY3S2SHH3oeVSjtUFaW4KECAFT4VAqxwI1YggAACCCCAAAIIIFCpwJ4DgZ5cV6h0ubPrrLRyVnfufGcLjLgwAqw6DmDmzKWZ7ZMe3CWZkXXc1pmtWkacprZRE5yph0LcFCDACp8LAVa4ESsQQAABBBBAAAEEEKhU4NHVBR087PfL25/v9bOd3bk/qrTvpK0jwKrzxKfPWfg1K723zts6s13rqeOVHTnWmXooxD0BAqzwmRBghRuxAgEEEEAAAQQQQACBSgT2H7J6fE2+kqXurwnMlZ039T7kfqHRVEiAVWf3KTfePikt+6SMHV3nrZ3YzqRSGjJ2stKtw5yohyLcEyDACp8JAVa4ESsQQAABBBBAAAEEEKhEYP2Worbk/H95u6TlM3fkXm16FItHySqZXbVrCLCqFatg/bS5t/2ZsfbPK1jq7ZJhp09TqqXV2/opvHECBFjhtgRY4UasQAABBBBAAAEEEEAgTKAUSA8uH1D5Je6+/5Q/yTWrO/cN3/toZP0EWA3QnfL+BWPThdRWycb2a/tMpkXDxk/lpe4NuH9835IAK3yCBFjhRqxAAAEEEEAAAQQQQCBMYNOOkp7ZVgxb5sM/H5BNTe+cv+NZH4qNqkYCrAbJT5u7YK4JzNdlFFvjdOtQDWk/R8bEtsUG3R3x3pYAK3y+BFjhRqxAAAEEEEAAAQQQQCBM4JGVeR06YsOWuf/PrX2s77S+111/vWLwLFnjuEkeGmR76byeoQcPty6TNK1BRzixbaZtuIaMPUsyKSfqoYjoBQiwwmdAgBVuxAoEEEAAAQQQQAABBE4mUA6uHl2Vl/U/v7KlwLz5jTf1/pSJn1yAAKuBd8i0G/9qtjGp2N+EmaGnaMiYMxsoydY+CRBghU+LACvciBUIIIAAAggggAACCJxM4OGVeR2Ow9NX0jOd3blzmHa4AAFWuFFNKzrmLPy+pHfUtIkHF7cMH6W20ZM8qJQSGy1AgBUuTIAVbsQKBBBAAAEEEEAAAQROJHDwsNWjq/PxADL2q51dfR+ORzON7YIAq7G+6pj7l5fJpn8pKdvgoyLfvmX4aLWNniDF97VfkRv7UAABVviUCLDCjViBAAIIIIAAAggggMCJBNY9V9TWvli8LspK6cs7u7c/yrTDBQiwwo1qXjF97oI/t9b8Wc0bebDB0RBr1ASJF7t7MK3GlEiAFe5KgBVuxAoEEEAAAQQQQAABBI4nkC9YPbgiFu++Krf3YGd37vVMujIBAqzKnGpaNe3dnx1jUoXNMhpS00aeXNwybJTaTuPjhJ6Mq+5lEmCFkxJghRuxAgEEEEAAAQQQQACB4wls3FrS5t5iPHCMfV9nV9/X49FM47sgwGq88dETOt5z228qsP8qKdOkIyM9JjN0pIacdiZPYkU6hWgOJ8AKdyfACjdiBQIIIIAAAggggAACLxcof+Hgr57O68iA/189WO4tKKYnz/7I9k1MujIBAqzKnOqyqmPOwh/997/f3lqXzTzYJJ0dqiFjz5JJJyKz82AizSmRACvcmQAr3IgVCCCAAAIIIIAAAgi8XKD83qvy+6/i8GNkfzCzuy/2X/hWz1kRYNVTM2Sv6e9bODkoar2R0k08NtKjTLpFw8ZPIcSKdArNPZwAK9ybACvciBUIIIAAAggggAACCLxYoFSSHno6r0LR/6evrFSyQ0pnzX7vrq1MuXIBAqzKreqyctrchX9orD5bl8082SSVyR59J1a6dZgnFVNmLQIEWOF6BFjhRqxAAAEEEEAAAQQQQODFArv2BVq+oRAPFGNXrVXfxV1diklDzRkLAVZznH99ypQbe0amTevD5ddiNfnoSI8zJqW20yYqM/QUSdx2kQ6jwYcTYIUDE2CFG7ECAQQQQAABBBBAAIEXBIJAenRVXodj8u4rI/vJmd19C5lwdQIkCdV51WV1xwdun6BCsE5WQ+uyoUebZEeOVesp43i5u0czq7ZUAqxwMQKscCNWIIAAAggggAACCCDwgkBuT0krn4nHu68kHejPjxz7tlvWDzDh6gQIsKrzqtNqa6bPue2vrfQHddrQq23SrUM1pP1slZ/K4id+AgRY4TMlwAo3YgUCCCCAAAIIIIAAAi8ILFtb0L6DQSxArHTnrO7cvFg00+QmCLCaDP7CcZfOW9xy6PCun1uZ10VUQqTHmlRGbaPLHykcGWkdHF5/AQKscFMCrHAjViCAAAIIIIAAAgggUBbYuTfQio0xelVUyrypc17vT5lu9QIEWNWb1e2KjhsXXCVjlkjK1m1TzzbKjhyj7Mh2mVRivpjRswlVXy4BVrgZAVa4ESsQQAABBBBAAAEEELBWenR1Xof6/f/mwfI0rbRh589yHdffoxLTrV6AAKt6s7peMW3ubTcba79U100928ykWzR03NlKZVo9q5xyjydAgBV+XxBghRuxAgEEEEAAAQQQQACBA4etHl+TVznIisWPNdd2zu/9j1j0EkETBFgRoL/4yEvn9Qw9eDh7n2Qui7iUaI83KWWHj1b21HG8GyvaSdR8OgFWOCEBVrgRKxBAAAEEEEAAAQSSLVAKpEdW5XUkJt88KNk9rZnWKa//0JbdyZ7s4LsnwBq8Xd2uvGjuZ9qP2OJTRhpXt0093SiVyaq1/G6s1mF8U6GnMyTACh8cAVa4ESsQQAABBBBAAAEEki3QtyfQ08/E591X1urOWfN5eXstdzUBVi16dby244YFH1QqdadkmYmkTNtwtY05k3dj1fEea9ZWBFjh0gRY4UasQAABBBBAAAEEEEi2wMNP53U4Nk9f6Ujr6Ozo11+/pT/ZU62te8KS2vzqd3VPT6pjXevfyOiW+m3q907lF7tnhp6i1lGn87FCj0ZJgBU+LAKscCNWIIAAAggggAACCCRX4LlcSRu2FOMDYPS9zq7c/45PQ9F0QoAVjftxT5327s+OMen8w5I526GyIi+l/JL38rcVtgwbxRNZkU8jvAACrHAjAqxwI1YggAACCCCAAAIIJFOg/L728tNX/fF5+kqywbWd83fy8vYab2kCrBoB63359PcsOM0GZp2kUfXe2/f9yk9ktY2eqHTbcIIsh4dJgBU+HAKscCNWIIAAAggggAACCCRTYNP2kp7ZHp+nr4zRUzO7chcnc5r17ZoAq76eddmt48bb5sjYb9ZlsxhuYtIZZYefpuwp7THszv+WCLDCZ0iAFW7ECgQQQAABBBBAAIHkCRzJWz28Mq8giE/vVvrtWd2578ano+g6IcCKzv6kJ0+fs/BzVvoDR8tzoiyTyigz7BRlh41WKtvmRE0UIRFghd8FBFjhRqxAAAEEEEAAAQQQSJ7Ams1Fbd9Zik3jVsq3ZbKnv/5DW3bHpqkIGyHAihD/ZEdfNPczw47Y4k+NdIWjJTpVVvljhdmRY5XOtqkcbPETnQABVrg9AVa4ESsQQAABBBBAAAEEkiWw92CgJ9YWYtW0Nfo/s7pyn4lVUxE2Q4AVIX7Y0edf1zO62Nq6WtLYsLX88xcEzNGnsoaMmiCl0rBEIECAFY5OgBVuxAoEEEAAAQQQQACBZAk8sa6gvQdi9NlBqfe+HbkJPT2KVVNR3pUEWFHqV3D21Bs+/ep0qrTE8lL3CrReuiTV0qZM61Blhp6qdNuwqq/ngsEJEGCFuxFghRuxAgEEEEAAAQQQQCA5Ajt2BVqzqaDyNxDG5cdIX5vZnXt/XPpxoQ8CLBemEFLDtLkL5hpr/kESn40b5LxMukWZISOUaRuuVHaIUpkWSdz+g+Q86WUEWOGqBFjhRqxAAAEEEEAAAQQQSIZAsaSjL27PF+ITX1npcBCYC994U+/GZEyxOV3yF3xznGs+Zfq7F3zMplOflSwzq1lTMqm0MsNOVXbYKJlMVjJGxqTqsDNbEGCF3wMEWOFGrEAAAQQQQAABBBBIhsD6LUVtycXnxe3lqRnpKzO7c13JmGDzuiQMaZ51TSedd11PttTa+veS5tS0ERe/QqAcXJl05miolcoOVWbIcKVbh/Iy+EHeKwRY4XAEWOFGrEAAAQQQQAABBBCIv0D5nVfld1/F7cekUpfPnLfjkbj1FXU/BFhRT6C6803HnIU/lPTW6i5j9WAEjgZamazKHz8s/6v8scNjQVfm+f+bkjHpo8FX+Qkufo4JEGCF3wkEWOFGrEAAAQQQQAABBBCIt4C10rK1Be0/FK93nFtrfnR/b++1vLy9/vcvf3XX37ShO1409zPD8rZ0v5V9TUMPYvOqBEw5wEqlj30M8ehHEcsfSaxqi9gsDgpHZMu/jTz8MRmdvfprtz7b6NIJsBotzP4IIIAAAggggAACrgts3FrU5t54fXRQ0kBgdP7srtwG1/19rC+hf2L7OKr/qfm86z49vtRWWiurEX53QvUIuCVAgBU+jyGtRq87Pxu+kBUIIIAAAggggAACCJxAoPzi9geXD6gUr4evys8xPNE3KnfZ9dcrdsmcCzczAZYLUxhEDdPft3CyLeqXkiYM4nIuQQCB4wgQYIXfFgRY4UasQAABBBBAAAEEEDixQDm8emx1Xv0Dfn5q4ySzLZlS6sqZN/Puq0bd/wRYjZJtwr5T3rXwknRGP5A0sQnHcQQCsRcgwAofMQFWuBErEEAAAQQQQAABBE4s8OyOkp7dVowdkZX50azu3rfHrjGHGiLAcmgYgymlY+5fXiabfkBSy2Cu5xoEEPgfAQKs8LuBACvciBUIIIAAAggggAACxxfYc8DqyXX5mPLYt3Z29/04ps050RYBlhNjqK2Ic2+8/YrABEsltdW2E1cjkGwBAqzw+RNghRuxAgEEEEAAAQQQQOCVAuXveXp4ZSw/Olhu9sd9o3O/wbuvGnvnE2A11rdpu0+fu2BGYM2/GGlc0w7lIARiJkCAFT5QAqxwI1YggAACCCCAAAIIvFQgsNLTGwvatS9ub22XrFRKpVJXzpzHu68afd8TYDVauIn7l0Msa833JZ3SxGM5CoHYCBBghY+SACvciBUIIIAAAggggAACLxXYsauk1Zvi996rcpdGdlludN9refqq8Xc9AVbjjZt6Qsfc2y9TEDwsI2bbVHkOi4MAAVb4FAmwwo1YgQACCCCAAAIIIPA/AnsOBHpqfUHljxDG8OdI3pqz3jK/NxfD3pxriZDDuZHUXtD0G2+70Br7I0mTat+NHRBIjgABVvisCbDCjViBAAIIIIAAAgggcExgoGC1bG1BRwbimV5Zmbtndff+LvNujgABVnOcm37K1Lm3n5uyQfnjhFObfjgHIuCpAAFW+OAIsMKNWIEAAggggAACCCAgBYGOhlcHDsfvvVfl+RrpsDWlSzu7dq1m3s0RIMBqjnMkp0y5bsHYTJt5ylqNj6QADkXAMwECrPCBEWCFG7ECAQQQQAABBBBAQEc/Nrh7fzzDq/J8rczCWd29n2TWzRMgwGqedSQnTXv3Z8eYdOHfJF0dSQEcioBHAgRY4cMiwAo3YgUCCCCAAAIIIJB0gWe2F7Vpeym+DEalojLnvKlr2+b4NuleZwRY7s2k/hXN7Ml0TGr7imTfX//N2RGB+AgQYIXPkgAr3IgVCCCAAAIIIIBAkgW29pW07rl4fuPg83O11tjfn9XV98UkzzmK3gmwolCP6MxpcxZ+ykh/KikdUQkci4DTAgRY4eMhwAo3YgUCCCCAAAIIIJBUgT0HrJ5an4/rNw4eHauVNpjWoRd0vv/ZI0mdc1R9E2BFJR/FudfdnZ6S3TA7bfRdScOiKIEzEXBZgAArfDoEWOFGrEAAAQQQQAABBJIosOdAoOXrCwri+YWDvx5pENjrZ9/Ud08SZxx1zwRYUU8ggvOn3nDbNamUvVPStAiO50gEnBUgwAofDQFWuBErEEAAAQQQQACBpAns3Bdo1TMFleL7zvYXRvrjzu7cW5M2X1f6JcByZRJNruPcOX91ulXq36z0WkmpJh/PcQg4KUCAFT4WAqxwI1YggAACCCCAAAJJEthbfvJqQyLCq2IqpRkz5uUeSNJ8XeqVAMulaTS5lkvnLW45eHj35yXd1OSjOQ4BJwUIsMLHQoAVbsQKBBBAAAEEEEAgKQJ7D1o9tS4f+48NHp2n1V93zs99PCmzdbFPAiwXp9LkmqbPWfjbgexXjcypTT6a4xBwSoAAK3wcBFjhRqxAAAEEEEAAAQSSIFD+tsH1W4qxfmH7r+dotDcbmI6r5vfmkjBbV3skwHJ1Mk2ua+oNC89JpfRNSVdK4r5osj/HuSFAgBU+BwKscCNWIIAAAggggAACcRd4dntRz24vxb3NF/orKbAf7Lyp7+tJadjVPgkqXJ1MRHVNv3HhZ630ezLKRFQCxyIQmQABVjg9AVa4ESsQQAABBBBAAIG4CgSBtGJjQbv3x/9t7b+eodFPO7tyb4rrTH3qiwDLp2k1pVZrpt7wV29IpdLflXRaU47kEAQcESDACh8EAVa4ESsQQAABBBBAAIE4ChwZsEfDq4P9No7tHb8na4upVOo1M7p6lyenaXc7JcBydzaRVtbxgdtHKF/6jGTeLykbaTEcjkCTBExRZ6/+51ufbfRxP7tj0sSUyW9p9DmN2J8AqxGq7IkAAggggAACCLgrUI6rdu4Jjr7vaqCQoPCqPBJjbu3s6r3N3ekkqzICrGTNu+pup81d8DZjzVckM0Gy3C9VC3KBVwLFgYlr/rlnW6NrJsBqtDD7I4AAAggggAACCNRDoFSSNveWtGlHsR7b+bWHUV9Rhalv6tqzz6/C41stgUR8Z1u3zqbc+MWRqdTBBcaam+u2KRsh4KDAQGZgyLNf6znS6NIIsBotzP4IIIAAAggggAACtQocOmK1YkNB/QMJe+rqGNyRoJiePvsj2zfV6sj19RMgwKqfZex3mj5n4Uxr7V/KmKti3ywNJlFg15q7bh3TjMYJsJqhzBkIIIAAAggggAACgxEolqRN24vatquk8hNYifyx5kud83s/msjeHW6aAMvh4bhY2nnX9WSL2ezHjDG/J2m8izVSEwKDEbDSQ2vvuvXKwVxb7TUEWNWKsR4BBBBAAAEEEECg0QL2v7+Ofs/+QOu2FJP61NULxMv787nXvu0WDTTanP2rEyDAqs6L1c8LXDpvccuBw7u/bmTexbuxuC1iIWC1aM23bp3fjF4IsJqhzBkIIIAAAggggAAClQrki1bL1hbUfySRHxd8CVMgO2N2d9/9ldqxrnkCBFjNs47fSdddl57e8ppX25Q+LWlW/BqkoyQJWJn3rr3rj7/RjJ4JsJqhzBkIIIAAAggggAACYQKHj1g9s62o3fsDlYKw1fH/50bmkzO6em8zRiR5Do6bAMvBofhY0rT3LPzfCsz/MdLreCLLxwlSc8oEF6765v9d0QwJAqxmKHMGAggggAACCCCAwPEEysnM/kOBtvcFyu0pKSCqOcZk9ER+v7n6LX/Ue4g7x00BAiw35+JpVdZ0zL3tdxTYz8iYMySlPG2EshMmYKTNq+/648mSacqvbwKshN1gtIsAAggggAACCDggUH7C6vCRQGs2l3TwMI9bvWwk+1Sy0ztv7tvhwKgo4QQCBFjcGnUX6PjA7SNsXrONKf29rBld9wPYEIE6C6Rs6Z2rvvUn/1bnbU+4HQFWs6Q5BwEEEEAAAQQQQCBfsHp2e0m79gUaKDTlf6/1Dt0Y3TSzK3eHd4UnrGACrIQNvJntlr+xsJRtu94Y+xF79KOF/CDgpMB2aYiXKAAAIABJREFUZVMda/7hEweaVR0BVrOkOQcBBBBAAAEEEEimwIHD9mhgtedAcPTjguVvGOTnBAJWX+s7Lfeh669XCSO3BQiw3J5PXKozU+f81dvSSv+Jlb1Y0pC4NEYf/gtYY29b+81P3trMTgiwmqnNWQgggAACCCCAQLwFyu+wKj9ldWTAatf+QL27g6P/Pz8VCWxN51OXXHPLjr6KVrMoUgECrEj5E3Z4T0/qVatHTMxkBj4nmd9JWPe066bAujUDj5+re+5p6v/aQoDl5s1AVQgggAACCCCAgC8CQaCj3xxYfgl7ObQq//88ZVX19A7mrXnVW+b35qq+kgsiESDAioQ98YeajrmfmaxS4VqlzE2SOhIvAkA0AkbXr/nmrfc0+3ACrGaLcx4CCCCAAAIIIOCXQDmMKj9F1T9Q/pd06Ehw9Amr8jus8sVj/4zAqraZGmvmzZzfe2dtu3B1MwUIsJqpzVmvFLju7vS07MY3G2M/aKWrjTQOJgQaL2Cslb1z7V23dktq+vPVBFiNnzAnIOC7wNE/UApSoWhV/tao8h8p/KHi+1SpHwEEEDgWOpX/Vf7YX/k/30slq2JJz/+rHE4d+89/AqoG3y3GfKmzq/ejDT6F7essQIBVZ1C2q0Ggpyd13rq2G0omuF0yp0lqrWE3LkXgZAKb0gMDF6y8p+dgFEwEWFGocyYCbgu88P6SbTtL2r4zOBpc8YMAAggggAACDRCwWt/an73o9R/b0t+A3dmygQIEWA3EZevBCcyc2ZPZOqH1zFTKzjDGfNRa82rJcq8OjpOrXiFg1phUcNXqb3xyV1Q4BFhRyXMuAu4JlP9X9829JfXtKelIno+DuDchKkIAAQQQiJOAtdpWkLmE9175OVVCAT/nlqSqzXnvvu28Usq8ySiYbWVnypjhSQKg1/oJWGllYO1167/1yZX127X6nQiwqjfjCgTiJlD+2MhzvSWVn7jim6LiNl36QQABBBBwUcBKu21J186+OfeAi/VRU7gAAVa4ESscEujp6Ul9e332HUbmA5IukjRW0lCHSqQUNwWsZNbaVHH22m/8ydaoSyTAinoCnI9AdALlDwbuPxho+YaiiiU+JhjdJDgZAQQQQCBhAsUgpQ/Mnpf7ZsL6jlW7BFixGmeimjETru0ZMrQtOyzdajut0h+S7CwjpROlQLMVCVjpG/nMQNezX+s5UtEFDV5EgNVgYLZHwGGBDVuK2tJX4oXsDs+I0hBAAAEEYiZgZK3RRzo/nLvDmOZ/gVPMNCNthwArUn4Or6fAeTf93fBg7/4Oa8y5kn2tMbo8kC420pB6nsNe/ghY2Q2y5o/WfuvW70XxbYMnkiLA8uceolIE6iVQKkkrny1o176gXluyDwIIIIAAAghUJrCoffSY3zv/+pX5ypazylUBAixXJ0NddRG49NqeoQdOyV6aUup11tjLjNVkKzNGCsZJvEurLsgubmL1rEnZfz54pO3/23LPx5z7dhECLBdvGmpCoHEC5W8UXPlMUXsOEF41TpmdEUAAAQQQeKWAkb47szv329jEQ4AAKx5zpItBCJw/Z+GUYkrXKDBXGwVvsNZM1rF/R6SObWcM3344CNjoLin/ZbhPRl1rvnnrPdGVEX4yAVa4ESsQiJPA8vUF7dpPeBWnmdILAggggID7AlZ6uLMrd6Ux4pew++OqqEICrIqYWJQEgSlv/WKrhh8cqaGZkbKlkSlrhqVUHBUE6TOMNEFG46zReBPYdmPMaCudKukUSS1J8HGvR3vEGLNKgX0gMPppKqWVq/uXbdA995Tcq/WlFRFguT4h6kOgfgKrNxW0Yxf/vbl+ouyEAAIIIIBAJQJ2XSlt3vDGD+d6K1nNGj8ECLD8mBNVuitgJr+vp/W0Q22tA5lSW5BJtxZKNhOklGpJ2eef5HK3eB8rKxVN0bbaA5ccXLb7Hg/CquMZE2D5eOdRMwLVC5Tfd7ViY4EXtldPxxUIIIAAAgjUIrCiaApXv6lrz75aNuFa9wQIsNybCRUhgEDMBQiwYj5g2kNA0kDe6qEVeb7qiLsBAQQQQACB5gps0MHMFZ0f37azucdyWjMECLCaocwZCCCAwIsECLC4HRCIv8C654ra2uf8J5rjPwg6RAABBBBIjoAxfUE69drZH9q+KTlNJ6tTAqxkzZtuEUDAAQECLAeGQAkINFDgYL/VY6vzfHSwgcZsjQACCCCAwMsENsim3tg5f8ezyMRXgAArvrOlMwQQcFSAAMvRwVAWAnUSWPlsUbndPH1VJ062QQABBBBA4OQCVisGWrIz/teHtuyGKt4CBFjxni/dIYCAgwIEWA4OhZIQqKPAL58aUKFYxw3ZCgEEEEAAAQSOL2Dt+hGp4mWX8cL2RNwhBFiJGDNNIoCASwIEWC5Ng1oQqK/Ajl0lrd5EelVfVXZDAAEEEEDglQLW6IFMS+q3rvnAjj58kiFAgJWMOdMlAgg4JECA5dAwKAWBOgpYKz2yKq/DR2wdd2UrBBBAAAEEEDiOwL/etyP3uz09CtBJjgABVnJmTacIIOCIAAGWI4OgDATqLJAvWD30dF4B/1W6zrJshwACCCCAwK8FrLXm87Pm934Mk+QJEGAlb+Z0jAACEQsQYEU8AI5HoEECfPtgg2DZFgEEEEAAgWMCBROkuoand9x1WZcKoCRPgAAreTOnYwQQiFiAACviAXA8Ag0S2LUv0PIN/PfpBvGyLQIIIIBAsgW2G6ubZ3TnvmeM+Kx+Qu8FAqyEDp62EUAgOgECrOjsORmBRgo811vShq28wL2RxuyNAAIIIJBIgQ2y5rc65/euSGT3NP1rAQIsbgYEEECgyQIEWE0G5zgEmiSwfktRW3KlJp3GMQgggAACCMRfwFp779ARpd+8Ys7u/fHvlg7DBAiwwoT45wgggECdBQiw6gzKdgg4IrB6U1E7dhFgOTIOykAAAQQQ8FugEEif/PmO3Of4pkG/B1nP6gmw6qnJXggggEAFAgRYFSCxBAEPBVY9W1Dvbr6C0MPRUTICCCCAgFsCG1KyH5jR3Xe/W2VRTdQCBFhRT4DzEUAgcQIEWIkbOQ0nRIAAKyGDpk0EEEAAgYYIGCkIpKWdo3NvMdeLR5obouz3pgRYfs+P6hFAwEMBAiwPh0bJCFQgQIBVARJLEEAAAQQQOL7AEWuCD67Tznu6usRX+nKXHFeAAIsbAwEEEGiyAAFWk8E5DoEmCRBgNQmaYxBAAAEEYiNgpcDI/L9MoFvecFPvxtg0RiMNESDAaggrmyKAAAInFiDA4u5AIJ4CBFjxnCtdIYAAAgg0RsBIu63VJzvn5xY35gR2jZsAAVbcJko/CCDgvAABlvMjokAEBiVAgDUoNi5CAAEEEEiggJG+mzLBR67p2rk9ge3T8iAFCLAGCcdlCCCAwGAFCLAGK8d1CLgtQIDl9nyoDgEEEEAgegEjPW5k/3RGd9+Poq+GCnwTIMDybWLUiwAC3gsQYHk/QhpA4LgCBFjcGAgggAACCJxQYLtkvtyfH/GZt92yfgAnBAYjQIA1GDWuQQABBGoQIMCqAY9LEXBYgADL4eFQGgIIIIBAdALWfrXvtL7u669XKboiODkOAgRYcZgiPSCAgFcCBFhejYtiEahYgACrYioWIoAAAgjEXsAWJX09rfTnrunesUqSjX3LNNhwAQKshhNzAAIIIPBSAQIs7ggE4ilAgBXPudIVAggggEDlAlbKp2S+p5L57MybdzxS+ZWsRCBcgAAr3IgVCCCAQF0FCLDqyslmCDgjQIDlzCgoBAEEEECgyQJWOpwy+kW6NPCuN9y0b0+Tj+e4hAgQYCVk0LSJAALuCBBguTMLKkGgngIEWPXUZC8EEEAAAU8ECtbazxil75zZvWOTMXxU0JO5eVkmAZaXY6NoBBDwWYAAy+fpUTsCJxYgwOLuQAABBBBIjIDVYzLmm2lTuvuarp3bE9M3jUYqQIAVKT+HI4BAEgUIsJI4dXpOggABVhKmTI8IIIBAcgWs1a6U0WNBkFrQedOO+w0vZk/uzRBR5wRYEcFzLAIIJFeAACu5s6fzeAsQYMV7vnSHAAIIJFhgq1LBx1vS+uFVH9h5kI8JJvhOiLh1AqyIB8DxCCCQPAECrOTNnI6TIUCAlYw50yUCCCAQdwEjBVZ60kp3pa1d2ruk76nr71Ep7n3Tn/sCBFjuz4gKEUAgZgIEWDEbKO0g8LwAARa3AgIIIICAvwJ2j2Seluy9sql/6Zzfu8LfXqg8rgIEWHGdLH0hgICzAgRYzo6GwhCoSYAAqyY+LkYAAQQQaK5A0Uh5SQ8Zpf56RveOHzX3eE5DoHoBAqzqzbgCAQQQqEmAAKsmPi5GwFkBAixnR0NhCCCAAAJHBY4+ZfUjY+z3A5NeWbIDW97UtWcfOAj4IkCA5cukqBMBBGIjQIAVm1HSCAIvESDA4oZAAAEEEHBEwFqrZ1LGrA5kV6elJwNrHp/Z27vS9ChwpEbKQKBqAQKsqsm4AAEEEKhNgACrNj+uRsBVAQIsVydDXQgggEAsBQpWOmykwzI6ZKy2WWt/LqNfqKRfdN7cdzCWXdNUogUIsBI9fppHAIEoBAiwolDnTAQaL0CA1XhjTkAAAQQSKDBgpWclsyElu9rKrExnzPKSzW9T0HakJZMfaCvuPHJZlwoJtKHlhAkQYCVs4LSLAALRCxBgRT8DKkCgEQI+B1hG+rKsWd8IF/ZEAAEEEDgmYE0QyKoUyJRMSiUT2HxgUgNGdkAmGDBB5pCMOZgq5Q9JrQfTbfm9V31w50EjWQwRQEAiwOIuQAABBJosQIDVZHCOQ6BJAj4HWIE1s2fP713SJCqOQQABBBBAAAEEqhYgwKqajAsQQACB2gQIsGrz42oEXBUgwHJ1MtSFAAIIIIAAAnEQIMCKwxTpAQEEvBIgwPJqXBSLQMUCBFgVU7EQAQQQQAABBBCoWoAAq2oyLkAAAQRqEyDAqs2PqxFwVYAAy9XJUBcCCCCAAAIIxEGAACsOU6QHBBDwSoAAy6txUSwCFQsQYFVMxUIEEEAAAQQQQKBqAQKsqsm4AAEEEKhNgACrNj+uRsBVAQIsVydDXQgggAACCCAQBwECrDhMkR4QQMArAQIsr8ZFsQhULECAVTEVCxFAAAEEEEAAgaoFCLCqJuMCBBBAoDYBAqza/LgaAVcFCLBcnQx1IYAAAggggEAcBAiw4jBFekAAAa8ECLC8GhfFIlCxAAFWxVQsRAABBBBAAAEEqhYgwKqajAsQQACB2gQIsGrz42oEXBUgwHJ1MtSFAAIIIIAAAnEQIMCKwxTpAQEEvBIgwPJqXBSLQMUCBFgVU7EQAQQQQAABBBCoWoAAq2oyLkAAAQRqEyDAqs2PqxFwVYAAy9XJUBcCCCCAAAIIxEGAACsOU6QHBBDwSoAAy6txUSwCFQsQYFVMxUIEEEAAAQQQQKBqAQKsqsm4AAEEEKhNgACrNj+uRsBVAQIsVydDXQgggAACCCAQBwECrDhMkR4QQMArAQIsr8ZFsQhULECAVTEVCxFAAAEEEEAAgaoFCLCqJuMCBBBAoDYBAqza/LgaAVcFCLBcnQx1IYAAAggggEAcBAiw4jBFekAAAa8ECLC8GhfFIlCxAAFWxVQsRAABBBBAAAEEqhYgwKqajAsQQACB2gQIsGrz42oEXBUgwHJ1MtSFAAIIIIAAAnEQIMCKwxTpAQEEvBIgwPJqXBSLQMUCBFgVU7EQAQQQQAABBBCoWoAAq2oyLkAAAQRqEyDAqs2PqxFwVYAAy9XJUBcCCCCAAAIIxEGAACsOU6QHBBDwSoAAy6txUSwCFQsQYFVMxUIEEEAAAQQQQKBqAQKsqsm4AAEEEKhNgACrNj+uRsBVAQIsVydDXQgggAACCCAQBwECrDhMkR4QQMArAQIsr8ZFsQhULECAVTEVCxFAAAEEEEAAgaoFCLCqJuMCBBBAoDYBAqza/LgaAVcFCLBcnQx1IYAAAggggEAcBAiw4jBFekAAAa8ECLC8GhfFIlCxAAFWxVQsRAABBBBAAAEEqhYgwKqajAsQQACB2gQIsGrz42oEXBUgwHJ1MtSFAAIIIIAAAnEQIMCKwxTpAQEEvBIgwPJqXBSLQMUCBFgVU7EQAQQQQAABBBCoWoAAq2oyLkAAAQRqEyDAqs2PqxFwVYAAy9XJUBcCCCCAAAIIxEGAACsOU6QHBBDwSoAAy6txUSwCFQv4HGAZ6VOBtKLiZlmIAAJ1EjAlW7J9pbbgWVMsHRp2aFj+P/dvGejpUVCnA9gGAQQQiI0AAVZsRkkjCCDgiwABli+Tok4EqhPwOcCqrlNWI4BAvQWMFFjpkJX2GKttkvmPjG398htu2ryn3mexHwIIIOCrAAGWr5OjbgQQ8FaAAMvb0VE4AicVIMDiBkEAgXoKWKmUMvphqWTv2rW077vX36NSPfdnLwQQQMA3AQIs3yZGvQgg4L0AAZb3I6QBBI4rQIDFjYEAAg0U2FCS5p5qco9e1qVCA89hawQQQMBZAQIsZ0dDYQggEFcBAqy4Tpa+ki5AgJX0O4D+EWi4QFHW/nhE6sx3Xtb1GCFWw7k5AAEEXBMgwHJtItSDAAKxFyDAiv2IaTChAgRYCR08bSPQZAEjbbTGvrezq+8XTT6a4xBAAIFIBQiwIuXncAQQSKIAAVYSp07PSRAgwErClOkRATcE/vubQ20x0HveeFPuLjcqogoEEECg8QIEWI035gQEEEDgJQIEWNwQCMRTgAArnnOlKwScFrD2o53z+77kdI0UhwACCNRJgACrTpBsgwACCFQqQIBVqRTrEPBLgADLr3lRLQJxEDDS4cCm3j9r/o6749APPSCAAAInEyDA4v5AAAEEmixAgNVkcI5DoEkCBFhNguYYBBB4uUDBptNXzvrw9segQQABBOIsQIAV5+nSGwIIOClAgOXkWCgKgZoFCLBqJmQDBBAYrIC1z/UXShe87Zbd+we7BdchgAACrgsQYLk+IepDAIHYCRBgxW6kNITAUQECLG4EBBCIVMCaL3XO7/1opDVwOAIIINBAAQKsBuKyNQIIIHA8AQIs7gsE4ilAgBXPudIVAh4JHJI1V3TO713hUc2UigACCFQsQIBVMRULEUAAgfoIEGDVx5FdEHBNgADLtYlQDwLJE7BWD5je3IzOHhWT1z0dI4BA3AUIsOI+YfpDAAHnBAiwnBsJBSFQFwECrLowsgkCCNQgYK0GhmaKU6748O4tNWzDpQgggICTAgRYTo6FohBAIM4CBFhxni69JVmAACvJ06d3BNwRsNKds7pz89ypiEoQQACB+ggQYNXHkV0QQACBigUIsCqmYiECXgkQYHk1LopFILYCVioZ0z++s+vAztg2SWMIIJBIAQKsRI6dphFAIEoBAqwo9TkbgcYJEGA1zpadEUCgOoGSNde+cX7vf1R3FasRQAABtwUIsNyeD9UhgEAMBQiwYjhUWkJAEgEWtwECCLgiYIz+YmZX7s9cqYc6EEAAgXoIEGDVQ5E9EEAAgSoECLCqwGIpAh4JEGB5NCxKRSD+Av/V2Z17c/zbpEMEEEiSAAFWkqZNrwgg4IQAAZYTY6AIBOouQIBVd1I2RACBQQoYo20zu3ITB3k5lyGAAAJOChBgOTkWikIAgTgLEGDFebr0lmQBAqwkT5/eEXBOwB40meHXdm077FxlFIQAAggMUoAAa5BwXIYAAggMVoAAa7ByXIeA2wIEWG7Ph+oQSJpAYDRldlduQ9L6pl8EEIivAAFWfGdLZwgg4KgAAZajg6EsBGoUIMCqEZDLEUCgvgIpe0nnvL4n6rspuyGAAALRCRBgRWfPyQggkFABAqyEDp62Yy+welNRO3aVYt8nDSKAgC8C6dd2dm9/1JdqqRMBBBAIEyDAChPinyOAAAJ1FiDAqjMo2yHgiMD6LUVtyRFgOTIOykAAARFgcRMggEC8BAiw4jVPukEAAQ8ECLA8GBIlIjAIgc29JW3cWhzElVyCAAIINEKAAKsRquyJAALRCRBgRWfPyQggkFABAqyEDp62Yy+wa1+g5RsKse+TBhFAwBcBAixfJkWdCCBQmQABVmVOrEIAAQTqJkCAVTdKNkLAKYGD/VaPrc7LWqfKohgEEEisAAFWYkdP4wjEVIAAK6aDpS0EEHBXgADL3dlQGQK1COQLVg89nVcQ1LIL1yKAAAL1EiDAqpck+yCAgBsCBFhuzIEqEEAgQQIEWAkaNq0mSqD85NWvVuZ1ZIBHsBI1eJpFwFkBAixnR0NhCCAwKAECrEGxcRECCCAweAECrMHbcSUCrgts21nS2s28yN31OVEfAskQIMBKxpzpEoHkCBBgJWfWdIoAAo4IEGA5MgjKQKABAoGVHlw+oAIZVgN02RIBBKoTIMCqzovVCCDgugABlusToj4EEIidAAFW7EZKQwi8RODpZwrq28OLsLgtEEAgagECrKgnwPkIIFBfAQKs+nqyGwIIIBAqQIAVSsQCBLwWOHDI6vG1fBuh10OkeARiIUCAFYsx0gQCCPxagACLmwEBBBBosgABVpPBOQ6BCATWbC5q+85SBCdzJAIIIPCCAAEW9wICCMRLgAArXvOkGwQQ8ECAAMuDIVEiAjUK9A9YPbySp7BqZORyBBCoSYAAqyY+LkYAAecECLCcGwkFIYBA3AUIsOI+YfpD4JhAbk9Jq54tylpEEEAAgSgECLCiUOdMBBBonAABVuNs2RkBBBA4rgABFjcGAskReHpDQX37eKF7ciZOpwi4JECA5dI0qAUBBGoXIMCq3ZAdEEAAgaoECLCq4mIxAl4LlAJpxcaC9uwnxPJ6kBSPgJcCBFhejo2iEUDghAIEWNwcCCCAQJMFCLCaDM5xCEQskC9YrdhQ0P7DfJYw4lFwPAIJEyDAStjAaReB2AsQYMV+xDSIAAKuCRBguTYR6kGg8QLlJ7EeX13QoSM8idV4bU5AAIFjAgRY3AkIIBAvAQKseM2TbhBAwAMBAiwPhkSJCDRAIAikDVuL2tpXasDubIkAAgi8XIAAi3sCAQTiJUCAFa950g0CCHggQIDlwZAoEYEGCuT2BNqwpaiBAh8pbCAzWyOAAE9gcQ8ggEDMBAiwYjZQ2kEAAfcFCLDcnxEVItAMgTWbi+rbU1KRB7Kawc0ZCCRQgCewEjh0WkYg1gIEWLEeL80hgICLAgRYLk6FmhCIRqBQtNq6M9Dm7UUFPJAVzRA4FYHYChBgxXa0NIZAQgUIsBI6eNpGAIHoBAiworPnZARcFSgWpb2HAu09EGjvwUCH+q0sgZar46IuBDwRIMDyZFCUiQACFQoQYFUIxTIEEECgXgIEWPWSZB8E4itQ/tbCQ/2B+ges8gWpxONZ8R02nTkt0Lv72L8P/fwhwPJzblSNAAInEiDA4t5AAAEEmixAgNVkcI5DAAEEEEBgkAJPrS9o9/5gkFdHfRkBVtQT4HwEEKivAAFWfT3ZDQEEEAgVIMAKJWIBAggggAACTggQYDkxBopAAAEEjgoQYHEjIIAAAk0WIMBqMjjHIYAAAgggMEgBAqxBwnEZAggg0AABAqwGoLIlAgggcDIBAizuDwQQQAABBPwQIMDyY05UiQACyRAgwErGnOkSAQQcEiDAcmgYlIIAAggggMBJBAiwuD0QQAABdwQIsNyZBZUggEBCBAiwEjJo2kQAAQQQ8F6AAMv7EdIAAgjESIAAK0bDpBUEEPBDgADLjzlRJQIIIIAAAgRY3AMIIICAOwIEWO7MgkoQQCAhAgRYCRk0bSKAAAIIeC9AgOX9CGkAAQRiJECAFaNh0goCCPghQIDlx5yoEgEEEEAAAQIs7gEEEEDAHQECLHdmQSUIIJAQAQKshAyaNhFAAAEEvBcgwPJ+hDSAAAIxEiDAitEwaQUBBPwQIMDyY05UiQACCCCAAAEW9wACCCDgjgABljuzoBIEEEiIAAFWQgZNmwgggAAC3gsQYHk/QhpAAIEYCRBgxWiYtIIAAn4IEGD5MSeqRAABBBBAgACLewABBBBwR4AAy51ZUAkCCCREgAArIYOmTQQQQAAB7wUIsLwfIQ0ggECMBAiwYjRMWkEAAT8ECLD8mBNVIoAAAgggQIDFPYAAAgi4I0CA5c4sqAQBBBIiQICVkEHTJgIIIICA9wIEWN6PkAYQQCBGAgRYMRomrSCAgB8CBFh+zIkqEUAAAQQQIMDiHkAAAQTcESDAcmcWVIIAAgkRIMBKyKBpEwEEEEDAewECLO9HSAMIIBAjAQKsGA2TVhBAwA8BAiw/5kSVCCCAAAIIEGBxDyCAAALuCBBguTMLKkEAgYQIEGAlZNC0iQACCCDgvQABlvcjpAEEEIiRAAFWjIZJKwgg4IcAAZYfc6JKBBBAAAEECLC4BxBAAAF3BAiw3JkFlSCAQEIECLASMmjaRAABBBDwXoAAy/sR0gACCMRIgAArRsOkFQQQ8EOAAMuPOVElAgggUJOASUnZiVLbq6TsJKl1gpQZJaVHSKZVMi1S+b+J26IUDEilA1Jpv5TvlfJbpP6N0sAzx/45P5EJEGBFRs/BCCCAwCsECLC4KRBAAIEmCxBgNRmc4xBAAIFmCKRHSq2TpGEXSqe+URpxlZQeXtvJwUFp/0PSviXSwcel/FapuK+2Pbm6KgECrKq4WIwAAgg0VIAAq6G8bI4AAgi8UoAAi7sCAQQQiJFA62TpzD+TRl4lmaxk0o1pzpYkW5D2/1La8ldS//rGnMOuLxEgwOKGQAABBNwRIMByZxZUggACCRH4z78dM6GlJbXVx3bbWo2uOD/rY+nUjAACCNRPoGWcNP7D0imzpCGv0rHPAjbzx0pHNkj77pO23yEVcs08PFFnPbmuoD0HAi97tkFw2aybdj7mZfEUjQACCBxHoNm/bRkCAgggkHiBn36+fVy6TTt8hGhtMbryQgIsH2dHzQggUAeBoRdIY98ljb1BMpk6bFikKncJAAAgAElEQVSHLcpPZu38Jyn3benwijpsyBYvFnhiXUF7PQ2wSoEufuNNuaeYKAIIIBAXAQKsuEySPhBAwBuBn3594mnp/sJObwp+UaEtGaOrLiLA8nF21IwAAjUItIyRzviUdNo7Injaqoq69/xYevZWqbi7/Hb4Ki5k6YkElq0paN8hP5/ASpXS5824efsqposAAgjERYAAKy6TpA8EEPBG4L8WjzolY1v2elPwiwpNGemaS1p9LJ2aEUAAgcEJnPFJaczvHvsGQR9+inulnf8sPbeQEKsO83pkVUGH+v0MsJSxUzs/1MfL0upwH7AFAgi4IUCA5cYcqAIBBBIk8OhitRyw7XlfW55xSasMvz18HR91I4BApQLll7KXX84+5NxKr3BrXf9aaXOPtP8XbtXlWTUPrshrIO/n02xBMT159ke2b/KMnHIRQACBEwrwJwg3BwIIIBCBwNI72gsycuQFKtUBvOHiVqUb9CVb1VXCagQQQKABAqkh0vh50sQ/bMDmEWy57QvHXvQeHI7gcP+PvH/ZgAI/8ysdNJmx13Zt8/KVBf7fOXSAAAKNECDAaoQqeyKAAAIhAksWte830ggfoV5/YVbZFn59+Dg7akYAgRCBVJt07neloee7/a6rqgZppcOrpFW/KQUDVV2Z9MXl4KocYHn705Fr6exU0dv6KRwBBBB4mQB/gXBLIIAAAhEI3Luo/TkrTYrg6JqPvPy8rIa28eujZkg2QAABtwSGXya96otS1sv/aA63zO+QNn5UOvCr8LWsOCpQKFr98ilvP/Hf39mdG8ooEUAAgTgJ8BdInKZJLwgg4I3A0sXtK2RV/p/4vft5TUdWI4fx68O7wVEwAgicWODU2dI5fyulh8dbKTgibfx9ac+P4t1nnbo7krd6aIWnAZZRX2dXrr1OFGyDAAIIOCHAXyBOjIEiEEAgaQL3Lm7/pbV6vY99XzSlRaNHpnwsnZoRQACBVwqUX9Y+7S7JJOXlflba8FFp979zN4QIHOy3enSVpwGW9Exnd+4chowAAgjESYAAK07TpBcEEPBGYOmisf8umWu9KfhFhU6f3KLxowmwfJwdNSOAwMsERv+mdM7fSMbL79QY/DhtSdr8J1LuW4PfIwFX7jkQ6Ml1BT87teaRzvm9l/tZPFUjgAACxxcgwOLOQAABBCIQWLpo7Fcl88EIjq75yLMnZHTW+KQ8qVAzFxsggICrAqPfLp3zRcm0uFphg+uy0jMfl3be0+Bz/N2+b2+gpzf6GWAZmR/N7O59u7/6VI4AAgi8UoAAi7sCAQQQiEDg3kXjFljZWyM4uuYjx41O6dzJSf2Dr2Y+NkAAARcEhk6Xzv2+lBriQjXR1WCL0pp382L3E0zgud6SNmz19Ev8jL7e2ZV7X3Q3FycjgAAC9RcgwKq/KTsigAACoQJLFo+9xVjzhdCFDi4YMdTo0ulZByujJAQQQKACgZYx0vn/KZX/Lz9SaZ+04s1SfjsaLxNYu7mobTtLfrpY/XXn/NzH/SyeqhFAAIHjCxBgcWcggAACEQj8bNG4d6dkvx3B0TUfmU5JV1/cKsNvkJot2QABBJoskD5Fmv5taeiFTT7Y8eMGNkur3ikVco4X2tzyHl9T0P5DQXMPrdNp1uoTs+bnPl2n7dgGAQQQcEKAPz+cGANFIIBA0gSW3NH+FmP0Y1/7vuzcrIYP4VeIr/OjbgQSK3Dmp6RxXr5+sPEj2/WdY+/EKr/gnR9ZK/3yqQEVfeUw9n2dXX1fZ5QIIIBAnAT46yNO06QXBBDwRmDJl8dcalKpR70p+GWFTj0zo4ljeJG7r/OjbgQSKXDqG6Wpfy+J//p7/PlbafOnpN6vJfL2eHnTh49YPbwy762FNcFvzOra+UNvG6BwBBBA4DgC/AbntkAAAQQiELjv70afEaQzmyM4ui5H8iL3ujCyCQIINEvApKUL75daz2jWiX6eU9wlPXW1VDrkZ/11rHrHrkCrN/n5DYRlBlMqXT7z5l2P1JGErRBAAIHIBQiwIh8BBSCAQBIF1v1oSutzm/cfNlLKx/55kbuPU6NmBBIqYFLSWbdJY9+VUIAq2z7wkLRmjmT9ffqoyo6Pu3zN5qK2+/oCd0mpbPHMGR/Y/Vw9LNgDAQQQcEWAAMuVSVAHAggkTmDpovbVkjp8bLwlY3TVRXwToY+zo2YEEicw7GLpvB8kru3BN2yPBVj7fz74LWJw5bK1Be076OcL3I0UjB2dG3L+9Up2ChmD+5AWEEDgpQIEWNwRCCCAQEQCSxeN+6pkvX2b8GXTWzR8qJcPkEU0cY5FAIFIBDr+SRp5VSRHe3to+VsJV8yWggFvW6i18AeW55Uv2Fq3ier65Z3duYuiOpxzEUAAgUYJEGA1SpZ9EUAAgRCBpV8Z+z4F5h99hRp/WlrTz8r4Wj51I4BAEgRGvUWacmcSOq1/j5v/XOotv/Q+eT/9eatfrfD34SUj85WZ3b1dyZscHSOAQNwFCLDiPmH6QwABZwXuWzRpaqD8Gl+/EiuVkq6+qFXl/8sPAggg4KTA9LulEVc4WZrzRR1ZL614k2RLzpda7wI3bCnpuVyx3ts2bb/A6j2z5+e+2bQDOQgBBBBokgABVpOgOQYBBBB4ucBPvzTxtEymsNFKI33Vee15WQ1r41eJr/OjbgRiLTCkQ7rgJ+XXWce6zYY29+wfS33fbugRrm1urfTA8gEV/M2vrDJ2WueH+ta7Zks9CCCAQK0C/NVRqyDXI4AAAoMU+Mk3xg3LHg5WScbb73XvODOj08ekBynAZQgggECDBExamv4dafhrGnRAQrY9+i6sN0lBf0IalvoHrB5emVc5yPL050DWmilXze/NeVo/ZSOAAAInFCDA4uZAAAEEIhK4+26lx+5uf0zSxRGVUPOxI4el9JqOlpr3YQMEEECgrgLZidKFS6TUkLpum7jNbFFa+RvS4ZWJaX3n3kArNha87ddabTOB7ei8ue+gt01QOAIIIHACAQIsbg0EEEAgQoEli8Z91Xj8TYRlusvPy2ooHyOM8C7iaAQQeIXAuPdLZ/45MPUQ2P0f0oab6rGTF3us2FDQzn2BF7Uet0hjV83c3neB6ZHHTfjLT+UIINBYAQKsxvqyOwIIIHBSgXsXj73OWnO3z0yTT09r8ul8G6HPM6R2BGIlUP744MUPSS3jYtVWZM2UX+L+5BVSoTeyEpp18EBBemjFgM8fH5SVvjKrO8c3EDbrpuEcBBBoqgABVlO5OQwBBBB4qcCPvzpydGuhrVdG3iZAI4amdOl0PkbIvY0AAo4IDL9MOve7jhQTkzI23iLt+l5MmjlxG9t2lrR2s79vby93ZmV+a1Z37/djPywaRACBRAoQYCVy7DSNAAIuCSxZ1P60kc5zqaZqa+FjhNWKsR4BBBomMOEWaeLHG7Z9IjfeeY/0zB/GvvXlGwra5fPHB62KB1OZU67t2nY49sOiQQQQSKQAAVYix07TCCDgksDSRe13SbrRpZqqrWXUiJQunspTWNW6sR4BBBog0PFtaeTVDdg4wVvmd0hPXh5rgGJRemD5gAJ/v32wPJ8Vnd25C2M9KJpDAIFECxBgJXr8NI8AAi4ILLlj3B8YYz/nQi2DrSGTli4/P6tshl8rgzXkOgQQqIOAyUiXPCWlh9dhM7Z4icDT/yvW30a47rmitvaVvB66tfr2rPk5r/8HMa8HQPEIINBwAf7SaDgxByCAAAInF1j65XFXKGUf9N1pyqSMJrWnfW+D+hFAwGeBEVdK0//F5w7crX3LZ6Ttf+tufTVUVgqkXz2dV77g9+NX1pqPzZrf+zc1UHApAggg4LQAAZbT46E4BBBIgoDtmZm5d/zKg5Jafe7XGOmqi1pVfhqLHwQQQCASgTP+rzSeL2BriP3+X0pr3t2QraPedN+hQMvWFKIuo+bzrTFXzOrq/VXNG7EBAggg4KgAAZajg6EsBBBIlsC9d7R/yxrd4HvX087IaMJYEizf50j9CPgpYKTp90gj4v2upshm079aevqtkvX7Y3Yv97NWemRVXoeP+P30lTHaO3ZUbtz51ysf2T3CwQgggECDBQiwGgzM9ggggEAlAksWj3m7UeoH5e+/rmS9q2uGthm99tysyk9j8YMAAgg0VcC0SBf8l9R2TlOPTcxhhZz05JWS9f9JpRfPbPf+QE+t978nK31jVnfuvYm5H2kUAQQSKcCfGIkcO00jgIBrAvfdOe7soGRXSmpzrbZq65l6RkYTeQqrWjbWI4BArQKpIdJF90st42rdieuPJxD0S8sukoKBWPms2FDQzn2B/z1Zc23n/N7/8L8ROkAAAQROLECAxd2BAAIIOCDw9N3K9u1uf85K7Q6UU1MJQ1qNLj+Pp7BqQuRiBBCoXiA9Qrr4V3wDYfVylV/x5Ouk/PbK1zu+ct9BqyfW5VX+GKHfP7YQGHPu7K7cBr/7oHoEEEDg5AIEWNwhCCCAgCMCSxaNXWBkbnWknJrK4Cmsmvi4GAEEBiOQOVV69eOSyQzmaq6pRGD1u6QDD1Sy0os1T64raM+BODx9pb7+wsgz3nbL+ng9HufFXUSRCCDQTAECrGZqcxYCCCBwEoGliyeMUVDcLqNY/PV15QVZtWb5NcNNjwACTRJoPVO66BdNOiyhxzzzcWnn3bFo/vCA1SMr4/D0lWSNPj2rK/eJWAyGJhBAAIGTCPCXBbcHAggg4JDA0kXtyyS92qGSBl3KpHFpTZkYiyxu0AZciAACTRQYfql07r818cAEHrXldmn733nfeGClB1fkVSh4/9lBWal0ZHhx9Nvm7N7v/WBoAAEEEAgRIMDiFkEAAQQcErj3jnFfsMbe4lBJgy6l/E2Er57aolOGpwa9BxcigAACFQucMkOa9s2Kl7NwEALbvyht+ewgLnTrktyeQCuf8f+bB59XXd7ZnbvILWGqQQABBBojQIDVGFd2RQABBAYlsPTL465Qyj44qIsdvKgcXl0yrcXByigJAQRiJzDqLdKUO2PXllMN7VgkPbfAqZKqLaZYsnpkVUEDef+fvnq+90Wd3bn51TqwHgEEEPBRgADLx6lRMwIIxFpg6aL2FZLOj0uT087IaMLYdFzaoQ8EEHBV4JSZ0rRvuFpdPOra9nlp6+e87mX9c0Vt6St53cOLiw9Sumr2vFx83qwfm8nQCAIINEKAAKsRquyJAAII1CCw5I5xtxhjv1DDFk5dmk5Jrz0vqzZe6O7UXCgGgdgJjHidNP2e2LXlVEPlp6/KT2F5+tM/YPXo6rxKMcmvjLRyxo7chaZHMfgqRU9vKspGAIGmChBgNZWbwxBAAIFwgaV3jLtAxi4PX+nPitEjU7rgnBaleB2WP0OjUgR8E2ibLF14v29V+1XvxlukXd/zq+bnqy0F0uNr8jrUH5uPDspafWLW/NynvRwIRSOAAAKDECDAGgQalyCAAAKNFLBW5t6vjFspa6c38pxm7/2qiRmdMY6PEjbbnfMQSIxA5lTp1cskw3/ONGzmq98pHXi0Yds3cuNtO0tau7nYyCOav3fKXtI5r++J5h/MiQgggEA0AgRY0bhzKgIIIHBSgZ/9XfvrU2n9Mk5M5Y8SXjo9q6Ft/OqJ01zpBQFnBNIjpIsfltLDnCkpdoUsu0gq7vWurQOHrB5fmy8/sRSfH6P1M7fnOvj4YHxGSicIIBAuwF8R4UasQAABBJou8PTdyub2tK+V1VlNP7yBB5bDq8umZ/koYQON2RqBxAqkhkgX/VxqaU8sQUMbLx2SnrhYCvINPabem5dDq2VrC9p/KEaviTKyxqTePnPejv9Xby/2QwABBFwWIMByeTrUhgACiRZYsqh9sZHmxQ3h9NPSmnpmRil+A8VttPSDQLQCpkW64L+ktnOirSOup+e3S09dJVm/PoZX/thg+eODMfvZPsJkplzWte1wzPqiHQQQQOCkAvz5wA2CAAIIOCpw/z+MH1vKl7bH8YUuHWdlVA6y+EEAAQTqJ2Ckc78rDb+0fluy0/8IHH5aevrtkkdfeHfgsNXjq/OK0ycHjw3E/ktnd9+7uD0RQACBpAkQYCVt4vSLAAJeCSxZNPafjczvelV0BcWW34d1wataNGoEX0tYARdLEECgUoEz/q80vqvS1ayrRmDvf0rrPlTNFZGuPXTkWHhV/vbBWP1YFUvWdLzxpt6NseqLZhBAAIEKBAiwKkBiCQIIIBCVwH2L298cWP0kqvMbeW5b1ug1HVllWxp5CnsjgECiBEZcIU2/O1EtN63ZTX8q5b7etONqOahYsnpqfTFe7736NYj9QWd33ztq8eFaBBBAwFcBAixfJ0fdCCCQCAFrZe5b3L7aStPi2HBri9Frz8sqw6cJ4zheekKg+QLGSK9ZJaWGNv/sWJ9opaeukQY2edHlio0F7dwbt0evjtFbq9+ZNT/3HS8GQZEIIIBAnQUIsOoMynYIIIBAvQWW3jFmpjWpnxkplp+3Gz0ypQuntIhfSPW+c9gPgYQKTPumdMqMhDbfoLb710krZjdo8/puu35LUVv7SuWgJ3Y/Rto8dnRu6vnXy6+vgozdJGgIAQSiEuDvhajkORcBBBCoUOAn3xg3LNuvp2XtWRVe4t2yCWPSmnZmxru6KRgBBBwUOP1madInHCzM45J6/1Ha/CnnG9ixq6Q1m4txDa8CK/u7nd19/+r8ICgQAQQQaJAAAVaDYNkWAQQQqKfAfYva3xNIX5Pi+6DSWeMzmnx6WuVPAPGDAAIIDFpg2MXSeT8Y9OVceByBdR+Q9v7UaZrd+wMt31CIZXhVhjdSLh0MTH/DTfv2OD0IikMAAQQaKMCfCQ3EZWsEEECgXgLld2EtXdy+zEgX12tPF/cpP4VVfhqLHwQQQGDwAka66BdS6xmD34IrXyQQSI9fIJUOOqty+IjVY6sLKgUx/Nzg8+pGwR/O7N75OWeHQGEIIIBAEwQIsJqAzBEIIIBAPQSWLG6fZ6wW12Mvl/eYekZGE8cSYrk8I2pDwHmBMb8jnc3f+nWZ0447pef+oi5bNWKT/gGrZWsKyhfjG17JaL22587t7FGxEYbsiQACCPgiQIDly6SoEwEEEi/woy9OaR2SPfCEZKfHGaP8EcJyiMWTWHGeMr0h0GCBlvHSRffybYS1MgcDx17ePrC51p0acv2hfqsn1hZUKMU4vDoqZ/+0s7vvLxuCyKYIIICARwIEWB4Ni1IRQACB+xa3vzmw+kkSJM4/u0VjR8XyixeTMD56RCB6gY5vSSPfEH0dPldwZIO04k2Sde/Bn3zB6tFVMX/y6ti9s7M/P3LS225ZP+DzrUTtCCCAQD0ECLDqocgeCCCAQJMElv7j5DYz0L/Kyk5u0pGRHjNlUkaT2vk4YaRD4HAEfBXIlp/C+oVksr52EH3da26U9v88+jpeVkGheOydV0fycX/ySkpJ753RnfuGc0OgIAQQQCACAQKsCNA5EgEEEKhFYMlXxp9vguARSUNq2ceXa8vfTDj59Iwv5VInAgi4JDDlTmnUW1yqyJ9aDj4urfot5+o9cNjqyXUFFWP/scHyJwfVp7b8tM73793r3CAoCAEEEIhAgAArAnSORAABBGoVWHJH+/eN0Ttq3ceX68svdX/VpIxS/NbyZWTUiYAbAsMvk6bfIxme5Kx6IBs/Ku36ftWXNfKC/YeOhVdx/rbBF/kVA9nZs7v77m+kKXsjgAACPgnwp4BP06JWBBBA4HmBn339tImp/vQGSa1JQRk9MqULXtVCiJWUgdMnAv9/e3cCZlld3nn89557b+1dvdTWC900simLqCMKitDdLI6ij8ZH2ozLaETpZgmJzmScyehQyZO4RCKG2HQXaow+iRNbk2gYmUGBAlQEH0CjQmSn6a2qunrv6truOe/4v9UYEOiurrvUvfd8z5N+qgvu+f/f9/M/5h5fz/89JREwafknpa73lGS01Ayy78fSI+/+de/wuGpS3rUv0YNPhOJV1YRU7kDuXbFm6Gwz1f8+yXJLMj4CCNSNAAWsullKEkEAgbQJ9G/o+bjk1ftu8zIsyLw5kU5ZnlNDrgyDMyQCCNSnQOOx0svDQyzc9k5vgRPpobdJI/86vY9X4FNbd8R6fEteSUpKOWaaiJPoDedfPvCTCvAyBQIIIFAzAnyT18xSESgCCCDwXIG7v9S+YDzf9KCkhWmyaWownX58Tq3NfIWlad3JFYGiBHo+IC3rVaElNsfhBYa/KT35XwsNmGb7CAWrTdtjbRqovrcgltPGpRtWrR26spxzMDYCCCBQiwLc/dfiqhEzAgggcEjgzvVdr0zMQkP31DV4ecWJOYUnsjgQQACBIwuYdMr/kVpPP/JH0/yJ8aekn59bFQLu0s8fm9Tu/enZMxjgTUpij5edf/nOrVWxEASBAAIIVJEABawqWgxCQQABBI5WYONGZTp39XzH5Bcf7bm1/vkokpb18IbCWl9H4kegYgJNx0mn3CRl2is2ZW1NFEsPv0fad/eshz067vrlE5MaGZ39p8AqiRGKVy5798q1g9+o5LzMhQACCNSKAAWsWlkp4kQAAQReRKC/b3GnPP8zSUvSiNQ9P9KJS7PKZflKS+P6kzMCRyXQ9S5p+WeP6pTUfHjr56Rtn5/1dHfuTfTw03lNTKareBXgTXpg6GDDOas/umV01heCABBAAIEqFOBuvwoXhZAQQACBoxXoX9+9RqYNR3tevXy+MWc648ScWpr4WquXNSUPBMomsPwzUtfv0tT92cAHHpB+9U7JZ6/XVNgyuHko1pNb81XQfatsV9+LDuzSwZxlX/aGNduervzszIgAAgjUhgB3+rWxTkSJAAIIHFagv19Ze7h7o0u/k1aqTEY6blFWx3Snrh1YWpecvBGYmUDUJL30H+mH9Yze+GbpwTdJ8b6ZeZbgrMm8ClsG9x5IV7+r59LZn61cO/iJEnAyBAIIIFC3AhSw6nZpSQwBBNImcNuXFh0b5ePwVsLWtOX+TL5mUthSePySrBpyfMWl9TogbwSOKJCdJ538danltCN+tK4/EIpXj7xXGnty1tIc3pPo8a15hb5XqT1M9+eyycpzLh3en1oDEkcAAQSmIcDd/TSQ+AgCCCBQKwL967reaVn7e3c11ErM5YizqcH0suNymtvK11w5fBkTgboQaFwqnfwPUviZxiO/W3r0A9KBn85K9vlY2jKU16aBWGH7YFoPkyYT6cxVa4f+Na0G5I0AAghMV4A7++lK8TkEEECgRgRu39DzDZOvrpFwyxZmeBqrZ0FGJy/LKvydAwEEEHieQMMi6fQ7pbCtME2HT0gPvlkafWRWsg5PW/38scl0P3V1SN4T/5+rrtjxyVlZCCZFAAEEakyAW/oaWzDCRQABBI4kcOsXlnRE2fxdJj/lSJ9Nw79vazadsDSreW1RGtIlRwQQOFqBhoXSSV+Tml96tGfW5ucntkmPfEAa/VXF409cemp7rG078gpPYKX9cOmulWuGVpilsm992pef/BFAYAYCFLBmgMYpCCCAQLUL3Lau+3VRRndJoqO5pCiSjl2Y0ZKurLKIVPvlS3wIVF4g1yG9ZJ3U/rrKz13JGQ8+JD1+lTT2WCVnLcy1/6DrsS2hUXuK9ws+S92loYz8nPPW7ni04ovBhAgggECNClDAqtGFI2wEEEDgSAJ3beheG0s38K74f5fKZU2nH59TO72xjnT58O8RSJ+AZaWXfF5a8JZQ9q6z/F0aeVB6eLUUH6hobkkiPTWQ19MDPHL1DHx44srdV69cu+NbFV0MJkMAAQRqXIACVo0vIOEjgAACLybgvYruXNj1bZe9FaV/FwhPY3W0R3rZ8lzhySwOBBBA4Fn/H0LqeJu0/NNS1FwnMIm05S+kgS9KPlnRnHbtS/To5pS/YfAFxN11nQ0O/beVvcpXdEGYDAEEEKhxAQpYNb6AhI8AAggcTuD7ffPn5jzX79IrkXquQGPOtHxxptDoPeLbkMsDAQSeLdByurTsGmnOmbX9EGvoc/X0n0r7fljR9Q1N2kOvq6Hd6X7D4Auim99/zPjc15949WPjFV0UJkMAAQTqQIBb9jpYRFJAAAEEDifQv2HRq6W4X1IbUs8XmNMSnsbKqrnJxJciVwgCCPxGIGwpXPyHUvf7pezc2oKJR6TdN0ub/lhKKlcnCY3Zt++M9fgWHix6kQtmMGPNrzx3zabttXVBES0CCCBQHQLcq1fHOhAFAgggUFaB29Z3rIosc4ukbFknqtHBzaTueRmddGxWGbYV1ugqEjYCZRIIDd6X/Zm04OIyTVDiYQ88ID1xtTS+Wargy+2G90xtFxyfpEn7i62oW/KWVWuGv1viFWc4BBBAIDUCFLBSs9QkigACaRbYuFGZrp3dH/9149hrXDxo9GLXQthWuKgzo2UL2VaY5v+8kDsCzxOwjNT2KqnnMmn+hdXZ5H3/PdL29VPbBSvY62rP/kRPDcQKPzleWMClxBL7LyuvGPw8RggggAACMxeggDVzO85EAAEEak7gjr7ur7nrfTUXeIUDDoWs44/JqnNuRKP3CtszHQJVL9D6cmnx1VLba6TsvNkNNzkoHfipNNAn7b2jorEcGHU9PZDX0G4KV4eDD28clOxbbRp8z6vXqLJd9Ct6RTAZAgggUH4BCljlN2YGBBBAoGoEwpsJ71jUdY/cQmdijiMINDaYzjghp5Ymvi65WBBA4LcFTOq5VFryESnTWsGnssLzPBPS4FekbddO/b2CR5JIj2zOa2BnXMFZa3qqH61cO3ROTWdA8AgggECVCHBHXiULQRgIIIBApQRuW9+xJLLszyTvrNSctTxP+KKc0xrpuMUZzZ9Dg6xaXktiR6AsAlGD1PgSqe2VUsc7pDmvKc+bC0d+Ie26Sdr/I2n0cSk8fVXBYyLvemJLrJ37Ek3m6XM1TfqHM5asPHfNME3bpwnGxxBAAIHDCVDA4vpAAAEEUihwV1/nosTtXpctTWH6M0o5NEnLLxUAAB9WSURBVHrvmJvRMV2R5rZFCr9zIIAAAs8TyLRJbf9Ban2F1PQSqfEYKdctZTsPPal1GLNkTMoPSxND0sRWaexJ6eAvpdCYfXJoVrAPjnnhzYLbdsSK2S047TVw1744snMuXDP4i2mfxAcRQAABBA4rwO03FwgCCCCQUoHb1i98TWTJreEBo5QSzDjteXMinbQ0q+ZGo5A1Y0VORCCFAlGj1LBIyrRLUdPUk1rJuBTvkyYHpLiyT1UdbgXC2wQ3D8bauiOW88DV0V6s+3O55MxzLh1++GhP5PMIIIAAAi8uQAGLqwMBBBBIscBtfd0XRa5bUkww49TDE1gtjaaTj82qvZWthTOG5EQEEKgqgVC4enhTXntHEsW0uTr6tTHFFvtbV1yx4/8e/cmcgQACCCBwOAEKWFwfCCCAQMoF+vu63y7X1yU1p5xiRumHL9KwpXBRZ6Su+RlFfLPOyJGTEEBgdgVCb6uwTXDnXvYJFrMSkexD560d/HIxY3AuAggggMALC3CbzZWBAAIIIKD+Dd1rTfpLl1rgmLlA2FK4fFFW89tNDVm+YmcuyZkIIFAJgdCMfe8B11Pb8zowyj7Bosxd+cT8o+ev3fHXRY3DyQgggAACLyrA3TUXBwIIIIBAQeC2Dd1rI2k9HMULRJG0pDOj5YuzyrC7sHhQRkAAgZIKhJ5WT26PtWUor4QHrkpj6/qTlZcP9ZZmMEZBAAEEEHghAQpYXBcIIIAAAgUBd9mdX+z5UJL4BpMou5TgushmTfPbTMd0ZzW3ja/cEpAyBAIIFCGwK2wTHI61Z3+iPP2tipD8rVMpXpXOkpEQQACBwwhwN83lgQACCCDwG4FQxLqjr+tqk32S7YSlvTDa20yLOzJa0B6pIcfXb2l1GQ0BBF5MYGzCtWtvoq3DsUbYJljaC8XkcvvzlWsH/1f434FKOzijIYAAAgj8tgB30FwTCCCAAALPE7g9FLHcrpWUg6e0AuHthUu6Mlrakyn0yQq/cyCAAAKlFAjbAsPbBJ/YlteO3ewRLKXts8aKk0TXnX/F0B+VaXyGRQABBBD4LQFum7kkEEAAAQReSMD6b+x8l5Lof8NTHoHQJ6ul0bSoM6NFHRmF3zkQQACBYgQmY9em7VNvEgxPXoVeVxzlEUjc/8f5l+/4dHlGZ1QEEEAAgRf8LyiwIIAAAggg8GICt2/ofkckfcWldpTKJxC2FHbMjdQ1L9K8OZEi/uel8mEzMgJ1JjA+Ke3cG2t4T6LQ44qj/AJu9ger1gxeX/6ZmAEBBBBA4NkC3CJzPSCAAAIIHFbgzi/2rIpj32hSB1TlFwjbCsP2ws55kZoa2GJYfnFmQKD2BCbzrpEx19ahWMN7E560qtwSjsaJLrvgiqG/q9yUzIQAAggg8IwABSyuBQQQQACBIwp8v6/n9Kz7vZKaj/hhPlASgfAUVjYrLe3JFnpm8VRWSVgZBIGaFtg/muiJrbH2jSSKeYtghdfSxj2K37jqsuG7aNheYXqmQwABBA4JUMDiUkAAAQQQmJbAnRu6Tkxk35V04rRO4EMlE8hmpDktkRbMjdQ9P1IjbzEsmS0DIVDNAnGiwrbA0Ih938FEY+M0tZqV9XLtcI8uWXXFwJ2zMj+TIoAAAggUBChgcSEggAACCExb4L6+xS0HPH+TS6umfRIfLKlAeGvh/DmRehZEhaJWc5PxZV5SYQZDYHYFxidcB0a90NNqx55E+Zii1WyuiEmPTMjfctHaHY/OZhzMjQACCCBAAYtrAAEEEEDgKAXcZf19PX9v8v90lKfy8TIINOSk5Yty6pkfFd5kGApcHAggUDsCoTyVhCet9ibaNBjrwEEasVfN6pnfv+KyHWeaiSpi1SwKgSCAQJoFuM1N8+qTOwIIIDBDgf7e5U1aOLJGbtfKlJ3hMJxWQoFMpELT9/bWSAs7I81tjUo4OkMhgECpBcJTVgM7Y+3Zn2hswpWnp1WpiYsbz9SX1+THLlyze29xA3E2AggggECpBChglUqScRBAAIEUCtxxY/f73PWXcnWlMP2qTjn0yZrfbprXFqm9LVJLI1/5Vb1gBFf3AqPjrv0HvVCw2r0/Ufido/oETBpNpE8PL+j89OrVD01UX4REhAACCKRXgLvZ9K49mSOAAAIlEbizr+f0xP0WSYtKMiCDlEUgPJ21uDNS57yMGnKm0BieAwEEyicQnqiazE/1sto+HOsgBavyYZdqZNMeT3zNqst3bCzVkIyDAAIIIFA6AQpYpbNkJAQQQCC1Ard+dUlHNDr5HZNen1qEGkk89MjKZkzNDVJPR0bd8zPKsQm0RlaPMKtdYDKWhnbGGtgVa2xChQbszoNW1b5sz8S3PY6SFRdcNvxIrQRMnAgggEDaBChgpW3FyRcBBBAok0Bfn3Ine/fHJX3cJRowlcm51MNGJrU2R2prNs2bE2lem6mxgduDUjszXn0KhN5VYTvg3v2u/aOJDo5RsKrBlXbJNsbN2SsveP/WnTUYPyEjgAACqRHgDjU1S02iCCCAQGUE+m/ofrtldKPTF6sy4CWeJdwYtLWErYamuW1RoTF8KGhxw1BiaIarOYHEpfEJL/SuCkWrnXsStgXW3Co+L+ADJv/kirU7PlX7qZABAgggUP8C3I/W/xqTIQIIIFBxgQd71TC0sPt+SadVfHImLKlA2HIYRdKijoyWdGXUTDP4kvoyWPULhGLV9uFEO/bEkhf+j6MOBNyVZJrsFef93uAv6iAdUkAAAQRSIUABKxXLTJIIIIBA5QVuvn5Be3ND7o8kD9sKOepEIDSAb2qQWppMC9ojzZ9DD606WdrUpxEKU6Njrl37Eu09MPV01di4K05ST1OPAN+acLvyjZcPDtVjcuSEAAII1KsABax6XVnyQgABBKpEoP/Gnrd44utMWlYlIRFGiQXamiPNbZvactjSaGpuMmXoglZiZYYrtUDoXxW2A4a+VXsOeKFoNTHJ81Wldq6y8fa7J9esunz48+JhuipbGsJBAAEEjixAAevIRnwCAQQQQKBIgUevP6Fxc8O+70bSShq8F4lZA6cX+mi1mnrmZ7RgbqSGrBW2IYaG8RwIVFogvAUwSaTYXftHXMN7Eg3viRXeGMiRGoFwGTyRzyXnXnTp8LbUZE2iCCCAQJ0JcCtZZwtKOggggEC1CvT3Lm/yRaPviORfcVdDtcZJXKUXyGakXNYK2w7nzwnbDiO1NNMYvvTSjPiMwGRe2hMare9LdOBgovD7ZOyFQhZH+gRc9qmGXPypcy4d3p++7MkYAQQQqB8BClj1s5ZkggACCNSEwO03LjxVcXK9mVbVRMAEWRaBXDb00YoKRa22JlNrsxWKWuFpLQ4EpiuQj1XYAjgylmhkdGo74MiYF94WyIGA3B+OIrv6vDVD30MDAQQQQKD2BbhLrP01JAMEEECgJgX6b+j6mEX2xy6112QCBF0WgdAkfl7bVE+tOa2mXMYUil2ZyBTeiMiRToFQqMrHXniSKhSqQr+qvSNJoWDFgcALCIwmrm+sWjv0QTNeHMkVggACCNSLALeC9bKS5IEAAgjUnoDddO2cjra25n5Jp9Ve+ERcCYHQN8uiqQJWe+vUFsR5cyK1NnELUwn/2ZgjNCsKT1GFLYDhTyhUJS6Ff+4JnbdnY01qaU53HZAnK+4aGv5pb6/YNFpLi0esCCCAwBEEuPvjEkEAAQQQmFWB/q8sb9L4wQ/I9VmZ2mY1GCavGYFQ2GpoMDXmwh+pqSG8/TAUtsLWRFM2wy1ONS/mZD5s9wvb/xKNjkuj44km8iq8BXB8kl5V1bx2VRzbuCX6zGRm8nMXrtm9t4rjJDQEEEAAgRkKcHc3QzhOQwABBBAorcBt6zuWRJbtM9OF7k6T99Lypm600Esr9NQKT2o1N1qhwJXNqrAl8Zmf4c2IHKUXiBMpn/dCQeqZn2MTrtHx8Cds+5NCAYsDgVIImAoP6N3refvIqqsG7y3FmIyBAAIIIFCdAhSwqnNdiAoBBBBIrUD/hq7/aLJv0BsrtZdAxRIPRa3QPD4UuVqap7YlhmJXeLpLYeviM5E8++8Vi666Jgrb98JR+BG28kmKY9fomOvAqOtAaJ4+OlWcCr2qOBCokMCIZH+wYu3g3xi7SytEzjQIIIDA7AlQwJo9e2ZGAAEEEHgRgXu/uqRjZGTyakX672GnGFAIVEogNIoPT2aFnluhkJWJDv2eCW9InNqq2NgQGstP/Z7LTf0MWxZrtcl8nLgmJ6WJ/KGfsWtiUhqfSDQ+GZ6ikmKf2tYXnq5KEj/0s1KrwjwIPF/AXX2TSf7P33jlrs34IIAAAgikQ4ACVjrWmSwRQACBmhS448aFZ3oSXyPZxTWZAEGnRiAUr0LRK5uRMuFPZIXi17MLYIW/HyqQmU0VyAoFs0ON6u1Zj30degjsWY+BTVE+50mowqNQpsR9qsG5T+2lCoWmwj8LBafwexwKT1NFp6k/rjj8s/Bmv4R+U6m5SOsn0R8mHl+zau3Oft4wWD+LSiYIIIDAdAQoYE1Hic8ggAACCMyqwB1f6nmr5/16ScdObe7iQAABBBBIi0AoVLlryNw+seLywS+mJW/yRAABBBB4rgD/JYArAgEEEECgJgT613W1eaQPmtnnKWLVxJIRJAIIIFAKgfyvt5J/0kcnrlv5kT17SjEgYyCAAAII1KYABazaXDeiRgABBFIrcOsNPS+JIv1hJP+QS82phSBxBBBAoI4FwtsFE9lXlLfrVl018GAdp0pqCCCAAALTFKCANU0oPoYAAgggUF0C/29D9xmN0mckXSApU13REQ0CCCCAwEwEXJqQ64d5Sz520drh+2YyBucggAACCNSnAAWs+lxXskIAAQRSI3DnusVLk0x8l+TLU5M0iSKAAAJ1KOCunYlr1QVXDP28DtMjJQQQQACBIgUoYBUJyOkIIIAAArMvcPP1JzS2NB1YJU8+7a6Xz35ERIAAAgggMF0Bkx4wRZ/oXDBw66mrNTHd8/gcAggggEC6BChgpWu9yRYBBBCoa4H7+pQ74Avfmyi5yqRX1XWyJIcAAgjUsEDoceXyB+Ra193R9fVTVz9E4aqG15PQEUAAgUoIUMCqhDJzIIAAAghUXOD29V2rLbLr5eqkR1bF+ZkQAQQQeEGBULiStCWRPrJq7dA/wYQAAggggMB0BShgTVeKzyGAAAII1JzALZ/tac22JudGZn8l04k1lwABI4AAAnUl4A+75y4difTTt67ZdrCuUiMZBBBAAIGyC1DAKjsxEyCAAAIIzLbATX2LW1rj+O1mvlamcyTx/Tfbi8L8CCCQFoHYTN9L3Prs5MHvrlypfFoSJ08EEEAAgdIKcANfWk9GQwABBBCocoHb+rovilx/6rJXmryhysMlPAQQQKBWBfabdE+Sjz+x6qqd99ZqEsSNAAIIIFA9AhSwqmctiAQBBBBAoEICGzcqs2xvd+fBvL5qpjdWaFqmQQABBNIgEEeyv826/vh1g4PD1lvoecWBAAIIIIBA0QIUsIomZAAEEEAAgRoWsP71Paea6d2SX+lSew3nQugIIIDAbApskexauX1n5eUDT81mIMyNAAIIIFCfAhSw6nNdyQoBBBBA4CgFvt83f25G2Ssj2bvkOs2l6CiH4OMIIIBAygR8Um73KLKv6aTBv6W/VcqWn3QRQACBCgtQwKowONMhgAACCFS/wJ0bus5N3NbJdLKkXPVHTIQIIIBARQXGJN0RZ/SBCz48NFjRmZkMAQQQQCC1AhSwUrv0JI4AAgggcDiB+/qUG4kWnRDH+feZ7GpJrYghgAACaRYw6QnL6E8S5W9f+eFdW9JsQe4IIIAAApUXoIBVeXNmRAABBBCoMYFbvzCnI5NtvkTy1ZK9QVK2xlIgXAQQQGBGAmba5a5/cdc/rFw79D0z+YwG4iQEEEAAAQSKFKCAVSQgpyOAAAIIpEvg9hs6T1YUXWOulTItTFf2ZIsAAikRGJPsKXfd2NMxuO7U1ZpISd6kiQACCCBQxQIUsKp4cQgNAQQQQKBqBezm6xfMac41vMosuc6lV1RtpASGAAIITFfANWqm9e7RX3d3DGyjcDVdOD6HAAIIIFAJAQpYlVBmDgQQQACBuhVwl916Y89pmTi+UBa930wvr9tkSQwBBOpOwKWDZvqmu/1zks/+8IKrtu6suyRJCAEEEECgLgQoYNXFMpIEAggggEC1CPSv6zrHMrbGpbNdOs6kqFpiIw4EEEDgkMBeSb+Q7FuKky+vvHLHAWQQQAABBBCodgEKWNW+QsSHAAIIIFCzArdvWHKGef6vZH6uJL5za3YlCRyBuhBwuQbddc2qK4ZurIuMSAIBBBBAIFUC3EynarlJFgEEEECg0gJhi+GP/qZzUX7cznDTf5bpEskylY6D+RBAIK0Cfp/MvpTx/A8GBnY9trqXhuxpvRLIGwEEEKh1AQpYtb6CxI8AAgggUFMCd3/pmAUT+fzb3JKL5Xq9xJsMa2oBCRaBahcwjZjbTxL5HWbZjSvXbPtVtYdMfAgggAACCExHgALWdJT4DAIIIIAAAmUQ6O9VNlrc8+bE9VG5n+bSfHpmlQGaIRGoYwEzeZJov0V6WtIXGuc3fO11q7eM1nHKpIYAAgggkFIBClgpXXjSRgABBBCoHoGwzfCW69rnN7Q0LY2kyyS916X26omQSBBAoAoFxn791tN/Uuwb8jl7ZNfcoeHVqxVXYZyEhAACCCCAQEkEKGCVhJFBEEAAAQQQKJ3A3Z87pnmiafzVnonOlfsbJZ0lKVe6GRgJAQRqUCCW+QPu0a2m5C6NTt6z8iN79tRgHoSMAAIIIIDAjAQoYM2IjZMQQAABBBConMAPblg2P86Ov9Njv8Slk8y0RFK2chEwEwIIVFrApcSkbTJ73N3/xT3+xvmX79xa6TiYDwEEEEAAgWoRoIBVLStBHAgggAACCBxBwCX7Zq9yc3t65uUiX2OuKyX1AIcAAvUjYLLdsXRjPs6si+OWoTf9/mMToc9V/WRIJggggAACCMxMgALWzNw4CwEEEEAAgVkXCE3gvbvz+MiiU9x0keQXS7Z01gMjAAQQOAoB3yKz71qiWzzK/tscbXv81Ws0eRQD8FEEEEAAAQRSIUABKxXLTJIIIIAAAmkQ6O1VdO7C7tMlf7NZ9Hq5nyrpWEl836fhAiDHqhcIT1K5a5PMHnQld5vp5hXbdvzcepVUffAEiAACCCCAwCwLcEM7ywvA9AgggAACCJRT4JZ1i5fmMvnfj+S/62YL5GqSlCnnnIyNAAK/EQhvBRyTabukv2uOtOGsDw8N4oMAAggggAACRy9AAevozTgDAQQQQACBmhPYuFGZ9t2d3c2JLUxkq2R6p0mvcSmquWQIGIHqFogl/4H/umWdpB8lYxrYtXhoePVqhWIWBwIIIIAAAgjMUIAC1gzhOA0BBBBAAIFaF+jvW9zpmnityc5WYq+W6QxJC2s9L+JHoIICobn6JpMekPn9Hkc/ac5P/uSsq3ftq2AMTIUAAggggEAqBChgpWKZSRIBBBBAAIHpCdx6Q/fLM6Z3mOlNLi2Wq0Om5umdzacQqG8Bk/a5tNPloWj17SSf/fb5V23fVN9Zkx0CCCCAAALVIUABqzrWgSgQQAABBBCoKgF32feu7Wlpa1PruMdnKoreI+lik9qrKlCCQaD8Ao8r0j/HijZqIvNEpjU3svL3nhor/7TMgAACCCCAAALPFqCAxfWAAAIIIIAAAtMS6O9VNu7uWRZl/UTldaoie20kneXyZdMagA8hUN0Ck5J+aaZ7zOy+xJNH4sgePf/DQ0Mmha2CHAgggAACCCAwiwIUsGYRn6kRQAABBBCoB4H+9QuXS/EKi/QGV3S8ux9jrsVsPayH1a3LHEIxapeZtrpss8kfcPe7m9viu896L72r6nLFSQoBBBBAoC4EKGDVxTKSBAIIIIAAAtUl4L2K+nu6zzbzS0z2O6GfVnjjoZlMLu4/qmu56jmaUKxKwh+T/SCR/2OmIX/TeR/ctbmekyY3BBBAAAEE6lGAG8h6XFVyQgABBBBAoIoEQj+tH3/5mPljE2Ndkaw7kb1MkZ1l0tmSv7SKQiWUGhdw1z6L9JMk8XujTHSP5+Ptlk8Gd+zaNbS6VxM1nh7hI4AAAgggkGoBClipXn6SRwABBBBAYHYFbr5+QXtLQ/ZUl84w00lyHeumY01a5q6u2Y2O2atUYFTS0zJtlvsmc3vEM/ZQg/u/vW770JPWW3jiigMBBBBAAAEE6kyAAladLSjpIIAAAgggUC8C/dfO6dSchnPk2RVyvc7Me9zVbJGawk9J2XrJlTyeIxC2/Y25NGrSqEsj5vqxu+7OZOzH524ffJAiFVcMAggggAAC6ROggJW+NSdjBBBAAAEEalLgwY2nNAyNbGvJTGSb47y1WoMd53l7jUV6rXtypmQLazKx1Aftu2V2v1w/i93uz0T5n0V5H5n05oOjOR99y2XbRi10TuNAAAEEEEAAgVQLUMBK9fKTPAIIIIAAAvUjcF/f4pa9yi/KmnpiaZES9WTMlsaJL5O03KzQSH6xSQ31k3X1ZmKmicQ1YNI2SVsS962maFNkGlBsA4lrKBeNbnvDFXt3V28WRIYAAggggAAC1SJAAataVoI4EEAAAQQQQKAiArd+sbsnM2nHyfx4RbZc7ie4bJnkbZHU7FKLmZrd1WJSi1PwemZdJiUdlBR6UI0c+vtByQ9KtlWyp+T2uJR/Kh81PHHB9m1b2OpXkUuaSRBAAAEEEEiFAAWsVCwzSSKAAAIIIIDAkQR6exWdcoqs6yHZnEWyofETouY5eWscy3eM5saPjyZtqUtLTOpWZMeYfGniOsFUaDZf0/dULsUmDci0ZeppKdsSWbw58syWfOSbo0l/Qi2te0b3Z/3Arse86zwlO3bIH3pI3kvT9CNdWvx7BBBAAAEEECiBQE3fbJUgf4ZAAAEEEEAAAQSKEvBeRd9r7Wn2+aONihsaG5Nso3u+MVHUmImShoxHjUkUNcT5JGcZzyqJsoo8a24NZtacKGk2swZPZIosF4IxeU6u0Pqp8Hs43JTILQ7FJpnF5knibrEixZKPyTUm9zGLbEKJ5WVJXlGUV2x5s2Q8smQ8b9nxfBJPNFtufDzKj2eyE+ONrW3jZ1+yZYw+U0VdBpyMAAIIIIAAAmUWoIBVZmCGRwABBBBAAAEEEEAAAQQQQAABBBAoToACVnF+nI0AAggggAACCCCAAAIIIIAAAgggUGYBClhlBmZ4BBBAAAEEEEAAAQQQQAABBBBAAIHiBChgFefH2QgggAACCCCAAAIIIIAAAggggAACZRaggFVmYIZHAAEEEEAAAQQQQAABBBBAAAEEEChOgAJWcX6cjQACCCCAAAIIIIAAAggggAACCCBQZgEKWGUGZngEEEAAAQQQQAABBBBAAAEEEEAAgeIEKGAV58fZCCCAAAIIIIAAAggggAACCCCAAAJlFqCAVWZghkcAAQQQQAABBBBAAAEEEEAAAQQQKE6AAlZxfpyNAAIIIIAAAggggAACCCCAAAIIIFBmAQpYZQZmeAQQQAABBBBAAAEEEEAAAQQQQACB4gQoYBXnx9kIIIAAAggggAACCCCAAAIIIIAAAmUWoIBVZmCGRwABBBBAAAEEEEAAAQQQQAABBBAoToACVnF+nI0AAggggAACCCCAAAIIIIAAAgggUGYBClhlBmZ4BBBAAAEEEEAAAQQQQAABBBBAAIHiBChgFefH2QgggAACCCCAAAIIIIAAAggggAACZRaggFVmYIZHAAEEEEAAAQQQQAABBBBAAAEEEChOgAJWcX6cjQACCCCAAAIIIIAAAggggAACCCBQZgEKWGUGZngEEEAAAQQQQAABBBBAAAEEEEAAgeIEKGAV58fZCCCAAAIIIIAAAggggAACCCCAAAJlFqCAVWZghkcAAQQQQAABBBBAAAEEEEAAAQQQKE6AAlZxfpyNAAIIIIAAAggggAACCCCAAAIIIFBmAQpYZQZmeAQQQAABBBBAAAEEEEAAAQQQQACB4gQoYBXnx9kIIIAAAggggAACCCCAAAIIIIAAAmUWoIBVZmCGRwABBBBAAAEEEEAAAQQQQAABBBAoToACVnF+nI0AAggggAACCCCAAAIIIIAAAgggUGYBClhlBmZ4BBBAAAEEEEAAAQQQQAABBBBAAIHiBChgFefH2QgggAACCCCAAAIIIIAAAggggAACZRaggFVmYIZHAAEEEEAAAQQQQAABBBBAAAEEEChOgAJWcX6cjQACCCCAAAIIIIAAAggggAACCCBQZgEKWGUGZngEEEAAAQQQQAABBBBAAAEEEEAAgeIEKGAV58fZCCCAAAIIIIAAAggggAACCCCAAAJlFqCAVWZghkcAAQQQQAABBBBAAAEEEEAAAQQQKE6AAlZxfpyNAAIIIIAAAggggAACCCCAAAIIIFBmAQpYZQZmeAQQQAABBBBAAAEEEEAAAQQQQACB4gQoYBXnx9kIIIAAAggggAACCCCAAAIIIIAAAmUWoIBVZmCGRwABBBBAAAEEEEAAAQQQQAABBBAoToACVnF+nI0AAggggAACCCCAAAIIIIAAAgggUGYBClhlBmZ4BBBAAAEEEEAAAQQQQAABBBBAAIHiBChgFefH2QgggAACCCCAAAIIIIAAAggggAACZRaggFVmYIZHAAEEEEAAAQQQQAABBBBAAAEEEChO4P8DodxOyd3iK3AAAAAASUVORK5CYII=;" vertex="1" parent="1">
                    <mxGeometry x="130" y="130" width="40" height="40" as="geometry"/>
                </mxCell>
                <mxCell id="23" value="&lt;b&gt;&lt;i&gt;Aplicação em Python&lt;/i&gt;&lt;/b&gt;" style="text;html=1;align=center;verticalAlign=middle;whiteSpace=wrap;rounded=0;" vertex="1" parent="1">
                    <mxGeometry x="170" y="135" width="110" height="30" as="geometry"/>
                </mxCell>
                <mxCell id="46" value="" style="group;fillColor=none;" vertex="1" connectable="0" parent="1">
                    <mxGeometry x="320" y="120" width="170" height="130" as="geometry"/>
                </mxCell>
                <mxCell id="28" value="" style="rounded=1;whiteSpace=wrap;html=1;arcSize=9;" vertex="1" parent="46">
                    <mxGeometry width="170" height="130" as="geometry"/>
                </mxCell>
                <mxCell id="59" value="z" style="edgeStyle=none;html=1;exitX=0.25;exitY=1;exitDx=0;exitDy=0;entryX=0.5;entryY=1;entryDx=0;entryDy=0;" edge="1" parent="46" source="29" target="37">
                    <mxGeometry relative="1" as="geometry"/>
                </mxCell>
                <mxCell id="29" value="&lt;b&gt;&lt;i&gt;Dados Brutos&lt;/i&gt;&lt;/b&gt;" style="text;html=1;align=center;verticalAlign=middle;whiteSpace=wrap;rounded=0;" vertex="1" parent="46">
                    <mxGeometry x="15" width="140" height="30" as="geometry"/>
                </mxCell>
                <mxCell id="38" value="" style="group" vertex="1" connectable="0" parent="46">
                    <mxGeometry x="20" y="30" width="60" height="90" as="geometry"/>
                </mxCell>
                <mxCell id="36" value="" style="rounded=1;whiteSpace=wrap;html=1;" vertex="1" parent="38">
                    <mxGeometry width="60" height="90" as="geometry"/>
                </mxCell>
                <mxCell id="31" value="" style="dashed=0;outlineConnect=0;html=1;align=center;labelPosition=center;verticalLabelPosition=bottom;verticalAlign=top;shape=mxgraph.weblogos.json" vertex="1" parent="38">
                    <mxGeometry x="10" y="30" width="20" height="20" as="geometry"/>
                </mxCell>
                <mxCell id="32" value="" style="dashed=0;outlineConnect=0;html=1;align=center;labelPosition=center;verticalLabelPosition=bottom;verticalAlign=top;shape=mxgraph.weblogos.json" vertex="1" parent="38">
                    <mxGeometry x="20" y="40" width="20" height="20" as="geometry"/>
                </mxCell>
                <mxCell id="33" value="" style="dashed=0;outlineConnect=0;html=1;align=center;labelPosition=center;verticalLabelPosition=bottom;verticalAlign=top;shape=mxgraph.weblogos.json" vertex="1" parent="38">
                    <mxGeometry x="30" y="50" width="20" height="20" as="geometry"/>
                </mxCell>
                <mxCell id="37" value="&lt;b&gt;&lt;i&gt;Partição&lt;/i&gt;&lt;/b&gt;" style="text;html=1;align=center;verticalAlign=middle;whiteSpace=wrap;rounded=0;" vertex="1" parent="38">
                    <mxGeometry width="60" height="20" as="geometry"/>
                </mxCell>
                <mxCell id="39" value="" style="group" vertex="1" connectable="0" parent="46">
                    <mxGeometry x="90" y="30" width="60" height="90" as="geometry"/>
                </mxCell>
                <mxCell id="40" value="" style="rounded=1;whiteSpace=wrap;html=1;" vertex="1" parent="39">
                    <mxGeometry width="60" height="90" as="geometry"/>
                </mxCell>
                <mxCell id="41" value="" style="dashed=0;outlineConnect=0;html=1;align=center;labelPosition=center;verticalLabelPosition=bottom;verticalAlign=top;shape=mxgraph.weblogos.json" vertex="1" parent="39">
                    <mxGeometry x="10" y="30" width="20" height="20" as="geometry"/>
                </mxCell>
                <mxCell id="42" value="" style="dashed=0;outlineConnect=0;html=1;align=center;labelPosition=center;verticalLabelPosition=bottom;verticalAlign=top;shape=mxgraph.weblogos.json" vertex="1" parent="39">
                    <mxGeometry x="20" y="40" width="20" height="20" as="geometry"/>
                </mxCell>
                <mxCell id="43" value="" style="dashed=0;outlineConnect=0;html=1;align=center;labelPosition=center;verticalLabelPosition=bottom;verticalAlign=top;shape=mxgraph.weblogos.json" vertex="1" parent="39">
                    <mxGeometry x="30" y="50" width="20" height="20" as="geometry"/>
                </mxCell>
                <mxCell id="44" value="&lt;b&gt;&lt;i&gt;Partição&lt;/i&gt;&lt;/b&gt;" style="text;html=1;align=center;verticalAlign=middle;whiteSpace=wrap;rounded=0;" vertex="1" parent="39">
                    <mxGeometry width="60" height="20" as="geometry"/>
                </mxCell>
                <mxCell id="47" value="" style="shape=image;verticalLabelPosition=bottom;labelBackgroundColor=default;verticalAlign=top;aspect=fixed;imageAspect=0;image=data:image/png,iVBORw0KGgoAAAANSUhEUgAAB9AAAAfQCAMAAACt5jRLAAACN1BMVEVHcEwAAAAAAAAAAAAAAAAAAAAAAAAAAAAAAAAAAAAAAAAAAAAAAAAAAAAAAAAAAAAAAAAAAAAAAAAAAAAAAAAAAAAAAAAAAAAAAAAAAAAAAAAAAAAAAAAAAAAAAAAAAAAAAAAAAAAAAAAAAAAAAAAAAAAAAAAAAAAAAAAAAAAAAAAAAAAAAAAAAAAAAAAAAAAAAAAAAAAAAAAAAAAAAAAAAAAAAAAAAAAAAAAAAAAAAAAAAAAAAAAAAAAAAAAAAAAAAAAAAAAAAAAAAAAAAAAAAAAAAAAAAAAAAAAAAAAAAAAAAAAAAAAAAAAAAAAAAAAAAAAAAAAAAAAAAAAAAAAAAAAAAAAAAAAAAAAAAAAAAAACAgAEBAAGBgAKCQAaGQA3NAA9OQAsKQAMCwAQDwASEQAUEwAXFgAdHABNSQBlXwB+dwCCewCckwCyqADe0gDk2ADm2gDr3gDo2wDFugCqoQCLhAB2cABTTgBJRQBFQQAlIwBbVgBrZQCHfwCPhwCvpgDAtgDh1QDy5QD05wD26QD46wD67AD87wD+8QD/8QD98AD77gDt4ADRxQCXjwB7dABeWAApJwAhHwAuKwBhXACSigCglwDKvwBXUgA0MQBBPQCtowDMwQDbzwD/9AD/8wD/8gD/8ADPwwC1qwBzbABQSwDHvAD36wD/9gD+9ADVygCkmwAxLgCongC9swDYzQD78AD/+AC3rQAkIgDTxwDv4gDNwgA6NgBoYgDDuABvaQC6sACp/yt5AAAAW3RSTlMABQkPFxodIzVaZo2RlcTJrn9dTikgEwwHAQgnL2R1mL3H2vn3+/3868+riWxIMgIsOUJLeXiCn6W60//gqG9TPD9QYZu03f7m12l9haLA7uNzsbfzRvBXAwTLDBrA3wAAkSZJREFUeAHs3PWCol4bB/CDgti6BoithOCUPYEtIzAdyMrc/4W82++vt3eN7+cCzve/089DYHsAUG/4/G/QzBsB9q1g6J1wJPpBLJ74rGQs+sGrVOitdIZ9Ixtg3uDeBPC5XI4SyA8AAAAAgi/PczQdKBQKxWAwGAqHS+VKLBarJmq1Wl2U3hLfkz9RPq8hfyK+J72lam+GjTdjscrBYSlcOgoGjzNvomma5vK+r1jfAQAA4IT302y21W53uulUrz84PTs71y4uVP13kIcXF9robBTr98aTbncaPC6wAT/PEwAAAPgHPMe0jmfd+aJUPogYl5eJ5VIy9Q3TsJZ29TIZixyEw6GjbrBV4Lg8AQAA2HcUxwRn89TV9Y1x27yr1a37hr4lpAdLi5/fnkZfPS5SnXaG4QgAAMCeodlpdzEeGLdPz9rFUHX0bSbeq7YWf05Wor3xZNXK+shuAwAAYIvpVPng9vIuYS9VV9J3iyK5w7oWP09WbsKvpxmO7AoAAADhZO1ROS7YCV9Xnl/s+oPlSg19x8mSai1tLT6KPL5Z2H0U5a1PBLKFAAAABC/H8/5AJ9SvNC+GluU6YkPfL2ZDclXroX53dnCYPqb9vI/amnUdAADA8/lphu2UBqPq8N51JFE29X1mKrIoOa768hzrpYMBhvNTJ2RjAQAACD4uwBZnqWujaouiKDcU09Q/AFNRZFkUVa0Zu5oct7IMvyabBQAAIMcUgqv5dexSu9c/D8RhvHlTSk+LWY4ivx8AAICPKXbmh4Ozqi2aOnwVxdKSRi+Vbhc4AgAA8Jus6dbRoh8bxZf3Onw7WdXOT2/GkymbIwAAAL9Snl2Fr42neP1e1uGHkB+06lm0PJnSBAAA4OfzH7/uG+eJuvrjW62D6QzteDN62GE9AgAA8BMIa89jpqnok1a3XFmHn8eU74d2wrieZHhqfUIAAAB+DIHy8dxqHLl7sO4lxdThFzBFR324SA5eFzk+5wkEAADge1B+mp2VjTvVcURFh1/LlCXHXT4NFkGG4z0CAADwDTwu2+pcGTVVFBu/7VwOpqnIorhM3qSCLM2fEAAAgC/nzwaPwrG7h4YOG0PWRoPUrEV7BAAA4LMoOpguRZ6Wkg4bSK2dXqdWBZ4AAAD8K76wOoyMXlRFhw3WGJ5XrkPtwJoAAAD8Fdde3IzubEeHbaCo2rMxTrN5AgAA8BG3ejTuLlTZ1GGLmO4y8RRZFCkCAAB77sSjspPBkzZEr5gtZYqq/WJcTf3eWiAAALCPvDyfDUWqQ9VBUdp2M0XXss8eZ7Qvd0IAAGCfrHm6lYrE73eoWwx60LjL5vUqwPkEAgAA+2DNZY9D0Zojy4q+S8BsyOJDsr/KBHiB7DIAABC4TCdcqan/Y+9O9JrK9m0BzxA6RdFSSQyCWqTFLqhlO+lUYIIdqJgC3v897j3n7Lb2tgEhyVrJ973E+K1mjH9kcNWXN397PTkzEgYTANdvPL53cXo3RQZeY+Hy03MPRw/CYAGgMvP13oUX2804NKgtPv/t3GQpDAoAio8+bbxYqMWhQ+vozt1zNwoh7wA4XDp/6/ZOpxGHFM3to8tPX4+GvALgoDB6/+7tnVY9DjdSbW9x5dNc4bAd8gWA9mzxwafPC61aihFiqne2Fy+ujY8UAgB5cb00c/XCUafWTPGfIFX3lz/fnBwrH4asA6BdnHi1urJdtRrzbbZnaosX/lwaux6yC4DDscm1C5f2I/xIY/vOza/XiiGLALg+8fjJ84VmhGPY/f3ClYejIVsAKD98M/VluxHh2OqLK+/WJg5DRgBQfPTHncVOhJOq792+MD93EADou7E/L75Y2I+/BhqtxcufJssBgL5pFybmPyxu1yOcRqOzNf30VfGgHQDotUqhvHTvzt5uPcLppdr24oW10shBAKCHRkYn771o1eoRznB3ZuHW2kTxMADQE8WZh0+mO/VGinCWUqrX956dWxo9DAB0WfnG/bvTnQhds/z8/PpYOwDQNeW513enaylCVzX2nq8+Gj8MAHRB4cH8Lc/m9Eh96/Jvr8cqAYAzdTB3/sOl3Qi909zbvPt6NABwVto3zq8stlKE3kr15dtTj4sBgFNrF2berOy0mhH6oro3PfWofBB+HQDt2dK558vGY/rN6Mylu3PlQvgVALTLo18v7OzXU4Q+S9XWi7dLpUIA4IRmxx9NLdYykuaQGvXdz/NzpXYA4NjaM48+faxGyJjljXMPSgGA46iMPlrd3E0RMqi5eHFtrhx+AoCRyXvPF+oRMmt/emptph2+C4DK0vzzxU6EbGtsv5j6WgzfBEBpbeMoH/Mx0Fz48m6yEP4KgHZ58u6l7XqEvEj7W5/nx9uV8HcAtEfG3m5u1yLkS73z8tZ6sRD+BwCzo482lvfrEfInVTuXVpeKhwFgyB2OTn46qjVTipDXxZnWsz8nygFgiJXnrqxsR8i76uLTr+MHAWA4zVy9+7IZBwJ0Lt97WAoAQ6f88MnmAHXUIDVfblyZCQDDpDIz/2yxFgcLpN0X7x+VA8CQOFx///tgPpxDbeHO+fFKGHQAlYPRK5e39uOggtRanFovtMMAAziYnXu6uNtMcYBBqu19PjdWqITBBDA79nplu9qIgw5Ss/by6VzxIAwegNLck0vVYXk4h1Tffr42MRsGCkBh5vHGXkoRhkhqTq8OUjcdYGTy0+Z+hOHTWL7450w7DAKA0trUYiPCkGp9vjkAh9MB5lbv7EUYZrWjC6+LASDHDtanjjopwpBrLG+eHwsA+dQuXr2zXI0xAo3W0ftrqulADhXG7t1u1ePfAbWtZ+uq6UC+VIpL71/WmvHfAPXO57Wx6wEgJwpjX2+16lrn8I0FucV7c8UAkAOFG282OzHFbwEaW1OPRtsBINtGXt38WI3ADyw/OzfRDgDZVXo8tdOIwE90vqw+qASAbBp783yrGYGfS7VLd18VAkD2jK++aDUicEzVhVtfywEgUwrX3h91InAStb3LV4qVAJARlZEHU8v7ETip+u70lbFCAMiAg9L6s+1qisDJpcb+y9WZkdBnAAejVy/vNlIEflGq7vw2Vw59BNC+ceXOfkzxFIAUF96/KoU+ATh88PZFPQJnYO/i1fHQBwDtB78d1SNwNlJr5cpYAOixkVd3j2oROEOtO29nAkAPFV5t7NQicLbS7sdPYwGgNyrXH21sVWMXAJ3fVycOQ9cBtEceb3atdg6kzsLTiULoKoB28evn3WbsHiBVt95NXA9dA9AefbTSsSLTbZCaCzevlSuhGwAqM3/e6cQUuw5I8eX79WIAOHsTbz7XUgR6JG1NPSoGgLM1fv7zfgR6qblw4VE5AJydsbebnQj0Wn3h4qORAHA2Sm9ftGJ/gEjfeFUIpwbQLp3/2Ir9AlS3Nh4WKuE0AA5Kb6Z3U+wfIFX3NiZnKwHgVx2Mnpveb8T+AlJ9++LkbAD4Je3S/S+1Ruw/IDW2n167HgBObvT+BzMykKWpmZtzhQBwMqOvn/l2DtmSFp9MHgaA4ytf/dBKEciY+tG7awHgmEYeXdyLQBbVPn6aCQDHUHi1sVCPQEZ1Pn4aCwA/cThxd6sagQzr3D7ntirwkzh/ulBLEci0Ruv2mkgHvqswNr9TTRHIutTYvbMu0oFvao+/+V2c5wSkRmtjfSQA/IfK6NXP9ZhiTgAp7j2dLASAf1e6/2w/5gzw8tNSJQD8w+HXW8uNmDdAqn+8eSMA/M2DqYVmzCWg9mK+FEIAmHi3WI25BezeeV0OwJCrFN8u7sc8A+rbz/0dB8OtUr4/vRvzDqjuTU1cD8CwKj9c2W2kmHtAqi08GT0MwDCavfF+W5zDoEjV6bXRdgCGzeGN1ZeNCAyMFDt3HhcDMFQqo+deVCMwYPam1gsBGB4jj5+3IjB40uI723EwNNoPLyw0IjCIUu3j+bEADIOZ3xbrERhUqfX56kgABl3pzcf9CAyy+vLG5GEABtns5OVOMwIDrrrwZKwdgEFVmJjarkdg8KXa9FopAINp/MpOPUVgKDRqzx4WAzB4ive/VCMwPNL202uFAAyW2fUL2xEYLvVL82MBGCCVmSc7ERg+uytr5QAMipErL/YjMJSWL861AzAQ1p/vpQgMqebRzdGQf8DYu51mBIZX6ny52g65BlTKa9O1FIGh1ti+deMg5BdwOPeh04jA0KvvvB2thHwCKuNvXVUD/k+q3VkvhzwCSlcvN1IE+F8p7j11Kj2HoP1gqpUiwD81p6+MhnwBxu9dqkeAv9jfeHU95Acw+/VOJwL8p/rObzMhL4Dx91vNCPANndtr10MeACNrlzoR4NvS3sZEOwBZV7j2YTtFgO+qvnxbrIQsAyrFezv1FH8AIHVWHs4GILtGHq7sp/hjACktr461A5BNlZmbWzHFnwOof/k6EoAsGnl9uRoBjmnr6bV2ALKmsnR3L54AwO0rxQBkS3n+YzOeBEDavvUwAFkyd0tX7eSA+tHbcgCyojR/VI0nB5B2Lz8MQCa051b2GxHgl9R3VksB6L/S/E49AvyqVL3z4DAA/TX74Fk1RYBTaC68Ha8EoI/GV5dTigCnkuqXH40EoF9mH63UIsDppeUnMwHoj7GbCykCnIn9y49nA9B7hUeXOxHgzGy9Gw9Ar43+4fEcOFudL18LAeilw/UvuxHgbKWtd6OVAPRKpXRzq5kiwBlLnduvCgHojcKDlU6KAGcvNZbvFSsB6IHSmwXd864B9lcmZ0O3AYXJZ/uxawBSXHg7GroLKM4vxu4C2H/2sBC6B2hPXujEbgNIl+aLoVuAwzfTzdh9AKl1ay50BzAxtZ0iQE/Up68UAnD2DtemaxGgVxrbFycCcNbG3u01IkAPVW9/vR6As3Q4uVlNEaCnmts3TcHCWRp9u9CIAL2W6ncmDwNwRuZu1VME6IO09aYUgLNQXDtqRoD+SPsXHwTg9G7cbUWA/qlPr5UDcDqH91/UIkBf7d2dCMBpFD9tRYB+299cbwfgV1VurOxGgP5r7LwtBuDXjKy9rEaATNj9MHEQTg6ojL9vpQiQDal6dLUcTgqYXd+sRYDMSKn1x2g4GaD0didFgEyp3ZkshBMAJi7uRoDMWbxSDMBxzV790owAGbT3fqISgGMp/7EQAbKptvnoMADHcO15J0WAjEov75XDzwCVq783I0B2pdbFmfBDQKX8ZLkRAbIs1V68OgjA9x3MrdRSBMi4tGAJ9gfg+uujCJCPK+kT7fBNQGm1FQHyof75VSEA/60yd6seAXLj5flS+E9A5fXtZgTIj9SauhH+Cij94e92IG+qm1/bAfg3Sx/2I0DeNF/eK4Z/ANpfP1YjQC5fu4+FvwHK57eaESCXap8fhP8FjE8ZkwHyq7nzejYAhfXNegTIr7R702t3KF7ZaaQIkGOp/mEpDDeYedeKAHlXn358PQwxmHu+HwcAwNa9UhhWcHh/uh4HAsDuhZkwnKB8bysOCoD9L5NhGMHoxVYcHACNnauFMGzg4MaXWhwoANurxTBcYOTqTjPFgQKQOhsTlTBEoLS6HQcOQKrefngYhgZMXOzEgQSw82c5DAc4eLhZjQMKYPvJaBgGMLJ2FAcXwO7GRBh8ULy5FQcZQH1zshIGHJS0zwcfsLhWCIMM2te+VFMccABp+d1IGFxweH+xEQcfQOo8G62EAQUj57dSHAoA1c9LB2EgQen9bhwWAM1LjwthAMGNjf04RAAWrpTDoIHD9c8pDhWAvXejYbBA4c9LcdgA7NuYGTCMPBnG3+EA0ubDdhgYMDbVSXEIATSO/qyEAQFLK7U4nAAaW6sjYRBAZf12Mw4rgNR6Wg6QfwdrLxtxiAHUNsYrAXKufH4vDjeA+ufJgwC5VnraikMOIMXpr4UA+VWZuFCNAMSXVwoBcmvyTj0CEGNqrZYC5FP768d6/BsAiT5VCpBHlfmdZvw7AGofrgXIn+LqcgTgX6pfJgPkTek3a69/BdC89DVAvkxsVONfAdBYvnI9QH5U5i43IwD/Ze9TMUBetNc/pvgNANT+GAuQD5Wr1tsBviPVNmYC5MHI/FaKAHxH9cPDANlXvNmKAHxf/eN6gKwbm+rEHwGgvrgWINvGb+3HnwBg51whQIZd+1yLPwNAat0rB8iq9uRmMwJwDLs3SwGy6eDVy2YE4DhSdWosQBZdX1M/Bzi2VL91I0D2FN5sRwCOr765FCBrSqvb8SQAqL54FSBbSk9348kAkBa/BsiSmYu78aQASC//vB4gM2ae1yIAv2DvzfUA2VC5tlKNAPyS7fPlAFlQefB7NQLwi/bflQL03+HkpWaKAPyiVPttNEC/Hb4+akYATqF2cSZAfx2sbUUATqf6fCJAP5XPLUQATqu2shSgf4qrexGA06u+eBigX8qfWhGAs5CmHwboj+IfrQjA2UjTrw4C9EHpVicCcFYaC1cLAXqutFFLEYAzk5YlOr03tlGLwBlDol8P0FNLK7UIwNlKy2/KAXpo6UszAnDmWp+KAXpmrjt5DsC2RMfzOYBEh2M7eHW7GbsEgO2npdB9cPDoZYpdA0Dn1mjoNjh4tZNiFwFQ2ygFkOcAOdfsdqJD+1H38xyA2sZo6B6oPHoZuw+A2q2x0C1QXnsZAeiF/Y2J0B0wMr8cAeiN6ue5APIcIO+aX5YCnL3Z+b14EgBIdOQ5AM0X1wKcrdk32ykC0FP12zcCyHOAnEsSnbM1O78dAei9+u1rAc7KiDwH6JP6i6UAZ2PE/3AA/nVH/xyAUyX6XAB5DuAZHfTPASQ68hwACzPonwNgYQZ5DmBhBuzJ/A2AhRnsyQBgYQZ7MgD41x39cwALM1BZW44AZEnj+Xg4GWg/WowAZMv+rbFwEnDw6GUEIGtqt0YDHN/Bq50UAcic2kYpgDwHyLkk0Tm+g0fyPLsAiT4a4FjWFyMAWVW7WA5wDEtfmhGAzGp9Koafgjl5DpBt2xIdz+cAEh15DkAmtD6Vww/A6LNmBCDz9tYOA3xXaaMWAciBrauFAN/P8xQByIG0LNH5nuIteQ6QF2n5cSV8A5T/6EQA8iItTgb4b8VPrQhAfjSmH4b/BCOr2xEAiU6+HZxbjgDkzOZEgH93uLYQAcib2vOJAP9y+HorApA/1ZWZ8A9QmTyKAORR9Wkp/A1UHlxqRgByaf9dKcD/Wfq9mSIAuZRq70YC/I+ZlWoEIK/S9pXrIcDM82oEIMe2rxxIM0oXaxGAXFt+HIYdpae7EYB8S4tfw3CjsNqJAOTe9GQYZlx/sxcByL/m5lIYXhysbUcABkH9zkQYVrRfvYwADIb61GgYTlQmXzYiAAOiercYhhLXNpsRgEGROvfKYQgx87keARgcafd8Owwdxm7VIgADZXktDBuKU/sRgMGSdh6H4cLIzVYEYNCk3x+GocJ8KwIweBpDNTBD5epWBGAQNT+Mh6HB+ssIwGBqTpXCkGDuYwRgUNX+KIehwMTlFAEYWLU3hTAEKG3UIwCDK+2tHQQGXvG3WgRgkDUWv1YCA66y2okADLbG9LXAYGvPL6cIwICrDvp1dL7uRAAGX+1WKTDA1qdTHAIA1J4WAgNr4nIcDgC07hUCA6p0IQ4LALYGtbxG+Wk1Dg0Adl4FBtH18604RAD4ciMweA7WhquwBkAawMtrVNZfNuIwASDVL5YDA2bpdjMOFwDS/m/twEAZW6nGoQPA9pvAIBmZqsUhBMDO18DgaD/pxKEEwPSDwKCo/LkchxMAjTszgQGxfhSHFQD1qVJgINz4HIcXAJ1PI4EBUNqIwwyAvbXDQO6V3+/HoQbA4nolkHOF87spDjUA0u2JQL6172+lOOQAqD8vBXLt2qI8ByDt350N5Njol0aMANB6exDIrfLFavwfALBwP5BXh59a8f8AwPRcIJ/arxfi3wBA/flMIJceHsV/AICqDdh8mtiM/wIArdWRQO6ULtbjvwGArcftQM6MrHbiXwDA0VIgXw6ubqf4FwDQ+DwayJUHOyn+FQCk2vtyIEdGXzTjfwGAzptCIDfKF2vxGwBg62sgLw7uteK3AEDDYlx+XN2K3wYA9Q+jgVx48Hv8HgDovBsJ5MD480b8LgDYvtIOZF75XS0CwA/srAeyrnClFQHgh77cCGRbZX0nAsCPNbN+eI3xzUYEgJ/ozBcCGVacqqcIAD+RFr62A5nVPr8fAeDnGr/fCGTW1614HABQ/1AMZNTSx0Y8FgDYf9cOZFLpQz0eEwBsnwtkUeWP/XhsAHBpMpBBr5fj8QFAej4ayJy5jxEATqL6rhDImNKtCAAns70WyJbZ1XoEgBP6/UEgSw5etyIAnNiH0UCGXDtKEQBOrPnHSEADHYCcS9trB4GMaL+rRQD4FY3FpUBGXF2OAPBr6peLgUy49nuKAPCL9t8fBDKg+LwZAeCX7Z0L/cfhH514CgBw9CD0HVcX4qkAwPNS6DMmvsTTAYDOzeuhryhdbMRTAoCtx6GfmH3biacGALevhf6hsr4TTw8A0sVS6BvGN1MEgDPQOX899Akj72spAsAZSAuTldAXVNZaKQLAmWjcLoW+4MZiigBwRmpPR0IfUFqpRwA4M6210Hu033UiAJyddGku9Bz3FyIAnKX6h1LA5CsAede6Vwk9Rfl9LQLAGdt5FHqKtVYEgDN3Zyb0EHNHEQDOXv23cugZRm+l2AUAsP26HXqEwtt67AoAOLoWeoPK5EKKXQEAaaoYeoKxzWbsDgBI+/OHoQc4fFeL3QIAaedB6AHW9mL3AED9cil0HTMfU+wiANj/I3Qb5Yu1CAAG43Jufjt2FwCkLzOhq3gwHbsNAGrvC6GLKF5oxK4DgIWroXs4uNKKPQAAmxOha5hcjD0BAHeLoUsoPYu9AQCttXboCgpv9mOPAMD0ROgGKg92UuwRAEhT5dAFlFaasVcAILX+PAycucObnRR7BgAaizcCZ259K/YSANQ/lANnbPRLI/YUALTOVwJn6uCPTuwxAFicC5ypRzux1wCg/qwYOEPjl2PvAUDrfODsFG7uxz4AgEuTgby/cAeAxsZo4IyMr8T+AIDdK+3AmZhdrcY+AYCjucCZWF+O/QIAaaoYOAOlDyn2DQB0rrbDqXE4X02xbwAgXZoIp8Zcf4+mAkB9ajacEsWVeuwrAOisVcLpcK8T+wsAGr+Ph1NhbjH2GwDU7hbCKVC+VY19BwDLV8MpML8dASADvswEftnSxwgAWVD7LfCrRu42IgBkwsuvgV+0thcBICNWxgK/ZGIzAkBWdM4fBn7ByM16BIDMWJwM/IKHWxEAMuRiKXBipZUUASBDdtcOAidUuLefIgBkSFqcCJzQtawdWQOA+vuRwImMfKhHAMiW1LpfCZzE2nYEgKxpvigFTmD89wgA2bP/rhKOjcL7/QgAGbTzMBwb9xciAGRR83k5HBNjd1IEgExqzYfjoXKvEwEgoz4uhWPhwaUIAFlVfzobjoHiVIoAkFnLX8MxcLUVASDDVsYDPzV+OQJAltWuHAR+ovC2EQEg046WAj/xYCFFAMi0NFUO/FD5QzMCQLal3fvtwA9U1joRALKu8WI08ANj040IAJm3f7Mdvo93+xEAsi/tLIXvYn0nAkAe1J8dhO9g5HkjAkAu7P0ZvoMrexEAcmJzLHwTEy8iAORF52b4FgpP9iMA5MbRZPgGHi5GAMiRb+3FUZyKAJAny/fDf+F+KwJArjwfC/+B8S8RAPKlNl8If0HhSjUCQM5MT4S/YGInRQDImfq7kfBvGJmqRwDIm7Q9WQn/ROXVdooAkDv1Z+XwT5Qu1yMA5ND+WiX8A292IwBn5/+zdxeIUW1LFEAr0mncieDQhjduFbeLaxNh/vP4/9kUntxz1ppF6f7nMLw5G3/h4ucmWwkAJs+CPy2dnWRLAcCbK0Hbn7gDQO/kQfyG6RODBIDWuvUgfsPTWwkALfZpJoLOqwSANru9FcHR29lqALDTjepdfp3tBgCD1cOo3KXVXrYcANx5GJW7/CZbDwA+LETVFj4Os/UAYPlx1GzpcQkpawDQvJyJii2sjLL9AKDZOz+Oai09/ZIAUILRznxUa+bUMAGgCJP346jV+70EgDI0vzpRqe6dBIBS9D9GncYlxaADwJsLYtABoPX6xw+jQuPjowSAgrzbiAr9vJUAUJJmeyGqM3M9AaAsX9eiOk+XEwAK83I+KjO3kgBQmi/7UZnzkwSA4ny/GFWZ+54AUJ7+0XFUZGprkABQoFPdqEjnZpMFAoDR/cWoxuHVXpMFAoDmzsWoRvddk0UCgMGLxajE4Yt+lgkAmq8XohLdW1kqAOgdn4oqTN3rZ7EAYPlKVGFjN8sFAINXi1GBqe1BFgwAlh9EBZ68y5IBwOjTdBTv0slhFg0Adp9G8TaXs2wA0Hyaj8LNfsrSAcDto1G4zdtZPABY6UTRZl9m+QBgbz+K9mAvAaACK3Mm6K0HAJPNKNeSAh2AWpzpRLFmfzQJAFWYnJuKQh0c7TcJAFVobnaiUPOnhgkAlehdPYwijbcmCQC1GP6aVaC3HgBM7h9EiY59SQCoR1NmiT7/OQGgJnurUaD3txMAqnKzE8XpvE4AqMvetyjO+y8JAJX5fDEKM7eTbQcASvRjewkA1bnRjaJ0vycA1GeyGkXZ6icAVOj15SjIxe8JADXqHVuKYizt9xIAqvS6G8Xo3E0AqNNgLUqx9GQvAaBSZzpRiPmVJgGgUpPz4yjC+OdekwBQqWZnPoqw8H2UAFCrZnL+IAqw9PRLAkC9hq8XogCLO6MEgIrtrY2j/Z68TQCo2ej7pWi9w+1eAkDV3j6J1tvYTQCo2+DVYrTc1PYgAaByyw+i5TbeJQDUbvRyKtrtngIdAPLNerTaw9MJAAyOj6PFxmeHCQDknXUFOgC038fDaK/3g/wNAHDqSrTW5df5OwBgtHoQLTU+N8g/AACfL0dLde7mnwCA/v5StNL4/CT/AgD8mItWmr/bJPB/9u7zMYpqfeD4oURQBO8PJUhTNAnFBoIFfcAuAQuoN0ZwSwibShISEmpCTZ+zCYGEDrI7Qw0dgUj7437A9XpFSnazZcp+P6+zr7+Zmec8BwD+lPviHOVCkz5bni8AAOBP+YuylQsN/3CmAACA/8pfPm+Ocp1J7yzJF+cCfD6f3+8P3Bd8oGhV8WOsDgUfCNx37wf3fiYAMNQrWiYq1xk2JkecBvDfi3dJSWlZeUVxZeWaqqrqmrX31Nbdt67+cRrqHlh/7882bKyq2rR5S+Pq8vLSkpJ7off7JA4AkD9rqnKdlxaKUwD+YElpUUXT6sat27bv2LlrfXNLS2tra1t7e3tH5z2GHowRvvdnXR33fnDvdy0t3bt37erZuGfv5lW9fRXlpaGATwAgBjmvrlRu812BALYLlhb17lvVuH/TgYPrd7d0dXV2hsNhwzB0Yox7wg8a31l7aGdN9bbDxUd6K8pDfnkqAFg4SrnMM7+KjQB/Sd++o5Vr9hw49tvxlkjUNE2dEpbWpmlGo+F1J04erD61uXFVb3lQngAAcr9TLvPJcrEF4C/rPXp6W3XP2jN1Z/sjkYhpakun2v2uRyOR/nPd53dd2Hhqa+XFvpA8CgB+zVKuMvIjSTsg0Hd076kDly5fWXf193stv1/y9LLuZ72/v7+lbv3JmqptWy6WyUMAoPBH5SrTZkk6AYGLldt6ju0633D2Xsqj91Nuoz+f1luOH7p2sGr/0TL5CwBMz1Iukr1A0ga4fnpTza4bzd1X7XgqH+Rp/Vxrw5UzOzeuORLyyT0AsORL5SLzFwuQcj5/oPToqZr1x9e1dJyz77F88G/rRlt97Y21G7f2BQLMwQNYMEK5xuQxAqSWP1TSu3n7tbr6lnYjampHezAJb3S2DTT8cXBbcXlJ0CcAMtji+co1Pl8qQOoESosuruk5093W3mn8GUyXCHedbW0+VtXYVx4SABnr+eHKJVa+ki9Ayg6lFW87eKi1M2wY2o0MI9wZrjtWffpiRUgAZKTZ7yqXmLJMgFQI9TZuq/mjPWo6/al88Hk502g+WX34ZoVfAGSeT+YoV1jxZZ4kG+Dv27LtwOX6/j/n2N3PjPZfPX6s6vDFEgGQYca9pFwh62tJLqDk5q0DJ2vD92puae+wdDTy+8CZg1WV1/0CIIPMGD9JucCknwsliYDyyqq1uwfO9Ue1B1lmpL+r9vbBO0cCAiBjvJGlXGDEq/mSLMC+NQfPNLf++aLdq6KRqwM3rlVtKREAmaFgnnKBubPyJQkAf/DippPH6zvPRd0f88Gn5CLnWupO9JwuD/jE8wDkjx2hHO/l7/IESJQvULaq6nZ9a6dp6sxwf/uM0T5Qe2xrRSgg3gYgf8lc5XhZH+cLkJhQxdE9Z1rawzrzGJ1tzRdu9ZYFxMsA5L03TDncnLcKBEhEqKlx++62sGHoDGWEuxo2rLlY5BfPApC/NEs53IjpM2TIAH9vZfWZtuj9N9AZzTTqLq25WeQTAB5V8OUc5WwvzhJgiHwVlVW7WpwxA+eAKTnj+IU1q0ICwJNmTJ+oHG3FGzMFGJKSxuq1deciGn+tnTnX9kfNrV6fAPCgWfOVo322WIAh8K3as/ZKRz8P5/8QOTdwpuZwmQDwnLxFw5STjckRIG5F+4+db3lCzXn1frVu/cajfgHgMa+PVg4291cB4uMPFR/YXR+OmtT8yRvf25ovbysKCAAvyRmjHOyTQgHiEey7c7u73TA1nsoMt9TWHC3zCwDvGDdKOVb2GwLELlDe2FPbHn7wFIrBGF0Du9Y0hQSAV8yaphzr0yUCxKpk9a1rbWFDI1aG0Xl8Y2OFXwB4w7+ylUNNHiNAbHxFlRuvdMV9hRqMlpO3joQEgBcsnq8c6t3ZAsTCd3Hbhvr+IeUckau7t28pEwAe8OZk5UgrfhQgBsEt29e3R5hqT2Dqve7Smj4B4HqzRytHmvCTAIMq33/heGeEh/PEkt5ff3n7Rb8AcLe855Qjzc8V4Ol8FXd2NVyNaCTKjLTfqDkaFACu9sYzyoGyXxXgqQKrq28MmHw6T5JoR93a0yU+AeBehfOVA039QYAn84X2HahrTVrOYWlt3j+azgY5wM3GjFCOM/z9fAGexF/WeKm+w9BIctPDbefv9IUEgEstnKscJ+uFfAEez1d0eG2LYWgkn2F0XKnmZDrgVvnfDFMOs+KLHAEey3f98No2XrWnkHG8+miJAHCh/HFZymEmLpopwOOsvnOtNcU3o3LHqtncUxkSAO5T8PMcp43ELckX4FG9m3Z1cOo8DUnvr62pDAoAt5n54XDlKCs+yBXgEdf33G6LaKSBFT1Xe6EyIADcJf+HKcpRRs7OF+AfKvYcaonw8TxtolebLzUGBICr5L63QjnJ+OUCPMRftOlESzS9OWclbNe6S8VBAeAi+S9kKwdZ8a+ZAvxNoOLUjRZDpz3nfEvvqL9wMyQA3GPWF8pBPlsswP/4y9bsbjO0Ldg10zVQsyokANwib9EK5Rzf5Qr+hjUyd9tYI2Mfo7OZVTOAiyx9RznGhHEC/FfZadbI2M44XrUvIABcoeAD5RjTZgnwH8HTNesccO6cb+ld60/1+gSAG0wfqRxi+IcCPBA4eqD5nEnOnZD0SNflWxUCwAV++EU5xLuz5T5g9fbzV6MaDkn6ue6Th0MCwPnGzlHO8P4MEQHKNp1oY2m7k5hX6y4V+wWA0/062iEjcT+JAKHNu1qijjt4zqaZ5p5eAeBweZ8oR3iRkThBcNWG7jCz7U6cjms/fqfcJwAcbVGWcoCJbwoyXaC3ur7LIOfOZJy9XFkqAJxs4c/KAd75WJDhytec7zQ0HCvc2sM6WMDZPpisbDdp/AxBRgtt2dBqajha+HhVk08cC8CyKcp2IxdIJoP/yMbmfl62O386rn3X/jJxKgB5nyrbjV4iGQzl285EWSTjiqT311846heHAjA2W9ls8o+SueA/vXbgHI/n7mCZkfPVReJMAH54Sdls5K+SsdDU03zO1HDPNtjW24f94kQAZnwzTNlq0rxcyVAIrfmjncVwbtsGu+7gap84EICvs5Wthn81UzISfEcudXPy3H3MrvO3SsR5ABR8NknZKWthvmQiFG073smeV1cy2i6tCojTAMj77mVloznfFEgGQrBxZ4eh4U6G0XyqzyfOAiB/6Uhlo4lfz5TMg75NdYaGa1m6Y2djQJwFQMGncziEnlYIbtl51tRwddGN2qpecRQAef8apuzzZq5kGjRtr3X/bDuiV+9uDoqTAFg4V9km+wXJMAhu3nU2Qs89cYKtbsd1cRAABe8r23z6g2QWFFU3k3PPrJk5u+t0QJwDwPSXlV2+miGZBIGjl1t43e4Zlmk0V5eLYwBYOE/Z5KVfJZOgaE9d2CDn3mFp3Xq3OCAOASBnjLLJtFmSORBYda3N0PCYzuY75eIQAJaNVLYYvkAyB0q31ZqGhtcYRtulI35xBABLxitbjP5VMgX8F2taufbckyxtnt9bKo4A4Hlli7cKJEMguHc9i9u9yrIi9Tt6fQLAAZa9pGwwcoEgQ/RtX+fhw2qwzK7LjtgyA6BwmrLBvNclM6DxWrunh9th6WhtVakAsN+rE1X6fSIZAaE7569qeL7oA2uP+ASA3V54R6XdhK8FmaDp4IChLe1xsMzwja1+AWCzGc+ptJu3XLwPvsbbXWZm9BxGw/ZSAWCzD0eqNHv5R/E+lN6pC+vMAEsbHWsv+gWArZaOVmk2YZl4HXy9BzJrNxzME4eDAsBW0+ao9JqXI57H6/bLGfb1HJbZUFUkAOz0U5ZKq4ljxONQsqbZ0BkGlg5fsnXaHcDy0SqtsmaLt6F3R4upMw4sfe72Yb8AsM9bw1Qazfk5VzwNxWvPRi2NTHSudlOp2AbAR9kqjSY/nyfwsODhP66als5MMLpresUuAArfUWmUvTRf4F3lVXWMw2UuS5sdl4vFJgDyfhym0mbOswUC7+o72MrdahkufP5wQGwBYMav2Spthi3IE3iV/8iuDoLGkpn6TWViCwCFn09S6TJhocCrQptPdBoUDUZrT5PYAUDO8ytVuny5XOBRpafWaUBrS3fuXCU2AJA/e4RKkzmLZgq8qW/jQFQ/AFw9tNkv6Qdg1tsqTaYsFXjTxWOtf50+B4zabUFJOwA5Y1WaPDdL4EW+xjOdf50+Bywd7d5eJGkH4IXsdL1xF3hRYOv5iLb0fwGWFWm90CTpBuCHT1VaTJ0t8KDQqXXmwz0HLLNjbdovawGQN5Y37kOG0gMDj2yHAyzdceKoXwCk17IslQbDvhd4T9+GNkMDj7tQtfZwUACk1Q+/qDR45wWB1/hWn+zQjwcYDdtKBEA6zRij0mBaocBjfEcP8fn8KdBaXS4A0umjCSrlJr4q8Jjg5hPRJ/ccsMyWA00CII2W/KJSbuo4gbcE9x/vtyz9FKDoZy+tFgBp9H8q5b4oFHhKyZ7miKWfBrDM9surBED6vJGlUmzimwJPCVZ3x7DtFRTduF3sEwDpsvBnlWIvjRN4SfmFAcPSMQDH165U+gVAuvw4R6XW27kCDym/dFbHArC0rq0MCIA0eeMZlVIj3hR4SO+GNh0rwGheExIA6bHkc5VSE8YJvOPiZUPHDDB0952QAEiPb1aqVHq3UDyEnrNOBnGxzO5TJQIgLT7MVik0/H2BVwQad7FOBnGyovXbKwRAOiycq1Jo5DiBR/grb/TTc8TLirb2UHQgPcavVKkzulA8g54PcZ0MKHqRAEiDBdkqZYa9lSfwBF/l+XOWBuJnma095QIg9RY+o1Jm4kczxBvo+RVDOxkoOoCcX1aoVJk7S+AFgdP0fOhg6badTQIg1WZ+OFylyIq3cgUeEDxVZ+ihA4yOy00CIMXyF2arFBn2Rp54AT1vMHVCgK67vQIgxQp/nqRSY8JCcT+E7jRELZ0YoPPaagGQWjljV6rUGL9cPICer6PnSJilO0/uEwAplf/rCJUa3+cJ3P++PVk9B0VfLQBceUFL1myB+3uenPftgMVbdyDlcj9QKfHLEoHL+fevMyydLKDovQIglZa9rFJhbJ7A3XyVtYZOEsDSXZfKBUAKLX5XpcCIjwTsh8ND2DBTUyYAUmf5JyoF5r0ucHvPTZ1MgNFWUy4AUmeRSoH3cgVu5q88H9VJBrDXHUipX+eqpJv4hsDNfFuSf18qYGluUwVSadY0lXTvzha42c1D9BwpYJltG0MCIFXGqqSbVihwsYt3TQ2kgBVtOBUSACny72dUkq0cI3Cxi5dNbWkgBawIRQdS5/W3VZKN+rfAvYquGfQ8dSh6/f6AAEiJ/FdUks1fInCt8ksdLIhD6ljR2tN+AZAS32erpFrxvsDFPT+rgRSydG2lTwCkwsfvqqTKWiBwq9DGFg2kllF7RACkQu6zKqlGvy5wqVBVt6mBFOs8Q9GB1HhzokqmT2cI3Clwp960NJBq4du9AiAFPhqlkmjE8wJ3Cm49zkKZNIClz15okuQDsHyeSqJRLwjcqfFKWnoOWGZ7T6kkH4C3hqnk+bxA4Ea+4kOmTgvAig5Ul0rSAVg0UiXNy58IXOn6XRbEpRMLZm4FJNkALH5JJU32IoEbla3tSGPPAbNub0CSDMDMt1XSTFgicKHQgbMsiEsjWNo8f1SSDcB3E1WSzHkxR+A+wT0tOr2A8O59kmQAlo1USTL5+TyB6/jW1Ot0AzrX9klyAch9SSXJiF9nCFxnS23U0ukGdBwskqQCkPfcMJUc7xQKXGfVb1EN2KB1e1CSCcDMRRNVUqz4MVfgNk1rw9rSgA3qt0kyAchfnKWSYthPMwUuU1TTblo6/QBLR5s3SzIBKJg/SSXDyNcFLhOqaqXnsImlzUM3JYkA5H63QiXD27ME7uLfOkDPYRtLh49dl+QBMGP6yyoZ3swVuEtxMz2HjSzd2VMuyQNg4VyVBCumC9yl6TdDAzaydOumoCQNgOXjVRLMXSpwlfINXYYG7FW32S/JAiDnVZUEz80SuEmwuk0DNrP07puSNABmT1SJe3WmwE32d/MBHfazwtcqJFkALP5cJWzidHEZNr5qwAG6DoQkSQAs/0QlbN5SgYus3mVqSwMO0LLJL0kCYIFK2I+FAvcoOthBz+EUzYclSQC8NkEl6iuBq65A5wM6HMLSev1FSQ4Ai19UCZrwkcA1fJubTQ04hKW7DpZLUgDIfU8l6OfXBa5xcb2pAQdpqw5KUgD4fqVKzFu5Arco2qABRzHrDktSAFg2RSVk2PMCtwhWhS0NOIkVOXREkgHAwhdVQqZ8JHAJ3+F6QwNOK/qFckkCAHnvq4TMXyJwiSO7wxpwnPaqoCQBgO+zVSLeErhE+douDTiOpRsO+wVA4l57RyUge6zAHQJVraalAcexjBurBUDiln+hEvDSOIE7HG7WgDN1XSoVAIl7ZY4aunnLBS5Z4R7VlgYcqaXKLwAS9uFINWQrnhO4QmlN2LE9B8zaRgGQsF+nqiHLflXgBr47LaYGnGtXkwBIVMHPashGvSZwg6Pno5YGnKs9CXejA3hrpRqqd2YJXKBvbcTSgHNZ0YY1AiBRY7PVEK14VuACoaoODTia1f/bTQGQoBdGqSGa+LzA+Xxb1pmWBpzN5CZVIGEFo9UQjXxN4HwVZwxLA85mmS13ggIgMdOGqaGZWyBwvGBNlwYcz4o23xQAiflqhBqSleNzBE7n29+tARew9MkiAZCQ2VlqSCaPyRM4Xe8JQwOu0H4qIAASkTtFDcnEcTMEDhc62K4BdzDW3RQAicgZv1INxYTlAqdb08CEO1yj826FAEhA3tjhagjmPFsgcLiLZ6IacI22jQEBMHT5s0eoIVg5JkfgbKU9XdrSgFuYdZsFQAKWj1JDMGz6DIGz7a9nhztcxNL6WpEAGLqCX+ao+E1YKE7HC/eIBlzEMlurBMDQ5Ty/UsXv01kCRyvrMbSlARexose3CIAhy3/hZRW/DwoETuY7PMCEO1zG0tENFQJgyBZOUPH7KV/gZE1/aMBtLN1xyi8AhmrWpypu2bMFThbc3qkB94meLxYAQ1XwrYrbzwsFDubbMmBowH2sCBepAkM346c5Kl4/FgocrGhXWAOu1LbfLwCGaPZIFa8PZwicy1fdpgFXsvSJ1QJgiBbOU3HKXiZwsOJaDbiUdfVAUAAMTeErKk7vfixwrtDOsAbcymjY7BMAQ5L/oYrTl7MEzrWt27Q04Fbh9WUCYGimZ6v4fJcnqQEuWQNaqnwCYEhmj1ZxmbhI4FiBA+x8hbuZx28KgCFZMl7FZcoygWNVHo9qwNW6DgYFwFDkfaDi8vNSgVMVXeq3NOBmVnTdXgEwJN9PUvF4K0fgUP41LaYGXC5yrU8ADMWyKSoOk8YInGrfbxFLA66/GX1PQAAMwetvqzhkLRI4VGi7qQHXsyI3igXAEBRMU3EY/avAoW42aEt7ANBTJgCG4LtJKnYvzhI4U+kxw9KA+1lm92kBMAQLRqrYTRM4k29ri6E9AYjurBAA8Rs3VcVsxBiBM5X/FtYeAXTt9QuAuC2Zr2I24SeBI/mqW7VnALuvC4D4TVMxG71Y4Ej7rmjPAKyuqoAAiNuYiSpWb+cInMhX06G9AzDWHREAcfvXMypGK54TONKW5qilvQPouhQUAPGaPVXFKHuswIlKNmhvAeq3CIB45c5TMZqwTOBEWxuilvYSIHy3RADEa9ocFZu5PwgcqG9tVHsKYJn1awRAvN4coWIzb4bAgda0mJb2FsDcVSEA4vSvLBWTYd8IHGj1roj2GMAyWzYJgDgtnaJiMuIrgfP4t3Vq7wEit1cLgPjkf6ZiMvI1gfPsO+TJiTigvcovAOIzbZiKxahZAscJVkUs7T2AFdl9U1IBYFfcpM9zBI6zr1Z7FFAVFABx+TpbxWDYK3kCpwlWhy3tRYAVPX9EAMRlyTMqBsO/milwmt5mQ3sVsKNEAMQj5x0Vg4nLZggcJljTpT0KsMyGYgEQj5xnV8ayyX2WwGmONmgPA3pKBEAc8r6bHMNM3M+FAocJXOrQHgbUrxIAcZgxPYYx9xWf5AocprHO1B4GdNaEJHYA8n+IYcx95ZgcgbMEL3RpLwOM+psCIA6FL6lBDWMmznG2NHt8SRzQcTAgsQNQ8OwcNZishQJnCR4Ma48D1h2V2AHIGbNSDeazJeIsqKyNWBrwto4LAQEQs7x/DVODGb9c4CihGlMDXmc2NwqA2H08eNCfzxU47AE9A76gA50XAhIzAD9MVYP5aYY4CUp6Itr7gOjxLRIzALO+UIMYMVscBTdvZMYDOtAjMQNQ8L4axDuvi8NwD7oGMkHkxE0BEKu8D9UgflkicJIjV0wNZITwdr8AiNW4Yerp3i8UOOsB3dJAJrAiu28KgFh9/Ix6uq9mCByk6YoGMoW5xy8AYrRwnnqqYf8WOEhgW5cGMoQVWb9aAMRo1jfqqUa9IHCQit2GpYFM0bHNLwBiU/B/6ql+fl3gHL69bYYGMoUVvdwnAGL0hnqq52aJc6BkfVgDGaRjs09iA2DZSPU0/5cjzoG9AxrIIJY+WS6xATB7qnqar8Q5ENrZpYGM0n5UYgNg4YvqKUb+JM6BxnWmBjJK56WQxARA4VvqKeaOE8eAv6ZdA5nFqL8oMQEw4031FG+/Lo6BVVcilgYyS8cOv8QEwPcr1ZN9uVwcAxvbNZBxrjRJTAD8+xn1ZO+LY+D67YgGMk7rHokJgF9HqyeaPFYcA3daTEsDGedQmcQCwA9fqCfKWiROgfJjEQ1kHMusXyOxAFDwnHqiqePEKXC6LmppIAMd80ksAHygnmjeYnEIhA70ayATRY83SiwAvDpRPcmnheIQuHklqoGM1LVDYgHgjSz1JG+JQ8B3J6qBjGRFbq+WhACMuU/+QOAQ1+9GLA1kJLP1jgCIweJ56gmyFggc4nSrBjKU1b+hXAYHIO9Z9QRTpgucoexg1NJAhjIbTguAGLylnmD0UoEzHGnQQOaKbA/K4AC8OVE93s85AkcIbOrUQMayIof2yeAALMpSj/eFwBmKThgayGDmfhkcgI9Gqcca/q3AEXyn2wwNZLDosSIZFICF76rHyh4rcITgpS4NZLSWYnG0QMV1L+grDd0TFLhW7jz1WM98LXCE3joNZDTLrAqKkzUduHvNA9bW7Lhn+51btw5XNl5cXRQSuM2z6rFGzRY4gW9PqwYy3I0+cbJVf/we8YL+B37//feButozuzbUbN+0pvFIkU/gGj++rB5n6nKBE5TcNjSQ4doP+8TBVv0W0V5imWb0ft5/7xq4cujawY23jjYFBG4wNls9zmcCR2hcZ1oayGhWeEOIoKefpc1opL+/s/7Kb3cP7F8VEjjdv7LUY6wcL3CEmg4NZDqjoZeg28TS97Meaa+vPXTwVHGJ3ydwrtmjOLXmYBW/RTWQ8c5u8hN0ux/WjY6W+hM9eytCAYFDLZmrHmPEVwIn2NZtaiDjhc+ECLoTGB2t3Ws3rSoPCJwo/131GCOnCxzAdyGqNYCGYoLuEEa4s+XyqeKKgMB5nl2hHpW1VOAAq3ZHtAbQ3kPQHfVZve3aqcYKgdO8Mlk9alSuwAE2tZlaAzBPlBF0B7F09FzDsTvFJQJH+WqEesSkeTliP5Re6rc0AMts2EvQHcaMXL1Rs+a6wEG+zlaPWDktT+yHLbVRDeAe4xJBdxpLR/oHdlXfDAicYmmWesTLHxB0J9gT1QDusSInegm641ja7G89f+F0SOAMhRPUIyYumim2Q8WxfksDuMesX0PQncjS5zrr7m4t9wkcIOfzSY8GffoMgRPWvmoAD0QO+gi6Q5mdA7+tIelOkPPLCvVPIxbmC+zmPxXRDwCwIocuEnTnCrcf2lvhE5sh771h6p+eWS6wXcXOiP4PAGbbKScHHeGu23v7fAJb5T0//NFTa4UC2xV3awB/svoPljg56LB05+X91wV2mvHRRPUPc54tENgtcCdiaQB/iuy+6fCgI9px8nCRwD75s0eof1jxfq7YDUV3TQ3gL523CLrDWTrSzSE2W83KVv+w8tUcgd1WtWgAf7H6a8oIusNZ2jRqD+zzCWxS+I76h2Fv5AlsFjgVtjSAv0QP7SPoLkh65OyJU6UCexT+PEk97OWPBXYru21oAH/TdZigu2PVTPflyoDADrlvrVAPy14osNuRlr8HHYAV2VFC0F3BDNftqPAL0i/3238GffQSgc38m9r13wEw/+gl6C5htB86HBKkXd6iYeph8wi67UKXw/phACoJumsY3QdW+wRpNvPf/wz6c4UCm62u1wD+YXuIoLuFpSO7TgcFabb4ZfWwbwsENjvVqgH8w6Eigu4eVrSuuk+QXguz1MM4hm4739pODeAf2ooJuotYRtexRp8gnZa8qx7273yBvZqOm/phAKyuqgBBd5Vz57eVCNJo1i/qYS8IbLatWwP4p/D6EoLuJpY26g9cF6RP4TfqIaOWCmx2oUsD+Ceju5egu4qlzbN3ee2eRrnfqYdMfV1gr6JDUQ3gEW3bfG4LOkXvPL43KEiTnK/UQ178QWCvyuaoBvCIzrUBgu4yljYG9pQJ0mS6esj4JWIv7OjQjwGgroKgu4/RcaBJkB6/rlB/90qh2Aqhk/2WBvCo7sME3Y06764SpMXHz6i/ezNXbIWbuyP6MQC09xB0Vwr/tsUnSIPXp6q/+17shW0Dpn4cAGdKCLoLWTp8ZX9AkHoL31Z/95PYCoGeiH4MAJbZfJSgu5GlI+tuBQQpt+RZ9Tcjl4mt0HQ5YunHAGAOnCLormTpaENVmSDVCt9TfzPqBbEVTtdF9WMBMI8RdHeyrGjrdoqecrlvqr/5bKnYCqci+rEAWJFDfQTdpSyztbpUkGIL1N/MXyx2QmlNv6UfC0C07jBBdytLt1WXCVLra/U3X84SO+HIHxEN4Ak6thN09zLadhQJUmpZtvqfTwrFTjjdogE8gdV/LEjQXay9p0yQSq9NUP/zQZ7YCP5N/ZYG8ASRQxcJuntZuoXJuNSa/Y76n1fFTii6ENEAniS6bitBdzHLpOiptXi++suc78VO2HfD1ACeyKwi6G5mRSl6Sv3wi/pL9k9iJzR2aABPZPVfKCXoLi96VYkgVZa/pf6S9W+xEYKbIpYG8ESRQ0cIusuLXs8W2NQp+FH9ZfRssRHKN5gawJOZ3ZsJurtZZgM3taTOWPWXzz8WG6HpuH4aAP2bCLq7WVo3N/oEqfGV+ssXC8VGONqpnwZA5GA5QXc74/xNQWosmqj+a/wssQ8Cm8L6aQBEf7vo+qCj81qTICW+zlL/9U2B2AclFwwN4KlaG90fdHRcqBCkwvRR6r++FRuhvNbQAJ7G6l/j+qDD0m3bg4IUmP2u+q/vxEa42aYBPF2kp9T9QYdZf0uQArM/U3+a+JXYB/5t7RrA05mHmlwfdFjaPF4pSL4fPlV/yv5e7IPAwS49CAADRwi6J4p+eZ8g6WaNV3/KekPsg9Bvhh4MgK0+9wcdljZS8PEEBc+pP81dJvZBb4MeFIDtIYLuAZZ5dptfkGzfqj+985rYB5sH9KAAXCsn6J5g1jYKku2Dvza/vi62gW97mx4UgOY+gu4Jlnn5uiDJxg5X/zF/idgGvrthPRgAVscqgu4NVjjpn0/wfbb6jy+Wi21Qdjxq6cEA6NoWIOjeYDQc9gmSalGW+o8vxT4orjP1oAB01gQJukeEf2sSJNX0l9R/TBP7YE23HhwA448Sgu4VXUn+7wzjpqoHJr0i9sHGNj04AEZ9BUH3jIa9kgosc5/4ptgHl6M6BgBaGgm6Z5iHVguS6Ie31QMjxohtUHEiYunBATi7x0/QPcLSXT0+QfIsma8eGPmV2AZHa6M6BgC6LgQIumdEmzcLkqfgU/XAqK/FNrhVb+oYAAifIejeYfWfrBAkzzT1wAQbg44dXToWAMy6IoLuIW2bfIJkB33uC2IX+Hb2WzoWAOorCbp3WJE/VgmS5r0V6r53F4tdULEromMCoOUOQfeUHSWCZBkzQt032r6go/hGRMcEQPsBgu4hllnXKEiWMRPVffNyxS7Yui6qYwLAXE/QPcW8VC5IkgVZ6r75Yhvs6dAxAWBFz5cRdA+xdNtmnyA5vh6l7ntRbIMD/To2AKLHjxB0L7GM20WSHPj3f4I+XmCX8p0EHYiVWb+XoHuK0bbfL0iKcXPVPcPfE7tgdexD7gBa9ngt6CwLKhckxeLR6p7J74tdcPRKVMcIQGcNQfeY1luCJAZ94gdiF+xtMXVsAFiRy36C7i3G+nJBMiz5TN2T/aHYBXciOlYAImeKCLqnWObAHUEyzHhb3TNygdgEwR2xL34FEL1ylKB7DYPuSTLf3qCj/GC/jhUAc91egs4jOp4c9Gc+Epug93JExwqA2bKJoHtN9HKFIAm+nKSUmjJbbILieIbcAUQPEHSPsaLJee2C9yffD/rHYhNsaTB1zAD0XyDonhO5VCpI3PvD7wd9qdgEe+OZiQMQuVtB0L0m2nxaEodv7wd96iyBPXyn+nU8AM6t7SPonhPZGJSE4flspdRogU1KdkR0PACuZ9lC0L3GiuxeJQnDopEE3U5FlyIaQOzMhq0E3XvMU35JFBYQdFs1XY7qOADo2kTQPceKrO2TZCDoK58V2GTfeVPHAUB/NUH3oLYtkigsm6DUsOcENilu1XEAYPXXBAm651jRAyWSIHw85V7Qpwls0hjR8QDQf6mcoHvQ8SZxM4IO/5qojgeAyO19BN2DOg/7JHEEffgrAnsE98QXdACREzcJugcZO0skMVg4V6kRrwrsUdpj6ngAMNdVEnQPMhqaJEEYfS/oYwX2KF8bX9ABmC2HCboXtd/yi3sRdPQd0gDi03+LoHtR57WguBdBR1OtBhAX6/dNBN2T1vUKEg76yOkCe6xu1wDi078jRNC9qPWUT5CQT+eorBcE9rjZaWkAcemvKSPoXhS+GxAkZNowlfWawBb+rWENID6Rk9cJuheZtasFBN29e2UIOhCvyK5egu5J3fvFrQg6gtsJOhAvs/YmQfekroOCRIP+zOsCW4R6CDoQL3NdMUH3IivyR7kgEe8NV6NyBbYo2WloAHHqrCTonhSt3SJIxKsjCLptSm8TdCBeVv9pgu5NrdWCRIwl6PYpv0HQgbhFbvkIuidFjgXEnQg6igYIOhC3yJ4gQfciK3JotbgTQUdFqwYQr0gVQfemaG2lILFv6PNyBLY42qYBxCtSU0bQPcls2yRIwIJs9SxBt4evkqAD8YteKiLo3tRf4xcM3WtZBN0uvs0EHYhfdG0FQfemyLU+cSOCDv+pdg0gXuaJJoLuTZHzR8WNCDoC1R0aQLzM870E3ZvM7q3iRgQdgSqCDsTPPL6aoHtUdJO4EUFH8EKXBhC3tlUE3Zus/gNBQSJBf46g2yN4slMDiJcVvUnQPSpyrUkwZB8/o8bkiWsQdAAmQfeq6IlVgiErGKWeJ+j2CK4PawBxMzcTdI8y1zUKhiyXoNsmtE4DiJ95K0DQPap/v7gQQUeoQf8PAIKO/k1+cTmCTtABEHREDpSI+xB09NVrAPEzq4ME3aMiG4oEBN19irs1gCGoKSHoHhU91Csg6O5zlKADQ9JD0L3KPH5RQNDd/oQOgKCj46gkgKCPJeg8oQMOwCt3WJFGwVDlTlHjZogdcHpAAxiCy+UE3asiewVDlTNfvUDQbeE71aoBDMGhIoLuVdE7AcEQ5TxL0Ak64AwEHdGqkICgE3TA5Qg6zINlYjeCDoIOEHQQdIJO0AEQdJgniwQEnaADLkfQYf7RJyDoBB3IEOv6CLpnnSDoBN19fDUdGsAQtDcRdIIOgu4cvgsEHSDoeNhugk7QCTrgfgQd9b0Cgk7QAbcj6AjvE9sRdBB0gKCDoBN0gg6AoNuPoBN0EHSAoHsfQSfoIOgAQQdBJ+gEHQBBJ+gg6AQd+H/27vwv6mp/4PhB3NrMLMHdElGpvmm29za1m7nc6mpGps0COsNioCAoKogLwzZnIAzcEHPm83FFRe2q5NIf982ut6ulMgMz81nm9fyt9Ce31+Oczznvkx4EHQSdoBN0AAQdpguCTtAJOgCCjg7nB52gE3QABB213QKCTtAB6xF08DgLQSfoAAi69Qg6QQdBBwg6CDpBJ+gACDqMC+XicASdoAMg6DCulonTEHR4Klv0MABouUnQ3co4XipOQ9DhOdeshwHAr0UE3a1i20oEBJ2gAxniBEF3rViFXxyOoBN0AAQdsXs+gcODTtABEHREewUODzpBB0DQYfbXCxwedIIOgKDDqLktcF7Q0RvSAIbhUJlLgw7j+oDAeUFHX6cGMAzHS1wadMQONQhGEPSJ88UK2DysoAPoCro06IieKhcMV9549UK+wPKgAyDo6N8fEAzX3HHqeScFnS13ANtcGnSY/bu9AucFHQM1GsAw1AVcGnSEe8WBCDoCtTpxAIw7PncGHUZ1vTgcQSfoAAg6oj+fFBB0gg5kCqPRpUFH9GC5OBBBR+ByWCcMgHHU686go/+AXxyIoMP/W7tOGACjT9wZdMTOiRMRdPjPJh50AKZx251Bh1HTKxhR0F+yJujwHyTowDCEi90ZdERPFAuGb/VkNSlPrABfXZtOGIAdA64MOsz+7UWC4XtxjHrGmqDDV5l40AEYl7vdGXREuzyC4XvNsqDDV9GqEwXA+NGdQYfRfE4ciaDDezTxoAOI/dbjyqAjVnVeHImgw7O1RScKQOxqkRuDDjO686Y4EkGHpz7xoAOI7XJn0BG9Khhh0F+2KOjoadaJAhDdH3Bj0GGEDstI4NXR6pW5AksUhcI6QQCih/0E3Y1iVX0yEliRo8YRdIuUVSccdADRe16C7kaxCyUyEnghm6BbpuRuokEHYPbvEYLuRh3HxakIOkquJRx0AMZWgu5KnT+IUxF0BI4nGnQARk0fQXcj43SDjAhmZ6vJCwSWCByL6MQAMKpuE3Q3aj/rkRHBc7lqbIHAEr5ziQYdQPTCEYLuRs3nRhh0LJ2mxrwmsIT3p0SDDiB64yZBd6OaLTIymJlF0K3Tl2jQAUSvFhF0F2o/6xfnIug40q4TA6D/WJCgu1Bro1dGBs/+HvQJAmt0d+rEAOiv9BF09wl3dssI4bMslfO6wBo9v+qEADD/3SgE3XXM8K6gjBA+VSr7BYE1in4zdEIARI4SdBdq3+eVEcJ4gm6h0uOJBR2AsWMrQXehqgZJBoI+W2CNwP6YBpCI2OU+1wUdZvRAUJCMoD8vsIbvHkEHEhPdOeC+oCO0VzBShW8pNW2pWATnozoRAPoPlrsu6Ije6JGRwpzpSmXNFIugL6YTAaD/Sonrgo5oEsa+4uP7QX9WLIKTVYZOBMCttf1C0F3GjN26LSOGjy1doaP7REwnAEC0gqC7TvSAX0YMBeOUUv8nFkH5waiOHwCj8yhBdxkz1nReRg7rxyilxotFULotquMHINa0h6C7TfRUkYwcPhxtZdDhq+jX8QMQ/bWYoLuLaQw2SrIQ9LfyxSL44d+mjhuA6KGbBP1x+D3FV/eD/soSsQi2hgwdNwD9p/wE3V2Mwd2SDPgyVyk1/WOxCDafjul4ATD7jwtBdxUz+mODJAPem2Zp0LHlblTHDUBLBUF3meb9khR4d5RSalyBWATlp6I6XgCM2qME3V2M0w2SFJg1TSk1+hOxCAJd/aaOE4BY1V6C7i4t+z2SFHhZ/W70h2IV7O7X8QIQPbOFoLtKuOqmJAfeUdau0HGnTccJgBm9GyTobhJurfBJEhH0nBfEKtjaFNNxAmDsEoLuImb4RI8kBzZ8qn437T2xCopPRHWcALTUEXRX6fjBK8mBlePV70a9K1ZBz9mojg8Ao7ORoLuIaVwrl6Qi6FlLxSrwbYv3mDsAo6meoLtJ8x5BshTMUPctE1imMqLjAyB2vYGgu0j0eJkgWb4Zp+57R2CZxkFDxwVA7GcvQXfTO+h7BUnzOUG3XP31mI4LgLZtQtDdwtS6LiBImvWT1X3LVwusciTeY+4AmisIumuY0RMnBcnzXLa6b/xKgVUCZ+M8FQegs5egu4VpDJ4TJNFzueq+t9YILNMVZ88B7NjinqCz4X6qVJBEX45S901/VWCZc3GeigNwOUDQ3cJI8js7WKr+MO5zgWV6q+MKOoD27T6C7hbNlR5BMs1Ufxg7UWCZgcsxHQcArfu9BN0lIneLBEn1mfpD9gsCy3jvRnUcADSf9xB0l+jcKkiqBS+rP+Q+J7DO8Q4dBwCDDULQXSHcUuEXJNXqd9QfRr0hsM7hkB4agPCtEoLuDuEbZYLkWvKt+o9nBdbZU2voIQGI7AoQdDcwjarNgiSbMEP9x0yBdRqqDFMPBUBHhY+gu4Cpm+/5BakK+jN5Ast4TughATDb9noIuitcKRKk5LG1+/5vncAynq5WPSQAg93i/KDD7N85IEi6D3LUf7yzWmCdOyE9JAA7iwi6Kx5N3SNIvq/+G/TxBQLrbO7UQwLQFXR80GEaIW6spcQb6oFFEwTWKakK6yEAMH7wOj/oaD1eJkiBl9QD0z8SWMd/o10PAUBkszg+6Ajf7Rakwiz1QM5XAuv4Klo1gKczbnUTdOe73idIhbWfqQdyPhDrwFPfogE8XexKGUF3unD1UY8gFRY8ox7Iel4shKKasAbwNGb/YT9BdzYzHDrsFaTEnP9T//WSWAgl1wg6MIS280LQHc3U4a4SQWoULFf/9fU8sQ78+yMawNPEThcTdKc7VSRIkddmqP/6bK1YB56tEVMDeIro2R6C7mhm/9luQap8M1b916QFYiFs6dTAU1GD/X6C7mRm9MJtQcqsz1H/tXiNWAjlhwwN4CnajgpBd7LYiT6PIGVWqD+9XSAWQrAuZmoATxS73kfQncvUxuleQQrNVn96ZYJYCb2GBvC07689BN3BPddNP3gEqZP/pfrTmG/ESijeQdGBp+g/4CXozhWm5ylW+LX6U/ZEsRJ6fotpAE9ihBqFoDu554KUWvCs+p/ZYiUE6vpNDeAJopf7CLpTmeGqVD+Uh5XvqP95XiyFfW0awBOY/TeKCLpDmbGqoz5Baq1ZrP7n3bliJdy+HNMAnsDoEoLu3J77BSn2/Svqf5ZuECuh/FRUPx4Ao+YHgu7UnjfR8zSYMEb9z7IlYiV4Kvv14wGI3jpJ0J3JuNXrE6Tc5+oh384RS+GnkKEfC0D0Nz9Bd6YTfV5B6q1XD1lUIJbCyRNRUz8OgJb9QtCdqONQnyAN8l9QD5k8QSyFwPF+/TgAjB17CLoDhVvONgjSofB99ZBpH4m1UNGhHwdA7FYZQXccM9zc1SNIiwX/VA+bKNbC+aqYfgwA7buEoDuNGa2tCwrSY/Uy9bDZ+WIplB/iI/pjAaFGgu4wpu6/fCcgSJOVy9XDvpwr1sK2sH4MADu2EHSn9Tx2d69PkC5rFqmHPbtArIXGGkP/DYDwBT9Bd1jPW3cNeARpU5CrHvbdarEWun+M6b8B0LrfS9CdpaayTJBGL6pHLF8pFsNZ/XcAQn1C0B0k3H55X0CQRvkfqEe8skYshsMhDeCvwrdKCLpjmDocOlvsFaRT3gvqETkFYjH0VRumfhSA9m1+gu6g03DVlUFBehXOUo+aIBZD4EJYPwqA2bHHQ9Adk/OLF7Z6BWm2dpJ61CfzxVrw7G/RAP6iukcIukN6Hq0+1iBIu9Wfqkc9N1cshvpBDeAvjpcQdGcwOg71BgTpt26RetTXG8RiKL0V1g8DYMb2eQi6I8Q6928RK2BJtnrUdwvEYvDVtelHAGgaEIJuf6bu2H4+KFbAqu+z1KOWrxaLwbO3JawfAiB2tYyg2184UrW7R6yB+ROz1KNeWSdWQ9Fpgv4IINroJej2ZmodGTw+4BPLcA19k3rUqDliNQS6IqYG8CejerMQdJsLN+/cExDLYO6sjepRWf+aJxaDZ2ubBvAns/9qEUG3t1jrmd1lYiEUPrNQPSrrw3yB1W5e1/8DwDgn9g06TH2p49aBmwJLbfh0qnrUpjfyBFYLHoiZGsADsdP1dg46g+Hafzxw2yOw1trJ6i82vjlXYDn23IFHdtzL7Bt0ch6pOrbZJ7DYqjnZ6i8WvlwosNyWMzEN4IH2w2JTBN0IX6/sCwosN+9fueovpr61QWC5YF3U1H8AELteT9BtKlJVWRwQG8D8D0apvxq9QGC93hb9HwD6D5YQdBsKR9p+bTwSEFtA/hvT1F9lfz9PYLmBEyzRgQcuVortEPRwW+dvveU+sQnkz8xSf5X7zTyB5fwHohrA78zY9T6CbjNGJFS17XbQI7aBvJcXqr8a9UK+wHq9tYYG8DvjbICg2+pY+6WLTdfulXvFTjB3nPqbrHfzBda7+Vu/qQFoo/OeEHT71Lz/l+qdB+oDYjNYN1b9zcKX88QGUBfWALQZO32EoNtELHppx7VjvUViP5gwWv3deFsEHeerYhqAbj/lJei2WJtH+6tu1PX2eMSO8EmO+ruxC8QGUMqeO3Df4E9C0K1l3l+bt16/sru+wSs2hS9z1d+NKRA7QEXI0ABOFxF0i2uu25sOVuwpLvKIfeHNKervcl4XO8Dm6+y5A7qty0vQrRKOtHe0VZ2t3HqkyC/2hv9Tj5H9gtgBvKciOuMBoT5JP4JuRNpbm0M7Dh2/d7K81C+2h/nj1WNk/VNsAXc6DZ3hgMjOEnsHvd9wjdh9l9paQ4M1O5ouHKw82lcS9PvEEbBmunqMhcvEFlB0maBnOpgd53xiYwO/1dS6xY7Tp0/f+vnnK127f9h7pMTn83rEOTBhsnqct/LEDuDpatUZDtjRLXZWsvenfW6x58iRI6XiUFiRox5n0RKxBfQN6owGmMa2oAwJwEu56nEmTxBbQHBnRGc0oHWPR4YE4LOp6nHGvC62AG9jq85kgLHzpgwNwP+px8r9UuwBDdVhnbkAM3rYL0MCsHq5eqyFM8UeEOiK6MwFGFWbZWgAvp+hHu9lsQn0terMBUS3lcnQAHw+Tj3e8tViDyg6a5g6QwFGaJ8AiMNz2erxZhSIPcB7R2cqwIxe6xYAcfgiSz3e5IliExg4zRI9YyG83yMA4jBJPUHOCrEJBOqiOiMBZvR6vQCIw+p31BNsfFfsAntrDZ2RgNjVgACIQ8Hb6kkmzRObQNGuflNnIMCoPSoA4vHNdPUkLy8Qu8APIUNnHsCM3i0TAPH4cLR6krcLxC5w5G5UZyAgVCEA4vKleqLpH4ltoLJNZx7AuL5FAMQjf6l6opwPxDbQdzlq6kwDtHZ5BEA8FjyjnuxLsQ14rhg64wC19QKMDIfc71uaL7aBPdUxU2cWoP2gTwDE5V/T1ZMtWye2geBvOsMA4dB5jwCIy+u56smWF4h9oHGQ+a8ZBpFDJQIgPs+rpxj3qtgHis7ojAKYHUe9AiAuc99VTzHlQ7EPeHY364wCXCgXAPFZ9516mufFRnCzKqwzCbDbLwDi8/Hb6mlmFYp9wLe/laJnDpjG5SMCIE6vjVNPs2yJ2Ai6qwl6BkFsf0AAxGm9eqrla8RGEOiKmDozAKZR3ScA4jR/hXqq0f8SO8HtGp0pgNixoACIU+G76uleFztB8BgD3TMEzFjTXgEQr3XvqKd7Pl/sBPUhnRmA6PESARCvNYvU0725VuwERVdZomcEmLEd+wRA3Apy1dMtXiK2gj2dhs4AQGxXiQCI17z1agjj1ojdsETXgPvFqvcJgLjN/VINYeOLYi/YV8sTLRkA0WsBARC3Df9UQ1mRJ7aCslNRDbicaXQ2CoD4rR6vhvJFodgL7oVYosP9LpQKgPitzFFDWbZA7AU916IacLnQHQEQv1WvZamhvLJObAbnBlmiw+UiJ0oFQPzyZm9SQ8n9WGwGRTsNDbhay1GPAIhf4cyFaihZE/PFdliia1MD7hXZWSYJALBh8VQ1lI3vzxWbQdmhiAbcy2zb55UEAFg7Vg1p4XeFYjfoHdSAi50tkgQAmDchVw1txgaxGwTPtmvApUwd2iqJAJA/e5QaWs7KVWIz8GwNhTXgUrErZZIIAPnvZamh5a6fJ3aDku1hUwNuZBqD5yUhAPLeWaiGNuX9fLEhlugacKfolSJJCIC1k1UcNn2WJ7aD0uO8iw5XMmO1eyQxAF4breLxlh2Djs07DA24kNEVlMQAWJGt4jF2pdgPgsf6TQ24jRk9vVcSBGDWNBWPnIliQ+g7HaPocJ+OYz5JEIDFKi65X4oNwb9fA64Tu1UsCQKwbpGKy6ZJYke4fSaqAZdpqZNEAXh1sorP+HyxIxxu4RlVuIzxY4MkCsDsHBWfcQViR+i+G9OAq4TOScIALM1S8Rn9idgS7g2yRIerRA6VSaIAzP9WxSn3fbEllN4Ia8BFQr0eSRSAleNVvCaJPeF8LUt0uIcZORiUhAH4aJyK16drxZbgP96mAdeo3SwpA3Am7r5Fr4k9YaBaAy5hGnUBSRyApSpuoz8Qe4KvojWsAVcwbg1I4gAULlNx2/SF2BTKz/AwOlzB1PqeTxIHoGC8it+k+WJP8P7Uoik63CB29qYMA4D1k1X8vl0iNoWig4YG3PAM+j4ZDgAvjFLxm/6R2BXqd3B1DW6wrUSGA8AslYDc2WJXCNYZ2uEAM3q5T4YDwJJ/qER8IbaFgRNRUzsZYBotlTIsAF6boRLxzAKxLTSGnL7pDhxqkGEB8Hq2SsTbBWJbKD9laCcDDE7EDRvwnErI2G/EvrCnKqYdDGi76pdhAbDhTZWYFWJf8B646OTL6EDTgAwPgDmLVWK+3iD2he4ThnYsoHm3VwAMz2uTVWJeXimwsTud2qEAM3KoRAAM0+sqQeNeFNhY4FSHdiTA1LX1HgEwPIVfqARlrRfYWXFVWDsTsD8gAIZp9TKVqOfyBDbm3d3ixKIDZuxCgwAYrjXTVaI+WyCws7IbDnxHFTCNwZ88AmC4/jVFJWrGGoGdefp2aAcCukoFwHDlzVYJy/peYGv+Cu04QPREsQAYtg0zVeJW5Ats7ebZmHYUwDQ67wiA4Vs3QyXunxsE9ra1xlGPtACmNnaVCoDhWzNKJW75aoG9BeraHTUBFjBu9QmA4cv/KkslLnuNwOa2HIppxwBMI7RbAIzA3H9uVInL+jBfYHM/7Yia2imAju0lAmAENoyfqhK38eu5ApvzH7vIZ3THQPh0sQAYgVUrc9QwTP10g8Duug9FtEMAF+95BMAIzP8kVw3H6JWrBHa3dYczluiAGeGEOzBC+Uuz1HDkvj5fYHe+/c3aEYAfBwTAiOQtnqqGY8oX+QLbK3PCpjtg6tA+rwAYkSWT1bAs/DZPYHue+hoHvNICeh5hhjswYhNz1PCMXSewP//uFsbLwO7M6N0jAmCEZo1Sw5MzURwAZac4FwebM2O1vQJghPIXq2Ea9Z44AW7fYrwMbM00WvYHBMAIzZmuhuvbfHEAeI922nqNDhg3bgqAkXp9jBquRUvECVDaFdaAbZnRqr0CYMReylXDNfZzcQgGxrHpDtsyjcFzHgEwUvP+oYYt9yVxBvQ2xTRgU21XgwJgxOaMV8P3D3EGeCtDhgZsKXyrQQCM3MSxavjGzxFnQPBghNvosCMzXLPXIwBG7v1pavgmTxSHQPGtsAZsx9QXK/0CYOTynlEjMOV9cQr8VEPRYcegby8VAEnw8XI1Es/ki0PAV9dG0WE3ZvTXk2IxgE/o971dIE6BsoO80gKbMWM7er0CIBnemKpGYvSH4hgoPsPAONiKqVsrAwIgGdZOUiPzkjgGvL2dnHSHrRi7ygVAUnw/Xo3MMwvEMeA/3KEB+4idKBYAyfF6thqZ8d+Lc6DseMw2a3TAqOoVAMkx/0s1Qjmvi4Og+K5B0WEPpg5VegRAcqyepEbqjVXiINhTZZM1OtCxKyAAkqRghhqpZ1aLg8Cze9DQgA1E7vYIgGRZP0qN1PQXxUkQ7Lpo/RIdMMOnNwuAZCl8X43YponiKLh5o0NbDDB151GvAEiWdS+rkXu/UBwFxT9GtMWA9v0BAZA0H49VI/ePdeIo8JzfEdZWAszotjIBkDTz1k9VIze6QJwFvsaQthIQu9EtAJKncJZKhk/mi7Og9Fg7B+MsA1PHLtcLgCRavVwlw9cbxGHQczVsWdEBo+YHAZBMa0apZJixTpwGJ3cyMc4iMI1QhVcAJFHe7E0qGbIKxHGw9XrUmqCDnl/sKhEAyVQ4aaFKhk0v5InTwPNDrSVFBzoO9giAZFq1erpKioXLCsVx4KsIGekvOhC5MCAAkmreq7kqOcYuWSWOg9KuFj6jpxvMcFO9AEiu/PenqOTIXT9fnAflu9p0WgGmrt7nFQDJlffpVJUcWbPyxYFw5ER7WKcT0HzOLwCSbM5YlSzj54oTofhMGoMOmDpSERQAybYiWyXLmAJxInjPV3MwLo3oefu2IgGQbKtmZqlkyX1eHAnefYOxdBUd9Dx86qYASLq1M1TSbPxunjgSArs701V0sN9+t1gAJN9HY1XyLFotzoTg/otp2XUHPTd+rBcAKfDFKJU8Y14Xh0LPtuY0FB0IX98jAFJg7ssqiaZ8LU6F8oMRBswg9WqOCoBUKJihkunbDeJUGLjWroHUCg82+gVAKqzIUcm06DVxMAbMRDSQUq30HEiVZ1VSZT8vzoW+02ENpIyp2+qCAiAllixWyTUpXxwL3nqKjpT2/ECZAEiN9ZNVcr1dIM4F794qrqMjRUyDAXFACr2xSSXX6A/FweC/syNK0ZGannds3yIAUmTBMyrZvhAng7+xmqIjJT1v235EAKTKhEUq2ZatEydDgKIjBUzdcYOeAyn0wSaVbOM+EkeDvyLEyDgkXfjn2wIgZQq/Vsn3vDgbyg5QdCRb5Mc+AZA6Hy9XyTdzgTgbSg+ENJBMkVubBUAKfZSrkm9GgTgcSo6FwhpIEvN+zz0CIHUK31epMFGcDsHfi25qIDk9D/+4WQCk0rp3VCp8vUGcj6LzHR3J63mfAEip73NUKoyfI46HEk7GIVk9P1MvAFIqb4VKidwJ4gqcjGMKrBvRc4AxcfF7v1CcD2XOKDroOYA1o1VqfLpafgfuowMReg6kXv4nWSo1sgtWSVqAooN5MgAKZy5UqbHp+TxJCzBhBsyTAbBgrEqRhcsKxS2YMKMB5skAtjbv81yVKjlzVkkagAkzYJ4MgPw3s1SqjJqdL25B0Qc5645h9dzg+3l6ABsWqZTZuCxPXALByh0Jv48OmEbbzj5JBwDf5KjUGbdO3AL+xuqEiw563rH9iKQFgK+nqdTJ/kBcA4H7RU8g6YCp09ZzABuWqxTa+J24BwI/VBk6gaIDHafS1XMA34xVqbRoibgH/FsvGzpuQOuBBkkTAO+OUqk0+kNxEXj2Xg/r+ADh1roySRMAhf+nUmrjs+Im8Nbv7IjvQjowWFEq6QJgwisqtZavEzeBp/tQG9/R48H1887GgKQNgPdHqdQa85W4C7q3t/BUC4YeD1fd6Je0AbBhmUq1peIyKNrWzNA4DNHz2PU9kkYAXn1FpdrileIyKKqribLtjqdePz9xXtIJwHObVKqNnShug+DhWi6kPwU9/+W325JOADbMVKn3krgOgkerYhQdT9JxfEDSCsCLb6nU+8c6cR14t56JaOAxTN18rFzSC8CKTSr1xnwu7gNP8d2OsP4bINx8uFTSC8CCf6p0eGO+uBAaTrXqvwHX1Zp+8kuaASiYodLhH0vEjVB0oFnzIR2P9jxyZo9X0g3Ahyotcl4VV0JpRS1H4/Do6+fXNos7Aey43/dcnrgSfEerwhQdfzJarnRL+gFYM12lxzvrxKWwdWcHc2DxQLimrkTSD8D8T1SaZE8Qt8LJqxcNrTVgXqq6FxALAFg7U6XLc3PFrdBzIKQBU0d3chzOIsDKsSpdFq8W10LpvaYwu+70vH1XsUesACD/w00qXXJfXCWuBf/WX8M6w6HzQI9YA0DhpIUqXTa+kSfuBc/J7e2ZfSMdTfeCYg0Aq5aMVukzY4G4GXqOhTL4/hoiZ857xSIA8p8fpdIn96N54mYoOVcVydCiI9yy/aRYBsDcxVNV+mT9M19cDd7zd38xdCbitlrtsTKxDoCCMSqdFq0V1+NGenNYZx5uq/3YGBALAfgyV6VTznpxO5RW7Lhk6kwC02j/rc8rlgLYcVdplTVTXA++fSeifEjPJGZssKtBLAVgwmSVXjOWiOvBe/sqR+Myaru9qrFErAVg1jSVXjkrJAOgqKJGZwp0HOrzi7UALFis0u0ZyQTw994K60yA8OC2HrEagPWTVbq99bFkAni7d4Vcn3SYuuM0p9sBO3hvk0q3nBckMyBY2cTYOLfnPBa6sdknlgOwcrFKv2WFkhng3XO31XB10TkNt2N/uQCwgQ9Hq/SbMUEyBbq7al17gQ2m0XFin18A2ED+LGWBUc9JxkDwzq9hty7SWZ4PbhsQALZQsFxZ4bvVkjHgLb7aHDNdmHRErt8rEwD28NU0ZYXJH0kGQVFjlaFdBx2nbvsEgD1sWKqs8dw8ySDw9/3WGg5rN0GkenePALCLF6cra3w7RzIKiiqq2zkb5xqm1h1nmQ0H2Mi8D5RFsr8RZNoi/dpFg6S7peeRmrpysQ8ACz5TVvmiUJBhyo/VRNyRdGbJtO7c4xMANvJ9jrLK+DmSaeDvvdsSc3zRYVyqPtYjAOxk7vPKMlnr50nGQff+qrB2NJiXLl7b5xVbAbD6bWWdmWsl88B3/myroZ2MWTLXKxvEXgDMmzBKWWfsx5KJ0HC46RLb7k5lGm0H9/oEgM3MXbpRWWfT7DxBJvLXX+lwbNFZnnP3HLChVavHKQtNXb5BkJnK7lzWYe00COvmXbf9AsB25n84Slkp+8V5gszkHTgeCmtnQbjt8g8lAsCG5r68UFkpa2m+IFP5e8+0hrWTMEqmdlu3TwDYUcEYZa1FCwQZy1NeVxVx0KuqvJN6aK9fANjTS6OUtbI/EGQwT9/ZmqgzTscxGa7j+uEiAWBThW8ri238Lk+QyUrunbhI0p3Q8x3Hiz0CwK4mjlFWG1cgyGieLXVNUfbdbS568ey+oACwr5kbldVy3xdkuMDW44Ms0m3t0uXdNwWAjc0Zr6z3LVfRUbZvZ4eGPZna6Ky77RUAdvZctrLe5ImCjOdpuNfUHtawoXDLqfqAALC1wu+UDUx9c56AovuOdHW2azbe7SbccaK3zCMA7O2bccoO3v5YRIBA39lQxCDpdhJuq6oo8ggAm5v3xVRlB9kr5D4g+NNOpsHahqnD7U1dW7wCwPbWfKvsYdJa+QNQvvvXthiLdDswjVj1rnqPOACAT3KUPUz+SIAHTtbdCtsg6eS8v+bgT0FxAgAb3lR28WW+AA94+7pOM2jG8rHtod/ulIozAHhtnLKLb+fInwB/fdeOfhbpFor9cuFejzgEgPwXlG2Mel0eAgS3Xgmx726Z9jO7j3jFKQCse0fZx7ML5GFA2d6rzZGwTjuE22+d2+IXxwCw6qNRyj7GFsijgNL6U6H0T5oh59d3N/jFQQBsWKrs5Lm58hdAsH77YEcaJ83AaKvuctpmO4A545SdLF8nfwMEtp6t+SVNH9Nxqfn0tpNecRYAeS9kKTvJWj9f/g4I7NlefSmmkfqLas1n9g+I0wBYteDTqcpOFj5TKI8DBHpPVfenepVOzltOVG7xiOMAmPdRrrKXMR+vkscCgr1XmqIpTDo572/ZWTHgFQcCkPfZJmUvU97PF+AJgnsPNEVTdDwO0Ys3Go/4xIkArFozTtnNjNUCPFGwr/J6RKcAT6o1bz96UxwKwKo3cpXd5Hy4SoAnCxw5fKstrJMJ4UjN1a3lHnEqAGvfVrazcNl8eRrA3/PDoZZ2nSwIt9ZuKy7xiHMB+Gq0sp9xE+TpAG/p+bO1bUYS5sfBCDdfrnD4jFcA875TNjRlqQwF8Pjrj59uvjSiA3IwdSxSe/dckVecDcC/pis7enuJxAEo3r+z5tLwr7FRcyPaenpXb1AcD8BL05Qd5bwgcQHK7+yqCkdJ+vAW5/2hnQfqfeJ8AFYuVvb03QYB4hPYWnfhYj877wmLXare1djtEQBuMDtb2dPk9QLEyzdw71TNJUMjkQmvHWf2ny8SAO6w9jNlV7PyBIhfeX3dj2FW6fHWXMcGd/1w0i8A3OKbscquxn8vQCKCW3pPDUbCYY0hhCNtlyv7ijwCwDXmfqHs63kBEuMpPVnxY3NHWOMpwq01V/eVBwSAm3y8XNnXP5YIkChf0Z6r1aHwE+bNcEnNaK05s3sg4BUArpI/W9lY7ucCJM7ja2g81NQSjdH0vzCiv9Rc7qoPegWA26x7WdnZswsEGBb/7bqdTR3RmMYDpo5e6ry866dyAeBCq17NVnY25nsBhqtsT93d2v6oYWrcHyBz8fKuxgGvAHClDc8qe/tyrgDD173v2KGaf0e1mekfzvt/uX71cJ9PALjUqo/HKnt7ZaUAI+Hd0lt3KNQfy+gP55eqrpzrKxUA7jX3y43K3rI+yBdgZPzde+quhcJamxm5OP+95nc2lwkAN1u1erqyuanLNwgwYoGezRWHmtsjYZ1JwuFIpGpb70CZRwC4W/6KUcrustfPFyAJ/EUD967VtHSEdYYs1SNtodNdW3tKPALA9QoXT1V2t3HZXAGSwxdsOHq1qbPV3UNnTK0NoyNUu7Nuc6nfIwAywKqJOcr+xhSsEiBZPL6i88d2Ng3+Eo259Zt57FJr7eVTjcyCAzJI/qRNyv6mvDlPgKQKFJ87daa65VLU0KbLHlCLXuq8fujYviIBkEm+H6ecYMZKAZLuZm/l9l9rwv1uibqpY9H+ltOHjt/bHBQAmWXe19OUE2S/IUAqBIt/2r/r18FL/TFtOn2fPdrfX/1b17m9PV4BkHHWvKWcYfE6AVKktHhfxdUfW5y7UL//0Twa2/F7zM83+AVARnojVznD6A8ESB1v0cnzh6/82hIznFhzI1J948DRvoYSAZCpVr+jnOKZQgFSylfW3fdD14nBDufMngmHI+3t108d3nOyJ+gRABlsRY5yinHfCJBy3mD5lt6KXaebW9rsW3VT3xfuaG2uudt173Z5mV8AZLi1k5RzLJ0rQDp4/IGS4jvHrlXXhFraDcOw3cCYWLituXPHj7sq9vYEAz4RAPh8rHKOt14UIG28Pn+w+Gjd2VtVtaG2S9GYYYMDc0YsFg23djadPnHl8Plyv8/rkfsAYO67ykneyBcg3YJbeiu3Xfv5em3zpf5oNGZF1s37KY/293cMVt3aefDYnc09HgGAh704XTnJp2vEEoC3Z/PRim0Hr12uCoX//Z+up+1uebS/v7+19vSFG1cOnNt7skQA4G/ynlOOsnF2vlgH8Jf3nW+s6Lr624nqmn//u/9B2FN2rzza3//vizWXL5w6vn/3vr1HeP4UwBPNeUs5y7dLxGqAr6Th5Nbee4e7rtw4UVVzqT/6u5hhJKXjhmFEf9fff7G66tr2rrpzR/f0DZQF5WkAIP+rqcpZcifOF3sAvMGyhoHN9XuOVlZuO3X38vWWS7GYETN+p+8zE7mAZtwXi8WiTZdvHbx6oPJe79a+zd09Qb/EAQBWL1dOM2mtALa741Za1LDlyO3N9UfvNR7Ytu3UiZ9PXA913Nf+QOQR7Q903Df488+/Xruybdvhe417Nm8e2LKlvCjo90r8ACD/9WnKabInzBO7Ajw+X7CkpKy8vLynobu7+8j5fX/4qbLuwMPuPPjfm+//pIby8vKi0pKg3+fzCAAMx4aXpyqnWfhZoQBO4fH+h/9RPu9/SDIAwLxvspXzjPl4lfwJAADM/WyTcp6spXkCAAD+a9Vro5UTTV6zSgAAwAPzPstSTjTqpVXyAAD8P3t3gVVJlgQANBKfKTd+oSXf210I9AxNYgeHlv3vY3wLI/nevasID2BrMbpp/WP+GwCwuRrd1DvPfwEAtr6Irjq4yn8CAM5noquWn+Q/AAAnB9Fdryb5dwDAo9XorvmdBAAyj76NLns5SQAgf1qOLpv7JAGAq73ottPLrB4APO9Ft725yNoBwGQjuu76ISsHABfL0XXzHxIA6na5Ed23+5AAULPR09novsWPCQA1u/vLl9F9v/8wSACoV7s1HyVYPGoTAKrV322iBM3ZMAGgVu30TZRh8WObAFCp8Wdvowyrm20CQKWeLUYpXm8lANRp9FkTpeidJwDU6enrKMf+UQJAlTa/jHLMPkoAqNH06yjJNx8TACp03kRJeo8TAOoz3Y+y3J8kANRm+OjLKMvMk1ECQGW2lqI035wkANSl/3glStMcDhMAqvLxiyjPwVECQE0Gj7+M8vx+2E8AqMj2V1Gir68SAOrRf9REiRopOgAVaa9eR5FWlo7bBIBKDH94G2WaeTJMAKhDO30THSdFB4DxZ2+jVDM/tAkAVXi2GOV6vZUAUIPRZ02Ua3UzAaAGT19HydanCQDlG+/+FiVrvk8AKN/FV1G2pWcJAKUbXEfhfjsbJgAU7peFKN1XFwkAZbs8jfJdPyQAFO3nuSjfm4sEgJJNTqPjpOgAML5ZjhrMv28TAIo1eRV1+NMkAaBUw+e9qEPv/SgBoEzt5H4l6vDl3mWbAFCk4WEvatH7ZJwAUKL2eD2qsbI/aRMACtQ+6kU9Zg/bLBAAnHwRNdm/ygIBwPVq1KT3Q5YHAP5Yj7osnWRpAGCw20RdmuthFgYAbtei47xRBYC706jP9SCLAgCfzEV9Fn7JkgDA8cuo0cYkywEA453lqNHyJ20WAwC2v4k67V1lKQCgf9hEnXo/DbMQAHD0RdRq6SrLAACDR79HrZpH/SwBALRbC1GvxY9tdh8AtIPPmqhX832/zc4DgPZ2Lmo297TNzgOAh73foma/7T1k5wHA4XLUbW4nAcBNma5b+fYqOw4AzntRu9lH2W0A8MdSsD/NLgOAweZK0Jz1s8MA4OfFIOKr99ldADDZiH/gz5PsLAB4Phv/wNxNmx0FANv38S+82s6uA8AbdFYP+/nfw9/YuxO9Jq/178MrBISWihMmRKlVMqJWnKrojeLIAkdUROD8z+N9/9P+7N1BBSHkeZLrOokvJFm/G4CjkzdmE/8ytRBlBACtSzuJf9n9oxXlAwCdmYn0b0zMdKJsACD/+coaO6utHABQMvl+LfGfavdzAEDJrDxJ/Nmt9QCAcuncrSf+rH6vEwBQKjOzib+avRIAUCZbZ9PfsPPrdgBAiTyaSH/HiUcBAOWxdi7xT1ZXAgDKonntQuKfXDjZCQAoib2b6Z8xvxflAAC96+lruLQdZQAA+VM1fQ21T50oAQDY/Jy+jnPrAQDF15zeTV/H7m/NAICiyw8n07dwcSMHABRbbj3fTd9C5VUrBwAUWj5dS9/G+NUcAFBom08b6Tt4shkAUGj36ul7qN8LACiyy7Pp+7g5EwBQXNtnG2kfOLsVAFBY98fTfjD+IgCgqB7eTvvD7Y0oJgDYOrOT9ofKma0oJAB4MJn2i/MPoogAYP1L2j9WN6N4AKB1sp72j7kXzSgcANi4mA6CyYc5CgYAtp8vpYNg6dV2jkIBgO7HajoYqo+6USQAkFemGulgaNxayVEgANB8PZYOirnH7SgQAPh0Ih0cJz5FcQDA+p30A2h8XouiAIDOtWoaVS6jA+AKOrOXoxgAoPc8/SjOrkcRAEB+UU8/iupv3SgAANibTz+Oqb0AgMHbvpQOg1e9AIBBa1+tpsOgvtwOABisvPEkHQ63NnIAwEC1Hi+lw2HpcSsAYJC6n2rpsKhd7QYADE5eedJIh8aNhRwAMDCdSxfS4VF51Q4AGJjTJxJH4cTpAIBBWXmajgafVwIABqP9x4V0NBj7oxUAMBBXz6ejwvnTAQCDsPA5HR3uLAQAHL+tM5V0dKi83goAOG7540Q6Spz4FABw3FY+p6PF57UAgOO1dWY3HS12h+BDdwBsuDN+uRsAcHzy+tNGOmo0nq7kAIDjklt/zKWjR+X6Vg4AOCb5ZS3RD7VHOQDgmGz6wL1fphYCAI5H89JYoj8qr1oBAMdieSLRLxP3AwCOw+KTRP/cOhUA0H/bj3cSffRrLwCg3/LbWqKfqr91AwD67NR8or/mZwIA+qv3KtFvZ9cDAPqpef9Cot92T7YCAPqnMzOZ6L9JV1oA6KPcW20k+q/xeT0HAPRJ+81Y4jjMXWoHAPRH/nQicTzGr+YoOwDcZGFqLQCgH1rXLySOS+X5VgBAH9yfSByf2skcRw4AFm8ljtONmThqALB+NnG8VlfiaAFA85d64niN3duKIwUAl2cTx23iY44jBAArzxLH7+lGHB0A2P5jLnH8Gq/ex1EBgPbpWmIQqm+bcTQAID+cTwzG5F4njgIA5O0vO4nB2DnXy3EEAKD5ppoYlLG7rTgCAODG2kCNX43DA4CNp4lBmlqMwwKA3qtKYpB2z67H4QBA+2QtMVj1N804FAC4PJ8YtMmXcRgAsHAuMXi3HwYA/Ljte7uJwWtc7wUA/Kj21VqiCOonWwEAPyYvziaK4fyDbgDAj8jrq0uJYmg8XcgBAAeXW68riaKovHqfAwAOLL+tJYqjOt2OAwOAUzcTRTL5MQ4KADaf7SQK5elGHAwAtO6OJYql8nMvDgQA3o4niqY23YwDAICZqUTxXHwZ+wcAKz8liujzw9gvANi+u5so96g7ADTv1xLFVJ1uxX4AQGdmNlFUJz624/sAIK+cayQK68ZGju8BgLz1qpIorp1n3x91B4DOdDVRZBcuteM7AOD0ZKLYJt524psA4OGtRNHdnIlvAYD3ZxuJwruzFl8HAK3XY4niq3xjXwYA2vfHUxlQ+6UVXwEAMzdSOXD+ZY5/BABrd1JZMLUR/wQAth/vpNLg3HoAwN+1fqmm8qDyeDv+AgBy++NEKhOqL5o5/gQA8t58I5UKk5dz/AkAbJ7bSeVC49ZG/CcA2L4+lsqG3S/rAQD/1pyupfKhfmk7AOBfulcnUxkx/qId/wcATk2lcmLyZfwvAFhbbaSSYmox/hsA9D5UUmmxuhIAELF1rZ7Ki93X2wEAZV+IY+x+M0YdAJ292VRujH/sxmgDIC/cXkrlRmP+VI6RBkDvp0oqO3bvLMQoA6B5r57Kj7mzmzG6AOi+GE/DgPrrVowsAF5OpuHA+IsYVQCcupVKDhuwAGyca6Shwa29GEUA9K4vpSHCl7UYPQC0pnfTUOFxL0YNAO231TRcGLvXitECQPfTZBo21F+0c4wQAPKpqUYaOpz4mGOEALB2ZycNHxpTMzE6AOg9n0vDiKXPGzEqANj+o56GE0tnezEaAGj/Np6GFXOj8ngNgEcTaXhRm27F8AMgv7uRhhm1t+0YdgDkxdtpuDH7qR1DDoDN1TTsuHWlE8MMgNx7vJSGHY3PKzmGFwC59cdcGn7snt3MMbQAaF6rplHAhQ+tGFoALJ9Io4Hq3VYMKQCuXkyjgokX7RhGAOS9J2l0cH45xxACYMQeoDP1rhtDB4CVX5fSSOHJYgwbAHrXG2nEsLqRY6gAsH2vmkYOP/VimADQPFlNo4fK9fc5hgYA7Rfn0yiifqmZY0gAkD9NptFEbbodQwPABfRGGlFM/NaNoQDA3q00urj4sh1DAICFc400wrj5IMoPgJUvabRxezFHyQHQ+zCWRhyfHwYAel56fNmMMgOgdW0swdzz9SgvAFrTEwlSmvt5K0oKgNy+P5H+G9Rft3KUEgDdl5Ppf0HtTCvKCIDOy4sJ/mX8ZDNKCIBTNxL82/lHzSgdABZvp/8Ek4/aUTIALH5O8NcR2BylAsDKavoruDXTiRIBYP15JQ0lFB1Az+HpQpQFAFuPL6R/AjvnVnKUAQC59bqa/hlUSlJ0ALZe19I3oOgBQPE179XS18Hc814AUHTN+yfSt0D9Qy8AKLbW8mT6Nqh+WA8A9BxFB0DPGbz6ve0AoKg6lyfTfkDtt1YAUEzdK1Npf2D8RSsHAMWTuw6gHwA1RQcopO6pG410ECh6AFA0nSt6fjCM+x4doHDyzFQ6GJh40Q4ACuXUVDoouPixEwAUyMKddHAw/6kbhQHAwupOgh9wU9GLA2BNz/lRNx+0owgAyCvPdhP8oNnL7Rg8APLKuUqCH3bxcjsHAHpO+YseAwbAmp5zWLMPujFQAKw9qyTwW3eAcltY3U2g6AB6DhZmAOzJMMT/owNgTwYLMwDYk8HCDID352BhBkDPsTADgD0ZLMwAYE8Gv3UH8P4cFB1Az2H+0VYcBwC6e+d2U5/Aid+2ov8A6MzcSv0DE7+1ot8A6F6ZSv0E4y9a0VcA5O6pG6m/oPailaOPAOieutFI/YeiR/8A0LlyHD2H8ZO96BcAWpen0nGA+ode9AcAreXJdDyg+mE9ANBzFB0APUfRAYZT6/5kOk5QX12LowXA1r0T6XhB5dxKjqMDQG69riVQdIBy29LzgaByZ7ETRwSA9cfVNBAwNZPjSACw+XwuDQjcOqqiA+h5JQ0MTL1sBQCHlTd+qqQBgsnlVgBwOHnxcxo0FL0ZABxGZ/F2GjQ4f28rAPhhuftyKg0e1F63cgDwg9ovLzZSIaDo6wHAj2maby8Mxs6uBwA/ojU9kYoC5s6u5DgwALanx1NxwM6dxRwHBEDvj2oqFPg8046DACCvfBhLBQNTL9sBwP7lhS9jqXDg5tV2ALBfnYfnGqmAYHK6mQOAfcnvniylQoLxa9sBwH50P91opIKC6vX3AcD3dV9MNlJhQf3nlQDge7ZPnk9FBo3VjRzfAkDu3aumgoM7V9rxDQCsXK+mwoMnL5sBwNd0Nn5tJCiBm2+bAcA/6+zdWUpQCuenWzkA+Af549OlBCVRu9sKAP6uuXyzkaA06s83c/wZALl57UQjQYlUVh/m+BMA1l/XEpTM7Zl2/BsAnc3HcwlKZ/ZqMwD4l+7iaoIymvytFf8LgPa72wnKqXavlwOA/9J+dCNBWVWur+UAILZ/m0iUmh+7BwC9P8YTlFnl6afIMdoA1p6PJSi3xsW37RhpAHt3KglK78T0+xhdAO1PU0sJhkD9zHqOEQWw9XaykWAoNJ4/7MQoAsi9X6oJhkXj80wnRg9AXntcTzA8GjdGcQcW4NSXSoKhcn56O0YLQPflrZ0EQ6b6YTNGCUDzxWSC4VNfXYzRAdC7V0swjHZvvevGiABY+6meYDg1Jpe3cgAMv9zeu11JMLRq13o5AIZdbn2cXUowxOZeLeQAGHK9kxMJhtvu7zPtABhqax/qCYbd0vxyKwCGV/vU6oU0AuDEdC8AhlXz49ROGglQe7wWAMNp++RkGhUw9vteJwCGT968Pp5GB+zc/NjKATB0r8/PjaWRAuNvtnMADJXWx/ndNGKg/nytEwBDZPuXiTR6oPJ5phkAwyKvPa6mkQTzy9sBMByaM3d20oiC8dfrATAMtpZvpNEF9bMbnQAovfdnzqdRBktPPrUDoNw6D8+OpREHF6dL/X4NIHc+PVlKIw9qvy50AqCs8tb0ZCMBqfL5SjsAyqmz8riWgP9x8W0rAMqoPXOnkv4PUH29ngOgdLbuz6Z/A5Z+OtUOgHLprNyrpT8BppabAVAm3ZmfdhPwFxOvN3MAlEbr7dRSAv6msjoTAGWxeXc8Af9k98bbbgCUQI5Tz8YS8BW1u+tRfACt5Zu7CfiqyupijmIDyOuva+lbgKWbp7dyFBhAd3G1koDvqL5ZyVFUAHn76uxSAr5r96dTOQoKwJgM7NfSjeX3UUQA7curYwnYp9qlhSgegPcv5pcSsG9jd951omAAFq6Pp4MAGrMnt6NIANqXn86lAwJqPy90chQDQM7b186ngwPmpi63chQCQHvtp2oCfkSjdq+XowAAtk7P7ybgB42t7jVj0ADyypnxBBzC/NteDBZA6/KzuQQcSu36Ro4BAnj/y80EHNbS7autGBSA7uKv1XQEgMkz6zkGASC3Ht1KRwOoP9vLOY4fwOb1E410RICl2emtHMcLIHc+Pa2kIwRUn2904zgBdHrT5xvpSAGNG6dbOY4NQPtKPy6lArW7G+04HgC59/Zm6gvg9qfj+ScdoLP46kLqE+D8m4UcfQewvfx0KfUNUDn3MvoNYPFxLfUT0Ji81ot+AmhdfTqX+gyors7k6BOAHJsfJhqp74Cdyele9AVAbr18OpaOBVD/stjOcdQAcmf9j1ojHRNg9+LbXo4jBrB15fcL6RgB9Z8Xm3GUAPLmNVOvxw0a8/d7cXQAti6vzqVjB9R+PtWOIwKw+WYyDQLQmHrxPo4CQOvTaj0NCDB+dq8bAIeVV85cTIMD7MxPb+cAOIzcOf20ngYKqJ3zTTpwKJ2VSycaacCApcnp7U4A/Jjc/PSkkgoAuLB6pRUAP6K99nq8kYoBOHFtpRsHBZC3rz5JxQFUzn1q5TgQgM7ipVoqFOD8mYc5DgCg9+LWUioYYPfzo/cBsF/tmV/rqYCA8Z8XA2B/Nq/N76ZCAuamTr4PgO9rPnhWTYUF1FYX2zm+BSB3eq9P7KQCA3Yn3/S6OQC+Km99nKqnggPGfn+wFQBf09y4Xmuk4gNqrzfaAfCPei9uLiWgFJZuLfcC4O+23v1UT0BpVH9914o/A+gsnJlMQKnM3lvJ8R8AWvc/7yagZMY+PzLv/m9Anvl5PAHl0zhxdi9yAETk2Lw3v5OAUtq5Of2+EwC59en2WAJK/Sg9x2gDcnvjVW0nASW2NH5pxB+lA531Fz5th/Jbunl/sxOjCsjvHzyrJGAI7Hx5uR2jCWgvXqolYEhMXNrrxAgCNk9O7SZgaOzemF6JUQNsP1qtJmCoVD8vb8UoAdpXfp5IwNCZ+HWmHSMCyHnz3s3dBAyhyuTr9XaMAqDTevukmoAhVZ+6v9UJYOg1Z1ZrCRhi9dUrWwEMt+ba64mlBAy38bsPmwEMr+7K/RtpBADzJxe6AQyn/P70uUoaCcDu7297OYAh1H5wvZpGBlB9/rIdwNBZfD3ZSCMEaJx/vBjAcNmcvnUhASPmwo3XK5EDGA45tt7eriZgBNVv3d/u5ADKL+eWl+cwwqrnXm7lAEqv9fD6xG4CRtZS7dVeK4Bya65NX6wkYLRNvHnYCqC82pvLUzsJGHmN2emFZgDl1Fk/faeSAP5L5emLzU4A5ZO3Pp6tJYD/U1+938sBlEznwavzCeA/1L58bAVQJnnv0sWlBPAnOyd+mukGUBI51u7OzyWAv6lMXl9s5yg+IHfWp2+MpX8EMHf+3mYzR7EBuf3+0a16AviqudnplXYUGZB7pz/XGwngWyrzy0VOOvD+3epYI30PwIXf3xY16cD7B69qCWBf6neW30fxAM3LryYSwL5NnH20naNIgNx+d+lmAjiQE18ebUVxAN2ZxzcbCeCAGhPPTm9FjiIAuqeuz+6mHwCwNHH2SjPHoAG5u3JmtpJ+EEBl4te9rRyDBOTm5pvZsQRwCLvj1/cG+fM4oLUyPXshARzSzvjjK9sxGEBr4ZeblQRwFCY+vNsO4Pi1Hv5yYykBHJXzHy5vBXC82ovTUzsJ4ChNPn7QDOD4dBbfPNlNAEft4s8P2gEck4dnblVSHwAsTa6amoFj0T11aepC6hOAnfFzL7c6OfoIyM3F65NzqY8AdmrnHmx3c/QHkDuth4/Pz6U+A9ipr35cb0c/APn9zKUTlQRwDBoXbi+vtAM4cu/f/VpdSgDH5cLv9zdaARyl7vqnV7UEcKwuPJlebAdwVDqby19qCeDY7T55M9POARyBvHFytZYGAqAy//hdK4BDW7h2u5oGBmD34pdPrcjx44DOw0tT9TRQALsT5x697+T4QeDZ+d51586LANip3b7fa+YADqy7/e75+FwqBICl+vxvK1sBHExz/eWz6m4qDoDdyTd72wHsX2tt+cmFRioYgIkPl9c7AexL69T01FwqIoCJ58trnfgeIPce3J1dSkUFUL3zy2IA37b59vlkIxUZwNjU45l2AF+19su5WiMVHUDl4tmrW5ED+Lv23qUb1QRQCrvjt0+u/2XmHcjd1qezk2MJoDQa1Zt3N7a6AfxLbq4v3x6vJIByqUw8v9xrB/Dfutsb1+brjQRQPo36nUcLzQC665d/PrGUAMqqMjU9s54DRlpz4+2zagIotcbkr6etzTDK3l9+82Q3AZRf7c61xVbAKMqb959PLiWA4VCf+vn0dsCoaZ8687mWAIZI4/+zd5cLybMBHMbv0eoD8qgMKWsbYYEdNynKhlLimMD5n8fb3a9JXL8D4CPL/zXfyVLRNCUwL0zZ3a0XXAIAZo27cB+yM6YEZp+ZNpp7Vc9QzCIAULyDi55uytkGmFr2qu6f4dE5AOTjidPl7CxXYYG0sxOsRUcCAGbbUL0pNW0JzCatd1X2KzEBAHNgeHi+1TMkMHOc3OZJVADA/PBUgmNNArPEaJbKhZEAgPkyCpRLRVPOCMB5OmdzDmBOeQfnHU0C08/cCS4QhAMwx+KJSrCXlsBUc+72D9WYAIB5FlPX7u9shmyYUmZG2zk/9sYFAGBdrbaatiGBaZPRrfCNzyV+AACIrXsq4aKdlpgq9OBCpwnXUPwKAJDPF862inRhMSXMTDYXrLny4k8AAPHjpY6VlhMPcHIXdZ8AAPwdz8qXkCMnGaA3L/cDigAA/JPhWn1zWZeTCUj3Shs1twAA/Dv34eJF05QTB8j2zw48AgDwX3kCqX5XThJAXz4fREYCAPB/jLyB/SvHSJvyswGmmdFzreNIVAAA/j9FPXwcO5opPxVg2MWLZ280JgAAL6SotS+5LMf0zwPDaVyueF7ZjwEAxIbug+CyZUjg46WzzVLKN8wLAMBbUCvBTi8jgQ+VzV3eJwQA4C15n5euPi4jBzjj28XkUAAA3lo+8vx1t5iRwHszneXN+qFLAADeR8w7eNy1TAm8Izt0Xjl0CwDAexr6avcXRQm8Dyd0fpBwCQDA+xuphfplUcuYpsSbgZkx7M7jEfWYDwQAiup7vig6Wlq+CcCwu3f7BU9cfCwAwNClDoJjS0/LVwKMbiOcSkQV8UkAgOhM7bzT6JoSeClT743bC55RXnwmAMD6Ubk0zpoSeAGnebV3oopJAAAYFVLBqx1N/h9AOrt88XjsFpMDAJD3HWy0r3VTAv+JWezvrRyui4kDAPAcLexdZeW/Aezc7eJxRBETCgAQ9R/vlxqG/DuA2b16WE2qeTHRAACKZ+2g1dGNjCl/CzDThrZzmUr6XGIaAABiUc/aYqlh62lT/gAwNdvaOq/5VEVMEQCA4lIHra1iV5NAxraamyuJ6HpMTB0AQGy4XljZzDWcjJxfMDXruv9QdVGOmW4AEK2VL5cbDNrmkmlYubulincmjuUAgHxk9bTdKWpyrsDJ9fdWki4xQwAASmL1rL1N9n1eaNfhvXrVkxczBwAQUw9vNi7GtpxtyOyEzxeqPkXMLADA0JMc7AeXbTmbkLb6X28CvriYeQCAkeoPpG5zumaYclbAzBhaMbwxKHijMTEvAACK25tYCeYcWzPltINp6HajdHYcUeNi7gAARq6o//nLcjFrZ+S0gqk5VrNdrqkuJSbmFQAgP1qPVB7610XqM1PI1K2dzmbqyDUaxgQAAHnP8cbF1rWlyWmBtLOzHW49F9bFbwEAoAZWztudHduUEw5GcTu8tH8ciYm/AgDAeuIg1boMWabEhHKa/eDGDd8z/w8AgKn6Sb0VztkSk0VrXG2WK9WISwAA8N+4fMnj1F64aUpMhN7WZnkQ8KtDAQDA/zN0exPV1NKdpWlG2pT4BOmMoXW3bzeOCxF1XQAA8FJKVPUdLrS2eo5NWe5DmZpud0Pt05OIxx2PCQAAXm0Uj6prC0vhaytrGxLvLaM7VmN7c//AF3UpeQEAwBvKjxQleXN2EbouZu20xHswM3avmeu37gOqQi0GAPCeFN/x/dfdTq7oGBJvSLeut/ubpyeFqAAA4IN4kqv7rcuncY8QzauZWjYXCm8+rFT9eQEAwIeL+wI3i+ebu+OGLvESRrb5dNkqL1QLbgEAwGeKRb2B44X9vdJVUZf4r9LW+G7pYWW16vcMBQAAkyLq9R8dLzwGwzkrLfEPMs3ORas+qCb9bkUAADCB8uuq1184Wti4vWs6GkGan5npjGFoei9Uau0fBBIRNToSAABMumHcrXojtefTL1e5btfRdSMztzM0Tbcdpxi62Eut+n0eNboeEwAATJPYUHFF3e7Dwf5D6alRtLKOrplyPpiGZnezveI4HNxYqEXcbldcGQoAAKZXLDYcKoriPXq+X7rdGl/vFC1HT8/sAs3OWo1mbnk3uFEfFNyKMhrmY2LGAAAw8iUPFk73Lu8627lGr2unZ+SC3M42muPQUz94fl+pkoYBAMyLmBo5PHnefwzelu62crledhoDNeludie3/XR3sdl6XDw5XvMqAsDcApix+4+qlZXFh/Ngu7QVyvUsR04yM2sVQ6Gni/bew0Z94aCa9HEcBwDgN1yqdy15dHBSSaVOl5Yu755CjYZlyM9nOo1G7umuH1xqlVP11ZNBMulXVUUAAIB/pLijXr+/EAhUD05O6mdnD19Kl5fL19fXRfkR7J3r61z/8rLdOjvdWD05qQUCSb8/okZdMQEAAF4kH3e5VI/H408kEoXAdyqp75xuBoPBzcvtH1zb+i+0f6f/zFre/t7W7fe/tVROpRbrtUAgcJj4jtfj8UTjrrgAMAW+3RAEo2AUjIIIRiBgYgYBMVYwYGOHAWljToKAA65aFKKdRQxklrgUyNyhGCCjYBSMAgBOXDch+Ei7dgAAAABJRU5ErkJggg==;" vertex="1" parent="1">
                    <mxGeometry x="130" y="210" width="40" height="40" as="geometry"/>
                </mxCell>
                <mxCell id="49" value="&lt;b&gt;&lt;i&gt;DuckDB&lt;/i&gt;&lt;/b&gt;" style="text;html=1;align=center;verticalAlign=middle;whiteSpace=wrap;rounded=0;" vertex="1" parent="1">
                    <mxGeometry x="170" y="215" width="110" height="30" as="geometry"/>
                </mxCell>
                <mxCell id="50" style="edgeStyle=none;html=1;entryX=1;entryY=0.5;entryDx=0;entryDy=0;exitX=0.004;exitY=0.842;exitDx=0;exitDy=0;exitPerimeter=0;" edge="1" parent="1" source="28" target="48">
                    <mxGeometry relative="1" as="geometry"/>
                </mxCell>
                <mxCell id="51" value="" style="rounded=1;whiteSpace=wrap;html=1;align=center;fontStyle=0;fillColor=#d5e8d4;strokeColor=#82b366;" vertex="1" parent="1">
                    <mxGeometry x="120" y="300" width="170" height="50" as="geometry"/>
                </mxCell>
                <mxCell id="55" value="&lt;font size=&quot;1&quot;&gt;&lt;span&gt;&lt;i&gt;*Arquivo Comprimido&lt;/i&gt;&lt;/span&gt;&lt;/font&gt;" style="text;html=1;align=center;verticalAlign=middle;whiteSpace=wrap;rounded=0;fontStyle=0" vertex="1" parent="1">
                    <mxGeometry x="170" y="240" width="120" height="20" as="geometry"/>
                </mxCell>
                <mxCell id="57" value="" style="image;aspect=fixed;html=1;points=[];align=center;fontSize=12;image=img/lib/azure2/general/Dashboard2.svg;" vertex="1" parent="1">
                    <mxGeometry x="128.75" y="310" width="42.5" height="30" as="geometry"/>
                </mxCell>
                <mxCell id="58" value="&lt;span style=&quot;color: rgb(0, 0, 0);&quot;&gt;&lt;b&gt;&lt;i&gt;Processamento e Analise de Dados&lt;/i&gt;&lt;/b&gt;&lt;/span&gt;" style="text;html=1;align=center;verticalAlign=middle;whiteSpace=wrap;rounded=0;" vertex="1" parent="1">
                    <mxGeometry x="175.25" y="310" width="110" height="30" as="geometry"/>
                </mxCell>
            </root>
        </mxGraphModel>
    </diagram>
</mxfile>